<svg xmlns="http://www.w3.org/2000/svg" width="16.871" height="16.871" viewBox="0 0 16.871 16.871"><defs><style>.a{fill:#aaa;stroke:#aaa;stroke-width:0.5px;}</style></defs><g transform="translate(0.25 0.25)"><path class="a" d="M16.371,8.185a8.185,8.185,0,1,0-8.185,8.185A8.181,8.181,0,0,0,16.371,8.185ZM8.185.959a7.227,7.227,0,0,1,5.989,11.271,8.182,8.182,0,0,0-11.977,0A7.227,7.227,0,0,1,8.185.959ZM2.8,13a7.224,7.224,0,0,1,10.781,0A7.219,7.219,0,0,1,2.8,13Zm0,0"/><path class="a" d="M168.878,67.715a2.881,2.881,0,0,0,2.878-2.878v-.959a2.878,2.878,0,1,0-5.755,0v.959A2.881,2.881,0,0,0,168.878,67.715Zm-1.918-3.837a1.918,1.918,0,1,1,3.837,0v.959a1.918,1.918,0,0,1-3.837,0Zm0,0" transform="translate(-160.692 -59.05)"/></g></svg>