<svg id="medal-of-honor" xmlns="http://www.w3.org/2000/svg" width="33.387" height="37.82" viewBox="0 0 33.387 37.82">
  <path id="Path_9895" data-name="Path 9895" d="M327.287,0h7.756V6.122l-11.721,4.367Z" transform="translate(-301.656)" fill="#bfebff"/>
  <path id="Path_9896" data-name="Path 9896" d="M200.437,0l-4.432,11.228h13.37V0Z" transform="translate(-183.743)" fill="#cb2e81"/>
  <path id="Path_9897" data-name="Path 9897" d="M37.761,0H30.005V6.122l11.721,4.367Z" transform="translate(-30.005)" fill="#dff5ff"/>
  <path id="Path_9898" data-name="Path 9898" d="M135.005,0h8.938V11.228h-8.938Z" transform="translate(-127.249)" fill="#ff3187"/>
  <path id="Path_9899" data-name="Path 9899" d="M179.6,206.381l-6.094-12.188,6.094-12.188a12.188,12.188,0,1,1,0,24.376Z" transform="translate(-162.905 -168.561)" fill="#ff9259"/>
  <path id="Path_9900" data-name="Path 9900" d="M91,194.193a12.188,12.188,0,0,1,12.188-12.188v24.376A12.188,12.188,0,0,1,91,194.193Z" transform="translate(-86.499 -168.561)" fill="#ffb24a"/>
  <path id="Path_9901" data-name="Path 9901" d="M227.9,122H218.96l-2.955,2.216,2.955,2.216H227.9a2.216,2.216,0,1,0,0-4.432Z" transform="translate(-202.266 -112.988)" fill="#ffb24a"/>
  <path id="Path_9902" data-name="Path 9902" d="M107.221,122a2.216,2.216,0,0,0,0,4.432h8.938V122Z" transform="translate(-99.465 -112.988)" fill="#ffd23b"/>
  <path id="Path_9903" data-name="Path 9903" d="M240.847,221.668l1.947-8.166-7.164,4.376-1.625,3.79,1.625,13.884,3.224-7.751,8.368-.671Z" transform="translate(-218.936 -197.731)" fill="#ffb24a"/>
  <path id="Path_9904" data-name="Path 9904" d="M103.5,213.5l1.947,8.166-6.375,5.462,8.368.671,3.224,7.751V217.878Z" transform="translate(-93.97 -197.731)" fill="#ffd23b"/>
</svg>
