<svg id="Component_8_1" data-name="Component 8 – 1" xmlns="http://www.w3.org/2000/svg" xmlns:xlink="http://www.w3.org/1999/xlink" width="480" height="541" viewBox="0 0 480 541">
  <defs>
    <clipPath id="clip-path">
      <rect id="Rectangle_1569" data-name="Rectangle 1569" width="480" height="541" transform="translate(5145.815 1191.763)" fill="#fff" stroke="#707070" stroke-width="1"/>
    </clipPath>
    <linearGradient id="linear-gradient" x1="0.5" y1="1" x2="0.5" gradientUnits="objectBoundingBox">
      <stop offset="0.006" stop-color="#bae1f6"/>
      <stop offset="0.104" stop-color="#b3dbf5"/>
      <stop offset="0.243" stop-color="#a0cef3"/>
      <stop offset="0.407" stop-color="#82b7f0"/>
      <stop offset="0.549" stop-color="#629fee"/>
      <stop offset="0.731" stop-color="#4c7cec"/>
      <stop offset="0.989" stop-color="#2a45e9"/>
    </linearGradient>
    <linearGradient id="linear-gradient-2" x1="0.5" y1="1" x2="0.5" gradientUnits="objectBoundingBox">
      <stop offset="0" stop-color="#cdd9ff"/>
      <stop offset="1" stop-color="#f6f9ff"/>
    </linearGradient>
    <linearGradient id="linear-gradient-5" x1="0.5" y1="1" x2="0.5" gradientUnits="objectBoundingBox">
      <stop offset="0" stop-color="#cddaf1"/>
      <stop offset="1" stop-color="#fff"/>
    </linearGradient>
  </defs>
  <g id="Mask_Group_41" data-name="Mask Group 41" transform="translate(-5145.815 -1191.763)" clip-path="url(#clip-path)">
    <g id="Group_7748" data-name="Group 7748" transform="translate(5115.225 1137.977)">
      <g id="Group_7747" data-name="Group 7747" transform="translate(0)">
        <path id="Path_7373" data-name="Path 7373" d="M0,0H486.777V1130.432L0,1052.907Z" transform="translate(28.727)" fill="url(#linear-gradient)"/>
        <path id="Path_7374" data-name="Path 7374" d="M140.942,0S258.712,101.066,349.2,157.033,548.81,273.541,548.81,273.541,372.374,136.77,323.352,43.057L478.389,155.766S414.192,82.315,358.087,0Z" transform="translate(-140.942 41.104)" fill-rule="evenodd" opacity="0.2" fill="url(#linear-gradient-2)" style="mix-blend-mode: soft-light;isolation: isolate"/>
        <path id="Path_7375" data-name="Path 7375" d="M609.667,0s65.979,59.943,132.655,68.385c0,0-69.581-38.835-100.886-68.385Z" transform="translate(-147.116 41.104)" fill-rule="evenodd" opacity="0.2" fill="url(#linear-gradient-2)" style="mix-blend-mode: soft-light;isolation: isolate"/>
        <path id="Path_7376" data-name="Path 7376" d="M-54,68.01S317.1,342.171,468.482,306.767V516.805L250.436,519.68l-9.151,109.679L-2.383,596.549l118.7-72.494-164.757-184.9Z" transform="translate(54 145.349)" fill-rule="evenodd" opacity="0.2" fill="url(#linear-gradient-2)" style="mix-blend-mode: soft-light;isolation: isolate"/>
        <path id="Path_7377" data-name="Path 7377" d="M768.535,197.057c-.219-5.681-.389-11.4-.505-17.187C768.31,185.442,768.487,191.2,768.535,197.057Z" transform="translate(-271.979 470.942)" fill-rule="evenodd" opacity="0.79" fill="url(#linear-gradient-5)" style="mix-blend-mode: multiply;isolation: isolate"/>
      </g>
    </g>
    <g id="Group_7794" data-name="Group 7794" transform="translate(5205.193 1435.336)">
      <path id="Path_7452" data-name="Path 7452" d="M195.92,1073.2s29.21-25.634,52.745-15.862,29.607,1.514,41.8-11.625,18.353-16.439,33.038-20.566c19.36-5.443,28.326,4.151,32.553,7.7s4.473,24.608,12.635,7.7,15.415-30.37,27.844-26.272c7.446,2.456,33.624,15.7,46.514-2.41,5.719-8.034,16.212-19.318,28.894-17.656s17.252,5.744,24.57,9.622,17.655-.277,24.12-3.878c8.947-4.983,23.54-12.324,32.575-3.878,13.48,12.6,13.731,18.7,35.85,8.127,8.282-3.958,20.834-5.358,34.349,4.986,19.581,14.985,27.155,34.475,54.626,24.53,42.658-15.442,39.361,24.883,59.57,23.946,5.967-.277,9.3-1.281,23.725,3.151s20.417,15.017,21.15,13.6S195.92,1073.2,195.92,1073.2" transform="translate(-195.92 -769.619)" fill="#a8dbf6" fill-rule="evenodd"/>
      <path id="Path_7453" data-name="Path 7453" d="M413.074,1049.641s10.594-6.276,8.483-17.661c-2.109-11.162-12.23-6.864-10.776-14.485s8.523-19.489,1.65-28.127-18.3-3.46-19.735-16.854c-1.156-10.794-5.974-18.439-15.311-16.2-8.643,2.076-15.087,9-15.248,25.475-.174,17.539-12.107,12.612-12.255,25.533-.149,13.013,9.866,13.013,13.778,21.744,1.847,4.124-2.97,18.617,11.27,20.571Z" transform="translate(-289.33 -748.102)" fill="#21ac58"/>
      <path id="Path_7454" data-name="Path 7454" d="M420.438,972.916s-.033.295-.082.87c-.151,1.726-.455,5.935-.455,11.8,0,17.155,2.611,48.491,19.11,73.5a.764.764,0,0,1-.19,1.042.71.71,0,0,1-1.005-.2c-16.764-25.448-19.355-57.042-19.359-74.348,0-7.891.543-12.814.546-12.839a.728.728,0,0,1,.8-.658.744.744,0,0,1,.636.829" transform="translate(-330.935 -757.681)" fill="#008c3f"/>
      <path id="Path_7455" data-name="Path 7455" d="M370.723,1097.621s2.083-11.913-5.729-16.763-15.788-8.625-14.922-16.439-1.264-17.038-13.781-17.212c-7.737-.1-4.832-8.548-12.693-10.231-4.779-1.023-7.93,4.139-8.54,9.209-.7,5.774,2.462,11.45-1.16,16.152-4.7,6.092-6.609,17.455,3.493,20.687s1.1,13.133,14.856,14.6Z" transform="translate(-265.18 -796.082)" fill="#a9ca5b" fill-rule="evenodd"/>
      <path id="Path_7456" data-name="Path 7456" d="M343.558,1050.021c.263,7.589,3.516,18.391,9.081,28.7s13.428,20.143,22.824,25.937a.761.761,0,0,1,.252,1.025.709.709,0,0,1-.991.258c-9.706-5.991-17.693-16.013-23.346-26.49s-8.974-21.416-9.264-29.37a.723.723,0,1,1,1.445-.057" transform="translate(-284.617 -803.468)" fill="#009844"/>
      <path id="Path_7457" data-name="Path 7457" d="M929.562,911.126H892.324a3.49,3.49,0,0,1-3.418-3.092h42.847a2.366,2.366,0,0,1-2.191,3.092" transform="translate(-616.361 -719.705)" fill="#000446"/>
      <path id="Path_7458" data-name="Path 7458" d="M571.77,1113.063H695.88c7.405,0,13.464,6.7,13.464,14.883h0c0,8.186-6.059,14.884-13.464,14.884H571.77c-7.405,0-13.464-6.7-13.464-14.884h0c0-8.186,6.058-14.883,13.464-14.883" transform="translate(-415.783 -841.275)" fill="#9d1f39" fill-rule="evenodd"/>
      <path id="Path_7459" data-name="Path 7459" d="M885.962,1144.9h145.613c-4.187-5.328-5.82-12.9,0-20.7H885.961c-3.38,0-6.152,4.664-6.152,10.348s2.771,10.348,6.153,10.348" transform="translate(-610.842 -847.881)" fill="#edeeee" fill-rule="evenodd"/>
      <path id="Path_7460" data-name="Path 7460" d="M1027.8,1134.952a17.172,17.172,0,0,1,3.772-10.747H885.961c-3.38,0-6.152,4.664-6.152,10.347,0,.134,0,.267,0,.4Z" transform="translate(-610.842 -847.881)" fill="#e0e0df" fill-rule="evenodd"/>
      <path id="Path_7461" data-name="Path 7461" d="M1028.252,1142.828H879.145c-4.867,0-10.014-6.786-10.013-14.973s5.146-14.795,10.013-14.795h149.107l-.047,4.46-148.722.077c-3.38,0-6.151,4.664-6.151,10.348s2.771,10.348,6.151,10.348l148.722-.077Z" transform="translate(-604.364 -841.273)" fill="#bb3048" fill-rule="evenodd"/>
      <path id="Path_7462" data-name="Path 7462" d="M911.884,1150.27h11.557c4.434,1.843,3.153,9.15,5.785,13.936l-6.827-3.951-4.952,3.7c-3.839-4.34-1.642-11.744-5.563-13.685" transform="translate(-630.302 -863.336)" fill="#f2de00" fill-rule="evenodd"/>
      <path id="Path_7463" data-name="Path 7463" d="M972.251,996.3H798.326c-11.824,0-21.5,10.695-21.5,23.764h0c0,13.069,9.674,23.764,21.5,23.764H972.251c11.823,0,21.5-10.694,21.5-23.764h0c0-13.071-9.675-23.764-21.5-23.764" transform="translate(-548.363 -772.042)" fill="#15378b" fill-rule="evenodd"/>
      <path id="Path_7464" data-name="Path 7464" d="M617,1047.139H464.857c6.685-8.508,9.293-20.6,0-33.043H617c5.4,0,9.822,7.446,9.822,16.521s-4.425,16.523-9.824,16.523" transform="translate(-359.087 -782.593)" fill="#edeeee" fill-rule="evenodd"/>
      <path id="Path_7465" data-name="Path 7465" d="M470.71,1027.833a28.785,28.785,0,0,0-5.853-13.737H617c4.832,0,8.886,5.971,9.681,13.737Z" transform="translate(-359.087 -782.593)" fill="#e0e0df" fill-rule="evenodd"/>
      <path id="Path_7466" data-name="Path 7466" d="M452.055,1043.831H609.77c7.771,0,15.988-10.835,15.987-23.906S617.541,996.3,609.77,996.3H452.055l.073,7.119,157.1.123c5.4,0,9.822,7.445,9.822,16.521s-4.424,16.523-9.822,16.523l-157.1-.122Z" transform="translate(-351.32 -772.043)" fill="#3882c8" fill-rule="evenodd"/>
      <path id="Path_7467" data-name="Path 7467" d="M650.464,1113.063h49.677c-7.405,0-13.464,6.7-13.464,14.883h0c0,8.186,6.059,14.884,13.464,14.884H650.464c-7.405,0-13.465-6.7-13.465-14.884h0c0-8.186,6.059-14.883,13.465-14.883" transform="translate(-463.527 -841.275)" fill="#bb3048" fill-rule="evenodd"/>
      <path id="Path_7468" data-name="Path 7468" d="M1188.851,996.3h-19.7c11.822,0,21.5,10.692,21.5,23.763h0a24.828,24.828,0,0,1-7.5,18l-6.482,5.764h12.182c11.822,0,21.5-10.693,21.5-23.764h0c0-13.071-9.675-23.763-21.5-23.763" transform="translate(-786.391 -772.043)" fill="#3882c8" fill-rule="evenodd"/>
      <path id="Path_7469" data-name="Path 7469" d="M947.345,1033.279h76.838a7.6,7.6,0,0,1,0,15.185H947.345a7.6,7.6,0,0,1,0-15.185" transform="translate(-647.367 -793.967)" fill="#3882c8" fill-rule="evenodd"/>
      <path id="Path_7470" data-name="Path 7470" d="M693.776,1046.5h19.1v16.382l-9.088-3.8-10.016,3.8Z" transform="translate(-497.974 -801.807)" fill="#bb3048" fill-rule="evenodd"/>
      <path id="Path_7471" data-name="Path 7471" d="M939.6,905.787H804.768c-9.166,0-16.665,8.291-16.665,18.423h0c0,10.131,7.5,18.422,16.665,18.422H939.6c9.166,0,16.665-8.289,16.665-18.422h0c0-10.133-7.5-18.423-16.665-18.423" transform="translate(-555.203 -718.372)" fill="#9d1f39" fill-rule="evenodd"/>
      <path id="Path_7472" data-name="Path 7472" d="M664.2,945.2H546.259c5.182-6.6,7.2-15.967,0-25.616H664.2c4.183,0,7.614,5.771,7.614,12.807S668.385,945.2,664.2,945.2" transform="translate(-408.474 -726.552)" fill="#edeeee" fill-rule="evenodd"/>
      <path id="Path_7473" data-name="Path 7473" d="M550.74,929.81a22.522,22.522,0,0,0-4.481-10.228H664.2c3.658,0,6.741,4.415,7.457,10.228Z" transform="translate(-408.474 -726.552)" fill="#e0e0df" fill-rule="evenodd"/>
      <path id="Path_7474" data-name="Path 7474" d="M536.335,942.633H658.6c6.023,0,12.395-8.4,12.393-18.533s-6.37-18.311-12.393-18.311H536.335l.056,5.519,121.788.1c4.183,0,7.614,5.771,7.614,12.807s-3.429,12.809-7.614,12.809l-121.788-.1Z" transform="translate(-402.453 -718.373)" fill="#bb3048" fill-rule="evenodd"/>
      <path id="Path_7475" data-name="Path 7475" d="M1107.509,905.789H1092.24c9.164,0,16.665,8.289,16.665,18.421v0a19.244,19.244,0,0,1-5.816,13.953l-4.864,4.469h9.284c9.164,0,16.665-8.289,16.665-18.422v0c0-10.132-7.5-18.421-16.665-18.421" transform="translate(-739.726 -718.373)" fill="#bb3048" fill-rule="evenodd"/>
      <path id="Path_7476" data-name="Path 7476" d="M777.019,944.7h14.81v12.7l-7.046-2.942-7.765,2.942Z" transform="translate(-548.478 -741.447)" fill="#bb3048" fill-rule="evenodd"/>
      <path id="Path_7477" data-name="Path 7477" d="M929.742,905.789H914.474c9.165,0,16.665,8.289,16.665,18.421v0a19.245,19.245,0,0,1-5.816,13.953l-5.878,4.469h10.3c9.166,0,16.666-8.289,16.666-18.422v0c0-10.132-7.5-18.421-16.666-18.421" transform="translate(-631.874 -718.373)" fill="#bb3048" fill-rule="evenodd"/>
      <path id="Path_7478" data-name="Path 7478" d="M251.341,1184.24H766.514a1.7,1.7,0,0,1,1.67,1.728h0a1.7,1.7,0,0,1-1.67,1.728H251.341a1.705,1.705,0,0,1-1.67-1.728h0a1.7,1.7,0,0,1,1.67-1.728" transform="translate(-228.531 -883.478)" fill="#092978" fill-rule="evenodd"/>
      <path id="Path_7479" data-name="Path 7479" d="M1071.433,603.9c8.985,11.626,18.306,27.341,21.691,38.687a3.571,3.571,0,0,0,1.9,2.168l29.341-.811a4.208,4.208,0,0,0,2.547-2.787c2.663-10.971,23.2-45.2,22.933-45.094a49.692,49.692,0,0,0,5.92-24.932c-.7-27.012-22.633-48.318-49-47.589s-47.169,23.217-46.472,50.228a49.544,49.544,0,0,0,7.137,24.468c1.418,1.912,2.439,3.756,4,5.661" transform="translate(-720.334 -491.713)" fill="#fca700" fill-rule="evenodd"/>
      <path id="Path_7480" data-name="Path 7480" d="M1144.771,692.612c-.856-7.421-5.91-7.432-6.423-2.1a8.652,8.652,0,0,0,.47,3.515c.421,1.263,2.788,2.132,6.059,2.636Zm18.705-.518c.474-7.457,5.519-7.748,6.306-2.449a8.653,8.653,0,0,1-.288,3.536c-.355,1.286-2.674,2.284-5.914,2.968Zm-8.544,9-.583.013-.583.019v-.012a51.047,51.047,0,0,1-5.522-.255l.031,1.215.943,36.527-3.258.09-.943-36.528-.046-1.768c-4.669-.875-8.266-2.548-9.106-5.078a12.777,12.777,0,0,1-.662-5.218,9.5,9.5,0,0,1,1.47-4.323,7.691,7.691,0,0,1,2.886-2.637c5.037-1.4,8.65,4.075,8.468,9.325l.118,4.57c1.928.145,4.01.195,6.1.154,2.092-.076,4.169-.24,6.086-.491l-.119-4.569c-.452-5.232,2.873-10.9,7.975-9.78a7.647,7.647,0,0,1,3.017,2.475,9.47,9.47,0,0,1,1.692,4.236,12.8,12.8,0,0,1-.392,5.247c-.708,2.572-4.214,4.442-8.831,5.574l.045,1.769.943,36.527-3.258.09-.943-36.527-.031-1.215a51.094,51.094,0,0,1-5.5.559Z" transform="translate(-765.763 -585.8)" fill="#fff" fill-rule="evenodd"/>
      <path id="Path_7481" data-name="Path 7481" d="M1147.07,820.057l22.942-.634a5.981,5.981,0,0,1,6.028,5.914h0a6.055,6.055,0,0,1-5.714,6.239l-.853.024a.717.717,0,0,0,.035,1.378c1.995-.055,3.071,1.607,3.083,3.671h0a3.742,3.742,0,0,1-3.53,3.854l-1.986.054a.718.718,0,0,0,.035,1.379,4.181,4.181,0,0,1,2.265,3.491h0a3.552,3.552,0,0,1-3.378,3.688l-13.388.37a3.535,3.535,0,0,1-3.563-3.5v0a3.575,3.575,0,0,1,2.909-3.642.73.73,0,0,0-.059-1.369l-2.782.077a3.7,3.7,0,0,1-3.723-3.653h0a3.712,3.712,0,0,1,3.529-3.854.731.731,0,0,0-.036-1.379l-1.5.042a5.983,5.983,0,0,1-6.028-5.915h0a6.009,6.009,0,0,1,5.714-6.239" transform="translate(-769.524 -667.162)" fill="#3882c8" fill-rule="evenodd"/>
      <path id="Path_7482" data-name="Path 7482" d="M1204.471,550.554a4.6,4.6,0,0,0-6.112,2.555,4.889,4.889,0,0,0,2.468,6.326,36.256,36.256,0,0,1,14.818,12.941,40.859,40.859,0,0,1,7.106,19.361,4.72,4.72,0,0,0,5.017,4.439,4.782,4.782,0,0,0,4.289-5.193,50.908,50.908,0,0,0-8.787-24.172,45.71,45.71,0,0,0-18.8-16.258" transform="translate(-803.884 -507.512)" fill="#ffcf74"/>
      <path id="Path_7483" data-name="Path 7483" d="M1098.585,456.428h0a2.833,2.833,0,0,1,.98,3.786l-5.849,10.487a2.637,2.637,0,0,1-3.659,1.014h0a2.835,2.835,0,0,1-.98-3.786l5.85-10.487a2.636,2.636,0,0,1,3.658-1.014m-79.706,0h0a2.636,2.636,0,0,1,3.657,1.014l5.85,10.487a2.833,2.833,0,0,1-.98,3.786h0a2.637,2.637,0,0,1-3.658-1.014l-5.849-10.487A2.833,2.833,0,0,1,1018.879,456.428Zm-29.175,30.2h0a2.636,2.636,0,0,1,3.658-1.014l10.132,6.054a2.834,2.834,0,0,1,.98,3.786h0a2.637,2.637,0,0,1-3.658,1.015l-10.132-6.055A2.833,2.833,0,0,1,989.7,486.625Zm138.056,0h0a2.832,2.832,0,0,1-.98,3.785l-10.132,6.055a2.637,2.637,0,0,1-3.658-1.014h0a2.833,2.833,0,0,1,.981-3.786l10.132-6.054A2.637,2.637,0,0,1,1127.76,486.625Zm10.678,41.249h0a2.734,2.734,0,0,1-2.677,2.772h-11.7a2.734,2.734,0,0,1-2.678-2.772h0a2.735,2.735,0,0,1,2.678-2.773h11.7A2.735,2.735,0,0,1,1138.438,527.873Zm-142.357,0h0a2.734,2.734,0,0,1-2.678,2.772H981.7a2.734,2.734,0,0,1-2.677-2.772h0A2.735,2.735,0,0,1,981.7,525.1h11.7A2.735,2.735,0,0,1,996.081,527.873Zm62.651-82.5h0a2.734,2.734,0,0,1,2.678,2.772v12.109a2.735,2.735,0,0,1-2.678,2.772h0a2.735,2.735,0,0,1-2.678-2.772V448.148A2.734,2.734,0,0,1,1058.732,445.376Z" transform="translate(-671.038 -445.376)" fill="#fca700" fill-rule="evenodd"/>
      <path id="Path_7484" data-name="Path 7484" d="M835.647,748.678h22.166c2.766,0,9.578,5.421,10.775,12.491h0c2.254,11.372,1.251,36.4-6.533,45.325l-8.821-.119L826.2,799.439V752.215a14.428,14.428,0,0,1,9.442-3.537" transform="translate(-578.32 -625.216)" fill="#f29900" fill-rule="evenodd"/>
      <path id="Path_7485" data-name="Path 7485" d="M906.573,748.861c10.945,1.113,11.964,15.346,11.822,24.234H906.578Z" transform="translate(-627.08 -625.324)" fill="#f29900" fill-rule="evenodd"/>
      <path id="Path_7486" data-name="Path 7486" d="M866.092,808.481l10.748-.086c-4.242,12.014-12.353,22.232-23.108,22.232h-15.65s3.327-4.415,7.711-4.782,4.557.257,4.557.257c3.667-2,12.146-8.76,15.742-17.621" transform="translate(-585.526 -660.625)" fill="#f7cccf" fill-rule="evenodd"/>
      <path id="Path_7487" data-name="Path 7487" d="M929.832,1032.313l1.072,7.98,2.755,2.638s2.146-.105,2.4.669a7.393,7.393,0,0,1,0,2.422h-14.1a68.285,68.285,0,0,1-1.627-13.249Z" transform="translate(-635.427 -793.395)" fill="#630"/>
      <path id="Path_7488" data-name="Path 7488" d="M768.312,863.01h46.835a8.1,8.1,0,0,1,1.555.151h0c13.074-.07,14.7,8.691,15.616,18.24l5.276,54.856h-17.75l-5.856-55.834H768.312a8.712,8.712,0,0,1,0-17.413" transform="translate(-538.092 -693.008)" fill="#092978" fill-rule="evenodd"/>
      <path id="Path_7489" data-name="Path 7489" d="M813.81,983.612l6.431,14.9a12.294,12.294,0,0,1-1.5,4.234c-1.078,1.536-1.18,2.661-.506,3.585s.855,1.155.855,1.155l10.926-11.8-5.73-13.86Z" transform="translate(-570.8 -763.461)" fill="#630"/>
      <path id="Path_7490" data-name="Path 7490" d="M773.01,867.38a11.675,11.675,0,0,1,4.647,4.3c3.849,6.05,21.346,46.858,21.346,46.858l-20.113,0L764.24,885.292c-.61-1.383-3.63-7.15-3.909-9.774-.9-8.449,5.881-11.364,12.678-8.137" transform="translate(-538.306 -694.839)" fill="#092978" fill-rule="evenodd"/>
      <path id="Path_7491" data-name="Path 7491" d="M843.209,709.9c-2.317,4.281,1.662,10.249,6.559,9.816l-.007,1.359-2.67,3.939,2.631,4.05,2.739,1.03,6.615-1.762V715.995c.241-.077.251.373.743.062a5.821,5.821,0,0,0,1.383-3.786c-.2-1.182-1.662-1.858-1.662-1.858h0c1.376-3.5,2.465-4.059-1.08-6.006s-10.694-1.8-10.694-1.8l-3.245,1.126c-.141,3.258.3,3.195-1.31,6.163" transform="translate(-588.226 -597.897)" fill="#f7cccf" fill-rule="evenodd"/>
      <path id="Path_7492" data-name="Path 7492" d="M857.961,742.807a5.661,5.661,0,0,0,.718-.018,16.3,16.3,0,0,0,5.933-1.264,6.414,6.414,0,0,1-3.244,3.592,10.4,10.4,0,0,1-4.149,1.173l1.453-2.143.007-1.359Z" transform="translate(-597.137 -620.975)" fill="#dd7577" fill-rule="evenodd"/>
      <path id="Path_7493" data-name="Path 7493" d="M842.482,688.234c2.734.471,4.944.065,6.616.275a4.717,4.717,0,0,1,2.411,1.189c1.568,1.312,2.786,4.552,3.137,6.7,0,0,1.834-.792,2.432-.4s.222,1.339.132,1.733-.937.813-1.208,1.057c-.813.729,1.106,1.038,3.369-.85,6.894-5.757,3.337-16.234-5.184-19.235-4.139-1.458-3.652-3.184-6.5-3.807-10.347-2.087-13.3,10.691-5.2,13.339" transform="translate(-585.374 -581.331)" fill="#363653" fill-rule="evenodd"/>
      <path id="Path_7494" data-name="Path 7494" d="M808.808,756.885c-6.022,5.557-9.52,13.234-11.661,21.287,3.945-.268,8.071-.249,11.981-.379Z" transform="translate(-560.69 -630.082)" fill="#f29900" fill-rule="evenodd"/>
      <path id="Path_7495" data-name="Path 7495" d="M858.119,763.88a.751.751,0,1,1-.725.751.738.738,0,0,1,.725-.751m0-4.353a.751.751,0,1,1-.725.751A.739.739,0,0,1,858.119,759.527Zm-2.8-11.569c-2.512,4.443.228,7.6,2.7,9.024,3.483-2.34,6.615-4.621,6.615-9.024,0,0,1.2-.022,1.982,1.952,1.286,3.2-.87,10.377-.87,10.377s-2.42-3.24-4.432-3.415a6.872,6.872,0,0,0-3.317.455c-2.573-1.955-4.327.579-6.049,2.434-.543-4.735-.473-8.138,2.95-11.8Z" transform="translate(-593.786 -624.789)" fill="#fff" fill-rule="evenodd"/>
      <path id="Path_7496" data-name="Path 7496" d="M798.358,794.489H764.465c-1.307,0-2.665,1.14-2.377,2.459l5.065,23.186c.288,1.319,1.07,2.459,2.377,2.459h33.893c1.307,0,2.665-1.14,2.376-2.459l-5.065-23.186c-.288-1.319-1.069-2.459-2.376-2.459" transform="translate(-539.396 -652.379)" fill="#a3c5e8" fill-rule="evenodd"/>
      <path id="Path_7497" data-name="Path 7497" d="M794.5,794.489H760.6c-1.307,0-2.665,1.14-2.376,2.459l5.065,23.186c.288,1.319,1.069,2.459,2.377,2.459H799.56c1.307,0,2.664-1.14,2.376-2.459l-5.065-23.186c-.288-1.319-1.069-2.459-2.376-2.459" transform="translate(-537.053 -652.379)" fill="#e8f5fc" fill-rule="evenodd"/>
      <path id="Path_7498" data-name="Path 7498" d="M810.074,823.232a2.273,2.273,0,0,0-1.139,2.92,2.166,2.166,0,0,0,2.57,1.686,2.273,2.273,0,0,0,1.139-2.92,2.166,2.166,0,0,0-2.569-1.687" transform="translate(-567.761 -669.373)" fill="#a3c5e8" fill-rule="evenodd"/>
      <path id="Path_7499" data-name="Path 7499" d="M887.629,857.887H870.418v2.3h18.32v-1.149a1.133,1.133,0,0,0-1.109-1.148" transform="translate(-605.145 -689.97)" fill="#a3c5e8" fill-rule="evenodd"/>
      <path id="Path_7500" data-name="Path 7500" d="M1332.018,1038.71H1311.21c-2.6,0-8.991,5.089-10.114,11.725h0c-2.115,10.674-1.174,34.169,6.133,42.547l8.282-.112,25.372-6.511v-44.33a13.546,13.546,0,0,0-8.864-3.32" transform="translate(-865.841 -797.188)" fill="#986633" fill-rule="evenodd"/>
      <path id="Path_7501" data-name="Path 7501" d="M1311.2,1038.882c-10.274,1.045-11.231,14.406-11.1,22.748H1311.2Z" transform="translate(-865.834 -797.29)" fill="#986633" fill-rule="evenodd"/>
      <path id="Path_7502" data-name="Path 7502" d="M1308.882,1094.837l-8.76-.07a9.051,9.051,0,0,0,4.151,7.207c10.542,7.4,17.143,11.361,19.976,11.182,2.509-.156,1.783-3.186,2.037-3.871.679-1.834-5.223-2.032-17.4-14.448" transform="translate(-865.85 -830.426)" fill="#f4b1b1" fill-rule="evenodd"/>
      <path id="Path_7503" data-name="Path 7503" d="M1283.573,1304.963l-1.005,7.49-2.586,2.476s-2.015-.1-2.25.627a6.948,6.948,0,0,0,0,2.274h13.234a64.193,64.193,0,0,0,1.528-12.437Z" transform="translate(-852.201 -955.06)" fill="#231916" fill-rule="evenodd"/>
      <path id="Path_7504" data-name="Path 7504" d="M1349.932,1146.034h-43.965a7.519,7.519,0,0,0-1.46.142h0c-12.273,0-14.282,8.122-14.659,17.12l-2.154,51.5H1299.6l7.455-52.412h42.879a8.178,8.178,0,0,0,0-16.346" transform="translate(-858.308 -860.824)" fill="#092978" fill-rule="evenodd"/>
      <path id="Path_7505" data-name="Path 7505" d="M1391.951,1259.245l-6.036,13.989a11.527,11.527,0,0,0,1.409,3.974c1.012,1.443,1.108,2.5.475,3.366s-.8,1.085-.8,1.085l-10.256-11.076,5.379-13.011Z" transform="translate(-912.335 -926.96)" fill="#231916" fill-rule="evenodd"/>
      <path id="Path_7506" data-name="Path 7506" d="M1401.272,1150.138a10.958,10.958,0,0,0-4.362,4.041c-3.612,5.679-17.659,43.985-17.659,43.985l14.124,0,16.13-31.21c.572-1.3,3.407-6.713,3.669-9.175.843-7.931-5.52-10.668-11.9-7.639" transform="translate(-913.858 -862.544)" fill="#092978" fill-rule="evenodd"/>
      <path id="Path_7507" data-name="Path 7507" d="M1360.751,1002.3c2.175,4.019-1.561,9.622-6.157,9.215l.006,1.275,2.507,3.7-2.469,3.8-2.571.968-6.209-1.655v-11.576c-.227-.073-.235.349-.7.058a5.463,5.463,0,0,1-1.3-3.553c.186-1.111,1.56-1.745,1.56-1.745h0c-1.291-3.289-2.313-3.81,1.015-5.638s10.039-1.691,10.039-1.691l3.045,1.057c.132,3.059-.278,3,1.23,5.786" transform="translate(-892.374 -771.542)" fill="#f4b1b1" fill-rule="evenodd"/>
      <path id="Path_7508" data-name="Path 7508" d="M1363.267,1033.2a5.174,5.174,0,0,1-.674-.017,15.3,15.3,0,0,1-5.569-1.186,6.023,6.023,0,0,0,3.046,3.373,9.787,9.787,0,0,0,3.894,1.1l-1.364-2.013-.006-1.276Z" transform="translate(-900.373 -793.206)" fill="#dd7577" fill-rule="evenodd"/>
      <path id="Path_7509" data-name="Path 7509" d="M1354.239,970.68c.817,4.3-.851,8.136-4.934,8.841-2.568.442-4.641.061-6.211.258a4.42,4.42,0,0,0-2.263,1.115c-1.473,1.232-2.615,4.273-2.946,6.289,0,0-1.721-.746-2.282-.376s-.208,1.257-.123,1.627.879.764,1.135.992c.763.685-1.213,1.942-3.337.168-1.5-1.251-5.275-4.967-5-10.461s2.383-6.763,3.2-7.256c.53-.32,4.761-1.657,7.952-2.782,3.888-1.371,4.207-2.437,6.7-3.616,3.2-1.514,7.473,1.8,8.119,5.2" transform="translate(-882.922 -753.543)" fill-rule="evenodd"/>
      <path id="Path_7510" data-name="Path 7510" d="M1402.765,1046.412c5.653,5.217,6.828,12.977,7.368,19.811-3.7-.251-4-.062-7.668-.184Z" transform="translate(-927.943 -801.754)" fill="#986633" fill-rule="evenodd"/>
      <path id="Path_7511" data-name="Path 7511" d="M1351.626,1052.982a.7.7,0,1,0,.681.7.693.693,0,0,0-.681-.7m0-4.086a.7.7,0,1,0,.681.7A.693.693,0,0,0,1351.626,1048.9Zm2.626-10.86c2.358,4.17-.213,7.132-2.533,8.471-3.269-2.2-6.209-4.339-6.209-8.471,0,0-1.129-.022-1.86,1.831-1.208,3,.817,9.742.817,9.742s2.272-3.042,4.161-3.206a6.437,6.437,0,0,1,3.113.426c2.416-1.834,4.062.544,5.679,2.285.509-4.445.444-7.64-2.769-11.078Z" transform="translate(-892.025 -796.787)" fill="#fff" fill-rule="evenodd"/>
      <path id="Path_7512" data-name="Path 7512" d="M1407.759,1088.353l-16.229,22.577h-13.71s-4.928-2.524-7.377-2.814-4.057-.434-4.057-.434l13.43-20.851s7.237.147,11.015,2.391a40.272,40.272,0,0,1,4.337,2.752c2.331-2.093,9.8-7.7,12.591-3.621" transform="translate(-906.054 -825.72)" fill="#fca700" fill-rule="evenodd"/>
      <path id="Path_7513" data-name="Path 7513" d="M1431.851,1088.455l-16.229,22.577H1406.1l13.164-18.956c2.331-2.093,9.8-7.7,12.591-3.621" transform="translate(-930.146 -825.823)" fill="#e29703" fill-rule="evenodd"/>
      <path id="Path_7514" data-name="Path 7514" d="M1364.369,1125.483a.506.506,0,0,1-.057.58c-.064.081-1,1.454-1,1.454l4.161,2.667a.827.827,0,0,1-1.052.465c-.741-.27-3.877-1.194-3.877-1.194l3.745,2.19a.6.6,0,0,1-.666.473c-.534-.085-3.562-1.121-3.562-1.121l2.932,2.015-.245.333a22.91,22.91,0,0,1-2.358-.919,6.478,6.478,0,0,0-1.113-.483l2.5,1.948-.537.217s-2.54-1.333-2.6-1.385c-.815-.683-2.6-2.041-3.057-3.006-.608-1.291.334-2.225,1.109-3.216.153-.2,1.869.416,2.626.041,1.3-.643,2.943-1.29,3.048-1.059" transform="translate(-900.596 -848.611)" fill="#f4b1b1" fill-rule="evenodd"/>
    </g>
  </g>
</svg>
