<svg xmlns="http://www.w3.org/2000/svg" width="35.334" height="37.983" viewBox="0 0 35.334 37.983"><defs><style>.a{fill:#10a3ff;}</style></defs><path class="a" d="M54.657,50.25a4.407,4.407,0,1,0,4.407,4.407A4.407,4.407,0,0,0,54.657,50.25Zm0,7.693a3.285,3.285,0,1,1,3.285-3.285A3.285,3.285,0,0,1,54.657,57.943Z" transform="translate(-36.93 -35.666)"/><path class="a" d="M66.781,62.25a.561.561,0,0,0-.561.561,1.37,1.37,0,0,1-.679,1.178.561.561,0,1,0,.565.969,2.5,2.5,0,0,0,1.236-2.148A.561.561,0,0,0,66.781,62.25Z" transform="translate(-47.13 -43.819)"/><path class="a" d="M40.92,22.431A2.483,2.483,0,0,0,43.3,18.273c-.041-.04-.084-.077-.128-.114a4.968,4.968,0,0,0-.305-3.912c-1.346-2.333-4.881-3.1-9.732-2.132C31.543,7.43,29.112,4.75,26.422,4.75S21.3,7.43,19.706,12.114c-4.852-.966-8.386-.2-9.732,2.132a4.971,4.971,0,0,0-.326,3.827A2.484,2.484,0,0,0,11.9,22.4c.333.443.7.89,1.09,1.339-3.26,3.719-4.365,7.163-3.02,9.494.966,1.675,3.058,2.544,5.956,2.544a19.6,19.6,0,0,0,3.775-.414c1.6,4.685,4.027,7.366,6.717,7.366a5,5,0,0,0,3.492-1.642,2.483,2.483,0,0,0,2.752-4.029c-.04-.041-.084-.078-.126-.115.21-.5.411-1.026.6-1.579a19.56,19.56,0,0,0,3.773.414c2.9,0,4.99-.869,5.956-2.544,1.346-2.331.239-5.774-3.019-9.494C40.229,23.312,40.586,22.873,40.92,22.431Zm1.589-1.438a1.364,1.364,0,0,1-1.926,0h0a1.362,1.362,0,1,1,1.926,0ZM41.9,14.806a3.772,3.772,0,0,1,.259,2.821,2.483,2.483,0,0,0-2.369,4.159c.04.041.084.077.126.115q-.39.508-.824,1.009a33.9,33.9,0,0,0-4.475-3.9,34.31,34.31,0,0,0-1.135-5.824c4.227-.817,7.353-.228,8.418,1.618ZM32.381,34.057A32.135,32.135,0,0,1,27.8,32.57c.957-.463,1.91-.965,2.845-1.5s1.854-1.119,2.725-1.714a32.117,32.117,0,0,1-.993,4.706Zm-11.917,0a32.111,32.111,0,0,1-.994-4.706c.872.595,1.784,1.17,2.726,1.714s1.886,1.043,2.844,1.5a32.138,32.138,0,0,1-4.577,1.488Zm0-20.631a32.122,32.122,0,0,1,4.577,1.488c-.957.463-1.91.965-2.845,1.507s-1.854,1.119-2.726,1.714a32.1,32.1,0,0,1,.994-4.708ZM18.088,26.958a31.666,31.666,0,0,1-3.578-3.216,31.7,31.7,0,0,1,3.578-3.216c-.079,1.058-.121,2.136-.121,3.216S18.008,25.9,18.088,26.958Zm4.669,3.135c-1.214-.7-2.376-1.454-3.464-2.236-.134-1.343-.2-2.725-.2-4.115s.071-2.771.2-4.115c1.087-.782,2.249-1.535,3.464-2.236s2.434-1.326,3.665-1.884c1.232.558,2.464,1.19,3.666,1.884s2.376,1.454,3.464,2.236c.134,1.343.2,2.725.2,4.115s-.071,2.771-.2,4.115c-1.087.782-2.249,1.535-3.464,2.236s-2.434,1.326-3.665,1.884c-1.232-.558-2.464-1.19-3.666-1.884Zm9.624-16.668a32.11,32.11,0,0,1,.994,4.706c-.872-.595-1.784-1.17-2.725-1.714s-1.888-1.042-2.847-1.5a32.138,32.138,0,0,1,4.577-1.488Zm2.375,7.1a31.666,31.666,0,0,1,3.578,3.216,31.7,31.7,0,0,1-3.578,3.216c.079-1.058.121-2.136.121-3.216S34.836,21.584,34.756,20.525ZM26.422,5.872c2.128,0,4.2,2.413,5.614,6.483a34.4,34.4,0,0,0-5.614,1.923,34.377,34.377,0,0,0-5.614-1.923C22.219,8.285,24.294,5.872,26.422,5.872ZM10.212,20.993h0a1.364,1.364,0,1,1,.964.4,1.364,1.364,0,0,1-.964-.4Zm2.72-2.72a2.484,2.484,0,0,0-2.251-.676,3.723,3.723,0,0,1,.264-2.789c1.065-1.847,4.191-2.436,8.419-1.618a34.332,34.332,0,0,0-1.135,5.824,33.87,33.87,0,0,0-4.476,3.894q-.468-.54-.875-1.074c.018-.017.037-.032.054-.049a2.486,2.486,0,0,0,0-3.513Zm-1.987,14.4c-1.062-1.844-.01-4.847,2.81-8.1a33.885,33.885,0,0,0,4.474,3.9,34.309,34.309,0,0,0,1.135,5.824c-4.228.817-7.354.228-8.419-1.618Zm20.928,7.1a1.365,1.365,0,1,1,.4-.964,1.365,1.365,0,0,1-.4.964Zm-.962-3.447a2.483,2.483,0,0,0-1.9,4.08,3.768,3.768,0,0,1-2.585,1.2c-2.128,0-4.2-2.413-5.614-6.483a34.4,34.4,0,0,0,5.614-1.923,34.381,34.381,0,0,0,5.615,1.923c-.157.45-.321.881-.492,1.29a2.492,2.492,0,0,0-.638-.084ZM41.9,32.677c-1.065,1.846-4.191,2.436-8.419,1.618a34.332,34.332,0,0,0,1.135-5.824,33.868,33.868,0,0,0,4.472-3.9c2.82,3.255,3.872,6.258,2.809,8.1Z" transform="translate(-8.695 -4.75)"/></svg>