<svg id="_027-trophy-1" data-name="027-trophy-1" xmlns="http://www.w3.org/2000/svg" width="32.753" height="32.753" viewBox="0 0 32.753 32.753">
  <path id="Path_8411" data-name="Path 8411" d="M213.938,298.311h-4.111a.96.96,0,0,1-.96-.96V295.01a4.061,4.061,0,0,1,.443-1.84l1.763-3.45a.96.96,0,0,1,1.716.015l1.7,3.47a4.065,4.065,0,0,1,.411,1.776v2.37A.96.96,0,0,1,213.938,298.311Zm0,0" transform="translate(-195.506 -270.697)" fill="#ffcd00"/>
  <path id="Path_8412" data-name="Path 8412" d="M258.922,293.208l-1.7-3.47a.96.96,0,0,0-.853-.538h-.032v9.113h2.034a.959.959,0,0,0,.96-.96v-2.37A4.067,4.067,0,0,0,258.922,293.208Zm0,0" transform="translate(-239.942 -270.699)" fill="#bf8400"/>
  <path id="Path_8413" data-name="Path 8413" d="M171.905,408.726H161.628a.959.959,0,0,1-.96-.96v-2.056a4.047,4.047,0,0,1,4.043-4.043h4.111a4.048,4.048,0,0,1,4.043,4.043v2.056A.96.96,0,0,1,171.905,408.726Zm0,0" transform="translate(-150.39 -375.973)" fill="#fff36c"/>
  <path id="Path_8414" data-name="Path 8414" d="M258.373,401.672H256.34v7.058h5.117a.959.959,0,0,0,.96-.96v-2.055A4.047,4.047,0,0,0,258.373,401.672Zm0,0" transform="translate(-239.942 -375.977)" fill="#ffcd00"/>
  <g id="Group_8024" data-name="Group 8024" transform="translate(0 4.111)">
    <path id="Path_8415" data-name="Path 8415" d="M143.88,483.919H129.491a.96.96,0,1,1,0-1.919H143.88a.96.96,0,1,1,0,1.919Zm0,0" transform="translate(-120.309 -455.277)" fill="#bf8400"/>
    <path id="Path_8416" data-name="Path 8416" d="M264.472,482.96a.96.96,0,0,1-.96.96H256.34V482h7.173A.96.96,0,0,1,264.472,482.96Zm0,0" transform="translate(-239.942 -455.277)" fill="#bf8400"/>
    <path id="Path_8417" data-name="Path 8417" d="M7.126,80.574a3.015,3.015,0,0,0,0-6.03H6.1a4.179,4.179,0,0,1,0-8.359H8.154a.96.96,0,1,0,0-1.919H6.1a6.1,6.1,0,0,0,0,12.2H7.126a1.1,1.1,0,0,1,0,2.192.96.96,0,0,0,0,1.919Zm0,0" transform="translate(0 -64.266)" fill="#bf8400"/>
  </g>
  <path id="Path_8418" data-name="Path 8418" d="M356.484,80.574a3.015,3.015,0,1,1,0-6.03h1.027a4.179,4.179,0,1,0,0-8.359h-2.056a.96.96,0,1,1,0-1.919h2.056a6.1,6.1,0,1,1,0,12.2h-1.027a1.1,1.1,0,0,0,0,2.192.96.96,0,1,1,0,1.919Zm0,0" transform="translate(-330.857 -60.155)" fill="#9f5900"/>
  <path id="Path_8419" data-name="Path 8419" d="M101.822.592A.959.959,0,0,0,100.936,0H80.246a.96.96,0,0,0-.678,1.638,6.02,6.02,0,0,1,1.774,4.284v5.316a9.249,9.249,0,0,0,18.5,0V5.922a6.019,6.019,0,0,1,1.774-4.284A.959.959,0,0,0,101.822.592Zm0,0" transform="translate(-74.214)" fill="#fff36c"/>
  <path id="Path_8420" data-name="Path 8420" d="M267.341,1.638a6.017,6.017,0,0,0-1.775,4.284v5.316a9.19,9.19,0,0,1-9.227,9.181V0h10.323a.96.96,0,0,1,.679,1.638Zm0,0" transform="translate(-239.942)" fill="#ffcd00"/>
  <path id="Path_8421" data-name="Path 8421" d="M227.219,104.486a.959.959,0,0,1-.96-.96V98.913l-.667.333a.96.96,0,1,1-.858-1.716L226.79,96.5a.959.959,0,0,1,1.389.858v6.167A.959.959,0,0,1,227.219,104.486Zm0,0" transform="translate(-209.861 -90.234)" fill="#ffcd00"/>
  <path id="Path_8422" data-name="Path 8422" d="M258.259,97.361v6.167a.96.96,0,0,1-1.919,0v-6.76l.53-.265a.96.96,0,0,1,1.389.858Zm0,0" transform="translate(-239.942 -90.234)" fill="#bf8400"/>
</svg>
