<svg id="_028-second-prize" data-name="028-second-prize" xmlns="http://www.w3.org/2000/svg" width="32.347" height="32.347" viewBox="0 0 32.347 32.347">
  <path id="Path_8423" data-name="Path 8423" d="M242.291,328.3a.948.948,0,0,1-.948-.948V322.28a.948.948,0,0,1,1.9,0v5.076A.948.948,0,0,1,242.291,328.3Zm0,0" transform="translate(-226.096 -301.031)" fill="#d2dce7"/>
  <path id="Path_8424" data-name="Path 8424" d="M257.291,327.355V322.28a.948.948,0,0,0-.948-.948V328.3A.948.948,0,0,0,257.291,327.355Zm0,0" transform="translate(-240.148 -301.031)" fill="#a1aebc"/>
  <path id="Path_8425" data-name="Path 8425" d="M356.447,81.387a2.978,2.978,0,1,1,0-5.956h1.015a4.132,4.132,0,0,0,4.128-4.128V70.289a4.125,4.125,0,0,0-4.128-4.128h-2.03a.948.948,0,0,1,0-1.9h2.03a6.02,6.02,0,0,1,6.023,6.023V71.3a6.03,6.03,0,0,1-6.023,6.023h-1.015a1.082,1.082,0,0,0,0,2.165.948.948,0,1,1,0,1.9Zm0,0" transform="translate(-331.137 -60.205)" fill="#8f9caa"/>
  <path id="Path_8426" data-name="Path 8426" d="M7.038,81.387a2.978,2.978,0,0,0,0-5.956H6.023A4.132,4.132,0,0,1,1.9,71.3V70.289a4.125,4.125,0,0,1,4.128-4.128h2.03a.948.948,0,0,0,0-1.9H6.023A6.02,6.02,0,0,0,0,70.289V71.3a6.03,6.03,0,0,0,6.023,6.023H7.038a1.082,1.082,0,0,1,0,2.165.948.948,0,0,0,0,1.9Zm0,0" transform="translate(0 -60.205)" fill="#a1aebc"/>
  <path id="Path_8427" data-name="Path 8427" d="M129.657,0H113.416a.948.948,0,0,0-.948.948V13.129a9.068,9.068,0,0,0,18.136,0V.948A.948.948,0,0,0,129.657,0Zm0,0" transform="translate(-105.363)" fill="#eff6fe"/>
  <path id="Path_8428" data-name="Path 8428" d="M264.442,0h-8.1V22.2a9.062,9.062,0,0,0,9.046-9.068V.948A.948.948,0,0,0,264.442,0Zm0,0" transform="translate(-240.148)" fill="#d2dce7"/>
  <path id="Path_8429" data-name="Path 8429" d="M173.184,408.639h-10.15a.948.948,0,0,1-.948-.948v-3.045a2.977,2.977,0,0,1,2.978-2.978h6.09a2.977,2.977,0,0,1,2.978,2.978v3.045A.948.948,0,0,1,173.184,408.639Zm0,0" transform="translate(-151.846 -376.291)" fill="#eff6fe"/>
  <path id="Path_8430" data-name="Path 8430" d="M259.457,401.668h-3.113v6.971h5.143a.948.948,0,0,0,.948-.948v-3.045A2.977,2.977,0,0,0,259.457,401.668Zm0,0" transform="translate(-240.148 -376.291)" fill="#d2dce7"/>
  <path id="Path_8431" data-name="Path 8431" d="M145.756,483.9H131.588a.948.948,0,0,1,0-1.9h14.167a.948.948,0,0,1,0,1.9Zm0,0" transform="translate(-122.387 -451.548)" fill="#a1aebc"/>
  <path id="Path_8432" data-name="Path 8432" d="M112.469,64.266H130.6v1.9H112.469Zm0,0" transform="translate(-105.363 -60.205)" fill="#d2dce7"/>
  <path id="Path_8433" data-name="Path 8433" d="M256.34,64.266h9.047v1.9H256.34Zm0,0" transform="translate(-240.145 -60.205)" fill="#a1aebc"/>
  <path id="Path_8434" data-name="Path 8434" d="M215.637,128.993h-4.06a.948.948,0,0,1-.948-.948,2.954,2.954,0,0,1,1.484-2.558l2.071-1.183a1.007,1.007,0,0,0,.505-.871,1.038,1.038,0,0,0-1.037-1.038h-.047a1.083,1.083,0,0,0-1.081,1.081.948.948,0,0,1-1.9,0h0a2.98,2.98,0,0,1,2.977-2.977h.047a2.921,2.921,0,0,1,1.472,5.45l-2.01,1.148h2.522a.948.948,0,1,1,0,1.9Zm0,0" transform="translate(-197.322 -112.887)" fill="#d2dce7"/>
  <path id="Path_8435" data-name="Path 8435" d="M263.517,482h-7.173v1.9h7.173a.948.948,0,0,0,0-1.9Zm0,0" transform="translate(-240.148 -451.548)" fill="#8f9caa"/>
  <g id="Group_8025" data-name="Group 8025" transform="translate(16.195 7.613)">
    <path id="Path_8436" data-name="Path 8436" d="M259.411,225.881a.948.948,0,0,0-.948-.948h-2.12v1.9h2.12A.948.948,0,0,0,259.411,225.881Zm0,0" transform="translate(-256.344 -218.336)" fill="#a1aebc"/>
    <path id="Path_8437" data-name="Path 8437" d="M256.479,120.5h-.047l-.089,0v1.9c.029,0,.059,0,.089,0h.047a1.038,1.038,0,0,1,1.037,1.038,1.006,1.006,0,0,1-.505.871l-.667.381v2.183l1.607-.918a2.906,2.906,0,0,0,1.46-2.518A2.935,2.935,0,0,0,256.479,120.5Zm0,0" transform="translate(-256.344 -120.5)" fill="#a1aebc"/>
  </g>
</svg>
