<svg id="_029-third-prize" data-name="029-third-prize" xmlns="http://www.w3.org/2000/svg" width="32.347" height="32.347" viewBox="0 0 32.347 32.347">
  <path id="Path_8438" data-name="Path 8438" d="M242.291,329.318a.948.948,0,0,1-.948-.948V322.28a.948.948,0,0,1,1.9,0v6.091A.948.948,0,0,1,242.291,329.318Zm0,0" transform="translate(-226.096 -301.031)" fill="#d17948"/>
  <path id="Path_8439" data-name="Path 8439" d="M256.344,321.332v7.986a.948.948,0,0,0,.948-.948V322.28A.948.948,0,0,0,256.344,321.332Zm0,0" transform="translate(-240.148 -301.031)" fill="#a44a24"/>
  <path id="Path_8440" data-name="Path 8440" d="M355.431,78.342h-1.015a.948.948,0,1,1,0-1.9h1.015a6.158,6.158,0,0,0,6.158-6.158V67.751a1.59,1.59,0,0,0-1.59-1.59h-4.568a.948.948,0,1,1,0-1.9H360a3.486,3.486,0,0,1,3.485,3.485v2.538a8.053,8.053,0,0,1-8.053,8.053Zm0,0" transform="translate(-331.137 -60.205)" fill="#781b00"/>
  <path id="Path_8441" data-name="Path 8441" d="M9.068,78.342H8.053A8.053,8.053,0,0,1,0,70.289V67.751a3.485,3.485,0,0,1,3.485-3.485H8.053a.948.948,0,1,1,0,1.9H3.485a1.59,1.59,0,0,0-1.59,1.59v2.538a6.158,6.158,0,0,0,6.158,6.158H9.068a.948.948,0,0,1,0,1.9Zm0,0" transform="translate(0 -60.205)" fill="#a44a24"/>
  <path id="Path_8442" data-name="Path 8442" d="M129.657,0H113.416a.948.948,0,0,0-.948.948V13.129a9.068,9.068,0,0,0,18.136,0V.948A.948.948,0,0,0,129.657,0Zm0,0" transform="translate(-105.363)" fill="#ffaa6d"/>
  <path id="Path_8443" data-name="Path 8443" d="M264.442,0h-8.1V22.2a9.062,9.062,0,0,0,9.046-9.068V.948A.948.948,0,0,0,264.442,0Zm0,0" transform="translate(-240.148)" fill="#d17948"/>
  <path id="Path_8444" data-name="Path 8444" d="M112.469,64.266H130.6v1.9H112.469Zm0,0" transform="translate(-105.363 -60.205)" fill="#d17948"/>
  <path id="Path_8445" data-name="Path 8445" d="M256.34,64.266h9.047v1.9H256.34Zm0,0" transform="translate(-240.145 -60.205)" fill="#a44a24"/>
  <path id="Path_8446" data-name="Path 8446" d="M171.766,423.69h-10.15a.948.948,0,0,1-.948-.948v-2.03a2.976,2.976,0,0,1,2.978-2.978h6.09a2.976,2.976,0,0,1,2.978,2.978v2.03A.948.948,0,0,1,171.766,423.69Zm0,0" transform="translate(-150.518 -391.343)" fill="#ffaa6d"/>
  <path id="Path_8447" data-name="Path 8447" d="M212.189,137.028a2.981,2.981,0,0,1-2.978-2.977.948.948,0,1,1,1.9,0h0a1.083,1.083,0,1,0,1.084-1.084.948.948,0,0,1-.814-1.435l.661-1.1h-1.371a.948.948,0,0,1,0-1.9h3.045a.948.948,0,0,1,.813,1.435l-.887,1.479a2.978,2.978,0,0,1-1.448,5.58Zm0,0" transform="translate(-195.993 -120.415)" fill="#d17948"/>
  <path id="Path_8448" data-name="Path 8448" d="M257.792,131.449l.887-1.479a.948.948,0,0,0-.813-1.435h-1.523v4.433h0a1.083,1.083,0,0,1,0,2.165v1.9a2.978,2.978,0,0,0,1.448-5.58Zm0,0" transform="translate(-240.148 -120.415)" fill="#a44a24"/>
  <path id="Path_8449" data-name="Path 8449" d="M259.367,417.734h-3.023v5.956H261.4a.948.948,0,0,0,.948-.948v-2.03A2.976,2.976,0,0,0,259.367,417.734Zm0,0" transform="translate(-240.148 -391.343)" fill="#d17948"/>
  <path id="Path_8450" data-name="Path 8450" d="M144.341,483.9H130.174a.948.948,0,0,1,0-1.9h14.167a.948.948,0,0,1,0,1.9Zm0,0" transform="translate(-121.063 -451.548)" fill="#d17948"/>
  <path id="Path_8451" data-name="Path 8451" d="M263.428,482h-7.084v1.9h7.084a.948.948,0,0,0,0-1.9Zm0,0" transform="translate(-240.148 -451.548)" fill="#a44a24"/>
</svg>
