<svg id="_001-badge" data-name="001-badge" xmlns="http://www.w3.org/2000/svg" width="30.597" height="34.989" viewBox="0 0 30.597 34.989">
  <path id="Path_8345" data-name="Path 8345" d="M9.808,298.413a1.026,1.026,0,0,1-.82-.41L6,294.021H1.025a1.025,1.025,0,0,1-.917-1.484l4.612-9.224a1.025,1.025,0,0,1,1.375-.458l8.587,4.785a1.025,1.025,0,0,1,.458,1.375l-4.415,8.831A1.026,1.026,0,0,1,9.808,298.413Zm0,0" transform="translate(0.001 -263.424)" fill="#3440db"/>
  <path id="Path_8346" data-name="Path 8346" d="M230.026,298.413a1.025,1.025,0,0,0,.82-.41l2.987-3.982h4.977a1.025,1.025,0,0,0,.917-1.484l-4.612-9.224a1.025,1.025,0,0,0-1.375-.458l-8.586,4.785a1.025,1.025,0,0,0-.458,1.375l4.415,8.831A1.026,1.026,0,0,0,230.026,298.413Zm0,0" transform="translate(-209.238 -263.424)" fill="#1c259e"/>
  <path id="Path_8347" data-name="Path 8347" d="M45.235,26.205a13.1,13.1,0,1,1,13.1-13.1A13.117,13.117,0,0,1,45.235,26.205Zm0,0" transform="translate(-29.937)" fill="#00ceff"/>
  <path id="Path_8348" data-name="Path 8348" d="M236.97,13.1A13.117,13.117,0,0,0,223.867,0V26.205A13.117,13.117,0,0,0,236.97,13.1Zm0,0" transform="translate(-208.569)" fill="#0092dd"/>
  <path id="Path_8349" data-name="Path 8349" d="M105.124,80.027a1.025,1.025,0,0,1-.42-.9l.308-4.447-2.863-3.417a1.025,1.025,0,0,1,.537-1.653l4.324-1.082,2.365-3.779a1.025,1.025,0,0,1,1.738,0l2.365,3.779,4.324,1.082a1.025,1.025,0,0,1,.537,1.653l-2.863,3.417.308,4.447a1.025,1.025,0,0,1-1.406,1.021l-4.134-1.667-4.134,1.667A1.026,1.026,0,0,1,105.124,80.027Zm0,0" transform="translate(-94.946 -59.878)" fill="#fff"/>
  <path id="Path_8350" data-name="Path 8350" d="M231.426,69.607,227.1,68.525l-2.365-3.779a1.025,1.025,0,0,0-.869-.481V78.478L228,80.145a1.025,1.025,0,0,0,1.406-1.022l-.308-4.447,2.863-3.417a1.025,1.025,0,0,0-.537-1.653Zm0,0" transform="translate(-208.569 -59.874)" fill="#e8e8e8"/>
</svg>
