<svg id="_031-badge-8" data-name="031-badge-8" xmlns="http://www.w3.org/2000/svg" width="32.347" height="32.347" viewBox="0 0 32.347 32.347">
  <path id="Path_8452" data-name="Path 8452" d="M46.387,15.158a15.048,15.048,0,0,1-2.724,8.664.947.947,0,0,1-.778.4H19.566a.946.946,0,0,1-.777-.4,15.159,15.159,0,1,1,27.6-8.664Zm0,0" transform="translate(-15.055)" fill="#fff36c"/>
  <path id="Path_8453" data-name="Path 8453" d="M271.477,15.158a15.048,15.048,0,0,1-2.724,8.664.947.947,0,0,1-.778.4H256.34V0A15.175,15.175,0,0,1,271.477,15.158Zm0,0" transform="translate(-240.145)" fill="#ffcd00"/>
  <path id="Path_8454" data-name="Path 8454" d="M83.651,82.4a.946.946,0,0,1-.757-.376,11.076,11.076,0,1,1,17.666,0,.948.948,0,1,1-1.51-1.146,9.09,9.09,0,0,0,1.858-5.539,9.18,9.18,0,1,0-16.5,5.54.948.948,0,0,1-.755,1.519Zm0,0" transform="translate(-75.557 -60.205)" fill="#ffcd00"/>
  <path id="Path_8455" data-name="Path 8455" d="M267.391,75.346a10.97,10.97,0,0,1-2.243,6.685.948.948,0,0,1-1.51-1.146,9.09,9.09,0,0,0,1.858-5.539,9.19,9.19,0,0,0-9.156-9.181v-1.9A11.087,11.087,0,0,1,267.391,75.346Zm0,0" transform="translate(-240.145 -60.209)" fill="#bf8400"/>
  <path id="Path_8456" data-name="Path 8456" d="M6.023,363.485H.947A.948.948,0,0,1,.1,362.113l1.818-3.636L.1,354.84a.948.948,0,0,1,.848-1.371H6.023a.948.948,0,0,1,.948.948v8.12A.948.948,0,0,1,6.023,363.485Zm0,0" transform="translate(0 -331.137)" fill="#c9001c"/>
  <path id="Path_8457" data-name="Path 8457" d="M407.691,363.485h-5.075a.948.948,0,0,1-.948-.948v-8.12a.948.948,0,0,1,.948-.948h5.075a.948.948,0,0,1,.848,1.371l-1.818,3.637,1.818,3.636a.948.948,0,0,1-.848,1.371Zm0,0" transform="translate(-376.292 -331.137)" fill="#850012"/>
  <path id="Path_8458" data-name="Path 8458" d="M101.581,331.348H81.28a.948.948,0,0,1-.948-.948V322.28a.948.948,0,0,1,.948-.948h20.3a.948.948,0,0,1,.948.948V330.4A.948.948,0,0,1,101.581,331.348Zm0,0" transform="translate(-75.257 -301.031)" fill="#ff415b"/>
  <path id="Path_8459" data-name="Path 8459" d="M266.266,321.332H256.137v10.016h10.129a.948.948,0,0,0,.948-.948V322.28A.948.948,0,0,0,266.266,321.332Zm0,0" transform="translate(-239.955 -301.031)" fill="#c9001c"/>
  <path id="Path_8460" data-name="Path 8460" d="M157.73,387.5H145.549a.948.948,0,1,1,0-1.9H157.73a.948.948,0,0,1,0,1.9Zm0,0" transform="translate(-135.466 -361.24)" fill="#eff6fe"/>
  <path id="Path_8461" data-name="Path 8461" d="M263.357,386.549a.948.948,0,0,1-.948.948H256.34v-1.9h6.069A.948.948,0,0,1,263.357,386.549Zm0,0" transform="translate(-240.145 -361.24)" fill="#d2dce7"/>
  <path id="Path_8462" data-name="Path 8462" d="M182.28,153.59a.948.948,0,0,1-.388-.832l.151-2.161-1.393-1.66a.948.948,0,0,1,.5-1.529l2.1-.526,1.152-1.837a.948.948,0,0,1,.8-.444h0a.948.948,0,0,1,.8.445l1.147,1.836,2.1.525a.948.948,0,0,1,.5,1.528l-1.39,1.661.147,2.163a.948.948,0,0,1-1.3.943l-2.005-.81-2.011.81A.95.95,0,0,1,182.28,153.59Zm0,0" transform="translate(-169.03 -135.466)" fill="#ffcd00"/>
  <path id="Path_8463" data-name="Path 8463" d="M261.041,148.042a.946.946,0,0,0-.671-.626l-2.1-.526-1.147-1.836a.945.945,0,0,0-.782-.445v8.3l1.984.8a.948.948,0,0,0,1.3-.943l-.147-2.163,1.39-1.661A.949.949,0,0,0,261.041,148.042Zm0,0" transform="translate(-240.145 -135.473)" fill="#bf8400"/>
</svg>
