<svg xmlns="http://www.w3.org/2000/svg" width="88.293" height="88.293" viewBox="0 0 88.293 88.293"><defs><style>.a{fill:#d1d3d4;}.b{fill:#a7a9ac;}.c{fill:#e6e7e8;}.d{fill:#d1e7f8;}.e{fill:#9bc9ff;}.f{fill:#939598;}.g{fill:#ffb655;}.h{fill:#ff9811;}.i{fill:#ee8700;}.j{fill:#2488ff;}.k{fill:#bcd0df;}.l{fill:#ff5023;}</style></defs><g transform="translate(-3 -3)"><path class="a" d="M52.191,53H5v6.089H56.189a19.812,19.812,0,0,1-4-6.089Z" transform="translate(1.045 26.114)"/><path class="b" d="M57.233,57H3v6.089H71.5A19.718,19.718,0,0,1,57.233,57Z" transform="translate(0 28.204)"/><path class="a" d="M32.223,33.089V27H20.045v6.089H17V54.4h3.045V60.49H32.223V54.4h3.045V33.089Z" transform="translate(7.312 12.535)"/><path class="b" d="M39.178,49.567A19.813,19.813,0,0,1,39.729,45H27v6.089H39.254C39.216,50.585,39.178,50.081,39.178,49.567Z" transform="translate(12.535 21.936)"/><path class="c" d="M37.446,49H7v6.089H51.146A19.7,19.7,0,0,1,49.7,49Z" transform="translate(2.089 24.025)"/><path class="d" d="M47,31v6.155c.5-.038,1.009-.065,1.522-.065a19.7,19.7,0,0,1,7.611,1.522V31Z" transform="translate(22.981 14.624)"/><path class="a" d="M50.223,33.089V27H38.045v6.089H35V54.4h.551A19.79,19.79,0,0,1,53.267,39.244V33.089Z" transform="translate(16.713 12.535)"/><path class="d" d="M91.293,33.446H3L47.207,3Z"/><path class="e" d="M65.045,24.818H15.86L40.491,7.86Z" transform="translate(6.717 2.538)"/><path class="f" d="M38.49,29.089H87.2V23H5v6.089H38.49Z" transform="translate(1.045 10.446)"/><path class="b" d="M45,33.089H60.223V27H45Z" transform="translate(21.936 12.535)"/><path class="g" d="M74.58,54.792a19.79,19.79,0,0,1-19.79,19.79,19.569,19.569,0,0,1-11.1-3.41A19.79,19.79,0,1,1,74.58,54.792Z" transform="translate(16.713 16.711)"/><circle class="h" cx="13.5" cy="13.5" r="13.5" transform="translate(58.146 58.146)"/><path class="i" d="M48.522,39A13.6,13.6,0,0,0,47,39.09a13.7,13.7,0,0,1,0,27.222A13.7,13.7,0,1,0,48.522,39Z" transform="translate(22.981 18.802)"/><path class="b" d="M27,33.089H42.223V27H27Z" transform="translate(12.535 12.535)"/><path class="d" d="M29,31h9.134V52.312H29Z" transform="translate(13.58 14.624)"/><path class="b" d="M24.223,33.089V27H9v6.089H24.223Z" transform="translate(3.134 12.535)"/><path class="d" d="M11,31h9.134V52.312H11Z" transform="translate(4.178 14.624)"/><path class="b" d="M24.223,45H9v6.089H24.223Z" transform="translate(3.134 21.936)"/><circle class="j" cx="3" cy="3" r="3" transform="translate(44.146 17.146)"/><g transform="translate(15.178 45.624)"><path class="k" d="M11,31h9.134v1.522H11Z" transform="translate(-11 -31)"/><path class="k" d="M29,31h9.134v1.522H29Z" transform="translate(-1.599 -31)"/><path class="k" d="M47,31h9.134v1.522H47Z" transform="translate(7.802 -31)"/></g><path class="l" d="M48.567,47.089h3.045a1.522,1.522,0,0,1,1.522,1.522,1.522,1.522,0,0,0,3.045,0,4.567,4.567,0,0,0-4.567-4.567V42.522a1.522,1.522,0,0,0-3.045,0v1.522a4.567,4.567,0,0,0,0,9.134h3.045a1.522,1.522,0,0,1,0,3.045H48.567A1.522,1.522,0,0,1,47.045,54.7,1.522,1.522,0,0,0,44,54.7a4.567,4.567,0,0,0,4.567,4.567V60.79a1.522,1.522,0,1,0,3.045,0V59.267a4.567,4.567,0,0,0,0-9.134H48.567a1.522,1.522,0,0,1,0-3.045Z" transform="translate(21.414 19.847)"/></g></svg>