<svg id="Component_5_51" data-name="Component 5 – 51" xmlns="http://www.w3.org/2000/svg" xmlns:xlink="http://www.w3.org/1999/xlink" width="919" height="212" viewBox="0 0 919 212">
  <defs>
    <clipPath id="clip-path">
      <rect id="Rectangle_1486" data-name="Rectangle 1486" width="919" height="212" transform="translate(501 238)" fill="#fff" stroke="#707070" stroke-width="1"/>
    </clipPath>
    <linearGradient id="linear-gradient" x1="0.5" y1="-0.472" x2="0.5" y2="0.994" gradientUnits="objectBoundingBox">
      <stop offset="0" stop-color="#fff"/>
      <stop offset="1" stop-color="#72d0ff"/>
    </linearGradient>
    <linearGradient id="linear-gradient-2" x1="-1.097" y1="-0.65" x2="-1.009" y2="0.916" gradientUnits="objectBoundingBox">
      <stop offset="0" stop-color="#fff"/>
      <stop offset="1" stop-color="#a3d9f2"/>
    </linearGradient>
    <linearGradient id="linear-gradient-3" x1="-1.126" y1="-0.066" x2="-1.067" y2="0.992" xlink:href="#linear-gradient-2"/>
    <linearGradient id="linear-gradient-4" x1="-1.086" y1="-0.421" x2="-1.086" y2="0.844" xlink:href="#linear-gradient-2"/>
    <linearGradient id="linear-gradient-5" x1="-1.087" y1="-1.703" x2="-1.087" y2="0.702" xlink:href="#linear-gradient-2"/>
    <linearGradient id="linear-gradient-6" x1="-12.075" y1="0.394" x2="-12.075" y2="1.918" xlink:href="#linear-gradient-2"/>
    <linearGradient id="linear-gradient-7" x1="-12.332" y1="1.125" x2="-12.332" y2="2.19" xlink:href="#linear-gradient-2"/>
    <linearGradient id="linear-gradient-8" x1="-12.373" y1="1.33" x2="-12.373" y2="2.683" xlink:href="#linear-gradient-2"/>
    <linearGradient id="linear-gradient-9" x1="-12.556" y1="1.701" x2="-12.556" y2="4.578" xlink:href="#linear-gradient-2"/>
    <linearGradient id="linear-gradient-10" x1="0.426" y1="-0.65" x2="0.514" y2="0.916" xlink:href="#linear-gradient-2"/>
    <linearGradient id="linear-gradient-11" x1="0.459" y1="-0.066" x2="0.519" y2="0.992" xlink:href="#linear-gradient-2"/>
    <linearGradient id="linear-gradient-12" x1="0.5" y1="-0.421" x2="0.5" y2="0.844" xlink:href="#linear-gradient-2"/>
    <linearGradient id="linear-gradient-13" x1="0.5" y1="-1.703" x2="0.5" y2="0.702" xlink:href="#linear-gradient-2"/>
    <linearGradient id="linear-gradient-14" x1="0.5" y1="-0.844" x2="0.5" y2="0.649" xlink:href="#linear-gradient-2"/>
    <linearGradient id="linear-gradient-15" x1="0.5" y1="-0.153" x2="0.5" y2="0.89" xlink:href="#linear-gradient-2"/>
    <linearGradient id="linear-gradient-16" x1="0.5" y1="-0.42" x2="0.5" y2="0.894" xlink:href="#linear-gradient-2"/>
    <linearGradient id="linear-gradient-17" x1="0.5" y1="-1.365" x2="0.5" y2="0.823" xlink:href="#linear-gradient-2"/>
    <linearGradient id="linear-gradient-18" x1="-1.973" y1="-0.647" x2="-1.973" y2="0.881" xlink:href="#linear-gradient-2"/>
    <linearGradient id="linear-gradient-19" x1="-2.041" y1="0.066" x2="-2.041" y2="1.134" xlink:href="#linear-gradient-2"/>
    <linearGradient id="linear-gradient-20" x1="-2.044" y1="-0.127" x2="-2.044" y2="1.23" xlink:href="#linear-gradient-2"/>
    <linearGradient id="linear-gradient-21" x1="-2.065" y1="-1.395" x2="-2.065" y2="1.488" xlink:href="#linear-gradient-2"/>
  </defs>
  <g id="Mask_Group_42" data-name="Mask Group 42" transform="translate(-501 -238)" clip-path="url(#clip-path)">
    <g id="Group_7662" data-name="Group 7662" transform="translate(494.877 26.204)">
      <g id="Group_7653" data-name="Group 7653" transform="translate(0 0)">
        <path id="Path_6849" data-name="Path 6849" d="M137.678,5.808V545.2a25.494,25.494,0,0,1,10.1,12.28s1.664-20.938,0-35.931c-.748-6.735,5.052,11.83,4.865,28.744,0,0,1.169-31.179,31.437-52.137,2.434-1.686-15.158,22.268-14.784,49.589,0,0,6.692-14.363,22.972-16.747A54.51,54.51,0,0,0,178.8,549.529s16.7-18.807,47.579-18.247c0,0-18.666,5.054-25.965,22.6,0,0,5.332-6.316,21.473-7.156a28.647,28.647,0,0,0-12.351,12.909s21.193-15.438,48-11.227c0,0-17.965,5.9-32.281,24.563,0,0,10.107-6.037,14.737-10.947,0,0,1.123,6.033-4.069,13.753,0,0,15.577-19.086,34.246-20.772,0,0-11.369,7.3-16,18.95,0,0,4.772-5.054,15.158-6.6a19.993,19.993,0,0,0-4.491,12.213s10.947-7.719,12.491-25.826c0,0,4.771,9.121-1.123,24.14,0,0,7.3-15.718,14.034-19.226,0,0-6.6,13.471-4.351,24.28,0,0,9.263-18.666,26.526-20.073,0,0-9.965,6.178-12.913,24.7,0,0,11.556-16.514,32.327-15.763,0,0-13.565,4.114-18.526,17.121,0,0,5.8-4.774,17.872-4.961a22.176,22.176,0,0,0-4.4,8.612,34.438,34.438,0,0,0,20.3-15.628s-.938,10.951-5.428,16.658c0,0,11.976-2.152,11.042-22.738,0,0,5.614,10.108,3.741,21.241,0,0,6.832-19.652,20.025-27.6a34.533,34.533,0,0,0-6.736,24.516s3.742-14.131,21.613-18.81c0,0-9.638,7.206-10.387,19.462,0,0,10.948-13.005,23.579-13.285,0,0-9.917,7.487-10.009,16.187,0,0,12.631-6.363,15.343-13.289,0,0,1.778,6.549-2.058,11.976,0,0,9.17-2.522,7.859-16.185a21.931,21.931,0,0,1,4.024,15.066s4.586-8.888,2.806-17.967c0,0,6.645,5.614,5.521,16.844,0,0,3.369-21.8,15.438-29.849,0,0-5.334,9.731-3.368,26.572,0,0,3.182-9.075,13.1-10.481,0,0-6.269,5.146-6.55,13.29,0,0,9.076-10.292,22.27-9.825,0,0-7.579,3.181-9.825,9.262,0,0,9.129-6.3,34.806-7.436,6.315-.284-1.683,2.805-1.683,2.805s24.561-5.334,41.122-6.456c0,0-5.193-8.983-14.455-8.139,0,0,15.157-5.054,20.211,4.631,0,0,.561-8.842-6.316-12.633,0,0,7.53-3.175,11.46,6.649,0,0,3.838-10.111,4.213-17.783,0,0,2.806,3.181,1.87,12.63,0,0,3.182-15.158,15.532-21.895,0,0-5.9,11.514-5.8,23.393,0,0,8.046-19.462,30.41-24.233,0,0-13.755,12.256-14.971,23.39,0,0,15.9-18.806,37.239-21.615a25.384,25.384,0,0,0-10.1,15.065s14.781-6.922,16.281-16.653c0,0,1.5,7.765-1.592,13.471,0,0,5.426-2.711,5.426-12.069a8.683,8.683,0,0,1,1.686,6.27s6.27-9.265,12.256-10.108A20.945,20.945,0,0,0,630.592,550s10.48-13.287,27.131-15.719c0,0-10.478,5.618-12.536,15.532,0,0,9.731-9.728,22.267-12.909a16.669,16.669,0,0,0-3.931,10.85s11.6-4.114,11.044-17.213c0,0,5.612,8.045,2.805,17.776,0,0,3.93-8.045,7.861-10.854,0,0-2.432,3.744-1.872,10.666,0,0,7.673-12.536,18.151-14.785a22.037,22.037,0,0,0-8.606,15.158,25.72,25.72,0,0,1,20.582-7.3s-6.736,3.743-10.478,9.541c0,0,126.276-33.272,295.02,11.135,5.33,1.406-3.089-10.572-7.393-12.444s11.973-2.995,17.216,10.854c0,0,1.123-11.417-5.617-17.966,0,0,11.976,2.435,14.409,16.657,0,0,1.309-11.79,7.3-15.345a46.273,46.273,0,0,0,0,15.532s5.054-14.222,19.462-15.159a23.931,23.931,0,0,0-6.923,13.1s9.354-2.622,15.158-2.059c0,0-8.045,3.745-11.044,8.8,0,0,11.6-2.059,17.218.936a30.516,30.516,0,0,0-8.8,3.741s11.9.147,19.955,5.757V5.808Z" transform="translate(-137.601 -5.808)" fill="url(#linear-gradient)"/>
        <path id="Path_6850" data-name="Path 6850" d="M1053.9,79.3c-10.034,6.14-11.983,21.495-11.983,21.495-12.763-1.246-15.762,9.849-15.762,9.849s-.392-20.526-14.067-21.359-16.8,10.541-16.8,10.541-7.166-17.473-30.224-14-24.489,22.741-24.489,22.741-3.775-8.043-10.421-5.268c-5.37,2.242-4.887,8.945-4.887,8.945s-6.448-9.989-15.045-7.49-9.771,11.647-9.771,11.647a10.327,10.327,0,0,0-10.942-1.872c-6.253,2.7-6.056,9.571-6.056,9.571s-13.486-14.146-26.379-9.777S841.237,132,841.237,132s-10.554-19.346-26.185-14.353c-11.394,3.638-14.459,12.48-14.459,12.48s-2.15-16.431-16.217-20.176c-10.575-2.814-19.929,2.912-19.929,2.912,1.169-1.039,4.67-7.515,1.169-12.48C761.516,94.558,753.7,98.3,753.7,98.3,758.584,80,741,71.677,724.582,74.8s-21.1,15.595-21.1,15.595c-3.517-11.657-13.679-7.9-13.679-7.9.392-26-26.962-40.564-53.538-29.957s-21.495,29.332-21.495,29.332-11.42-12.9-25.01-8.529c-10.39,3.342-14.85,12.689-14.85,12.689-7.621-7.072-12.113.833-12.113.833S559.863,75.628,553.22,75s-11.529,4.3-11.529,4.3-8.857-32.452-38.817-24.685-28.66,35.769-28.66,35.769c-11.723-16.927-25.922-7.062-25.922-7.062s-2.183-19.592-14.852-24.547c-16.282-6.373-27.359.986-27.359.986s-13.172-24.336-30.086-15.888c-11.546,5.767-11.726,20.309-11.726,20.309-12.5-6.657-19.539,2.078-19.539,2.078s.782-13.308-11.332-16.224-16.805,8.738-16.805,8.738.391-34.118-18.758-37.029S269.7,41.2,269.7,41.2c-24.5-11.5-34.781,9.262-34.781,9.262S231.4,23,205.667,25.913,185.27,56.7,185.27,56.7c-8.614-12.063-19-2.358-19-2.358-9.955-16.559-21.207-13.347-28.66-8.066v578.3c95.613-43.9,855.709-46.587,931.346-21.018V77.2C1065.387,75.994,1060.076,75.525,1053.9,79.3Z" transform="translate(-137.608 -4.212)" fill="#a3d9f2" opacity="0.5" style="mix-blend-mode: multiply;isolation: isolate"/>
        <path id="Path_6851" data-name="Path 6851" d="M1053.9,85.1c-10.034,6.14-11.983,21.495-11.983,21.495-12.763-1.249-15.762,9.844-15.762,9.844s-.392-20.525-14.067-21.355-16.8,10.537-16.8,10.537-7.166-17.473-30.224-14.006-24.489,22.744-24.489,22.744-3.775-8.045-10.421-5.271c-5.37,2.243-4.887,8.945-4.887,8.945s-6.448-9.984-15.045-7.489-9.771,11.65-9.771,11.65a10.318,10.318,0,0,0-10.942-1.872c-6.253,2.7-6.056,9.568-6.056,9.568s-13.486-14.146-26.379-9.778-15.828,17.684-15.828,17.684-10.554-19.346-26.185-14.352c-11.394,3.638-14.459,12.48-14.459,12.48s-2.15-16.434-16.217-20.179c-10.575-2.815-19.929,2.912-19.929,2.912,1.169-1.04,4.67-7.516,1.169-12.48-4.1-5.823-11.917-2.079-11.917-2.079,4.884-18.306-12.7-26.628-29.118-23.507s-21.1,15.59-21.1,15.59c-3.517-11.657-13.679-7.9-13.679-7.9.392-26-26.962-40.563-53.538-29.953s-21.495,29.331-21.495,29.331-11.42-12.9-25.01-8.529c-10.39,3.338-14.85,12.689-14.85,12.689-7.621-7.072-12.113.83-12.113.83s-2.933-11.23-9.577-11.856-11.529,4.3-11.529,4.3-8.857-32.452-38.817-24.687-28.66,35.769-28.66,35.769c-11.723-16.927-25.922-7.062-25.922-7.062s-2.183-19.589-14.852-24.545c-16.282-6.37-27.359.985-27.359.985s-13.172-24.333-30.086-15.883c-11.546,5.766-11.726,20.3-11.726,20.3-12.5-6.656-19.539,2.082-19.539,2.082s.782-13.313-11.332-16.228-16.805,8.739-16.805,8.739.391-34.114-18.758-37.026S269.7,46.987,269.7,46.987c-24.5-11.5-34.781,9.262-34.781,9.262s-3.518-27.457-29.25-24.543-20.4,30.784-20.4,30.784c-8.614-12.063-19-2.356-19-2.356-9.955-16.558-21.207-13.346-28.66-8.069v578.3c95.613-43.9,855.709-46.591,931.346-21.022V82.991C1065.387,81.785,1060.076,81.315,1053.9,85.1Z" transform="translate(-137.608 -3.622)" fill="#a3d9f2" opacity="0.5" style="mix-blend-mode: multiply;isolation: isolate"/>
        <path id="Path_6852" data-name="Path 6852" d="M1045.191,276.045s-13.482-10.427-25.989-2.172-7.423,29.113-7.423,29.113-11.137-2.608-18.174,4.994-3.321,17.168-3.321,17.168c-4.687,1.739-4.3,10.427-4.3,10.427s-7.425-13.907-16.024-10a10.85,10.85,0,0,0-6.639,12.17s-7.036-9.566-14.852-4.348C937.824,340.51,944.953,356,944.953,356c-10.941-2.172-16.411,6.952-16.411,6.952s8.989-34.324-14.459-39.541S883.6,340.79,883.6,340.79c-13.289-8.689-17.977-1.735-17.977-1.735,4.3-13.906-2.346-37.37-21.054-36.068s-18.414,22.162-18.414,22.162c-11.61,4.933-10.09,17.57-9.525,20.68.1.446.143.707.143.707s-.061-.253-.143-.707c-.889-4.08-6.12-24.642-20.565-21.118-16.021,3.915-14.462,21.825-14.462,21.825-9.375-10.338-19.147-1.836-19.147-1.836s9.772-35.2-5.14-49.973-29.834-1.519-29.834-1.519-2.345-12.6-11.137-12.242-9.771,8.981-9.771,8.981c-6.446-4.343-10.552-1.3-10.552-1.3,3.908-3.475,4.105-10.428,0-13.036a7.045,7.045,0,0,0-7.815.219s-.587-20.209-12.31-23.9-21.685,3.041-21.685,3.041c4.3,6.52,1.756,12.167,1.756,12.167-8.985-9.994-17.195-4.56-17.195-4.56,3.908-8.476,11.334-7.39,11.334-7.39s-2.735-12.819-17-10.717c-19.2,2.828-17,23.757-17,23.757s-.973-9.851-9.242-10.142-12.832,8.4-12.832,8.4c-3.388-16.514-15.473-11.59-15.473-11.59,5.369-28.967-23.867-31.576-34.287-19.12-8.163,9.763-3.648,22.888-3.648,22.888-17.453-8.4-23.186,10.138-23.186,10.138-13.546-17.091-31.263-4.344-31.263-4.344,14.592,3.768,11.724,16.508,11.724,16.508s-12.505-13.323-26.831-9.844a27.331,27.331,0,0,0-18.761,16.22c3.649-27.808,18.761-29.258,18.761-29.258-26.315-8.111-35.952,14.776-35.952,14.776-4.17-13.323-14.766-4.927-14.766-4.927s6.876-25.24-9.724-31.286c-15.11-5.5-20.844,10.157-20.844,10.157S380.412,210,349.669,223.321c-17.156,7.436-12.505,32.445-12.505,32.445-25.53,0-21.361,27.808-21.361,27.808-11.4-8.679-16.644,4.295-16.644,4.295s-7.325-39.636-31.293-36.737-26.653,29.521-26.653,29.521c-20.4-9.3-29.1,7.558-29.1,7.558s-19.284-13.419-35.432,0-5.208,35.63-5.208,35.63c-8.6-2.316-9.119,6.233-9.119,6.233s-3.647-14.632-15.892-11.446a17.236,17.236,0,0,0-8.857,6.183V590.348c95.607-45.851,855.668,4.467,931.3,31.173v-376.5C1042.753,251.636,1045.191,276.045,1045.191,276.045Z" transform="translate(-137.608 16.035)" fill="#a3d9f2" opacity="0.5" style="mix-blend-mode: multiply;isolation: isolate"/>
        <path id="Path_6853" data-name="Path 6853" d="M1045.191,280.657s-13.482-10.427-25.989-2.173-7.423,29.115-7.423,29.115-11.137-2.608-18.174,5-3.321,17.165-3.321,17.165c-4.687,1.739-4.3,10.427-4.3,10.427s-7.425-13.906-16.024-9.994a10.846,10.846,0,0,0-6.639,12.167s-7.036-9.559-14.852-4.349c-10.648,7.11-3.518,22.6-3.518,22.6-10.941-2.173-16.411,6.953-16.411,6.953s8.989-34.328-14.459-39.542S883.6,345.4,883.6,345.4c-13.289-8.692-17.977-1.74-17.977-1.74,4.3-13.9-2.346-37.369-21.054-36.062s-18.414,22.161-18.414,22.161c-11.61,4.934-10.09,17.569-9.525,20.68.1.447.143.707.143.707s-.061-.257-.143-.707c-.889-4.081-6.12-24.642-20.565-21.117-16.021,3.91-14.462,21.824-14.462,21.824-9.375-10.338-19.147-1.836-19.147-1.836s9.772-35.2-5.14-49.972-29.834-1.519-29.834-1.519-2.345-12.6-11.137-12.244-9.771,8.983-9.771,8.983c-6.446-4.344-10.552-1.3-10.552-1.3,3.908-3.474,4.105-10.427,0-13.035a7.047,7.047,0,0,0-7.815.219s-.587-20.206-12.31-23.9-21.685,3.042-21.685,3.042c4.3,6.519,1.756,12.167,1.756,12.167-8.985-10-17.195-4.561-17.195-4.561,3.908-8.475,11.334-7.39,11.334-7.39s-2.735-12.819-17-10.717c-19.2,2.828-17,23.757-17,23.757s-.973-9.851-9.242-10.141-12.832,8.4-12.832,8.4c-3.388-16.513-15.473-11.591-15.473-11.591,5.369-28.967-23.867-31.576-34.287-19.119-8.163,9.761-3.648,22.887-3.648,22.887-17.453-8.4-23.186,10.137-23.186,10.137-13.546-17.09-31.263-4.344-31.263-4.344,14.592,3.768,11.724,16.507,11.724,16.507s-12.505-13.322-26.831-9.843a27.331,27.331,0,0,0-18.761,16.22c3.649-27.808,18.761-29.257,18.761-29.257-26.315-8.111-35.952,14.775-35.952,14.775-4.17-13.323-14.766-4.927-14.766-4.927s6.876-25.24-9.724-31.286c-15.11-5.5-20.844,10.158-20.844,10.158s-9.376-36.807-40.119-23.484c-17.156,7.436-12.505,32.445-12.505,32.445-25.53,0-21.361,27.809-21.361,27.809-11.4-8.679-16.644,4.294-16.644,4.294s-7.325-39.636-31.293-36.737-26.653,29.52-26.653,29.52c-20.4-9.294-29.1,7.559-29.1,7.559s-19.284-13.419-35.432,0-5.208,35.63-5.208,35.63c-8.6-2.315-9.119,6.231-9.119,6.231s-3.647-14.629-15.892-11.444a17.243,17.243,0,0,0-8.857,6.183V594.959c95.607-45.851,855.668,4.468,931.3,31.176v-376.5C1042.753,256.247,1045.191,280.657,1045.191,280.657Z" transform="translate(-137.608 16.504)" fill="#a3d9f2" opacity="0.5" style="mix-blend-mode: multiply;isolation: isolate"/>
        <path id="Path_6854" data-name="Path 6854" d="M1045.191,419.5s-13.482-9.391-25.989-1.955-7.423,26.208-7.423,26.208-11.137-2.349-18.174,4.5-3.321,15.451-3.321,15.451c-4.687,1.566-4.3,9.392-4.3,9.392s-7.425-12.521-16.024-9-6.639,10.954-6.639,10.954-7.036-8.608-14.852-3.911c-10.648,6.4-3.518,20.342-3.518,20.342a16.454,16.454,0,0,0-16.411,6.257s8.989-30.9-14.459-35.6-30.48,15.647-30.48,15.647c-13.289-7.822-17.977-1.565-17.977-1.565,4.3-12.521-2.346-33.643-21.054-32.469S826.159,463.7,826.159,463.7c-11.61,4.447-10.09,15.822-9.525,18.623.1.4.143.632.143.632s-.061-.226-.143-.632c-.889-3.674-6.12-22.184-20.565-19.012-16.021,3.52-14.462,19.645-14.462,19.645-9.375-9.3-19.147-1.648-19.147-1.648s9.772-31.686-5.14-44.989-29.834-1.368-29.834-1.368-2.345-11.344-11.137-11.024-9.771,8.088-9.771,8.088c-6.446-3.91-10.552-1.172-10.552-1.172,3.908-3.128,4.105-9.387,0-11.736a7.685,7.685,0,0,0-7.815.193s-.587-18.189-12.31-21.516-21.685,2.74-21.685,2.74c4.3,5.869,1.756,10.953,1.756,10.953-8.985-8.995-17.195-4.1-17.195-4.1a11.56,11.56,0,0,1,11.334-6.654s-2.735-11.539-17-9.648c-19.2,2.546-17,21.387-17,21.387s-.973-8.866-9.242-9.129-12.832,7.566-12.832,7.566c-3.388-14.867-15.473-10.434-15.473-10.434,5.369-26.079-23.867-28.428-34.287-17.214-8.163,8.788-3.648,20.605-3.648,20.605-17.453-7.563-23.186,9.128-23.186,9.128-13.546-15.389-31.263-3.915-31.263-3.915,14.592,3.392,11.724,14.862,11.724,14.862s-12.505-11.994-26.831-8.862-18.761,14.605-18.761,14.605c3.649-25.04,18.761-26.342,18.761-26.342-26.315-7.3-35.952,13.3-35.952,13.3-4.17-12-14.766-4.438-14.766-4.438s6.876-22.721-9.724-28.167c-15.11-4.954-20.844,9.148-20.844,9.148s-9.376-33.139-40.119-21.142c-17.156,6.693-12.505,29.21-12.505,29.21-25.53,0-21.361,25.034-21.361,25.034-11.4-7.813-16.644,3.867-16.644,3.867s-7.325-35.683-31.293-33.074-26.653,26.575-26.653,26.575c-20.4-8.366-29.1,6.807-29.1,6.807s-19.284-12.081-35.432,0-5.208,32.078-5.208,32.078c-8.6-2.086-9.119,5.61-9.119,5.61s-3.647-13.173-15.892-10.3a17.36,17.36,0,0,0-8.857,5.567V602.981c95.607-41.279,855.668-17.926,931.3,6.12V391.566C1042.753,397.519,1045.191,419.5,1045.191,419.5Z" transform="translate(-137.608 31.2)" fill="#a3d9f2" opacity="0.5" style="mix-blend-mode: multiply;isolation: isolate"/>
        <path id="Path_6855" data-name="Path 6855" d="M1045.191,422.747s-13.482-9.388-25.989-1.956S1011.78,447,1011.78,447s-11.137-2.346-18.174,4.5-3.321,15.45-3.321,15.45c-4.687,1.567-4.3,9.389-4.3,9.389s-7.425-12.517-16.024-9-6.639,10.953-6.639,10.953-7.036-8.6-14.852-3.911c-10.648,6.4-3.518,20.342-3.518,20.342a16.455,16.455,0,0,0-16.411,6.26s8.989-30.906-14.459-35.6-30.48,15.647-30.48,15.647c-13.289-7.822-17.977-1.565-17.977-1.565,4.3-12.517-2.346-33.642-21.054-32.468s-18.414,19.951-18.414,19.951c-11.61,4.445-10.09,15.823-9.525,18.625.1.4.143.629.143.629s-.061-.227-.143-.629c-.889-3.676-6.12-22.189-20.565-19.013-16.021,3.518-14.462,19.643-14.462,19.643-9.375-9.3-19.147-1.649-19.147-1.649s9.772-31.686-5.14-44.988-29.834-1.369-29.834-1.369-2.345-11.344-11.137-11.023-9.771,8.087-9.771,8.087c-6.446-3.91-10.552-1.171-10.552-1.171,3.908-3.132,4.105-9.388,0-11.734a7.667,7.667,0,0,0-7.815.193s-.587-18.189-12.31-21.518-21.685,2.739-21.685,2.739c4.3,5.87,1.756,10.954,1.756,10.954-8.985-8.995-17.195-4.109-17.195-4.109a11.561,11.561,0,0,1,11.334-6.649s-2.735-11.54-17-9.648c-19.2,2.55-17,21.388-17,21.388s-.973-8.867-9.242-9.132-12.832,7.567-12.832,7.567c-3.388-14.868-15.473-10.435-15.473-10.435,5.369-26.078-23.867-28.427-34.287-17.21-8.163,8.785-3.648,20.6-3.648,20.6-17.453-7.561-23.186,9.128-23.186,9.128-13.546-15.389-31.263-3.915-31.263-3.915,14.592,3.395,11.724,14.863,11.724,14.863s-12.505-11.994-26.831-8.863-18.761,14.606-18.761,14.606c3.649-25.037,18.761-26.344,18.761-26.344-26.315-7.3-35.952,13.3-35.952,13.3-4.17-11.994-14.766-4.435-14.766-4.435s6.876-22.724-9.724-28.168c-15.11-4.954-20.844,9.146-20.844,9.146s-9.376-33.136-40.119-21.142c-17.156,6.7-12.505,29.21-12.505,29.21-25.53,0-21.361,25.036-21.361,25.036-11.4-7.815-16.644,3.864-16.644,3.864s-7.325-35.682-31.293-33.071-26.653,26.576-26.653,26.576c-20.4-8.369-29.1,6.8-29.1,6.8s-19.284-12.082-35.432,0-5.208,32.081-5.208,32.081c-8.6-2.087-9.119,5.607-9.119,5.607s-3.647-13.174-15.892-10.3a17.375,17.375,0,0,0-8.857,5.567V606.234c95.607-41.28,855.668-17.926,931.3,6.117V394.819C1042.753,400.772,1045.191,422.747,1045.191,422.747Z" transform="translate(-137.608 31.531)" fill="#a3d9f2" opacity="0.5" style="mix-blend-mode: multiply;isolation: isolate"/>
      </g>
      <g id="Group_7654" data-name="Group 7654" transform="translate(37.409 305.455)">
        <path id="Path_6856" data-name="Path 6856" d="M363.357,265.9a23.48,23.48,0,0,0-14.841-14.35c-11.627-3.711-22.265,2.969-22.265,2.969s-5.192-9.9-24.241-9.9-26.219,18.306-25.723,33.148c0,0-18.223-4.207-24,12.45,0,0-7.371-2.835-13.358.823-7.284,4.454-10.883,17.81.253,23.934,7.338,4.03,17.064,1.462,17.064,1.462s1.977,11.711,13.685,12.7,19.46-7.586,19.46-7.586,1.478,10.1,15.336,12.366c16.163,2.64,21.933-12.366,21.933-12.366s8.74,14.8,29.355,12.679,23.416-18.286,23.416-18.286,21.766,8.312,33.312-4.618c8.245-9.235-3.959-23.913-17.976-20.285,0,0-1.485-19.129-21.769-15.995C373,275.048,374.324,267.133,363.357,265.9Z" transform="translate(-232.096 -243.956)" opacity="0.5" fill="url(#linear-gradient-2)" style="mix-blend-mode: multiply;isolation: isolate"/>
        <path id="Path_6857" data-name="Path 6857" d="M363.468,264.7a22.818,22.818,0,0,0-14.427-13.945c-11.3-3.608-21.64,2.884-21.64,2.884s-5.048-9.617-23.564-9.617-25.485,17.793-25,32.218c0,0-17.713-4.084-23.322,12.1,0,0-7.164-2.754-12.986.8-7.081,4.327-10.578,17.311.248,23.261,7.133,3.921,16.584,1.422,16.584,1.422s1.923,11.384,13.3,12.343,18.915-7.373,18.915-7.373,1.433,9.821,14.906,12.024c15.71,2.562,21.319-12.024,21.319-12.024s8.5,14.388,28.533,12.323S379.1,313.344,379.1,313.344s21.159,8.083,32.381-4.488c8.013-8.977-3.849-23.244-17.473-19.715,0,0-1.442-18.6-21.16-15.552C372.845,273.59,374.127,265.9,363.468,264.7Z" transform="translate(-231.71 -244.017)" fill="url(#linear-gradient-3)"/>
        <path id="Path_6858" data-name="Path 6858" d="M247.93,293.219a11.491,11.491,0,0,1,9.62,6.733C261.636,295.5,265,298.39,265,298.39s1.2-9.258,7.936-9.859,9.015,3.126,9.015,3.126c-4.328,8.534,0,12.263,0,12.263,4.929-18.033,20.677-14.065,20.677-14.065a12.276,12.276,0,0,0-15.627.239s-3.247-6.009,0-10.1a9.028,9.028,0,0,1,8.293-3.129c4.569-13.343,22.242-11.66,27.051-1.322s-1.083,15.991-1.083,15.991c8.055-3.125,10.1,3.728,10.1,3.728,4.569-7.816,11.9-3.848,10.58-3.249-9.793,4.451-6.611,14.31-6.611,14.31s3.125-11.3,14.666-13.309,18.272,4.409,18.272,4.409c-5.89-10.576-15.628-7.811-15.628-7.811,2.164-5.771,6.372-3.126,6.372-3.126a12.167,12.167,0,0,1,14.908-7.216,15.259,15.259,0,0,1,11.66,15.991c6.493-.963,7.454,3.847,7.454,3.847,3.354-4.575,13.651-7.206,19.895-4a9.975,9.975,0,0,1-1.459,11.369c-11.223,12.57-32.381,4.488-32.381,4.488s-2.725,15.708-22.761,17.774S327.8,316.423,327.8,316.423s-5.609,14.585-21.319,12.024c-13.473-2.2-14.906-12.024-14.906-12.024s-7.535,8.335-18.915,7.373-13.3-12.343-13.3-12.343-9.451,2.5-16.584-1.422c-4.424-2.429-6.456-6.038-6.828-9.749C237.132,294.638,242.1,292.562,247.93,293.219Z" transform="translate(-231.704 -241.645)" opacity="0.5" fill="url(#linear-gradient-4)" style="mix-blend-mode: multiply;isolation: isolate"/>
        <path id="Path_6859" data-name="Path 6859" d="M239.184,293.862c-.248.944-1.257,5.654,2.773,7.6a8.959,8.959,0,0,0,7.855.323s-.722,3.041,1.284,4.567a4.6,4.6,0,0,0,5.931-.083,9.633,9.633,0,0,0,6.892,1.042c2.566.563,3.285,3.608,3.285,3.608,4.329-1.922,6.974.561,6.974.561a7.827,7.827,0,0,1,6.411-6.01,3.759,3.759,0,0,0-1.524,4.488c7.936-5.771,13.788-1.284,13.788-1.284a3.9,3.9,0,0,0-3.127-3.688,5.2,5.2,0,0,1,5.69,4.971,6.537,6.537,0,0,1,5.61,3.044s.963-3.764,7.7-5.207,11.3,3.6,11.3,3.6c7.933,4.731,12.181-2,12.181-2s.321,6.654,5.53,7.293,6.893-3.2,6.893-3.2,9.459,9.458,18.034,6.409,7.294-12.343,7.294-12.343a9.627,9.627,0,0,0,8.174-7.052,5.167,5.167,0,0,0,6.252,4.891c6.01-.723,6.17-3.849,6.17-3.849s6.493,4.971,13.707,2.726a16.841,16.841,0,0,0,9.657-8.753,9.692,9.692,0,0,1-2.444,8.272c-11.223,12.57-32.381,4.488-32.381,4.488s-2.725,15.708-22.761,17.774S327.8,313.722,327.8,313.722s-5.609,14.585-21.319,12.024c-13.473-2.2-14.906-12.024-14.906-12.024s-7.535,8.335-18.915,7.373-13.3-12.343-13.3-12.343-9.451,2.5-16.584-1.422c-4.4-2.418-6.431-6-6.82-9.688A5.744,5.744,0,0,0,239.184,293.862Z" transform="translate(-231.704 -238.944)" opacity="0.5" fill="url(#linear-gradient-5)" style="mix-blend-mode: multiply;isolation: isolate"/>
      </g>
      <g id="Group_7658" data-name="Group 7658" transform="translate(367.654 194.394)">
        <g id="Group_7655" data-name="Group 7655" transform="translate(321.699)">
          <path id="Path_6860" data-name="Path 6860" d="M910.14,207.159s-.157-15.858-16.51-16.507c-14.169-.563-16.189,19.878-16.189,19.878s-7.336-7.739-16.054,4.492c0,0-5.047-5.547-18.627-3.745s-19.159,17.76-12.029,23.5c0,0-5.571-.637-6.107,7.51s14.8,16.683,25.456,9.922c0,0,10.178,15.25,27.766,8.928,0,0,11.283,9.3,20.938-3.837a28.044,28.044,0,0,0,26.325,4.973c15-4.784,13.709-17.2,13.709-17.2s28.3,7.413,25.795-16.824c-1.859-18.02-18.72-14.661-22.525-8.2,0,0-4.45-19.773-26.768-12.617A3.6,3.6,0,0,0,910.14,207.159Z" transform="translate(-824.611 -189.288)" opacity="0.5" fill="url(#linear-gradient-6)" style="mix-blend-mode: multiply;isolation: isolate"/>
          <path id="Path_6861" data-name="Path 6861" d="M908.375,205.575s-.156-15.517-16.159-16.151c-13.862-.55-15.84,19.453-15.84,19.453s-7.179-7.576-15.711,4.394c0,0-4.938-5.431-18.227-3.665s-18.75,17.377-11.77,22.993c0,0-5.454-.623-5.977,7.35s14.48,16.325,24.91,9.7c0,0,9.958,14.929,27.169,8.742,0,0,11.043,9.1,20.492-3.758a27.429,27.429,0,0,0,25.758,4.868c14.676-4.68,13.419-16.826,13.419-16.826s27.689,7.252,25.24-16.464c-1.819-17.634-18.317-14.346-22.04-8.023,0,0-4.355-19.353-26.2-12.347A3.518,3.518,0,0,0,908.375,205.575Z" transform="translate(-824.604 -189.413)" fill="url(#linear-gradient-7)"/>
          <path id="Path_6862" data-name="Path 6862" d="M824.69,238.129c.523-7.972,5.977-7.35,5.977-7.35,4.035,1.567,5.177,6.131,5.177,6.131a4.274,4.274,0,0,1,5.077-3.029c-4.191-4.714-2.234-11.851,4.285-12.323s7.982,3.931,7.982,3.931c-2.966,4.5-.85,9.718-.85,9.718,2.739-12.63,11.654-7.826,11.654-7.826-3.288-5.756-8.111-3.558-8.111-3.558s-.014-9.9,6.319-10.551,8.52,5.854,8.52,5.854,2.659-5.228,5.966-4.181,4.878,4.845,4.878,4.845-.354-11.584,9.112-12.427c11.046-.983,11.779,9.278,11.779,9.278-5.023,2.621-5.922,9.522-5.922,9.522s1.182-4.874,8.365-5.417,9.608,3.368,9.608,3.368c-1.869-8.322-8.531-7.635-8.531-7.635s4.067-9.528,14.3-6.623,11.095,14.5,11.095,14.5c6.259-4.608,9.107,3.414,9.107,3.414,2.1-4.174,7.317-9.031,13.936-6.09,2.425,1.075,5.974,4.88,6.926,10.037-3.528,14.732-24.9,9.143-24.9,9.143S937.7,253,923.02,257.685a27.429,27.429,0,0,1-25.758-4.868c-9.449,12.857-20.492,3.758-20.492,3.758-17.211,6.188-27.169-8.742-27.169-8.742C839.17,254.454,824.165,246.105,824.69,238.129Z" transform="translate(-824.604 -187.593)" opacity="0.5" fill="url(#linear-gradient-8)" style="mix-blend-mode: multiply;isolation: isolate"/>
          <path id="Path_6863" data-name="Path 6863" d="M824.69,235.565a13.662,13.662,0,0,1,.34-2.292c1.862,7.535,12.544,10.071,12.544,10.071s.416-3.312,4.634-4.041,5.474,4.1,5.474,4.1c3.874-2.864,5.874-.6,5.874-.6s3.154-2.469,6.649-1.641,3.464,5.435,3.464,5.435c6.939-5.371,11.791.416,11.791.416,2.5-6.347,13.042-6.99,10.523-5.691s-2.917,4.757-2.917,4.757c10.23-6.1,14.771-.041,14.016-2.486s-5.175-3.625-5.175-3.625a13.53,13.53,0,0,1,13.75,7.2c9.537-.67,8.612-7.126,8.612-7.126a8.028,8.028,0,0,0,8.549,6.99c11.153-.094,10.493-10.885,10.493-10.885,5.841.288,5.181-3.655,5.181-3.655,7.392,4.178,15.326,4.234,20.762,1.289-6.453,8.8-22.815,4.518-22.815,4.518s1.257,12.146-13.419,16.826a27.429,27.429,0,0,1-25.758-4.868c-9.449,12.857-20.492,3.758-20.492,3.758C859.558,260.2,849.6,245.27,849.6,245.27,839.17,251.89,824.165,243.541,824.69,235.565Z" transform="translate(-824.604 -185.029)" opacity="0.5" fill="url(#linear-gradient-9)" style="mix-blend-mode: multiply;isolation: isolate"/>
        </g>
        <g id="Group_7656" data-name="Group 7656" transform="translate(417.085 112.532)">
          <path id="Path_6864" data-name="Path 6864" d="M796.4,335.081a20.793,20.793,0,0,1,13.143-12.707c10.3-3.286,19.72,2.632,19.72,2.632s4.6-8.766,21.47-8.766,23.224,16.215,22.785,29.358c0,0,16.14-3.722,21.254,11.027,0,0,6.526-2.512,11.83.73,6.453,3.944,9.642,15.774-.223,21.2-6.5,3.572-15.115,1.3-15.115,1.3s-1.75,10.371-12.12,11.247-17.237-6.72-17.237-6.72-1.306,8.951-13.583,10.953c-14.315,2.339-19.429-10.953-19.429-10.953s-7.74,13.112-26,11.229-20.739-16.2-20.739-16.2-19.279,7.366-29.5-4.088c-7.3-8.18,3.506-21.177,15.923-17.966,0,0,1.311-16.941,19.279-14.167C787.861,343.189,786.69,336.177,796.4,335.081Z" transform="translate(-750.292 -316.241)" opacity="0.5" fill="url(#linear-gradient-10)" style="mix-blend-mode: multiply;isolation: isolate"/>
          <path id="Path_6865" data-name="Path 6865" d="M795.112,336.578a20.206,20.206,0,0,1,12.78-12.353c10.007-3.2,19.167,2.555,19.167,2.555s4.47-8.519,20.871-8.519S870.5,334.022,870.078,346.8c0,0,15.688-3.62,20.655,10.718,0,0,6.346-2.438,11.5.713,6.274,3.831,9.372,15.331-.217,20.6-6.319,3.473-14.691,1.26-14.691,1.26s-1.7,10.08-11.784,10.934-16.75-6.534-16.75-6.534-1.274,8.7-13.207,10.648c-13.912,2.272-18.881-10.648-18.881-10.648s-7.527,12.745-25.274,10.916-20.159-15.741-20.159-15.741-18.739,7.156-28.677-3.977c-7.1-7.948,3.409-20.589,15.476-17.46,0,0,1.276-16.471,18.742-13.772C786.811,344.457,785.675,337.641,795.112,336.578Z" transform="translate(-750.292 -316.035)" fill="url(#linear-gradient-11)"/>
          <path id="Path_6866" data-name="Path 6866" d="M897.442,361.842a10.164,10.164,0,0,0-8.519,5.963c-3.622-3.941-6.6-1.386-6.6-1.386s-1.062-8.2-7.026-8.732-7.986,2.769-7.986,2.769c3.832,7.562,0,10.86,0,10.86-4.367-15.971-18.316-12.456-18.316-12.456a10.875,10.875,0,0,1,13.842.213s2.876-5.327,0-8.945a8,8,0,0,0-7.346-2.769c-4.047-11.819-19.7-10.33-23.961-1.172s.96,14.162.96,14.162c-7.135-2.769-8.945,3.3-8.945,3.3-4.045-6.919-10.54-3.407-9.369-2.875,8.672,3.944,5.858,12.669,5.858,12.669s-2.772-10.007-12.993-11.786-16.185,3.907-16.185,3.907c5.218-9.367,13.844-6.919,13.844-6.919-1.916-5.113-5.644-2.769-5.644-2.769a10.774,10.774,0,0,0-13.2-6.389,13.517,13.517,0,0,0-10.331,14.161c-5.746-.848-6.6,3.409-6.6,3.409-2.971-4.051-12.092-6.38-17.62-3.539a8.833,8.833,0,0,0,1.292,10.068c9.938,11.134,28.677,3.977,28.677,3.977s2.416,13.913,20.159,15.741S826.7,382.39,826.7,382.39s4.969,12.919,18.881,10.648c11.933-1.946,13.207-10.648,13.207-10.648s6.669,7.382,16.75,6.534,11.784-10.934,11.784-10.934,8.372,2.212,14.691-1.26a10.923,10.923,0,0,0,6.043-8.635C907,363.1,902.6,361.258,897.442,361.842Z" transform="translate(-750.291 -313.934)" opacity="0.5" fill="url(#linear-gradient-12)" style="mix-blend-mode: multiply;isolation: isolate"/>
          <path id="Path_6867" data-name="Path 6867" d="M905.187,362.41c.22.834,1.116,5-2.456,6.727a7.945,7.945,0,0,1-6.956.285s.637,2.7-1.139,4.045a4.068,4.068,0,0,1-5.251-.073,8.555,8.555,0,0,1-6.106.927c-2.272.5-2.912,3.194-2.912,3.194-3.831-1.706-6.173.492-6.173.492a6.945,6.945,0,0,0-5.68-5.324,3.332,3.332,0,0,1,1.349,3.979c-7.029-5.11-12.21-1.136-12.21-1.136a3.446,3.446,0,0,1,2.769-3.265,4.6,4.6,0,0,0-5.04,4.4,5.8,5.8,0,0,0-4.971,2.695s-.849-3.334-6.813-4.611-10.01,3.192-10.01,3.192c-7.027,4.191-10.789-1.772-10.789-1.772s-.287,5.889-4.9,6.46-6.1-2.838-6.1-2.838-8.375,8.375-15.975,5.676-6.46-10.934-6.46-10.934a8.531,8.531,0,0,1-7.239-6.244,4.574,4.574,0,0,1-5.538,4.328c-5.324-.636-5.467-3.4-5.467-3.4s-5.749,4.4-12.136,2.413a14.928,14.928,0,0,1-8.555-7.75,8.579,8.579,0,0,0,2.165,7.322c9.938,11.134,28.677,3.977,28.677,3.977s2.416,13.913,20.159,15.741S826.7,380,826.7,380s4.969,12.919,18.881,10.648C857.517,388.7,858.79,380,858.79,380s6.669,7.382,16.75,6.534S887.324,375.6,887.324,375.6s8.372,2.212,14.691-1.26a10.926,10.926,0,0,0,6.037-8.582A5.085,5.085,0,0,1,905.187,362.41Z" transform="translate(-750.291 -311.542)" opacity="0.5" fill="url(#linear-gradient-13)" style="mix-blend-mode: multiply;isolation: isolate"/>
        </g>
        <g id="Group_7657" data-name="Group 7657" transform="translate(0 26.333)">
          <path id="Path_6868" data-name="Path 6868" d="M701.9,287.494s-1.743-15.94,17.485-18.282c16.661-2.035,21.538,18.282,21.538,18.282s7.716-8.531,19.5,2.844c0,0,5.283-6.093,21.536-5.686S806.751,300.5,799.031,307c0,0,6.5-1.219,8.127,6.908s-15.441,18.286-28.85,12.6c0,0-10.158,16.371-31.693,11.843,0,0-12.19,10.5-25.19-1.687,0,0-11.634,11.069-30.477,7.724-18.29-3.253-18.284-15.849-18.284-15.849s-32.505,10.375-32.505-14.222c0-18.283,20.318-16.659,25.6-10.563,0,0,2.846-20.317,30.067-15.44C695.823,288.307,698.037,285.463,701.9,287.494Z" transform="translate(-640.157 -269.068)" opacity="0.5" fill="url(#linear-gradient-14)" style="mix-blend-mode: multiply;isolation: isolate"/>
          <path id="Path_6869" data-name="Path 6869" d="M700.585,288.928s-1.708-15.6,17.11-17.894c16.3-1.988,21.074,17.894,21.074,17.894s7.553-8.35,19.085,2.781c0,0,5.169-5.963,21.075-5.565s24.256,15.508,16.7,21.869c0,0,6.362-1.192,7.951,6.76s-15.106,17.893-28.228,12.325c0,0-9.942,16.025-31.015,11.592,0,0-11.931,10.278-24.654-1.649,0,0-11.386,10.833-29.823,7.556-17.9-3.182-17.891-15.507-17.891-15.507s-31.812,10.152-31.812-13.918c0-17.894,19.882-16.3,25.049-10.337,0,0,2.784-19.882,29.427-15.11C694.632,289.724,696.8,286.937,700.585,288.928Z" transform="translate(-640.157 -269.27)" fill="url(#linear-gradient-15)"/>
          <path id="Path_6870" data-name="Path 6870" d="M803.741,317.233c-1.59-7.952-7.951-6.76-7.951-6.76a9.556,9.556,0,0,0-5.366,6.687,5.5,5.5,0,0,0-6.365-2.513c4.377-5.167,1.195-12.125-6.561-11.927s-8.946,4.773-8.946,4.773c4.05,4.212,2.189,9.667,2.189,9.667-4.775-12.4-14.713-6.647-14.713-6.647a7.984,7.984,0,0,1,9.145-4.414s-1.192-9.94-8.747-9.94a9.537,9.537,0,0,0-9.345,6.76s-3.776-4.971-7.553-3.58a9.571,9.571,0,0,0-5.17,5.369s-1-11.666-12.275-11.531c-13.162.156-12.774,10.536-12.774,10.536,6.246,2.109,8.151,8.947,8.151,8.947s-1.987-4.772-10.536-4.574-10.935,4.374-10.935,4.374a9.426,9.426,0,0,1,9.147-8.548s-5.967-9.146-17.7-5.168-11.332,15.7-11.332,15.7c-7.952-3.976-10.335,4.377-10.335,4.377-2.984-3.979-9.744-8.313-17.2-4.676-2.731,1.334-6.459,5.523-6.951,10.8,5.958,14.425,30.512,6.6,30.512,6.6s-.005,12.325,17.891,15.507c18.437,3.277,29.823-7.556,29.823-7.556,12.723,11.927,24.654,1.649,24.654,1.649,21.072,4.433,31.014-11.592,31.014-11.592C788.634,335.126,805.333,325.187,803.741,317.233Z" transform="translate(-640.318 -271.729)" opacity="0.5" fill="url(#linear-gradient-16)" style="mix-blend-mode: multiply;isolation: isolate"/>
          <path id="Path_6871" data-name="Path 6871" d="M804.116,319.937a11.892,11.892,0,0,0-.683-2.268c-1.278,7.76-13.579,11.413-13.579,11.413s-.9-3.278-5.966-3.58-5.964,4.686-5.964,4.686c-4.919-2.472-7.01,0-7.01,0s-4.024-2.149-8.051-.958-3.43,5.816-3.43,5.816c-8.848-4.673-13.866,1.64-13.866,1.64-3.729-6.113-16.253-5.664-13.122-4.623a6.861,6.861,0,0,1,4.026,4.476c-12.823-5.07-17.446,1.49-16.849-1.046s5.665-4.175,5.665-4.175c-12.078.151-15.357,8.651-15.357,8.651-11.343.312-11.034-6.265-11.034-6.265s0,7.158-9.246,7.9c-13.18,1.063-13.718-9.84-13.718-9.84-6.858.893-6.561-3.131-6.561-3.131-8.218,4.96-17.576,5.838-24.358,3.44,8.691,8.17,27.491,2.177,27.491,2.177s-.005,12.325,17.891,15.507c18.437,3.277,29.823-7.556,29.823-7.556,12.723,11.927,24.654,1.649,24.654,1.649,21.072,4.433,31.015-11.592,31.015-11.592C789.009,337.829,805.708,327.891,804.116,319.937Z" transform="translate(-640.693 -274.433)" opacity="0.5" fill="url(#linear-gradient-17)" style="mix-blend-mode: multiply;isolation: isolate"/>
        </g>
      </g>
      <g id="Group_7661" data-name="Group 7661" transform="translate(7.117 73.955)">
        <g id="Group_7659" data-name="Group 7659" transform="translate(9.897 68.176)">
          <path id="Path_6872" data-name="Path 6872" d="M227.654,154.6s-.337-15.838-14.7-16.691C200.519,137.167,199,157.559,199,157.559s-6.535-7.826-14.03,4.28c0,0-4.5-5.606-16.391-3.974s-16.59,17.491-10.26,23.314c0,0-4.9-.71-5.264,7.423s13.2,16.847,22.463,10.228c0,0,9.124,15.361,24.475,9.268,0,0,10.02,9.428,18.327-3.569,0,0,9.668,10.028,23.162,5.3,13.1-4.59,11.815-17,11.815-17s24.922,7.759,22.421-16.477c-1.858-18.021-16.612-14.878-19.87-8.473,0,0-4.155-19.806-23.649-12.936A2.949,2.949,0,0,0,227.654,154.6Z" transform="translate(-153.05 -134.496)" opacity="0.5" fill="url(#linear-gradient-18)" style="mix-blend-mode: multiply;isolation: isolate"/>
          <path id="Path_6873" data-name="Path 6873" d="M227.822,151.163s-.333-15.5-14.382-16.334c-12.172-.727-13.654,19.229-13.654,19.229s-6.4-7.656-13.73,4.188c0,0-4.4-5.484-16.042-3.888s-16.233,17.117-10.037,22.813c0,0-4.794-.693-5.152,7.263s12.913,16.488,21.981,10.009c0,0,8.927,15.035,23.953,9.071,0,0,9.8,9.227,17.933-3.492,0,0,9.461,9.811,22.666,5.187,12.818-4.491,11.56-16.638,11.56-16.638s24.39,7.593,21.944-16.123c-1.82-17.634-16.257-14.559-19.445-8.289,0,0-4.064-19.384-23.14-12.663A2.888,2.888,0,0,0,227.822,151.163Z" transform="translate(-152.871 -134.809)" fill="url(#linear-gradient-19)"/>
          <path id="Path_6874" data-name="Path 6874" d="M154.825,182.616c.358-7.956,5.152-7.263,5.152-7.263,3.56,1.613,4.621,6.187,4.621,6.187,1.214-3.961,4.416-2.962,4.416-2.962-3.738-4.761-2.109-11.86,3.605-12.25s7.054,4.025,7.054,4.025c-2.545,4.458-.623,9.695-.623,9.695,2.243-12.577,10.125-7.666,10.125-7.666-2.958-5.793-7.164-3.658-7.164-3.658s-.133-9.884,5.414-10.458,7.547,5.954,7.547,5.954,2.27-5.184,5.184-4.1,4.342,4.9,4.342,4.9-.456-11.571,7.837-12.294c9.684-.843,10.455,9.415,10.455,9.415-4.375,2.553-5.077,9.436-5.077,9.436s.976-4.854,7.274-5.3,8.474,3.481,8.474,3.481c-1.746-8.335-7.586-7.732-7.586-7.732s3.45-9.464,12.468-6.433,9.916,14.62,9.916,14.62c5.434-4.522,8.037,3.528,8.037,3.528,1.786-4.145,6.307-8.929,12.152-5.907,2.142,1.106,5.305,4.95,6.2,10.114-2.909,14.665-21.734,8.811-21.734,8.811s1.258,12.147-11.56,16.638c-13.2,4.624-22.666-5.187-22.666-5.187-8.129,12.719-17.933,3.492-17.933,3.492-15.026,5.964-23.953-9.071-23.953-9.071C167.738,199.1,154.463,190.575,154.825,182.616Z" transform="translate(-152.871 -132.991)" opacity="0.5" fill="url(#linear-gradient-20)" style="mix-blend-mode: multiply;isolation: isolate"/>
          <path id="Path_6875" data-name="Path 6875" d="M154.825,180.061a15.09,15.09,0,0,1,.27-2.285c1.728,7.548,11.133,10.218,11.133,10.218a4.718,4.718,0,0,1,4.016-3.977c3.691-.677,4.856,4.164,4.856,4.164,3.362-2.812,5.144-.53,5.144-.53s2.738-2.425,5.816-1.552,3.109,5.47,3.109,5.47c6.019-5.278,10.349.566,10.349.566,2.115-6.307,11.356-6.816,9.165-5.551s-2.5,4.715-2.5,4.715c8.9-5.969,12.961.147,12.266-2.3s-4.583-3.685-4.583-3.685c8.884-.769,12.155,7.36,12.155,7.36,8.36-.55,7.463-7.01,7.463-7.01s.73,7.053,7.592,7.089c9.787.047,9.074-10.737,9.074-10.737,5.127.359,4.5-3.585,4.5-3.585,6.539,4.268,13.5,4.425,18.237,1.549-5.553,8.708-19.966,4.224-19.966,4.224s1.258,12.147-11.56,16.638c-13.2,4.624-22.666-5.187-22.666-5.187-8.129,12.719-17.933,3.492-17.933,3.492-15.026,5.964-23.953-9.071-23.953-9.071C167.738,196.549,154.463,188.02,154.825,180.061Z" transform="translate(-152.871 -130.436)" opacity="0.5" fill="url(#linear-gradient-21)" style="mix-blend-mode: multiply;isolation: isolate"/>
        </g>
        <g id="Group_7660" data-name="Group 7660">
          <path id="Path_6876" data-name="Path 6876" d="M204.848,97.767a27.406,27.406,0,0,1,17.327-16.75c13.573-4.331,25.991,3.465,25.991,3.465s6.064-11.551,28.3-11.551,30.611,21.368,30.033,38.7c0,0,21.273-4.907,28.011,14.535,0,0,8.6-3.308,15.595.963,8.506,5.2,12.708,20.792-.294,27.941-8.567,4.708-19.921,1.709-19.921,1.709s-2.308,13.669-15.977,14.822-22.719-8.855-22.719-8.855-1.723,11.8-17.905,14.439c-18.867,3.082-25.605-14.439-25.605-14.439s-10.2,17.284-34.269,14.8-27.339-21.348-27.339-21.348-25.41,9.709-38.888-5.39c-9.626-10.781,4.621-27.915,20.986-23.681,0,0,1.732-22.331,25.413-18.673C193.586,108.451,192.045,99.21,204.848,97.767Z" transform="translate(-144.068 -72.931)" opacity="0.5" fill="url(#linear-gradient-10)" style="mix-blend-mode: multiply;isolation: isolate"/>
          <path id="Path_6877" data-name="Path 6877" d="M203.147,99.735A26.635,26.635,0,0,1,219.99,83.454c13.193-4.211,25.263,3.368,25.263,3.368s5.895-11.23,27.509-11.23,29.754,20.772,29.193,37.616c0,0,20.678-4.771,27.228,14.129,0,0,8.364-3.215,15.158.935,8.267,5.051,12.351,20.209-.289,27.159-8.325,4.574-19.36,1.658-19.36,1.658s-2.245,13.286-15.532,14.409-22.083-8.608-22.083-8.608-1.675,11.47-17.4,14.036c-18.339,2.995-24.889-14.036-24.889-14.036s-9.918,16.8-33.309,14.388S184.9,156.53,184.9,156.53s-24.7,9.436-37.8-5.24c-9.356-10.48,4.491-27.135,20.4-23.017,0,0,1.685-21.707,24.7-18.153C192.2,110.12,190.7,101.138,203.147,99.735Z" transform="translate(-144.068 -72.66)" fill="url(#linear-gradient-11)"/>
          <path id="Path_6878" data-name="Path 6878" d="M338.024,133.036a13.407,13.407,0,0,0-11.227,7.859c-4.773-5.194-8.7-1.826-8.7-1.826s-1.4-10.807-9.264-11.507-10.525,3.648-10.525,3.648c5.053,9.965,0,14.315,0,14.315-5.756-21.052-24.142-16.421-24.142-16.421a14.336,14.336,0,0,1,18.247.28s3.79-7.016,0-11.79-9.685-3.648-9.685-3.648c-5.333-15.578-25.965-13.613-31.579-1.543s1.263,18.666,1.263,18.666c-9.4-3.648-11.788,4.351-11.788,4.351-5.334-9.125-13.9-4.491-12.351-3.791,11.432,5.2,7.719,16.7,7.719,16.7s-3.649-13.193-17.123-15.538-21.333,5.151-21.333,5.151c6.875-12.35,18.244-9.122,18.244-9.122-2.525-6.736-7.437-3.651-7.437-3.651a14.205,14.205,0,0,0-17.4-8.419c-15.136,4.287-13.615,18.666-13.615,18.666-7.579-1.123-8.7,4.491-8.7,4.491-3.915-5.337-15.937-8.409-23.226-4.664a11.647,11.647,0,0,0,1.7,13.272c13.1,14.676,37.8,5.24,37.8,5.24s3.181,18.34,26.573,20.749,33.309-14.388,33.309-14.388,6.55,17.03,24.889,14.036c15.729-2.566,17.4-14.036,17.4-14.036s8.8,9.731,22.083,8.608,15.532-14.409,15.532-14.409,11.035,2.915,19.36-1.658c5.166-2.841,7.536-7.05,7.97-11.384C350.629,134.692,344.826,132.265,338.024,133.036Z" transform="translate(-144.067 -69.89)" opacity="0.5" fill="url(#linear-gradient-12)" style="mix-blend-mode: multiply;isolation: isolate"/>
          <path id="Path_6879" data-name="Path 6879" d="M348.234,133.784c.291,1.1,1.468,6.6-3.238,8.868-5.24,2.529-9.169.376-9.169.376s.842,3.555-1.5,5.335a5.373,5.373,0,0,1-6.922-.094,11.267,11.267,0,0,1-8.047,1.216c-2.995.652-3.835,4.21-3.835,4.21-5.054-2.249-8.141.653-8.141.653a9.141,9.141,0,0,0-7.485-7.016,4.387,4.387,0,0,1,1.777,5.24c-9.264-6.74-16.095-1.5-16.095-1.5a4.553,4.553,0,0,1,3.65-4.3c-6.364-.28-6.644,5.8-6.644,5.8a7.63,7.63,0,0,0-6.549,3.555s-1.123-4.4-8.984-6.084-13.193,4.211-13.193,4.211c-9.263,5.52-14.222-2.338-14.222-2.338s-.375,7.765-6.456,8.515-8.047-3.744-8.047-3.744-11.041,11.04-21.051,7.485-8.517-14.408-8.517-14.408a11.247,11.247,0,0,1-9.543-8.236s-.281,6.549-7.3,5.711-7.2-4.5-7.2-4.5-7.579,5.8-16,3.182a19.654,19.654,0,0,1-11.273-10.215,11.3,11.3,0,0,0,2.854,9.655c13.1,14.676,37.8,5.24,37.8,5.24s3.181,18.34,26.573,20.749,33.309-14.388,33.309-14.388S251.333,174,269.672,171c15.729-2.566,17.4-14.036,17.4-14.036s8.8,9.731,22.083,8.608,15.532-14.409,15.532-14.409,11.035,2.915,19.361-1.658c5.138-2.825,7.51-7.006,7.96-11.314C349.455,137.305,348.464,134.56,348.234,133.784Z" transform="translate(-144.067 -66.737)" opacity="0.5" fill="url(#linear-gradient-13)" style="mix-blend-mode: multiply;isolation: isolate"/>
        </g>
      </g>
      <rect id="Rectangle_1487" data-name="Rectangle 1487" width="921.089" height="654.458" transform="translate(2.635 6.822)" fill="none"/>
    </g>
  </g>
</svg>
