<svg id="Component_4_1" data-name="Component 4 – 1" xmlns="http://www.w3.org/2000/svg" xmlns:xlink="http://www.w3.org/1999/xlink" width="1523" height="259" viewBox="0 0 1523 259">
  <defs>
    <clipPath id="clip-path">
      <rect id="Rectangle_1438" data-name="Rectangle 1438" width="1523" height="259" transform="translate(5145.815 1191.303)" fill="#fff" stroke="#707070" stroke-width="1"/>
    </clipPath>
    <linearGradient id="linear-gradient" x1="0.5" y1="1" x2="0.5" gradientUnits="objectBoundingBox">
      <stop offset="0.006" stop-color="#bae1f6"/>
      <stop offset="0.104" stop-color="#b3dbf5"/>
      <stop offset="0.243" stop-color="#a0cef3"/>
      <stop offset="0.407" stop-color="#82b7f0"/>
      <stop offset="0.549" stop-color="#629fee"/>
      <stop offset="0.731" stop-color="#4c7cec"/>
      <stop offset="0.989" stop-color="#2a45e9"/>
    </linearGradient>
    <linearGradient id="linear-gradient-2" x1="0.5" y1="1" x2="0.5" gradientUnits="objectBoundingBox">
      <stop offset="0" stop-color="#cdd9ff"/>
      <stop offset="1" stop-color="#f6f9ff"/>
    </linearGradient>
    <linearGradient id="linear-gradient-5" x1="0.5" y1="1" x2="0.5" gradientUnits="objectBoundingBox">
      <stop offset="0" stop-color="#cddaf1"/>
      <stop offset="1" stop-color="#fff"/>
    </linearGradient>
    <clipPath id="clip-path-2">
      <path id="Path_6912" data-name="Path 6912" d="M980.806,832.723l32.632-.052.515,112.546-32.632.051Z" transform="translate(-980.806 -832.671)" fill="none" clip-rule="evenodd"/>
    </clipPath>
    <linearGradient id="linear-gradient-6" x1="0.505" y1="0.837" x2="0.497" y2="0.294" gradientUnits="objectBoundingBox">
      <stop offset="0" stop-color="#fb7e10"/>
      <stop offset="1" stop-color="#f9cf00"/>
    </linearGradient>
    <clipPath id="clip-path-3">
      <path id="Path_6913" data-name="Path 6913" d="M1007.3,832.738l14.628-.023.515,112.546-14.628.023Z" transform="translate(-1007.298 -832.715)" fill="none" clip-rule="evenodd"/>
    </clipPath>
    <linearGradient id="linear-gradient-7" x1="0.459" y1="1.557" x2="0.512" y2="0.179" gradientUnits="objectBoundingBox">
      <stop offset="0" stop-color="#fb7e10"/>
      <stop offset="1" stop-color="#f1e800"/>
    </linearGradient>
    <clipPath id="clip-path-4">
      <path id="Path_6923" data-name="Path 6923" d="M1050.35,832.685l9-.014.515,112.546-9,.014Z" transform="translate(-1050.35 -832.671)" fill="none" clip-rule="evenodd"/>
    </clipPath>
    <linearGradient id="linear-gradient-8" x1="0.507" y1="0.837" x2="0.494" y2="0.179" xlink:href="#linear-gradient-6"/>
  </defs>
  <g id="Mask_Group_37" data-name="Mask Group 37" transform="translate(-5145.815 -1191.303)" clip-path="url(#clip-path)">
    <g id="Group_7335" data-name="Group 7335" transform="translate(5036.813 1166.059)">
      <g id="Group_7334" data-name="Group 7334">
        <path id="Path_6091" data-name="Path 6091" d="M0,0H1543.4V540.226L0,503.177Z" transform="translate(104.18)" fill="url(#linear-gradient)"/>
        <path id="Path_6092" data-name="Path 6092" d="M140.942,0s326,69,576.476,107.206,552.536,79.54,552.536,79.54S781.565,93.373,645.868,29.4l429.154,76.946S897.321,56.2,742.016,0Z" transform="translate(235.15)" fill-rule="evenodd" opacity="0.2" fill="url(#linear-gradient-2)" style="mix-blend-mode: soft-light;isolation: isolate"/>
        <path id="Path_6093" data-name="Path 6093" d="M609.667,0S792.3,40.923,976.867,46.687c0,0-192.607-26.513-279.261-46.687Z" transform="translate(670.714)" fill-rule="evenodd" opacity="0.2" fill="url(#linear-gradient-2)" style="mix-blend-mode: soft-light;isolation: isolate"/>
        <path id="Path_6094" data-name="Path 6094" d="M-54,68.01s1170.232,104.884,1647.581,91.34V239.7L906,240.8l-28.856,41.959L108.767,270.209l374.3-27.734-519.54-70.735Z" transform="translate(54 49.588)" fill-rule="evenodd" opacity="0.2" fill="url(#linear-gradient-2)" style="mix-blend-mode: soft-light;isolation: isolate"/>
        <path id="Path_6095" data-name="Path 6095" d="M769.631,188.083a70.394,70.394,0,0,1-1.6-8.213A31.42,31.42,0,0,1,769.631,188.083Z" transform="translate(817.873 131.149)" fill-rule="evenodd" opacity="0.79" fill="url(#linear-gradient-5)" style="mix-blend-mode: multiply;isolation: isolate"/>
      </g>
    </g>
    <g id="Group_7686" data-name="Group 7686" transform="translate(6249.041 1220.995)">
      <g id="Group_7681" data-name="Group 7681" transform="translate(41.485 103.399)">
        <g id="Group_7680" data-name="Group 7680" transform="translate(0)" clip-path="url(#clip-path-2)">
          <rect id="Rectangle_1535" data-name="Rectangle 1535" width="33.147" height="112.598" fill="url(#linear-gradient-6)"/>
        </g>
      </g>
      <g id="Group_7683" data-name="Group 7683" transform="translate(50.487 103.413)">
        <g id="Group_7682" data-name="Group 7682" transform="translate(0 0)" clip-path="url(#clip-path-3)">
          <rect id="Rectangle_1536" data-name="Rectangle 1536" width="15.144" height="112.569" fill="url(#linear-gradient-7)"/>
        </g>
      </g>
      <path id="Path_6914" data-name="Path 6914" d="M982.323,1176.934l32.632-.051.049,10.668a10.875,10.875,0,0,1-11.037,10.686l-10.46.016a10.954,10.954,0,0,1-11.135-10.65Z" transform="translate(-940.322 -960.938)" fill="#ff7961" fill-rule="evenodd"/>
      <path id="Path_6915" data-name="Path 6915" d="M998.526,1204.371c-8.866-.047-16.095-3.49-16.114-7.707l-.049-10.676,9.016,3.156s-1.092,7.241,1.175,10.97c1.189,1.956,3.611,3.322,5.971,4.256" transform="translate(-940.349 -967.066)" fill="#ef6148" fill-rule="evenodd"/>
      <path id="Path_6916" data-name="Path 6916" d="M982.323,1176.934l32.632-.051.028,6.1-32.632.052Z" transform="translate(-940.322 -960.938)" fill="#d6e8f6" fill-rule="evenodd"/>
      <path id="Path_6917" data-name="Path 6917" d="M980.806,768.128,997.611,736.7l15.827,31.332Z" transform="translate(-939.321 -664.677)" fill="#fff2df" fill-rule="evenodd"/>
      <path id="Path_6918" data-name="Path 6918" d="M1011.711,748.714l6.3-12.019,5.922,11.724Z" transform="translate(-959.725 -664.677)" fill="#000446" fill-rule="evenodd"/>
      <path id="Path_6919" data-name="Path 6919" d="M997.611,736.7l-7.8,31.4-9,.028Z" transform="translate(-939.321 -664.677)" fill="#e4d7c6" fill-rule="evenodd"/>
      <path id="Path_6920" data-name="Path 6920" d="M1018.015,736.7l-2.966,11.938-3.338.081Z" transform="translate(-959.725 -664.677)" fill="#000446" fill-rule="evenodd"/>
      <path id="Path_6921" data-name="Path 6921" d="M991.324,1177l-9,.014.028,6.1,9-.014Z" transform="translate(-940.322 -961.014)" fill="#b7d2e7" fill-rule="evenodd"/>
      <path id="Path_6922" data-name="Path 6922" d="M1060.868,1176.883l-9,.014.028,6.1,9-.014Z" transform="translate(-986.236 -960.938)" fill="#b7d2e7" fill-rule="evenodd"/>
      <g id="Group_7685" data-name="Group 7685" transform="translate(65.115 103.399)">
        <g id="Group_7684" data-name="Group 7684" transform="translate(0)" clip-path="url(#clip-path-4)">
          <rect id="Rectangle_1537" data-name="Rectangle 1537" width="9.517" height="112.56" fill="url(#linear-gradient-8)"/>
        </g>
      </g>
      <path id="Path_6924" data-name="Path 6924" d="M940.228,1105.531s10.087-4.416,8.59-11.254-9.7-6.119-8.59-11.518,6.494-13.807,1.257-19.927-13.947-2.451-15.039-11.94c-.88-7.647-4.552-13.062-11.667-11.475-6.586,1.47-11.5,6.377-11.618,18.048-.132,12.427-9.226,8.935-9.339,18.089-.113,9.22,7.519,9.22,10.5,15.405,1.407,2.922-2.264,13.189,8.588,14.573Z" transform="translate(-881.892 -868.232)" fill="#21ac58"/>
      <path id="Path_6925" data-name="Path 6925" d="M955.815,1053.978s-.025.209-.063.616c-.114,1.224-.346,4.2-.346,8.359,0,12.154,1.989,34.354,14.562,52.073a.548.548,0,0,1,.054.1h-1.317c-12.457-17.941-14.4-40.021-14.4-52.168a85.143,85.143,0,0,1,.416-9.1.547.547,0,0,1,.61-.466.536.536,0,0,1,.484.587" transform="translate(-921.825 -877.822)" fill="#008c3f"/>
      <path id="Path_6926" data-name="Path 6926" d="M904.928,1153.566s1.587-8.439-4.366-11.875-12.031-6.11-11.371-11.646-.963-12.071-10.5-12.193c-5.9-.075-3.682-6.057-9.672-7.249-3.642-.725-6.043,2.933-6.507,6.523-.531,4.091,1.876,8.112-.884,11.443-3.582,4.316-5.036,12.366,2.662,14.656s.838,9.3,11.321,10.341h29.32Z" transform="translate(-858.715 -916.266)" fill="#a9ca5b" fill-rule="evenodd"/>
      <path id="Path_6927" data-name="Path 6927" d="M888.071,1122c.2,5.376,2.68,13.029,6.92,20.33s10.232,14.271,17.392,18.375a.53.53,0,0,1,.227.25h-1.892c-6.9-4.3-12.6-11.057-16.688-18.107-4.306-7.431-6.839-15.173-7.059-20.808a.551.551,0,0,1,1.1-.04" transform="translate(-877.369 -923.66)" fill="#009844"/>
      <path id="Path_6928" data-name="Path 6928" d="M1108.973,802.628h43.558a9.37,9.37,0,0,1,9.517,9.158V937.194a9.37,9.37,0,0,1-9.517,9.157h-53.075V811.786a9.369,9.369,0,0,1,9.517-9.158" transform="translate(-1017.655 -709.052)" fill="#a7deff" fill-rule="evenodd"/>
      <path id="Path_6929" data-name="Path 6929" d="M1121.9,802.628h43.558a9.37,9.37,0,0,1,9.517,9.158V937.194a9.37,9.37,0,0,1-9.517,9.157h-53.075V811.786a9.37,9.37,0,0,1,9.517-9.158" transform="translate(-1026.189 -709.052)" fill="#26a0f8" fill-rule="evenodd"/>
      <path id="Path_6930" data-name="Path 6930" d="M1129.73,802.628h43.559a9.369,9.369,0,0,1,9.516,9.157V937.194a9.37,9.37,0,0,1-9.516,9.157h-28l-21.046-142.037a9.707,9.707,0,0,1,5.486-1.686" transform="translate(-1034.021 -709.052)" fill="#0c8ae5" fill-rule="evenodd"/>
      <path id="Path_6931" data-name="Path 6931" d="M1123.421,619.855c6-4.616,11.665-4.727,23.017-4.128l30.554,204.661h-23.863c-7.912-52.957-21.8-147.576-29.708-200.533" transform="translate(-1033.477 -583.089)" fill="#9d5728" fill-rule="evenodd"/>
      <path id="Path_6932" data-name="Path 6932" d="M1123.422,621.917a19.351,19.351,0,0,1,6.487-3.383l30.214,203.916h-6.993c-7.912-52.957-21.8-147.576-29.708-200.533" transform="translate(-1033.478 -585.151)" fill="#844419" fill-rule="evenodd"/>
      <path id="Path_6933" data-name="Path 6933" d="M1190.656,616.256h88.861l30.324,204.661h-88.86Z" transform="translate(-1077.867 -583.618)" fill="#63260c" fill-rule="evenodd"/>
      <path id="Path_6934" data-name="Path 6934" d="M1258.832,662.3l11.224,74.924h60.555L1319.386,662.3Z" transform="translate(-1122.877 -614.607)" fill="#3d1605" fill-rule="evenodd"/>
      <path id="Path_6935" data-name="Path 6935" d="M1043.508,1234.187h-35.447v-1.944a1.99,1.99,0,0,1,2.021-1.945h33.426Z" transform="translate(-957.315 -996.887)" fill="#a7deff" fill-rule="evenodd"/>
      <path id="Path_6936" data-name="Path 6936" d="M1186.407,565.514h12.812l5.1,16.591h-12.812Z" transform="translate(-1075.061 -549.466)" fill="#e8546b" fill-rule="evenodd"/>
      <path id="Path_6937" data-name="Path 6937" d="M1244.766,574.718c6.435-4.95,12.5-5.07,24.674-4.427l32.667,219.5h-25.479c-8.485-56.8-23.377-158.28-31.862-215.078" transform="translate(-1113.59 -552.496)" fill="#930095" fill-rule="evenodd"/>
      <path id="Path_6938" data-name="Path 6938" d="M1244.766,576.929a20.737,20.737,0,0,1,6.958-3.628l32.4,218.706h-7.5c-8.485-56.8-23.377-158.279-31.862-215.078" transform="translate(-1113.59 -554.708)" fill="#6e0770" fill-rule="evenodd"/>
      <path id="Path_6939" data-name="Path 6939" d="M1316.877,570.857h95.306l32.524,219.505H1349.4Z" transform="translate(-1161.199 -553.063)" fill="#ac00af" fill-rule="evenodd"/>
      <path id="Path_6940" data-name="Path 6940" d="M1374.159,620.24,1386.2,700.6h64.946l-12.038-80.358Z" transform="translate(-1199.018 -586.299)" fill="#800481" fill-rule="evenodd"/>
      <path id="Path_6941" data-name="Path 6941" d="M1338.757,516.435h13.74l5.472,17.794h-13.741Z" transform="translate(-1175.645 -516.435)" fill="#2e7efa" fill-rule="evenodd"/>
      <path id="Path_6942" data-name="Path 6942" d="M1432.123,759.9c6-4.616,11.493-4.727,22.845-4.128L1478.7,914.642h-23.462c-7.912-52.957-15.207-101.786-23.119-154.744" transform="translate(-1237.286 -677.343)" fill="#ffbc4a" fill-rule="evenodd"/>
      <path id="Path_6943" data-name="Path 6943" d="M1432.123,761.96a19.352,19.352,0,0,1,6.487-3.383L1462.235,916.7h-6.993c-7.912-52.957-15.207-101.786-23.119-154.744" transform="translate(-1237.286 -679.404)" fill="#ea9b12" fill-rule="evenodd"/>
      <path id="Path_6944" data-name="Path 6944" d="M1498.339,756.3h89.207l23.736,158.872h-89.207Z" transform="translate(-1281.002 -677.871)" fill="#f1a524" fill-rule="evenodd"/>
      <path id="Path_6945" data-name="Path 6945" d="M1548.654,808.808l7.747,51.852h60.555l-7.747-51.852Z" transform="translate(-1314.221 -713.211)" fill="#d97907" fill-rule="evenodd"/>
      <path id="Path_6946" data-name="Path 6946" d="M1503.666,705.557h11.9l5.1,16.592h-11.9Z" transform="translate(-1284.52 -643.72)" fill="#5dbbea" fill-rule="evenodd"/>
      <path id="Path_6952" data-name="Path 6952" d="M1832.657,1139.441H1844.8v9.679l-5.776-2.243-6.365,2.243Z" transform="translate(-1501.724 -935.738)" fill="#bb3048" fill-rule="evenodd"/>
      <path id="Path_6953" data-name="Path 6953" d="M1704.48,723.278c-1.628,0-2.947,1.59-2.947,3.55s1.32,3.549,2.947,3.549,2.947-1.588,2.947-3.549-1.32-3.55-2.947-3.55" transform="translate(-1415.154 -655.647)" fill="#102b6e" fill-rule="evenodd"/>
      <path id="Path_6954" data-name="Path 6954" d="M1691.961,601.949c-1.192,8.368,4.652,10.95-1.07,18.689,0,0-3.5-3.712-5.006-3.974s-1.7-4.8-1.7-5.036,1.336-9.286,1.336-9.286Z" transform="translate(-1403.7 -573.989)" fill-rule="evenodd"/>
      <path id="Path_6955" data-name="Path 6955" d="M1711.081,753.971l8.111,2.34a5.947,5.947,0,0,1,1.138,1.968c.226.923.632,1.33,1.232,1.367,1.1.068,1.566-6.775,1.733-7.856l-9.242-2.5Z" transform="translate(-1421.458 -673.155)" fill="#f4b1b1" fill-rule="evenodd"/>
      <path id="Path_6956" data-name="Path 6956" d="M1657.985,637.793h-13.637c-1.7,0-5.892,3.1-6.628,7.144h0c-1.386,6.5-.77,20.819,4.019,25.924l5.427-.068,16.628-3.967v-27.01a9.273,9.273,0,0,0-5.808-2.023" transform="translate(-1372.595 -598.113)" fill="#092978" fill-rule="evenodd"/>
      <path id="Path_6957" data-name="Path 6957" d="M1644.344,637.922c-6.733.637-7.36,8.778-7.272,13.861h7.269Z" transform="translate(-1372.591 -598.2)" fill="#092978" fill-rule="evenodd"/>
      <path id="Path_6958" data-name="Path 6958" d="M1674.842,636.8c1.546,2.541-.14,4.345-1.66,5.161-2.142-1.339-4.069-2.643-4.069-5.161,0,0-2.106-.73-2.586.4,4.452,11.11,3.164,25.194,3.164,25.194,3.093-.093,11.336-1.418,11.4-1.183.334-2.708.291-20.274-5.052-24.363Z" transform="translate(-1392.043 -597.29)" fill="#fff" fill-rule="evenodd"/>
      <path id="Path_6959" data-name="Path 6959" d="M1643.7,680.363l-6.612-.049c-.006,3.844,6.5,12.715,14.216,12.715h9.627s-2.047-2.524-4.744-2.735-2.8.147-2.8.147c-1.491.049-8.347-3.788-9.684-10.078" transform="translate(-1372.604 -626.731)" fill="#f4b1b1" fill-rule="evenodd"/>
      <path id="Path_6960" data-name="Path 6960" d="M1673.35,719.2h-28.813a5.3,5.3,0,0,0-.956.087h0c-7.768,0-7.911,4.634-8.493,9.873h38.264a4.983,4.983,0,1,0,0-9.959" transform="translate(-1371.285 -652.904)" fill="#092978" fill-rule="evenodd"/>
      <path id="Path_6961" data-name="Path 6961" d="M1686.448,719.629a11.058,11.058,0,0,0-3.8-.477c-4.269.533-29.669,7.926-29.669,7.926l4.479,5c5.234-.317,26.226,1.471,30.224-1.171,4.164-2.753,5.121-9.886-1.229-11.278" transform="translate(-1383.095 -652.843)" fill="#092978" fill-rule="evenodd"/>
      <path id="Path_6962" data-name="Path 6962" d="M1681.015,609.653c.552,1.934-1.956,5.208-3.722,5.116l0,.778.006.009c1.535,2.535-.148,4.336-1.667,5.15h0c-2.136-1.335-4.056-2.636-4.069-5.137v-2.924c-.149-.045-.155.213-.457.035a3.2,3.2,0,0,1-.85-2.165c.122-.676,1.022-1.063,1.022-1.063-.845-2-1.516-2.322.665-3.435s6.579-1.031,6.579-1.031l2,.644a12.448,12.448,0,0,0,.493,4.023" transform="translate(-1394.497 -576.031)" fill="#f4b1b1" fill-rule="evenodd"/>
      <path id="Path_6963" data-name="Path 6963" d="M1684.338,633.432a3.766,3.766,0,0,1-.441-.011,10.68,10.68,0,0,1-3.65-.722,3.739,3.739,0,0,0,2,2.054,7.763,7.763,0,0,0,2.175.643,4.323,4.323,0,0,0-.51-1.188l-.006-.008,0-.778Z" transform="translate(-1401.1 -594.684)" fill="#ed8d8f" fill-rule="evenodd"/>
      <path id="Path_6964" data-name="Path 6964" d="M1714.911,643.635c3.7,3.179,5.856,7.57,7.173,12.175-2.426-.153-4.965-.142-7.37-.217Z" transform="translate(-1423.856 -602.045)" fill="#092978" fill-rule="evenodd"/>
      <path id="Path_6965" data-name="Path 6965" d="M1686.719,670.41h20.851c.8,0,1.639.653,1.462,1.407l-3.116,13.261a1.584,1.584,0,0,1-1.462,1.406H1683.6c-.8,0-1.639-.652-1.462-1.406l3.115-13.261a1.586,1.586,0,0,1,1.462-1.407" transform="translate(-1402.335 -620.065)" fill="#e8f5fc" fill-rule="evenodd"/>
      <path id="Path_6966" data-name="Path 6966" d="M1689.469,670.41h20.851c.8,0,1.64.653,1.462,1.407l-3.116,13.261a1.585,1.585,0,0,1-1.462,1.406h-20.851c-.8,0-1.639-.652-1.462-1.406l3.116-13.261a1.586,1.586,0,0,1,1.462-1.407" transform="translate(-1404.151 -620.065)" fill="#94bbe3" fill-rule="evenodd"/>
      <path id="Path_6967" data-name="Path 6967" d="M1722.57,690.866a1.269,1.269,0,0,1,.7,1.671,1.338,1.338,0,0,1-1.581.964,1.268,1.268,0,0,1-.7-1.67,1.339,1.339,0,0,1,1.581-.965" transform="translate(-1427.945 -633.801)" fill="#fff" fill-rule="evenodd"/>
      <path id="Path_6968" data-name="Path 6968" d="M1651.746,715.555h10.588v1.314h-11.271v-.657a.672.672,0,0,1,.683-.657" transform="translate(-1381.833 -650.449)" fill="#e8f5fc" fill-rule="evenodd"/>
      <path id="Path_6969" data-name="Path 6969" d="M1637.62,720.032c4.3.2,26.459,8.286,26.459,8.286l-2.342,7.687c-3.268-.384-26.442-3.336-28.2-4.306-7.45-4.11-2.153-12.207,4.083-11.668" transform="translate(-1367.856 -653.445)" fill="#092978" fill-rule="evenodd"/>
      <path id="Path_6970" data-name="Path 6970" d="M1648.543,593.7a18.275,18.275,0,0,0,6.74.169c3.678-.853,2.217-4.789-.122-6.379-3.514-2.39-9.724-1.43-11.728,2.627-2.58,5.225-2.757,7.42-8.281,10.376-2.243,1.2-4.286,2.5-4.561,6.138-.033.432.82-.008,2.223-.354-1.632,2.013-.163,5.61.185,6.029.553-9.226,10.382-9,12.437-9.235.094-1.118.544-1.852.548-2.55a2.348,2.348,0,0,1-1.043-1.877c.072-1.144.229-.819.366-.792a9.329,9.329,0,0,1,.915.463c.276-1.488.214-4.45,2.322-4.615" transform="translate(-1368.317 -563.385)" fill-rule="evenodd"/>
    </g>
  </g>
</svg>
