<svg id="award" xmlns="http://www.w3.org/2000/svg" width="41.018" height="44.107" viewBox="0 0 41.018 44.107">
  <g id="Group_9734" data-name="Group 9734" transform="translate(0 2.688)">
    <g id="Group_9733" data-name="Group 9733">
      <g id="Group_9732" data-name="Group 9732">
        <g id="Group_9731" data-name="Group 9731">
          <path id="Path_9867" data-name="Path 9867" d="M23.6,31.2a5.682,5.682,0,0,0-5.676,5.676V66.281h8.111L27.7,51.686,26.039,31.2Z" transform="translate(-17.928 -31.197)" fill="#ca7a33"/>
          <path id="Path_9868" data-name="Path 9868" d="M135.836,31.2H112.087V66.281l23.749-5.831Z" transform="translate(-103.976 -31.197)" fill="#b1532b"/>
          <g id="Group_9728" data-name="Group 9728" transform="translate(2.361 30.617)">
            <path id="Path_9869" data-name="Path 9869" d="M49.922,386.6a4.588,4.588,0,0,0-4.588,4.588c0,.044,0,.088,0,.132a4.587,4.587,0,0,0,4.585,4.456h1.163V386.6Z" transform="translate(-45.334 -386.601)" fill="#f7fcff"/>
          </g>
          <g id="Group_9730" data-name="Group 9730" transform="translate(0 29.253)">
            <path id="Path_9870" data-name="Path 9870" d="M132.3,391.324s0,0,0,0a3.511,3.511,0,0,1,3.538-3.493l-2.129-1.227h-21.62v9.176h22.274l1.475-.96A3.508,3.508,0,0,1,132.3,391.324Z" transform="translate(-103.976 -385.237)" fill="#ecf3fb"/>
            <path id="Path_9871" data-name="Path 9871" d="M132.328,427.4a3.8,3.8,0,0,1,.236-1.318H112.087v2.59h20.458a3.8,3.8,0,0,1-.216-1.268S132.328,427.405,132.328,427.4Z" transform="translate(-103.976 -421.321)" fill="#e0e6f5"/>
            <g id="Group_9729" data-name="Group 9729">
              <path id="Path_9872" data-name="Path 9872" d="M20.518,376.855a3.5,3.5,0,0,1,3.493-3.493h2.028l.875-1.227-.875-1.364H24.011a6.083,6.083,0,1,0,0,12.166h2.028l.875-.892-.875-1.7H24.011A3.5,3.5,0,0,1,20.518,376.855Z" transform="translate(-17.928 -370.772)" fill="#b1532b"/>
              <path id="Path_9873" data-name="Path 9873" d="M112.087,370.772h23.749v2.59H112.087Z" transform="translate(-103.976 -370.772)" fill="#983424"/>
            </g>
          </g>
          <path id="Path_9874" data-name="Path 9874" d="M135.836,484.527V481.94l-23.749,0v2.59Z" transform="translate(-103.976 -443.107)" fill="#983424"/>
        </g>
      </g>
    </g>
  </g>
  <g id="Group_9735" data-name="Group 9735" transform="translate(27.979 15.044)">
    <path id="Path_9875" data-name="Path 9875" d="M342.709,174.63v14.508l3.882-2.231,1.162-6.183-1.162-6.095Z" transform="translate(-342.709 -174.63)" fill="#89ce6d"/>
    <path id="Path_9876" data-name="Path 9876" d="M387.773,174.63v12.278l3.882,2.231V174.63Z" transform="translate(-383.891 -174.63)" fill="#5eb16a"/>
  </g>
  <g id="Group_9736" data-name="Group 9736" transform="translate(22.704)">
    <path id="Path_9877" data-name="Path 9877" d="M287.642,1.937l-3.485.745-.745,3.485-1.937,2.99,1.937,2.99.745,3.485,3.485.745,2.99,1.937,1.162-9.341L290.632,0Z" transform="translate(-281.475 0)" fill="#f8bd3f"/>
    <path id="Path_9878" data-name="Path 9878" d="M394.993,6.167l-.745-3.485-3.485-.745L387.773,0V18.315l2.99-1.937,3.485-.745.745-3.485,1.937-2.99Z" transform="translate(-378.616 0)" fill="#fd9326"/>
  </g>
  <g id="Group_9737" data-name="Group 9737" transform="translate(28.074 5.371)">
    <path id="Path_9879" data-name="Path 9879" d="M343.818,66.131a3.791,3.791,0,0,0,3.787,3.787l1.162-3.787L347.6,62.344A3.791,3.791,0,0,0,343.818,66.131Z" transform="translate(-343.818 -62.344)" fill="#fdd752"/>
    <path id="Path_9880" data-name="Path 9880" d="M387.773,62.344v7.573a3.787,3.787,0,0,0,0-7.573Z" transform="translate(-383.986 -62.344)" fill="#f8bd3f"/>
  </g>
</svg>
