<svg id="_010-best-1" data-name="010-best-1" xmlns="http://www.w3.org/2000/svg" width="31.144" height="31.144" viewBox="0 0 31.144 31.144">
  <path id="Path_8383" data-name="Path 8383" d="M31.144,15.572a3.211,3.211,0,0,0-.717-2.02l-1.306-1.609.326-2.049a3.2,3.2,0,0,0-2.021-3.5l-1.939-.743L24.747,3.72a3.2,3.2,0,0,0-3.5-2.023L19.2,2.023,17.591.718a3.2,3.2,0,0,0-4.039,0L11.943,2.023,9.894,1.7a3.2,3.2,0,0,0-3.5,2.021L5.652,5.658,3.72,6.4A3.2,3.2,0,0,0,1.7,9.9l.326,2.049-1.3,1.608a3.2,3.2,0,0,0,0,4.039L2.023,19.2,1.7,21.25a3.2,3.2,0,0,0,2.021,3.5l1.939.743L6.4,27.424a3.2,3.2,0,0,0,3.5,2.023l2.049-.326,1.608,1.3a3.2,3.2,0,0,0,4.039,0L19.2,29.121l2.049.326a3.2,3.2,0,0,0,3.5-2.021l.743-1.939,1.932-.739a3.2,3.2,0,0,0,2.023-3.5L29.121,19.2l1.3-1.608A3.2,3.2,0,0,0,31.144,15.572Zm0,0" fill="#3440db"/>
  <path id="Path_8384" data-name="Path 8384" d="M271.572,15.572a3.214,3.214,0,0,0-.717-2.02l-1.306-1.609.326-2.049a3.2,3.2,0,0,0-2.021-3.5l-1.939-.743-.739-1.933a3.2,3.2,0,0,0-3.5-2.023l-2.049.327-1.608-1.3A3.2,3.2,0,0,0,256,0V31.144a3.214,3.214,0,0,0,2.02-.717l1.609-1.306,2.049.326a3.2,3.2,0,0,0,3.5-2.021l.743-1.939,1.933-.739a3.2,3.2,0,0,0,2.023-3.5l-.327-2.049,1.3-1.608A3.2,3.2,0,0,0,271.572,15.572Zm0,0" transform="translate(-240.428)" fill="#1c259e"/>
  <path id="Path_8385" data-name="Path 8385" d="M188.121,194.626a.912.912,0,0,0,0-1.825h-2.443a.913.913,0,0,0-.912.912v5.864a.913.913,0,0,0,.912.912h2.443a.912.912,0,0,0,0-1.825H186.59v-1.107h1.042a.912.912,0,0,0,0-1.825H186.59v-1.107Zm0,0" transform="translate(-173.527 -181.073)" fill="#fff36c"/>
  <path id="Path_8386" data-name="Path 8386" d="M259.445,195.733a.554.554,0,1,1,0-1.107h.977a.912.912,0,1,0,0-1.825h-.977a2.378,2.378,0,1,0,0,4.757.553.553,0,0,1,0,1.107h-.977a.912.912,0,0,0,0,1.825h.977a2.378,2.378,0,0,0,0-4.757Zm0,0" transform="translate(-241.43 -181.073)" fill="#ffcd00"/>
  <path id="Path_8387" data-name="Path 8387" d="M98.777,192.8H97.311a.912.912,0,0,0-.912.912v5.864a.912.912,0,0,0,.912.912h1.466a2.377,2.377,0,0,0,1.872-3.844,2.377,2.377,0,0,0-1.872-3.844Zm.389,5.7a.551.551,0,0,1-.389.161h-.554v-1.107h.554a.554.554,0,0,1,.554.554A.561.561,0,0,1,99.166,198.5Zm0-2.932a.554.554,0,0,1-.39.161h-.554v-1.107h.554a.552.552,0,0,1,.389.161.553.553,0,0,1,0,.786Zm0,0" transform="translate(-90.535 -181.073)" fill="#fff36c"/>
  <path id="Path_8388" data-name="Path 8388" d="M341.243,192.8h-2.932a.912.912,0,1,0,0,1.825h.554v4.951a.912.912,0,0,0,1.825,0v-4.951h.554a.912.912,0,1,0,0-1.825Zm0,0" transform="translate(-316.875 -181.073)" fill="#ffcd00"/>
</svg>
