<svg id="Component_63_1" data-name="Component 63 – 1" xmlns="http://www.w3.org/2000/svg" width="356.713" height="310.148" viewBox="0 0 356.713 310.148">
  <path id="Path_9424" data-name="Path 9424" d="M441.861,349.27h-137.8L276.033,474.016h137.8Z" transform="translate(-162.492 -163.869)" fill="#3b2d51"/>
  <g id="Group_9630" data-name="Group 9630" transform="translate(119.256)">
    <g id="Group_9622" data-name="Group 9622" transform="translate(5.694 52.763)">
      <path id="Path_9425" data-name="Path 9425" d="M319.447,149.841H298.9l-5.484,91.12h23.259Z" transform="translate(-293.413 -148.121)" fill="#732c84"/>
      <path id="Path_9426" data-name="Path 9426" d="M323.117,149.841H302.239l-5.42,91.12h23.63Z" transform="translate(-294.583 -148.121)" fill="#ab56bf"/>
      <path id="Path_9427" data-name="Path 9427" d="M326.234,153.272H305.356l-8.641,88.582,22.069.113Z" transform="translate(-294.547 -149.3)" fill="#732c84"/>
      <path id="Path_9428" data-name="Path 9428" d="M322.782,151.679a26.462,26.462,0,0,1-15.8.939l-6.143,87.773c6.731-1.22,13.191-1.236,17.864.195Z" transform="translate(-295.965 -148.753)" fill="#ddcba6"/>
      <path id="Path_9429" data-name="Path 9429" d="M382.453,147.266h-54.6l-7.1,92.811h55.73Z" transform="translate(-302.805 -147.237)" fill="#732c84"/>
      <path id="Path_9430" data-name="Path 9430" d="M386.229,147.266h-54.6l-7.1,92.811h55.73Z" transform="translate(-304.102 -147.237)" fill="#bf63d6"/>
      <path id="Path_9431" data-name="Path 9431" d="M312.668,153.851a30.931,30.931,0,0,1-5.682-.741l-6.144,87.773a54.762,54.762,0,0,1,7.987-.863Z" transform="translate(-295.965 -149.244)" fill="#efe3ca"/>
      <g id="Group_9620" data-name="Group 9620" transform="translate(23.194 3.612)" opacity="0.45" style="mix-blend-mode: overlay;isolation: isolate">
        <path id="Path_9432" data-name="Path 9432" d="M379.5,238.369h-50.76l6.42-85.645H384.9Zm-49.809-.882h48.982l5.287-83.881H335.982Z" transform="translate(-328.744 -152.724)" fill="#fff"/>
      </g>
      <g id="Group_9621" data-name="Group 9621" transform="translate(26.185 6.756)" opacity="0.45" style="mix-blend-mode: overlay;isolation: isolate">
        <path id="Path_9433" data-name="Path 9433" d="M378.654,236.87H333.3l5.735-79.358h44.442Zm-44.5-.817h43.764l4.724-77.723H339.767Z" transform="translate(-333.301 -157.512)" fill="#fff"/>
      </g>
      <path id="Path_9434" data-name="Path 9434" d="M361.547,147.221,348.636,183.7l-13.16-7.08-7.257,14.661L324.616,240h54.2l7.431-33.553-12.16-59.225Z" transform="translate(-304.132 -147.221)" fill="#c94343" opacity="0.6" style="mix-blend-mode: multiply;isolation: isolate"/>
    </g>
    <path id="Path_9435" data-name="Path 9435" d="M401.072,78.21c-7.279-2.592-5.285-9.771-2.493-10.968s9.771.1,8.276,6.88S401.072,78.21,401.072,78.21Z" transform="translate(-322.977 -66.846)" fill="#964532"/>
    <path id="Path_9436" data-name="Path 9436" d="M401.86,74.961c-3.167-1.128-4.577-3.124-4.931-5.118-1.569,2.593-1.516,7.381,4.144,9.4,0,0,4.287,2.692,5.783-4.088a7.768,7.768,0,0,0,.183-2.329C405.231,77.073,401.86,74.961,401.86,74.961Z" transform="translate(-322.977 -67.876)" fill="#7f3425"/>
    <path id="Path_9437" data-name="Path 9437" d="M404.652,81.7c-5.719-1.5-4.152-5.65-1.958-6.341s7.677.058,6.5,3.978S404.652,81.7,404.652,81.7Z" transform="translate(-324.577 -69.69)" fill="#ffb94a"/>
    <path id="Path_9438" data-name="Path 9438" d="M404.474,111.328C394.4,104.149,394.5,86.9,398.99,80.319s16.651-6.581,21.836-.6,5.716,15.588,1.23,20.673S404.474,111.328,404.474,111.328Z" transform="translate(-322.989 -69.752)" fill="#964532"/>
    <path id="Path_9439" data-name="Path 9439" d="M433.374,96.771c-.225-10.734-1.726-13.511-6.305-16.213,0,0,5.4,4.5,2.852,10.809Z" transform="translate(-333.634 -71.557)" fill="#7f3425"/>
    <path id="Path_9440" data-name="Path 9440" d="M426.2,96.5c-3.1-11.447-5.309-14.109-10.511-16.051,0,0,6.493,3.7,5.686,10.981Z" transform="translate(-329.725 -71.52)" fill="#7f3425"/>
    <path id="Path_9441" data-name="Path 9441" d="M409.893,91.5c-5.51-4.656-7.951-10.564-4.46-14.7a7.424,7.424,0,0,1,.912-.89,11.8,11.8,0,0,0-7.355,4.616c-4.487,6.581-4.587,23.83,5.484,31.009,0,0,13.1-5.85,17.581-10.935a12.547,12.547,0,0,0,2.835-6.429C421.241,97.734,415.158,95.945,409.893,91.5Z" transform="translate(-322.989 -69.96)" fill="#7f3425"/>
    <path id="Path_9442" data-name="Path 9442" d="M445.555,180.235c-.75-16.488-17.616-35.112-19.345-35.244s-1.421,6.894,2.833,13.807,8.934,23.3,9.466,25.026S445.687,183.16,445.555,180.235Z" transform="translate(-333.001 -93.691)" fill="#db2828"/>
    <path id="Path_9443" data-name="Path 9443" d="M426.483,142.582c-.8-.061-1.2,1.744-.991,4.383,3.318,2.565,16.98,20.044,18.453,35.072a3.364,3.364,0,0,0,1.682-2.629C444.878,162.92,428.211,142.715,426.483,142.582Z" transform="translate(-333.073 -92.864)" fill="#ed4848"/>
    <path id="Path_9444" data-name="Path 9444" d="M368.21,180.684c.749-16.488,17.615-37.158,19.343-37.291s1.13,11.766-3.125,18.679-8.641,20.473-9.173,22.2S368.077,183.608,368.21,180.684Z" transform="translate(-313.414 -93.142)" fill="#ed4848"/>
    <path id="Path_9445" data-name="Path 9445" d="M383.176,160.8c-5.21,7.579-7.018,19.066-14.788,18.728-.473-.021,3.365,6.473,2.51,6.372,1.874,1,4.106,1.327,4.4.356.532-1.728,6.471-16.066,10.725-22.98,2.391-3.886-.016-10.1.3-14.112C385.2,152.936,385.468,157.467,383.176,160.8Z" transform="translate(-313.462 -95.125)" fill="#db2828"/>
    <path id="Path_9446" data-name="Path 9446" d="M377.757,197.27c-3.227-2.627-9.608-3.528-11.259-2.477s-.976,8.707,3.753,10.058S377.757,197.27,377.757,197.27Z" transform="translate(-312.546 -110.653)" fill="#ffe9ca"/>
    <path id="Path_9447" data-name="Path 9447" d="M415.306,161.418l-17.832-8.76c8.276,38.488-.605,33.728,1.463,48.668,10.123,4.172,19.861,2.554,29.247-4.364C418.8,194.98,415.306,161.418,415.306,161.418Z" transform="translate(-323.467 -96.325)" fill="#ed4848"/>
    <path id="Path_9448" data-name="Path 9448" d="M405.371,201.2c-2.267-9.475,1.125-18.407,7.576-19.95a9.172,9.172,0,0,1,6.209.817,145.458,145.458,0,0,1-3.851-20.65l-17.832-8.76c8.276,38.488-.605,33.728,1.463,48.668a30.136,30.136,0,0,0,7.041,1.971C405.752,202.615,405.544,201.92,405.371,201.2Z" transform="translate(-323.467 -96.325)" fill="#db2828"/>
    <path id="Path_9449" data-name="Path 9449" d="M392.938,214.607l-51.615-21.818c11.936,18.564,29.058,36.14,34.839,37.745s25.92,2.434,29.911.845,34.953-34.644,34.953-34.644S400.715,214.42,392.938,214.607Z" transform="translate(-304.178 -110.112)" fill="#6d2d4a"/>
    <path id="Path_9450" data-name="Path 9450" d="M451.44,212.227,432.787,223.6l6.268-6.643Z" transform="translate(-335.599 -116.789)" fill="#934769"/>
    <path id="Path_9451" data-name="Path 9451" d="M395.87,141.714c-3.358,5.959.028,27.757,1.549,29.216s23.922-1.068,25.035-2.041-4.413-26.567-6.206-27.9a33.021,33.021,0,0,0-8.85-3.77C406.075,137.093,396.232,141.072,395.87,141.714Z" transform="translate(-322.423 -91.019)" fill="#ed4848"/>
    <path id="Path_9452" data-name="Path 9452" d="M398.89,173.25c-1.158-1.176-3.946-14.1-4.1-23.679-1.308,8.406,1.232,24.915,2.526,26.156,1.522,1.459,24.024-1.62,25.137-2.592.144-.127.175-.678.117-1.53C417.853,172.833,400.3,174.681,398.89,173.25Z" transform="translate(-322.42 -95.265)" fill="#db2828"/>
    <path id="Path_9453" data-name="Path 9453" d="M426.046,191.816c-.028,1.858-1.069,2.365-1.295,3.6s-.872-.535-.591-1.549S426.046,191.816,426.046,191.816Z" transform="translate(-332.611 -109.778)" fill="#ff9566"/>
    <path id="Path_9454" data-name="Path 9454" d="M421.83,193.133c1.76,1.232,2.533.788,2.9.366a7.08,7.08,0,0,0,.788-1.548l-2-.563.056,1.267S420.7,192.344,421.83,193.133Z" transform="translate(-331.745 -109.63)" fill="#ffb882"/>
    <path id="Path_9455" data-name="Path 9455" d="M419.857,193.99c1.76,1.232,2.533.788,2.9.366a7.1,7.1,0,0,0,.788-1.549l-2-.563.057,1.266S418.731,193.2,419.857,193.99Z" transform="translate(-331.067 -109.925)" fill="#ffb882"/>
    <path id="Path_9456" data-name="Path 9456" d="M371.909,196.211c7.587-2.939,30.52-5.624,30.52-5.624l.182.584s-22.315,12.926-29.4,11.57C366.1,201.379,368.842,197.4,371.909,196.211Z" transform="translate(-313.59 -109.355)" fill="#ffb882"/>
    <path id="Path_9457" data-name="Path 9457" d="M375.82,199.092c-2.665-.62-3.98-1.5-4.428-2.429-2.829,1.4-4.892,5.017,1.816,6.3,7.087,1.356,29.4-11.57,29.4-11.57l-.049-.158C395.539,194.4,381.267,200.357,375.82,199.092Z" transform="translate(-313.591 -109.579)" fill="#ff9566"/>
    <path id="Path_9458" data-name="Path 9458" d="M422.911,190.649c-1.389-1.2-4.429-.976-6.906.075l-.713,1.464c2.064-.45,5.1.45,6.043.676S424.3,191.849,422.911,190.649Z" transform="translate(-329.589 -109.098)" fill="#ffb882"/>
    <path id="Path_9459" data-name="Path 9459" d="M426.255,190.873c1.606,1.331,3.976,4.419,3.945,4.964s-1.868-1.214-2.351-1.853a17.111,17.111,0,0,0-2.318-1.963Z" transform="translate(-333.106 -109.454)" fill="#ffb882"/>
    <path id="Path_9460" data-name="Path 9460" d="M428,151.8l-17.549,38.687-17.682.931-1.064.931,55.172-.8L465.753,151.8Z" transform="translate(-321.485 -96.03)" fill="#eaddbe"/>
    <path id="Path_9461" data-name="Path 9461" d="M446.989,151.8c15.717,6.745,22.172,19.883,18.879,39.75l18.878-39.75Z" transform="translate(-340.478 -96.03)" fill="#f4e9d3"/>
    <path id="Path_9462" data-name="Path 9462" d="M411.763,192.056,429.888,151.8H428l-17.549,38.687-17.682.931-1.064.931Z" transform="translate(-321.485 -96.03)" fill="#d8c091"/>
    <path id="Path_9463" data-name="Path 9463" d="M474.9,181.3c-6.98,1.6-22.734,19.144-41.28,45.467l.4,1s32.194-24.808,35.983-29.4S481.882,179.7,474.9,181.3Z" transform="translate(-335.886 -106.122)" fill="#934769"/>
    <path id="Path_9464" data-name="Path 9464" d="M470.652,198.311c-2.891,3.137-20.929,15.865-30.9,22.816q-3,4.083-6.125,8.51l.4,1s32.382-24.321,36.171-28.907a53.024,53.024,0,0,0,6.637-12.2A51.328,51.328,0,0,1,470.652,198.311Z" transform="translate(-335.886 -108.993)" fill="#7c3552"/>
    <path id="Path_9465" data-name="Path 9465" d="M437.958,224.094l16.835-12.653s8.314-15.588,16.968-26.41C464.116,190.512,451.95,204.613,437.958,224.094Z" transform="translate(-337.375 -107.447)" fill="#7c3552"/>
    <path id="Path_9466" data-name="Path 9466" d="M341.935,190.289c-4.188,2.992,4.786,9.173,13.161,17.748s23.731,11.168,47.86,22.734l1-.6C375.237,203.052,346.122,187.3,341.935,190.289Z" transform="translate(-304.023 -109.129)" fill="#934769"/>
    <path id="Path_9467" data-name="Path 9467" d="M393.946,221.893c-20.173-8.485-33.344-11.134-40.99-18.684-4.477-4.423-9.1-8.182-11.9-11.2-1.5,3.261,6.306,9.729,13.836,17.438,8.376,8.575,23.931,10.472,48.06,22.039l1-.6C400.61,227.729,397.261,224.731,393.946,221.893Z" transform="translate(-304.023 -109.844)" fill="#7c3552"/>
    <path id="Path_9468" data-name="Path 9468" d="M431.964,247.764l2.913-4.669a51.154,51.154,0,0,0-9.351-7.027Z" transform="translate(-333.104 -124.98)" fill="#dbc7a1"/>
    <path id="Path_9469" data-name="Path 9469" d="M433.983,247.439l-3.671-1.277s2.923-5.155,10.82-8.894Z" transform="translate(-334.748 -125.392)" fill="#eaddbe"/>
    <path id="Path_9470" data-name="Path 9470" d="M416,139.39c-2.493-1.334-6.182-3.291-7.179-3.391-1.052-.105-7.507,2.974-10.237,4.454,5.189,18.076,14.225,25.592,14.225,25.592S416.834,139.835,416,139.39Z" transform="translate(-323.85 -90.602)" fill="#ffe9ca"/>
    <path id="Path_9471" data-name="Path 9471" d="M416,140.993l-.618-.33c-.427,6.229-3.249,24.621-3.249,24.621s-8.248-6.869-13.509-23.249l-.041.022c5.189,18.076,14.419,26.557,14.419,26.557S416.834,141.438,416,140.993Z" transform="translate(-323.85 -92.205)" fill="#db2828"/>
    <path id="Path_9472" data-name="Path 9472" d="M404.915,130.242c-.1-11.866,1.695-18.745,1.695-18.745l7.079,6.381-.4,10.669s-1.7,3.59-3.889,3.888S404.915,130.242,404.915,130.242Z" transform="translate(-326.022 -82.185)" fill="#ffb882"/>
    <g id="Group_9624" data-name="Group 9624" transform="translate(36.593 120.645)">
      <path id="Path_9473" data-name="Path 9473" d="M485.413,252.338h-44.1c-7.8,0-10.048,22.714-2.243,22.714h44.1C479.186,272,479.737,255.942,485.413,252.338Z" transform="translate(-372.682 -251.214)" fill="#e0d0b1"/>
      <path id="Path_9474" data-name="Path 9474" d="M411.824,250.63H350.342c-12.213-.365-13.561,24.59-1.348,24.955h61.482C400.006,275.272,401.352,250.317,411.824,250.63Z" transform="translate(-340.481 -250.626)" fill="#ff9a3e"/>
      <path id="Path_9475" data-name="Path 9475" d="M409.939,282.664c-4.47-.525-6.615-5.734-6.664-11.264H340.5c.122,5.741,2.864,11.153,8.5,11.321h60.939Z" transform="translate(-340.486 -257.763)" fill="#ed8129"/>
      <path id="Path_9476" data-name="Path 9476" d="M487.079,250.632H438.12L437.678,253h48.959a1.491,1.491,0,0,0,1.4-1.182h0A.954.954,0,0,0,487.079,250.632Z" transform="translate(-373.872 -250.628)" fill="#ffb94a"/>
      <path id="Path_9477" data-name="Path 9477" d="M485.546,285.517H436.772l-.473,2.054h48.774a1.477,1.477,0,0,0,1.419-1.027h0A.856.856,0,0,0,485.546,285.517Z" transform="translate(-373.398 -262.612)" fill="#ffb94a"/>
      <path id="Path_9478" data-name="Path 9478" d="M484,259.28H445.932c-7.8,0-8.7,15.248-.892,15.248h38.23C481.985,270.548,482.192,263.924,484,259.28Z" transform="translate(-374.537 -253.599)" fill="#f4e9d4"/>
      <path id="Path_9479" data-name="Path 9479" d="M442.875,250.631h-7.31c-5.744,4.707-6.411,20.232-.941,24.955h6.9C431.057,275.273,432.4,250.318,442.875,250.631Z" transform="translate(-371.532 -250.626)" fill="#ffb94a"/>
      <g id="Group_9623" data-name="Group 9623" transform="translate(3.325 0.875)" opacity="0.39" style="mix-blend-mode: overlay;isolation: isolate">
        <path id="Path_9480" data-name="Path 9480" d="M401.322,275.168H354.506a8.469,8.469,0,0,1-7.474-4.605,14.784,14.784,0,0,1,.555-13.943,9.158,9.158,0,0,1,8.279-4.656h46.291l-1.023.79c-2.816,2.174-4.593,6.541-4.64,11.395-.042,4.439,1.4,8.266,3.85,10.236Zm-45.713-22.326a8.331,8.331,0,0,0-7.27,4.239,13.85,13.85,0,0,0-.531,13.061,7.533,7.533,0,0,0,6.71,4.143h44.426c-2.142-2.271-3.372-5.964-3.332-10.147.044-4.593,1.585-8.793,4.087-11.294H355.854C355.772,252.842,355.69,252.841,355.609,252.841Z" transform="translate(-345.545 -251.959)" fill="#fff"/>
      </g>
    </g>
    <g id="Group_9626" data-name="Group 9626" transform="translate(0 141.665)">
      <path id="Path_9481" data-name="Path 9481" d="M507.757,285.939H439.491c-12.081,0-12.719,43.661-.639,43.661h68.266C500.57,323.722,499.42,292.866,507.757,285.939Z" transform="translate(-334.677 -283.777)" fill="#e0d0b1"/>
      <path id="Path_9482" data-name="Path 9482" d="M393.614,282.654H298.448c-18.95-.7-17.922,47.267,1.029,47.968h95.166C378.4,330.021,377.367,282.053,393.614,282.654Z" transform="translate(-284.739 -282.646)" fill="#5e85bc"/>
      <path id="Path_9483" data-name="Path 9483" d="M393.88,344.231c-6.985-1.008-10.954-11.021-11.72-21.652H284.986c.906,11.034,5.825,21.437,14.576,21.761h94.326Z" transform="translate(-284.824 -296.365)" fill="#4e75a5"/>
      <path id="Path_9484" data-name="Path 9484" d="M509.442,282.658H433.659l-.389,4.546h75.783a2.318,2.318,0,0,0,2.024-2.273h0A1.89,1.89,0,0,0,509.442,282.658Z" transform="translate(-335.765 -282.65)" fill="#749dce"/>
      <path id="Path_9485" data-name="Path 9485" d="M511.4,349.715H435.9l-.475,3.948h75.5a2.213,2.213,0,0,0,2.068-1.974h0A1.657,1.657,0,0,0,511.4,349.715Z" transform="translate(-336.506 -305.687)" fill="#749dce"/>
      <path id="Path_9486" data-name="Path 9486" d="M506.106,299.281H447.188c-12.08,0-11.559,29.311.521,29.311h59.176C504.4,320.941,503.891,308.208,506.106,299.281Z" transform="translate(-337.522 -288.361)" fill="#f4e9d4"/>
      <path id="Path_9487" data-name="Path 9487" d="M441.677,282.655H430.363c-8.3,9.049-7.4,38.891,1.656,47.969h10.687C426.459,330.022,425.431,282.054,441.677,282.655Z" transform="translate(-332.802 -282.647)" fill="#749dce"/>
      <g id="Group_9625" data-name="Group 9625" transform="translate(5.153 1.682)" opacity="0.39" style="mix-blend-mode: overlay;isolation: isolate">
        <path id="Path_9488" data-name="Path 9488" d="M380.366,329.821l-72.465,0c-5.057-.167-9.363-3.309-12.143-8.851-3.867-7.707-4.237-18.978-.881-26.8,2.553-5.948,6.88-9.131,12.234-8.951h71.654l-1.486,1.518c-4.087,4.179-6.294,12.573-5.76,21.9.488,8.531,3.194,15.887,7.236,19.674Zm-73.544-42.916c-4.671,0-8.462,2.881-10.724,8.149-3.148,7.338-2.809,17.9.808,25.106,1.768,3.528,5.1,7.771,10.9,7.964h68.767c-3.6-4.364-5.962-11.463-6.423-19.5-.5-8.829,1.358-16.9,4.918-21.71H307.2C307.076,286.907,306.948,286.905,306.822,286.905Z" transform="translate(-292.589 -285.209)" fill="#fff"/>
      </g>
    </g>
    <path id="Path_9489" data-name="Path 9489" d="M406.467,147.417c4.663-2.751,7.056-8.331,6.719-14.289-.29-.176-.609-.358-.974-.548-.005-.035-.009-.084-.016-.111-.017-.064-.038-.1-.064-.118-1.478-.791-3.374-1.8-4.883-2.51l.361-9.655a16.617,16.617,0,0,0-7.576-4.679,91.516,91.516,0,0,0-1.163,15.823c-1.568.742-3.091,1.509-4.114,2.062l-.041.022c.007.023.014.045.02.068-.274.133-.515.255-.713.363-.786.261-3.528,3.211-6.705,7.643C392.071,148.419,400.217,151.1,406.467,147.417Z" transform="translate(-319.979 -83.563)" fill="#c94343" opacity="0.6" style="mix-blend-mode: multiply;isolation: isolate"/>
    <path id="Path_9490" data-name="Path 9490" d="M405.425,101.205c-3.819,16.437,9.468,22.855,9.468,22.855s10.48-10.085,11.731-22.7c.676-6.821-.311-8.9-7.113-9.97C412.726,90.32,406.418,96.93,405.425,101.205Z" transform="translate(-325.962 -75.237)" fill="#ffb882"/>
    <path id="Path_9491" data-name="Path 9491" d="M405.031,110.832c3.5-10.174,4.265-18.732.105-18.283S399.149,107.6,405.031,110.832Z" transform="translate(-324.776 -75.67)" fill="#7f3425"/>
    <path id="Path_9492" data-name="Path 9492" d="M405.394,117.4c.874-8.7.117-9.77-2.618-9.787C399.639,107.593,399.379,115.963,405.394,117.4Z" transform="translate(-324.54 -80.851)" fill="#ffb882"/>
    <path id="Path_9493" data-name="Path 9493" d="M405.031,116.4c.523-5.216.07-5.854-1.569-5.865C401.582,110.527,401.426,115.542,405.031,116.4Z" transform="translate(-325.076 -81.856)" fill="#db5b3e"/>
    <path id="Path_9494" data-name="Path 9494" d="M405.543,118.54c.014-3.355-.354-3.734-1.53-3.639C402.665,115.01,402.9,118.215,405.543,118.54Z" transform="translate(-325.437 -83.35)" fill="#ffb882"/>
    <g id="Group_9629" data-name="Group 9629" transform="translate(83.868 23.197)">
      <path id="Path_9495" data-name="Path 9495" d="M430.805,114.124c.234-1.367-.26-2.569-1.109-2.684s-1.727.909-1.964,2.281.26,2.571,1.106,2.682S430.568,115.5,430.805,114.124Z" transform="translate(-417.71 -105.36)" fill="#66423b"/>
      <path id="Path_9496" data-name="Path 9496" d="M418.008,112.155c.322-1.574-.145-2.984-1.055-3.163s-1.9.955-2.219,2.529.15,2.989,1.054,3.162S417.686,113.725,418.008,112.155Z" transform="translate(-413.23 -104.515)" fill="#66423b"/>
      <path id="Path_9497" data-name="Path 9497" d="M412.684,110.7s3.239-1.684,5.684-.866a2.14,2.14,0,0,0-2.325-1.3C414.11,108.582,412.684,110.7,412.684,110.7Z" transform="translate(-412.561 -104.361)" fill="#66423b"/>
      <path id="Path_9498" data-name="Path 9498" d="M431.987,112.674s-2.3-1.983-4.659-1.683a2.259,2.259,0,0,1,2.4-.746C431.389,110.6,431.987,112.674,431.987,112.674Z" transform="translate(-417.591 -104.927)" fill="#66423b"/>
      <g id="Group_9627" data-name="Group 9627">
        <path id="Path_9499" data-name="Path 9499" d="M412.525,105.521l-.03-.351a7.659,7.659,0,0,1,5.342-2.989l-.086,1.2A7.07,7.07,0,0,0,412.525,105.521Z" transform="translate(-412.496 -102.182)" fill="#7c4343"/>
      </g>
      <g id="Group_9628" data-name="Group 9628" transform="translate(10.729 0.607)">
        <path id="Path_9500" data-name="Path 9500" d="M433.367,107.3a6.265,6.265,0,0,0-4.527-3.023l.284-1.168a6.515,6.515,0,0,1,4.507,3.806Z" transform="translate(-428.84 -103.106)" fill="#7c4343"/>
      </g>
      <path id="Path_9501" data-name="Path 9501" d="M423.848,121.366c-.018.044-.017.087-.039.129a1.691,1.691,0,0,1-2.3.708,1.742,1.742,0,0,1-.892-1.25,1.727,1.727,0,0,0,.8,2.185,1.643,1.643,0,0,0,2.429-1.772Z" transform="translate(-415.242 -108.631)" fill="#ea7b59"/>
      <path id="Path_9502" data-name="Path 9502" d="M416.284,127.562l5.8.933s-1.252,2.8-3.6,2.351C416.227,130.421,416.284,127.562,416.284,127.562Z" transform="translate(-413.797 -110.901)" fill="#491d2e"/>
      <path id="Path_9503" data-name="Path 9503" d="M416.8,127.837l4.923.792s.081,1.339-2.728.937C416.041,129.144,416.8,127.837,416.8,127.837Z" transform="translate(-413.946 -110.995)" fill="#ffebeb"/>
      <path id="Path_9504" data-name="Path 9504" d="M420.082,134.028c.089-.357-.5-.083-1.124-.186s-1.034-.544-1.124-.186.341.73.962.833S419.992,134.385,420.082,134.028Z" transform="translate(-414.326 -112.947)" fill="#ef8f6f"/>
    </g>
  </g>
  <g id="Group_9634" data-name="Group 9634" transform="translate(166.931 106.67)">
    <path id="Path_9505" data-name="Path 9505" d="M467.026,318.6H397.8l-4.45,66.776L438.817,447.8Z" transform="translate(-369.727 -260.002)" fill="#8b54b2"/>
    <path id="Path_9506" data-name="Path 9506" d="M469.707,322.354H400.485l-4.45,66.776L441.5,451.558Z" transform="translate(-370.647 -261.292)" fill="#634c84"/>
    <path id="Path_9507" data-name="Path 9507" d="M457.939,327.225H388.718L363.545,443.944l66.186,12.486Z" transform="translate(-359.486 -262.965)" fill="#e2d5af"/>
    <path id="Path_9508" data-name="Path 9508" d="M409.339,333.326c12.32-.33,22.673-1.2,22.673-4.018a1.591,1.591,0,0,0-.058-.344H405.368Z" transform="translate(-373.854 -263.562)" fill="#f7f0da"/>
    <path id="Path_9509" data-name="Path 9509" d="M402.837,326.258c8.451,1.329,12.617,5.668,11.418,11.13C412.729,344.341,402.837,326.258,402.837,326.258Z" transform="translate(-372.984 -262.633)" fill="#3b2d51"/>
    <path id="Path_9510" data-name="Path 9510" d="M468.8,341.779H399.574l-28.209,129.2h69.222Z" transform="translate(-362.172 -267.965)" fill="#634c84"/>
    <path id="Path_9511" data-name="Path 9511" d="M489.3,341.779H420.083l-28.209,129.2H461.1Z" transform="translate(-369.218 -267.965)" fill="#4c396b"/>
    <path id="Path_9512" data-name="Path 9512" d="M406.819,355.447l-24.752,113.37h60.739l24.752-113.37Zm34.984,111.5H384.449l23.373-109.63h57.354Z" transform="translate(-365.849 -272.66)" fill="#eaddbe" style="mix-blend-mode: overlay;isolation: isolate"/>
    <path id="Path_9513" data-name="Path 9513" d="M420.4,318.685l1.861,2.233-.468,3.239,8.091,9.708h10.58l2.508-15.18Z" transform="translate(-379.017 -260.031)" fill="#c94343" opacity="0.6" style="mix-blend-mode: multiply;isolation: isolate"/>
    <path id="Path_9514" data-name="Path 9514" d="M547.851,293.441H475.575a4.242,4.242,0,0,0-4.234,3.987l-9.2,152.912a4.241,4.241,0,0,0,4.234,4.5h77.668a4.241,4.241,0,0,0,4.24-4.136l3.809-152.912A4.241,4.241,0,0,0,547.851,293.441Z" transform="translate(-393.355 -251.359)" fill="#f24c5c"/>
    <path id="Path_9515" data-name="Path 9515" d="M514.016,293.44H485.662c-.88,0-1.377,1.747-1.133,3.987L501.145,450.34c.265,2.438,1.3,4.5,2.256,4.5H533.87c.9,0,1.4-1.835,1.116-4.136L516.254,297.788C515.962,295.4,514.951,293.44,514.016,293.44Z" transform="translate(-401.027 -251.359)" fill="#d63444"/>
    <g id="Group_9631" data-name="Group 9631" transform="translate(86.269 48.836)" style="mix-blend-mode: overlay;isolation: isolate">
      <path id="Path_9516" data-name="Path 9516" d="M551.032,453.025H488.776v-.517l.129-148.778h65.626a4.412,4.412,0,0,1,4.412,4.523l-3.5,140.47A4.388,4.388,0,0,1,551.032,453.025Zm-61.222-1.034h61.222a3.359,3.359,0,0,0,3.377-3.295l3.5-140.47a3.378,3.378,0,0,0-3.378-3.463H489.939Z" transform="translate(-488.776 -303.729)" fill="#eaddbe"/>
    </g>
    <path id="Path_9517" data-name="Path 9517" d="M471.232,293.441H448.167l-2.751,161.4h25.676Z" transform="translate(-387.612 -251.359)" fill="#d63444"/>
    <path id="Path_9518" data-name="Path 9518" d="M449.584,293.441l-.045,2.64,19.942.2L470.9,454.836h1.609l.14-161.4Z" transform="translate(-389.028 -251.359)" fill="#b72036"/>
    <path id="Path_9519" data-name="Path 9519" d="M548.84,382.18s17.312,50.472,17.34,52.236-24.006,43.669-24.006,43.669l-.568-.168,12.151-42.326L543.486,410.4Z" transform="translate(-420.656 -281.844)" fill="#6d3e4c"/>
    <path id="Path_9520" data-name="Path 9520" d="M545.559,400.865l-6.728,12.579,13.2,28.116-11.378,42.777.112.033c4.533-10.341,16.571-41.34,16.547-42.81C557.291,440.347,550.675,415.891,545.559,400.865Z" transform="translate(-419.703 -288.263)" fill="#592e3c"/>
    <path id="Path_9521" data-name="Path 9521" d="M518.005,388.637c7.369,35.145,29.126,94.946,29.126,94.946h.647L539.1,407.269l4.309-4.084-2.454-20.674S516.453,381.235,518.005,388.637Z" transform="translate(-412.524 -281.929)" fill="#6d3e4c"/>
    <path id="Path_9522" data-name="Path 9522" d="M522.946,397.884c10.12-9.416,13.728-9.152,16.632-8.008a8.549,8.549,0,0,0,5.456.265l-1.408-5.72L523.3,383.364Z" transform="translate(-414.246 -282.251)" fill="#592e3c"/>
    <g id="Group_9632" data-name="Group 9632" transform="translate(105.41 102.266)">
      <path id="Path_9523" data-name="Path 9523" d="M521.858,385.12c-2.619.93-4.3,2.332-3.853,4.442,7.369,35.145,29.126,94.946,29.126,94.946h.6C544.235,472.2,528.568,416.572,521.858,385.12Z" transform="translate(-517.934 -385.12)" fill="#592e3c"/>
    </g>
    <path id="Path_9524" data-name="Path 9524" d="M547.451,418.379l-6.006-2.31,6.072-.132,5.28-4.356Z" transform="translate(-420.601 -291.944)" fill="#592e3c"/>
    <path id="Path_9525" data-name="Path 9525" d="M541.179,306.118c11.392,9.332,15.634,27.026,15.634,27.026l21.936-.97,1.091,5.212s-18.3,10.665-28,7.756S541.179,306.118,541.179,306.118Z" transform="translate(-420.51 -255.714)" fill="#ffb94a"/>
    <path id="Path_9526" data-name="Path 9526" d="M599.038,350.035c4.686,1.254,7.854.132,9.173-1.452s3.5-5.676,1.32-5.874-11.484,3.564-11.484,3.564Z" transform="translate(-440.046 -268.282)" fill="#ff9566"/>
    <path id="Path_9527" data-name="Path 9527" d="M558.6,337.115c-6.412-1.923-3.872-17.776-17.422-31,0,0,.97,36.115,10.665,39.024s28-7.756,28-7.756l-.616-2.943C573.033,335.8,565.3,339.126,558.6,337.115Z" transform="translate(-420.51 -255.714)" fill="#ff9239"/>
    <path id="Path_9528" data-name="Path 9528" d="M597.168,351.477c0,.226-3.1-6.653-3.1-6.653l-6.072.433.7,4.51,1.848.076-2.2,1.277,2.376,3.759Z" transform="translate(-436.592 -269.011)" fill="#eaddbe"/>
    <path id="Path_9529" data-name="Path 9529" d="M516.329,300.209c-9.542,12.087-6.51,28.467-4.264,36.261s-1.391,23.519,4.593,30.47c0,0,8.642-9.459,14.7-8.668s7.522,3.863,9.108,2.508-.431-20.243.577-25.44-.494-19.226-7.221-27.359S516.329,300.209,516.329,300.209Z" transform="translate(-409.718 -253.683)" fill="#ffb94a"/>
    <path id="Path_9530" data-name="Path 9530" d="M515.076,309.5a4.349,4.349,0,0,0-3.042,1.515c-4.063,10.645-1.766,22.4.033,28.646,2.246,7.795-1.391,23.518,4.593,30.47a40.662,40.662,0,0,1,8.77-7.1,132.361,132.361,0,0,0,.734-14.111C526.164,327.152,521.2,309.5,515.076,309.5Z" transform="translate(-409.72 -256.877)" fill="#ff6d2c"/>
    <path id="Path_9531" data-name="Path 9531" d="M527.145,266.534c-6.4-10.024-3.67-14.109-3.67-14.109s-3.472-5.26.052-10.215c0,0,.285-7.412,9.171-9.07,0,0,5.858-6.313,10.507-2.671,0,0,5.43-4.314,8,4.114s-.658,8.367-.658,8.367,5.087,10.917-3.127,13.587S527.145,266.534,527.145,266.534Z" transform="translate(-413.903 -229.337)" fill="#7a4939"/>
    <path id="Path_9532" data-name="Path 9532" d="M546.861,256.8s-6.294-.312-8.205-6.085c0,0-5.808-4.614-1.889-12.76,0,0-.966-5.1,1.268-8.126a14.282,14.282,0,0,0-5.337,3.481c-8.886,1.658-9.171,9.07-9.171,9.07-3.524,4.956-.052,10.215-.052,10.215s-2.731,4.085,3.67,14.108c0,0,11.56-7.019,19.753-9.819C546.873,256.83,546.861,256.8,546.861,256.8Z" transform="translate(-413.903 -229.506)" fill="#603428"/>
    <path id="Path_9533" data-name="Path 9533" d="M532.413,302.746l-12.649-2.536c9.938,4.727,19.446,13.448,19.446,13.448S535.934,304.893,532.413,302.746Z" transform="translate(-413.153 -253.684)" fill="#eaddbe"/>
    <path id="Path_9534" data-name="Path 9534" d="M519.764,288.35l9.211-22.663,8,10.786-3.393,16.119Z" transform="translate(-413.153 -241.824)" fill="#ffb882"/>
    <path id="Path_9535" data-name="Path 9535" d="M596.6,288.375l-20,37.328L544,328.611l.121.606H588.6l22.663-37.207Z" transform="translate(-421.478 -249.618)" fill="#dbccad"/>
    <path id="Path_9536" data-name="Path 9536" d="M576.6,345.236,544,348.145l.121.606H588.6L578.4,347.3Z" transform="translate(-421.478 -269.152)" fill="#d1bb93"/>
    <path id="Path_9537" data-name="Path 9537" d="M544.182,349.83h44.478l-10.2-1.453Z" transform="translate(-421.541 -270.231)" fill="#ba9e70"/>
    <path id="Path_9538" data-name="Path 9538" d="M618.817,289.975l-22.473,38.34,10.236,1.452,22.663-37.207Z" transform="translate(-439.461 -250.168)" fill="#efe3ca"/>
    <path id="Path_9539" data-name="Path 9539" d="M624.174,289.975l-12.237,39.792L634.6,292.56Z" transform="translate(-444.817 -250.168)" fill="#f9f0e1"/>
    <path id="Path_9540" data-name="Path 9540" d="M513.869,356.54c1.357,8.141-1.293,21.944,4.067,28.468,4.037-16.8,10.463-22.56,24.307-21.381a71.627,71.627,0,0,1,.111-9.433C534.74,353.145,521.9,352.271,513.869,356.54Z" transform="translate(-411.128 -271.934)" fill="#ff6d2c"/>
    <path id="Path_9541" data-name="Path 9541" d="M523,331.413c-1.013-15.149-5.694-31.824-8.228-30.975-3,1-8,7.354-8.887,16.443-.811,8.313,4.882,26.847,9.063,30.24s28.058-13.515,34.392-16.3l1.14-6.908C541.706,323.674,530.406,327.323,523,331.413Z" transform="translate(-408.357 -253.752)" fill="#ffb94a"/>
    <path id="Path_9542" data-name="Path 9542" d="M534.679,342.785c7.431-3.114,17.266-5.451,24.99-4.86l-1.2,5.565c.285-.142.554-.272.791-.377l1.14-6.908C552.293,335.986,542.037,339.086,534.679,342.785Z" transform="translate(-418.277 -266.046)" fill="#ff9239"/>
    <path id="Path_9543" data-name="Path 9543" d="M517.412,343.88c-4.181-3.393-9.046-23.925-8.235-32.238a28.1,28.1,0,0,1,.742-4.2,26.479,26.479,0,0,0-4.043,11.855c-.811,8.313,4.054,28.844,8.235,32.238s28.886-15.512,35.22-18.3l.7-4.264C541.423,333.673,521.177,346.937,517.412,343.88Z" transform="translate(-408.351 -256.169)" fill="#ff9239"/>
    <path id="Path_9544" data-name="Path 9544" d="M570.959,537.534h-8.884s-1.228-2.193.587-3.1C565.008,533.26,570.959,537.534,570.959,537.534Z" transform="translate(-427.549 -334.078)" fill="#f2e9ce"/>
    <path id="Path_9545" data-name="Path 9545" d="M546.551,534.439h-5l-2.216-6.865s2.1-3.762,3.168-1.782c.658,1.22.26,4.945.274,6.478A23.808,23.808,0,0,0,546.551,534.439Z" transform="translate(-419.876 -330.982)" fill="#f2e9ce"/>
    <path id="Path_9546" data-name="Path 9546" d="M403.148,321.146c-1.32,4.026,8.382,11.616,10.824,12.672l-7.26,1.716-7.326-10.757.549-6.227Z" transform="translate(-371.799 -259.985)" fill="#634c84"/>
    <path id="Path_9547" data-name="Path 9547" d="M396.367,335.754c-7.558-4.316-10.132-11.618-10.868-17.2l-28.137,129.2c1.172,6.494,4.023,11.85,9.55,15.39Z" transform="translate(-357.362 -259.985)" fill="#503d70"/>
    <path id="Path_9548" data-name="Path 9548" d="M465.145,391.675h-10.8l-1.288,86.013H465.08Z" transform="translate(-390.237 -285.106)" fill="#eaddbe" style="mix-blend-mode: overlay;isolation: isolate"/>
    <path id="Path_9549" data-name="Path 9549" d="M455.451,308.537h10.8l.805-3.985H455.034Z" transform="translate(-390.916 -255.176)" fill="#eaddbe" style="mix-blend-mode: overlay;isolation: isolate"/>
    <path id="Path_9550" data-name="Path 9550" d="M455.451,321.808h10.8l.805-3.985H455.034Z" transform="translate(-390.916 -259.735)" fill="#eaddbe" style="mix-blend-mode: overlay;isolation: isolate"/>
    <path id="Path_9551" data-name="Path 9551" d="M585.308,337.592c.2,2.084-.307,3.408-.771,3.647s-2.042-.53-2.306-1.193S585.132,335.753,585.308,337.592Z" transform="translate(-434.607 -266.35)" fill="#ff9566"/>
    <path id="Path_9552" data-name="Path 9552" d="M584.153,336.018c-.139,3.917-.519,4.272-1.109,4.629s-2.425-.111-2.632-.725.139-2.157.624-2.03a6.664,6.664,0,0,0,1.074.167Z" transform="translate(-433.966 -265.986)" fill="#ffb882"/>
    <path id="Path_9553" data-name="Path 9553" d="M578.245,333.776c-.815-1.577-7.131-1.456-10.493,1.675l2.068,5.632c2.9-1.255,5.42-3.454,7.253-3.272S579.06,335.353,578.245,333.776Z" transform="translate(-429.638 -264.874)" fill="#ffb882"/>
    <path id="Path_9554" data-name="Path 9554" d="M580.64,337.292c-.139,3.917-.52,4.272-1.109,4.629s-2.425-.111-2.633-.725.139-2.157.624-2.03a6.68,6.68,0,0,0,1.074.167Z" transform="translate(-432.759 -266.423)" fill="#ffb882"/>
    <path id="Path_9555" data-name="Path 9555" d="M581.763,333.088a7.432,7.432,0,0,1,4.341,2.465,13.171,13.171,0,0,1,1.61,4.05c.03.572-1.186,1.292-1.445.541a16.9,16.9,0,0,0-1.293-3.088c-.221-.091-2.381-1.237-2.484-1.218A25.952,25.952,0,0,1,581.763,333.088Z" transform="translate(-434.452 -264.979)" fill="#ffb882"/>
    <path id="Path_9556" data-name="Path 9556" d="M569.118,342.257c0,.265-3.1-7.788-3.1-7.788l-6.072.506.7,5.28,1.848.088-2.2,1.5,2.376,4.4Z" transform="translate(-426.956 -265.454)" fill="#eaddbe"/>
    <path id="Path_9557" data-name="Path 9557" d="M518.388,299.135l1.76-2.9,13.86,5.148-.836,2.64Z" transform="translate(-412.68 -252.318)" fill="#eaddbe"/>
    <path id="Path_9558" data-name="Path 9558" d="M531.77,295.934c-.093-.114-.188-.215-.283-.322l.455-1.438-.5-.186,1.532-7.278a37.326,37.326,0,0,0-9.09-11.45l-5.622,13.833-.178-.066-1.76,2.9.224.073a12.15,12.15,0,0,0-4.172,4.109c7.966-.3,19.021,7.6,23.074,5.162a2.084,2.084,0,0,0,.726-.779A35.116,35.116,0,0,0,531.77,295.934Z" transform="translate(-410.614 -245.113)" fill="#c94343" opacity="0.6" style="mix-blend-mode: multiply;isolation: isolate"/>
    <path id="Path_9559" data-name="Path 9559" d="M533.614,253.335a65.6,65.6,0,0,0-4.752,23.838c.04.86,7.8,6.6,10.463,7.127,0,0,9.46-11.956,11.42-21.952s-.572-12.464-3.57-13.081S535.492,248.727,533.614,253.335Z" transform="translate(-416.276 -236.09)" fill="#ffb882"/>
    <path id="Path_9560" data-name="Path 9560" d="M532.73,267.971c6.573-15.725,8.413-23.312,2.813-20.45s-5.211,18.164-5.211,18.164Z" transform="translate(-416.781 -235.38)" fill="#603428"/>
    <path id="Path_9561" data-name="Path 9561" d="M531.326,268.455c.163-3.718-4.011-7.056-4.77-3.051s1.756,9.962,2.756,8.748A13.64,13.64,0,0,0,531.326,268.455Z" transform="translate(-415.438 -241.103)" fill="#ffb882"/>
    <path id="Path_9562" data-name="Path 9562" d="M530.922,269.67c.1-2.339-2.521-4.436-3-1.918s1.1,6.264,1.732,5.5A8.574,8.574,0,0,0,530.922,269.67Z" transform="translate(-415.926 -242.141)" fill="#db5b3e"/>
    <path id="Path_9563" data-name="Path 9563" d="M530.822,272.656c.067-1.537-1.657-2.915-1.971-1.26s.726,4.117,1.14,3.615A5.636,5.636,0,0,0,530.822,272.656Z" transform="translate(-416.255 -243.528)" fill="#ffb882"/>
    <g id="Group_9633" data-name="Group 9633" transform="translate(118.724 18.185)">
      <path id="Path_9564" data-name="Path 9564" d="M556.7,272.363c.439-1.014.324-2.011-.255-2.222s-1.4.442-1.837,1.458-.323,2.009.253,2.22S556.267,273.381,556.7,272.363Z" transform="translate(-543.757 -261.526)" fill="#4f3131"/>
      <path id="Path_9565" data-name="Path 9565" d="M549.806,268.62c.875-.3,1.268,10.555.72,11.744-.27.592-3.938-1.435-3.938-1.435S549.646,268.672,549.806,268.62Z" transform="translate(-541.092 -261.015)" fill="#ffb882"/>
      <path id="Path_9566" data-name="Path 9566" d="M550.181,269.23c.4,2.315.792,10.119.327,11.106-.211.447-2.525-.7-3.471-1.216-.063.22-.1.347-.1.347s3.852,2.351,4.109,1.759C551.536,280.081,550.886,269.818,550.181,269.23Z" transform="translate(-541.211 -261.227)" fill="#ea7b59"/>
      <path id="Path_9567" data-name="Path 9567" d="M547.356,268.4c.519-.983.488-1.986-.066-2.247s-1.427.322-1.946,1.3-.492,1.987.063,2.25S546.835,269.378,547.356,268.4Z" transform="translate(-540.536 -260.147)" fill="#4f3131"/>
      <path id="Path_9568" data-name="Path 9568" d="M552.135,258.112c-.3-.871-5.468-1.176-6.739-1.044s-1.533,1.057-1.576,2.025,5.395,3.088,7.3,1.979A2.884,2.884,0,0,0,552.135,258.112Z" transform="translate(-540.141 -257.038)" fill="#7a4939"/>
      <path id="Path_9569" data-name="Path 9569" d="M557.977,264.217c-.2,1.727,2.692,2.562,3.374,1.852s1.268-1.507.962-2.223-2.156-3.037-2.88-2.564A5.19,5.19,0,0,0,557.977,264.217Z" transform="translate(-545.001 -258.474)" fill="#7a4939"/>
      <path id="Path_9570" data-name="Path 9570" d="M541.907,290.713c.092-.179-.345-.618-.975-.98s-1.214-.51-1.305-.332.345.618.975.98S541.815,290.892,541.907,290.713Z" transform="translate(-538.696 -268.13)" fill="#ea7b59"/>
      <path id="Path_9571" data-name="Path 9571" d="M538.216,283.6c.118-.2.194-.326.194-.326a14.269,14.269,0,0,0,6.494,5.554,3.876,3.876,0,0,0-.387.293C542.289,288.295,538.595,285.261,538.216,283.6Z" transform="translate(-538.216 -266.052)" fill="#ea7b59"/>
    </g>
    <path id="Path_9572" data-name="Path 9572" d="M615.152,344.263c1.8-1.892,3.3-5.764,2.86-7.128a1.051,1.051,0,0,0-1.98-.265c-.352.572-.748,4.84-.968,5.852A2.266,2.266,0,0,0,615.152,344.263Z" transform="translate(-445.865 -266.074)" fill="#ff9566"/>
    <path id="Path_9573" data-name="Path 9573" d="M613,348.137c1.491-1.413,2.348-4.3,1.683-5.323a1.225,1.225,0,0,0-2.024-.2c-.257.427.052,3.614,0,4.369A1.524,1.524,0,0,0,613,348.137Z" transform="translate(-445.028 -268.1)" fill="#ff9566"/>
  </g>
  <g id="Group_9643" data-name="Group 9643" transform="translate(0 144.807)">
    <path id="Path_9574" data-name="Path 9574" d="M222.443,357.731h66.134l9.339,119.192h-74.7Z" transform="translate(-144.082 -311.582)" fill="#b7bf47"/>
    <path id="Path_9575" data-name="Path 9575" d="M229.106,423.968l24.83-66.213h10.346l-4.017,11.928,3.651-.73,3.286,58.667h11.441l6.086,23H289.6l4.382,14.606,1.826,11.563H222.411Z" transform="translate(-144.071 -311.59)" fill="#999b32"/>
    <g id="Group_9635" data-name="Group 9635" transform="translate(80.796 49.742)" opacity="0.58" style="mix-blend-mode: overlay;isolation: isolate">
      <path id="Path_9576" data-name="Path 9576" d="M226.152,363.753l59.042-.548,6.542,111.118-64.886.349Zm58.185.4-57.273.53.7,109.016,62.983-.341Z" transform="translate(-226.152 -363.205)" fill="#fff9f1"/>
    </g>
    <path id="Path_9577" data-name="Path 9577" d="M322.6,357.731H339.3l7.3,119.192H329.066Z" transform="translate(-178.489 -311.582)" fill="#a5a53a"/>
    <path id="Path_9578" data-name="Path 9578" d="M333.049,385.556h8.173l5.031,84.119h-8.58Z" transform="translate(-182.079 -321.141)" fill="#fff9f1" opacity="0.42" style="mix-blend-mode: overlay;isolation: isolate"/>
    <path id="Path_9579" data-name="Path 9579" d="M323.4,357.731l6.419,119.192h-2.483l-6.467-119.192Z" transform="translate(-177.895 -311.582)" fill="#999b32"/>
    <path id="Path_9580" data-name="Path 9580" d="M183.484,440.449c-20.486,6.492-71.126,15-71.126,15l.288.866h78.773Z" transform="translate(-106.264 -339.999)" fill="#7c3552"/>
    <path id="Path_9581" data-name="Path 9581" d="M188.4,452.685l3.164,7.838H112.789l-.015-.046Z" transform="translate(-106.407 -344.202)" fill="#602540"/>
    <path id="Path_9582" data-name="Path 9582" d="M222.573,404.064c16.1-9.459,17.458-11.7,20.3-17.593s5.225-18.071-.884-18.455-17.116,20.106-21.9,19.7S213.679,409.291,222.573,404.064Z" transform="translate(-141.938 -315.114)" fill="#eaddbe"/>
    <path id="Path_9583" data-name="Path 9583" d="M218.735,388.831c.981,1.91,4.783,3.882,6.939,1.744,9.025-8.949,10.184-17.161,14.809-19.6.511-.269,4.352.367,4.59-.239,1.828,3.838-.052,11.858-2.2,16.3-2.844,5.893-4.2,8.134-20.3,17.593C214.592,409.327,215.095,392.122,218.735,388.831Z" transform="translate(-141.939 -316.051)" fill="#d8c5a0"/>
    <path id="Path_9584" data-name="Path 9584" d="M237.363,371.982a23.262,23.262,0,0,1,8.206-8.94s12.7-3.968,16.88,6.708-10.1,43.715-12.552,49.919-5.194,8.223-19.044,7.213l-11.686-12.7C232.3,403.654,235.047,376.189,237.363,371.982Z" transform="translate(-142.957 -313.159)" fill="#eaddbe"/>
    <g id="Group_9636" data-name="Group 9636" transform="translate(76.21 52.191)">
      <path id="Path_9585" data-name="Path 9585" d="M230.742,397.114c-.954,7.152,7.138,14.459,10.15,14.226,4.818-.373,11.2-18.306,16.432-33.391a37.83,37.83,0,0,0,2.2-11.013,11.7,11.7,0,0,1,2.92,4.4c4.184,10.676-10.1,43.715-12.552,49.919s-5.194,8.223-19.044,7.213l-11.686-12.7C224.534,411.467,228.165,404.332,230.742,397.114Z" transform="translate(-219.167 -366.935)" fill="#d8c5a0"/>
    </g>
    <path id="Path_9586" data-name="Path 9586" d="M215.844,391.406l-22.074-2.164L171.7,392.7l23.069,1.306,21.219-1.785Z" transform="translate(-126.649 -322.407)" fill="#dbc8a2"/>
    <path id="Path_9587" data-name="Path 9587" d="M200.285,389.761l3.306-.519,22.074,2.164.14.819-3.322.279Z" transform="translate(-136.47 -322.407)" fill="#d3bb92"/>
    <path id="Path_9588" data-name="Path 9588" d="M184.368,336.277l5.627,34.77-22.074,3.463-7.214-31.019Z" transform="translate(-122.874 -304.212)" fill="#eaddbe"/>
    <path id="Path_9589" data-name="Path 9589" d="M184.368,336.277l-16.447,38.232-7.214-31.019Z" transform="translate(-122.874 -304.212)" fill="#f4e8ce"/>
    <path id="Path_9590" data-name="Path 9590" d="M193.931,336.841l1.851-.564,5.627,34.77-2.223.349Z" transform="translate(-134.287 -304.212)" fill="#dbc8a2"/>
    <path id="Path_9591" data-name="Path 9591" d="M255.63,404.237c13.84-12.534,14.731-13.855,16.318-20.2s1.443-18.756-4.616-17.89-12.552,22.218-17.313,22.8S247.983,411.162,255.63,404.237Z" transform="translate(-152.744 -314.457)" fill="#eaddbe"/>
    <path id="Path_9592" data-name="Path 9592" d="M250.019,392.443c3.02-.366,6.738-9.094,10.6-15.648,2.225-3.776-5.271,15.315-10.031,15.892-3.738.453-2.859,13.887,1.391,16.291C247.245,407.507,246.12,392.915,250.019,392.443Z" transform="translate(-152.745 -317.962)" fill="#d8c5a0"/>
    <path id="Path_9593" data-name="Path 9593" d="M255.568,397.167c13.84-12.534,14.716-15,16.3-21.353.153-.612.289-1.281.406-1.988a31.111,31.111,0,0,1-.326,12.861c-1.587,6.348-2.463,8.818-16.3,21.352-6.548,5.931-9.494-9.926-7.217-14.967C249.639,397.322,252.1,400.312,255.568,397.167Z" transform="translate(-152.749 -317.111)" fill="#d8c5a0"/>
    <path id="Path_9594" data-name="Path 9594" d="M207.991,397.9c-8.44-3.257-25.907-2.709-25.907-2.709l2.191,3.043s20.243,16.985,25.119,15.132C214.469,411.436,211.419,399.22,207.991,397.9Z" transform="translate(-130.217 -324.439)" fill="#ff9566"/>
    <path id="Path_9595" data-name="Path 9595" d="M249.852,391.788c-4.581-7.84-14.838-14.874-14.838-14.874l-4.639,3.188s10.68,28.517,15.473,29.569S251.671,394.9,249.852,391.788Z" transform="translate(-146.807 -318.172)" fill="#ffb882"/>
    <path id="Path_9596" data-name="Path 9596" d="M245.929,401.682c2.3.5,3.728-2.869,4.4-6.86,1.087,4.879-.186,17.458-4.478,16.517-4.793-1.052-15.473-29.569-15.473-29.569S242.747,400.985,245.929,401.682Z" transform="translate(-146.807 -319.84)" fill="#ff9566"/>
    <g id="Group_9637" data-name="Group 9637" transform="translate(81.146)">
      <path id="Path_9597" data-name="Path 9597" d="M227.159,303.421s-.077.431-.161,1.142A4.032,4.032,0,0,1,227.159,303.421Z" transform="translate(-226.793 -292.925)" fill="#ce5230"/>
      <path id="Path_9598" data-name="Path 9598" d="M226.891,299.07a4.553,4.553,0,0,0,.486,2.1c.866,1.732,5.518,2.381,3.246-5.193s4.22-8.548,4.22-8.548-4.111,3.571.649,5.518,2.489-4.22,7.358-4.977,6.384,6.6,6.384,6.6,1.948-4.545,8.764-1.948,2.38,8.007,2.38,8.007,6.384,1.082,6.817,9.523-4.22,5.3-4.22,5.3a7.543,7.543,0,0,1-3.679,7.574s-1.19,2.164-1.948,7.683l-19.369-17.746C225.74,316.374,226.416,303.111,226.891,299.07Z" transform="translate(-226.686 -287.432)" fill="#7a4939"/>
      <path id="Path_9599" data-name="Path 9599" d="M241.159,312.65c8.62-4.057,16.64-9.055,14.961-17.575-.052-.263-.131-.513-.2-.769a12.481,12.481,0,0,1,2.5.681c6.817,2.6,2.38,8.007,2.38,8.007s6.384,1.083,6.817,9.522-4.22,5.3-4.22,5.3a7.543,7.543,0,0,1-3.679,7.574s-1.19,2.164-1.948,7.683L238.4,315.33c-6.418,1.786-9.282-1.014-10.489-4.661C230.509,314.353,232.882,316.544,241.159,312.65Z" transform="translate(-227.108 -289.793)" fill="#603428"/>
    </g>
    <path id="Path_9600" data-name="Path 9600" d="M265.224,337.376l4.328,17.637c-4.408.631-8.359,3-11.9,6.925L255.594,343Z" transform="translate(-155.471 -304.59)" fill="#ffb882"/>
    <path id="Path_9601" data-name="Path 9601" d="M197.763,396.166l5.193-2.309c11.254,3.03,29.432,39.82,29.432,39.82s-4.617,6.492-9.811,6.492H209.449l-6.781-31.6-13.995,30.442-1.154-.433S195.022,402.514,197.763,396.166Z" transform="translate(-132.085 -323.993)" fill="#7c3552"/>
    <path id="Path_9602" data-name="Path 9602" d="M203.61,400.461s7.018,4.387,12.874,8.174c8.484,11.719,16.19,27.31,16.19,27.31s-4.617,6.492-9.811,6.492H209.734l-6.781-31.6-13.995,30.442-.609-.228Z" transform="translate(-132.37 -326.262)" fill="#602540"/>
    <g id="Group_9640" data-name="Group 9640" transform="translate(11.143 115.785)">
      <path id="Path_9603" data-name="Path 9603" d="M271.965,465.418H215.313c-10.025,0-12.907,21.331-2.881,21.331h56.651C263.965,483.878,264.673,468.8,271.965,465.418Z" transform="translate(-149.646 -464.362)" fill="#ceb995"/>
      <path id="Path_9604" data-name="Path 9604" d="M186.56,463.813H129.243c-11.386-.342-12.642,23.093-1.256,23.436H185.3C175.542,486.955,176.8,463.52,186.56,463.813Z" transform="translate(-120.05 -463.809)" fill="#ffb94a"/>
      <g id="Group_9638" data-name="Group 9638" transform="translate(9.207 0.004)">
        <path id="Path_9605" data-name="Path 9605" d="M248.2,463.816H136.014l-.471,2.221H247.728a1.547,1.547,0,0,0,1.494-1.11h0A.934.934,0,0,0,248.2,463.816Z" transform="translate(-134.579 -463.816)" fill="#ffb94a"/>
        <path id="Path_9606" data-name="Path 9606" d="M246.566,496.576H134.579l-.5,1.929H246.063a1.564,1.564,0,0,0,1.51-.964h0C247.712,497.008,247.261,496.576,246.566,496.576Z" transform="translate(-134.075 -475.07)" fill="#ffb94a"/>
      </g>
      <g id="Group_9639" data-name="Group 9639" transform="translate(62.693 0.004)">
        <path id="Path_9607" data-name="Path 9607" d="M276.442,463.815H216.586l-.251,2.221h59.856c.371,0,.727-.5.8-1.111h0C277.057,464.312,276.812,463.815,276.442,463.815Z" transform="translate(-215.82 -463.815)" fill="#ef7335"/>
        <path id="Path_9608" data-name="Path 9608" d="M275.57,496.576H215.82l-.269,1.929H275.3c.371,0,.731-.432.805-.964h0C276.181,497.008,275.941,496.576,275.57,496.576Z" transform="translate(-215.551 -475.07)" fill="#ef7335"/>
      </g>
      <path id="Path_9609" data-name="Path 9609" d="M190.515,466.448H133.2c-11.386-.291-12.642,19.667-1.256,19.959h57.316C175.394,485.509,176.65,465.551,190.515,466.448Z" transform="translate(-121.409 -464.706)" fill="#ef7335"/>
      <path id="Path_9610" data-name="Path 9610" d="M192.17,467.585l-50.625.249c-10.188-.273-11.312,18.375-1.124,18.648h51.286C182.973,486.248,183.435,467.351,192.17,467.585Z" transform="translate(-124.608 -465.106)" fill="#ddcba6"/>
      <path id="Path_9611" data-name="Path 9611" d="M187.632,471.421H147.353c-8-.206-8.884,13.9-.882,14.109h40.278C179.889,485.354,180.772,471.244,187.632,471.421Z" transform="translate(-127.21 -466.423)" fill="#eaddbe"/>
    </g>
    <g id="Group_9642" data-name="Group 9642" transform="translate(2.775 138.842)">
      <path id="Path_9612" data-name="Path 9612" d="M192,498.932H111.1c-5.014,0-5.078,26.5-.064,26.5h80.9C185.452,525.43,185.517,498.932,192,498.932Z" transform="translate(-107.303 -498.932)" fill="#5e85bc"/>
      <path id="Path_9613" data-name="Path 9613" d="M290.482,503.681H232.446c-10.27,0-10.319,20.263-.049,20.263h58.036C284.8,521.216,283.473,506.9,290.482,503.681Z" transform="translate(-147.639 -500.564)" fill="#ddcba6"/>
      <path id="Path_9614" data-name="Path 9614" d="M254.122,522.022c-7.943,0-7.905-12.2.038-12.2h40.676a16.391,16.391,0,0,0,.234,12.2Z" transform="translate(-155.7 -502.672)" fill="#eaddbe"/>
      <path id="Path_9615" data-name="Path 9615" d="M289,498.932H222.1l-.012,4.676H288.99c.859,0,1.558-1.047,1.562-2.338h0C290.555,499.979,289.86,498.932,289,498.932Z" transform="translate(-146.734 -498.932)" fill="#4b6f9b"/>
      <path id="Path_9616" data-name="Path 9616" d="M288.921,532.173H222.015L222,536.849H288.91c.859,0,1.558-1.047,1.562-2.338h0C290.474,533.22,289.78,532.173,288.921,532.173Z" transform="translate(-146.707 -510.351)" fill="#4b6f9b"/>
      <path id="Path_9617" data-name="Path 9617" d="M228.895,525.43h-11.15c-3.841-5-3.8-21.5.064-26.5h11.15C222.476,498.932,222.411,525.43,228.895,525.43Z" transform="translate(-144.262 -498.932)" fill="#4b6f9b"/>
      <g id="Group_9641" data-name="Group 9641" transform="translate(7.154 2.442)" style="mix-blend-mode: overlay;isolation: isolate">
        <path id="Path_9618" data-name="Path 9618" d="M118.2,513.557c0-5.03.822-10.905,3.14-10.905h57.684v.967c-1.74,0-3.053,4.263-3.053,9.917,0,5.566,1.293,9.763,3.008,9.763v.967H121.3C119.011,524.265,118.2,518.5,118.2,513.557Zm56.9-.022c0-4.042.676-8.111,2.145-9.917h-55.9c-1.25,0-2.267,4.458-2.267,9.938,0,6.1,1.13,9.741,2.222,9.741h55.912C175.764,521.511,175.1,517.51,175.1,513.536Z" transform="translate(-118.201 -502.652)" fill="#ddcba6"/>
      </g>
    </g>
    <path id="Path_9619" data-name="Path 9619" d="M173.154,462.219h11.035s1.542-1.785-.406-2.759S173.154,462.219,173.154,462.219Z" transform="translate(-127.15 -346.474)" fill="#f4e6c9"/>
    <path id="Path_9620" data-name="Path 9620" d="M103.075,451.052l5.186,9.741s2.3.522,2.244-1.654S103.075,451.052,103.075,451.052Z" transform="translate(-103.075 -343.641)" fill="#f4e6c9"/>
    <path id="Path_9621" data-name="Path 9621" d="M255.71,369.863c-4.215-.918-5.636-5.336-5.695-10.866a8.891,8.891,0,0,1,2.086-1.225,22.1,22.1,0,0,1,2.9-2.541L253.677,343l9.63-5.627,4.328,17.637c-.028,0-.055.012-.083.016a10.536,10.536,0,0,1,2.083,1.324,4.647,4.647,0,0,1,2.858,3.045C265.865,360.708,261.758,371.181,255.71,369.863Z" transform="translate(-153.554 -304.59)" fill="#c94343" opacity="0.6" style="mix-blend-mode: multiply;isolation: isolate"/>
    <path id="Path_9622" data-name="Path 9622" d="M259.175,314.289a70.008,70.008,0,0,1,1.19,25.32s-8.764,5.3-14.175,5.41c0,0-4.977-20.667-3.03-28.89S258.526,311.692,259.175,314.289Z" transform="translate(-151.044 -295.57)" fill="#ffb882"/>
    <path id="Path_9623" data-name="Path 9623" d="M265.559,334.261c-.977-11.573-1.7-19.079,1.835-17.361s2.325,14.739,2.325,14.739Z" transform="translate(-158.618 -297.471)" fill="#603428"/>
    <path id="Path_9624" data-name="Path 9624" d="M244.332,333.621c-.095-.8.133-1.487.509-1.532s.757.569.851,1.371-.134,1.486-.509,1.531S244.426,334.422,244.332,333.621Z" transform="translate(-151.594 -302.773)" fill="#633d37"/>
    <path id="Path_9625" data-name="Path 9625" d="M253.463,332.323c-.095-.8.134-1.487.509-1.532s.756.569.851,1.371-.134,1.487-.509,1.531S253.557,333.124,253.463,332.323Z" transform="translate(-154.731 -302.327)" fill="#633d37"/>
    <path id="Path_9626" data-name="Path 9626" d="M237.408,333.64l1.639,5.928,13.037-1.348.285-5.323,9.546-1.384,2.28,2.859,1.924-1.7-2.992-2.174Z" transform="translate(-149.223 -302.225)" fill="#eaddbe"/>
    <path id="Path_9627" data-name="Path 9627" d="M242.6,335.567l-3.936.527,1.258,4.422,2.881-.406Z" transform="translate(-149.655 -303.968)" fill="#ffb882"/>
    <path id="Path_9628" data-name="Path 9628" d="M242.6,335.428l-3.936.527,1.258,4.422,2.881-.406Z" transform="translate(-149.655 -303.92)" fill="#ffb882"/>
    <path id="Path_9629" data-name="Path 9629" d="M242.748,340.17l-1,.14-2.91-4.189,1.235-.165Z" transform="translate(-149.715 -304.102)" fill="#ffc69f"/>
    <path id="Path_9630" data-name="Path 9630" d="M269.222,332.778c1.13-3.087,5.447-2.411,4.686-.116s-3.971,6.517-4.81,5.839S268.913,333.623,269.222,332.778Z" transform="translate(-159.968 -302.295)" fill="#ffb882"/>
    <path id="Path_9631" data-name="Path 9631" d="M244.589,336.556c-.128-.08-2.028,7.882-2.141,8.576s4.5-.694,4.5-.694S244.944,336.776,244.589,336.556Z" transform="translate(-150.954 -304.308)" fill="#ffb882"/>
    <path id="Path_9632" data-name="Path 9632" d="M270.635,334.5c.647-1.767,3.118-1.38,2.682-.066s-2.273,3.729-2.753,3.341S270.457,334.98,270.635,334.5Z" transform="translate(-160.532 -303.191)" fill="#db5b3e"/>
    <path id="Path_9633" data-name="Path 9633" d="M270.458,337.126c.412-1.124,1.983-.878,1.706-.042s-1.446,2.372-1.751,2.124S270.345,337.434,270.458,337.126Z" transform="translate(-160.51 -304.243)" fill="#ffb882"/>
    <path id="Path_9634" data-name="Path 9634" d="M246.762,334.853l1.339,4.788,6.207-.812.365-4.869Z" transform="translate(-152.437 -303.416)" fill="#ffb882"/>
    <path id="Path_9635" data-name="Path 9635" d="M247.966,335.028l2.649-.3,3.985,4.38-2.611.341Z" transform="translate(-152.85 -303.68)" fill="#ffc69f"/>
    <path id="Path_9636" data-name="Path 9636" d="M244.589,336.556a2.751,2.751,0,0,1,.352.818c-.6,2.292-1.639,6.682-1.722,7.19s2.313-.087,3.639-.45l.085.324s-4.608,1.387-4.5.694S244.461,336.476,244.589,336.556Z" transform="translate(-150.954 -304.308)" fill="#ff9566"/>
    <path id="Path_9637" data-name="Path 9637" d="M242.37,337.249c-.416.04-.825-.532-1.041-1.362l1.805-.242C243.093,336.536,242.8,337.209,242.37,337.249Z" transform="translate(-150.57 -303.995)" fill="#633d37"/>
    <path id="Path_9638" data-name="Path 9638" d="M253.377,336.4c-.493.036-.961-.75-1.123-1.816l1.962-.222C254.231,335.476,253.881,336.363,253.377,336.4Z" transform="translate(-154.323 -303.554)" fill="#633d37"/>
    <path id="Path_9639" data-name="Path 9639" d="M257.311,326.887a41.043,41.043,0,0,1-8.333-.6l-.332-3.5s7.6,1.314,8.259,1.962S257.311,326.887,257.311,326.887Z" transform="translate(-153.084 -299.58)" fill="#7a4939"/>
    <path id="Path_9640" data-name="Path 9640" d="M239.916,327.884a14.49,14.49,0,0,0,4.717-1.391L244.318,323s-4.189,2.03-4.477,2.735A4.687,4.687,0,0,0,239.916,327.884Z" transform="translate(-150.021 -299.652)" fill="#7a4939"/>
    <path id="Path_9641" data-name="Path 9641" d="M248.137,349.737l6.939-1.857s.3,4.249-3.171,4.919S248.137,349.737,248.137,349.737Z" transform="translate(-152.909 -308.198)" fill="#472922"/>
    <path id="Path_9642" data-name="Path 9642" d="M249.239,351.08a4.006,4.006,0,0,1-.351-1.248l5.953-1.594a5.83,5.83,0,0,1-.114,1.373Z" transform="translate(-153.167 -308.321)" fill="#fff6e3"/>
    <path id="Path_9643" data-name="Path 9643" d="M179.985,367.317c.869-.144,1.366-1.51,1.111-3.051a4.134,4.134,0,0,0-.8-1.908,3.4,3.4,0,0,1,1.331,2.376c.255,1.541-.243,2.908-1.111,3.051a1.375,1.375,0,0,1-1.237-.623A1.054,1.054,0,0,0,179.985,367.317Z" transform="translate(-129.255 -313.172)" fill="#dbc8a2"/>
    <path id="Path_9644" data-name="Path 9644" d="M178.315,359.9c.838-.138,1.7.641,2.269,1.879-.534-.795-1.207-1.257-1.864-1.149-1.181.2-1.846,2.12-1.486,4.3a6.781,6.781,0,0,0,.521,1.712,6.23,6.23,0,0,1-.926-2.442C176.469,362.015,177.134,360.091,178.315,359.9Z" transform="translate(-128.379 -312.32)" fill="#d3bb92"/>
    <path id="Path_9645" data-name="Path 9645" d="M215.595,378.246c-.233,1.923.359,3.141.9,3.357a3.483,3.483,0,0,0,2.7-1.119C219.509,379.871,215.8,376.549,215.595,378.246Z" transform="translate(-141.712 -318.466)" fill="#ff9566"/>
    <path id="Path_9646" data-name="Path 9646" d="M216.54,376.79c.162,3.611.609,3.935,1.3,4.26s2.84-.122,3.083-.69-.163-1.988-.731-1.866a9.9,9.9,0,0,1-1.258.162Z" transform="translate(-142.054 -318.13)" fill="#ffb882"/>
    <path id="Path_9647" data-name="Path 9647" d="M219.069,374.69c.954-1.461,8.352-1.4,12.289,1.461l-4.016,4.017c-1.312-2.13-4.753-1.948-6.9-1.765S218.115,376.151,219.069,374.69Z" transform="translate(-142.734 -317.085)" fill="#ffb882"/>
    <path id="Path_9648" data-name="Path 9648" d="M218.888,377.856c.163,3.611.609,3.936,1.3,4.26s2.84-.122,3.083-.69-.162-1.988-.73-1.866a9.771,9.771,0,0,1-1.258.162Z" transform="translate(-142.861 -318.496)" fill="#ffb882"/>
    <path id="Path_9649" data-name="Path 9649" d="M218.022,374.053a9.469,9.469,0,0,0-5.083,2.308,10.863,10.863,0,0,0-1.886,3.748c-.035.528,1.388,1.181,1.692.487a14.086,14.086,0,0,1,1.514-2.858c.259-.086,2.789-1.16,2.909-1.143A19.974,19.974,0,0,0,218.022,374.053Z" transform="translate(-140.169 -317.189)" fill="#ffb882"/>
    <path id="Path_9650" data-name="Path 9650" d="M183.878,399.824c-5.538-2.373-8.52-1.339-9.859-5.173l8.4.325Z" transform="translate(-127.447 -324.266)" fill="#ff9566"/>
    <path id="Path_9651" data-name="Path 9651" d="M177.377,395.315a4.072,4.072,0,0,1-2.313-3.53c0-.974-1.5-1.217-1.541-.284a5.062,5.062,0,0,0,.73,2.678C174.659,394.788,177.377,395.315,177.377,395.315Z" transform="translate(-127.275 -322.982)" fill="#ff9566"/>
    <path id="Path_9652" data-name="Path 9652" d="M180.591,395.562a4.071,4.071,0,0,1-2.313-3.53c0-.974-1.5-1.217-1.542-.284a5.065,5.065,0,0,0,.731,2.678C177.873,395.035,180.591,395.562,180.591,395.562Z" transform="translate(-128.379 -323.067)" fill="#ff9566"/>
    <path id="Path_9653" data-name="Path 9653" d="M183.99,395.871a4.071,4.071,0,0,1-2.313-3.53c0-.974-1.5-1.217-1.541-.284a5.06,5.06,0,0,0,.73,2.678C181.272,395.344,183.99,395.871,183.99,395.871Z" transform="translate(-129.547 -323.173)" fill="#ff9566"/>
  </g>
</svg>
