<svg id="Component_67_1" data-name="Component 67 – 1" xmlns="http://www.w3.org/2000/svg" width="190.812" height="194.224" viewBox="0 0 190.812 194.224">
  <g id="Group_9649" data-name="Group 9649" transform="translate(94.846 82.966)">
    <path id="Path_9654" data-name="Path 9654" d="M1019.531,954.431l24.372,9.788,30.17-75.123-20.6-8.274a4.064,4.064,0,0,0-5.285,2.256Z" transform="translate(-1016.663 -880.501)" fill="#f4a640"/>
    <g id="Group_9647" data-name="Group 9647" transform="translate(0 5.521)">
      <rect id="Rectangle_1705" data-name="Rectangle 1705" width="47.394" height="66.636" transform="translate(46.667 73.886) rotate(-169.947)" fill="#adcfd8"/>
      <rect id="Rectangle_1706" data-name="Rectangle 1706" width="21.164" height="0.475" transform="translate(44.176 12.968) rotate(-169.947)" fill="#55769f"/>
      <rect id="Rectangle_1707" data-name="Rectangle 1707" width="30.057" height="0.475" transform="translate(48.764 12.558) rotate(-169.947)" fill="#55769f"/>
      <rect id="Rectangle_1708" data-name="Rectangle 1708" width="36.466" height="0.475" transform="translate(50.838 19.216) rotate(-169.947)" fill="#55769f"/>
      <rect id="Rectangle_1709" data-name="Rectangle 1709" width="36.466" height="0.475" transform="translate(50.439 21.467) rotate(-169.947)" fill="#55769f"/>
      <rect id="Rectangle_1710" data-name="Rectangle 1710" width="36.466" height="0.475" transform="translate(49.641 25.967) rotate(-169.947)" fill="#55769f"/>
      <rect id="Rectangle_1711" data-name="Rectangle 1711" width="36.466" height="0.475" transform="translate(49.242 28.217) rotate(-169.947)" fill="#55769f"/>
      <rect id="Rectangle_1712" data-name="Rectangle 1712" width="36.466" height="0.475" transform="translate(48.843 30.468) rotate(-169.947)" fill="#55769f"/>
      <rect id="Rectangle_1713" data-name="Rectangle 1713" width="36.466" height="0.475" transform="translate(47.089 40.365) rotate(-169.947)" fill="#55769f"/>
      <rect id="Rectangle_1714" data-name="Rectangle 1714" width="36.466" height="0.475" transform="matrix(-0.985, -0.175, 0.175, -0.985, 46.675, 42.698)" fill="#55769f"/>
      <rect id="Rectangle_1715" data-name="Rectangle 1715" width="36.466" height="0.475" transform="translate(46.262 45.031) rotate(-169.947)" fill="#55769f"/>
      <rect id="Rectangle_1716" data-name="Rectangle 1716" width="36.466" height="0.475" transform="translate(45.848 47.365) rotate(-169.947)" fill="#55769f"/>
      <rect id="Rectangle_1717" data-name="Rectangle 1717" width="36.466" height="0.475" transform="translate(45.434 49.698) rotate(-169.947)" fill="#55769f"/>
      <rect id="Rectangle_1718" data-name="Rectangle 1718" width="36.466" height="0.475" transform="translate(45.021 52.032) rotate(-169.947)" fill="#55769f"/>
      <rect id="Rectangle_1719" data-name="Rectangle 1719" width="36.466" height="0.475" transform="translate(44.607 54.365) rotate(-169.947)" fill="#55769f"/>
    </g>
    <g id="Group_9648" data-name="Group 9648" transform="translate(1.398 3.883)">
      <rect id="Rectangle_1720" data-name="Rectangle 1720" width="47.394" height="66.636" transform="matrix(-0.967, -0.255, 0.255, -0.967, 45.834, 76.504)" fill="#daeef7"/>
      <rect id="Rectangle_1721" data-name="Rectangle 1721" width="21.164" height="0.475" transform="matrix(-0.967, -0.255, 0.255, -0.967, 48.333, 15.587)" fill="#55769f"/>
      <rect id="Rectangle_1722" data-name="Rectangle 1722" width="30.057" height="0.475" transform="translate(52.94 15.553) rotate(-165.256)" fill="#55769f"/>
      <rect id="Rectangle_1723" data-name="Rectangle 1723" width="36.466" height="0.475" transform="matrix(-0.967, -0.255, 0.255, -0.967, 54.462, 22.359)" fill="#55769f"/>
      <rect id="Rectangle_1724" data-name="Rectangle 1724" width="36.466" height="0.475" transform="translate(53.881 24.569) rotate(-165.256)" fill="#55769f"/>
      <rect id="Rectangle_1725" data-name="Rectangle 1725" width="36.466" height="0.475" transform="translate(52.717 28.989) rotate(-165.256)" fill="#55769f"/>
      <rect id="Rectangle_1726" data-name="Rectangle 1726" width="36.466" height="0.475" transform="translate(52.136 31.199) rotate(-165.256)" fill="#55769f"/>
      <rect id="Rectangle_1727" data-name="Rectangle 1727" width="36.466" height="0.475" transform="translate(51.554 33.409) rotate(-165.256)" fill="#55769f"/>
      <rect id="Rectangle_1728" data-name="Rectangle 1728" width="36.466" height="0.475" transform="translate(48.996 43.13) rotate(-165.256)" fill="#55769f"/>
      <rect id="Rectangle_1729" data-name="Rectangle 1729" width="36.466" height="0.475" transform="matrix(-0.967, -0.255, 0.255, -0.967, 48.393, 45.421)" fill="#55769f"/>
      <rect id="Rectangle_1730" data-name="Rectangle 1730" width="36.466" height="0.475" transform="matrix(-0.967, -0.255, 0.255, -0.967, 47.79, 47.713)" fill="#55769f"/>
      <rect id="Rectangle_1731" data-name="Rectangle 1731" width="36.466" height="0.475" transform="translate(47.187 50.005) rotate(-165.256)" fill="#55769f"/>
      <rect id="Rectangle_1732" data-name="Rectangle 1732" width="36.466" height="0.475" transform="translate(46.584 52.296) rotate(-165.256)" fill="#55769f"/>
      <rect id="Rectangle_1733" data-name="Rectangle 1733" width="36.466" height="0.475" transform="matrix(-0.967, -0.255, 0.255, -0.967, 45.98, 54.588)" fill="#55769f"/>
      <rect id="Rectangle_1734" data-name="Rectangle 1734" width="36.466" height="0.475" transform="matrix(-0.967, -0.255, 0.255, -0.967, 45.377, 56.88)" fill="#55769f"/>
    </g>
    <path id="Path_9655" data-name="Path 9655" d="M1097.791,957.937l49.067,19.706,28.618-71.26-41.232-25.435a4.39,4.39,0,0,0-6.378,2.1Z" transform="translate(-1085.675 -880.292)" fill="#feb546"/>
  </g>
  <g id="Group_9650" data-name="Group 9650" transform="translate(128.799 138.547)">
    <path id="Path_9656" data-name="Path 9656" d="M1337.644,1365.236l8.89-2.6c1.565-6.47,2.5-11.98,2.5-11.98-10.726.433-18.982,3.716-25.331,8.382l-1.313,10.566-2.836-7.084c-14.99,14.3-16.744,36.363-16.744,36.363s30.171-11.8,35.922-16.67c2.22-1.878,4.262-7.011,5.932-12.6C1341.667,1367.989,1337.644,1365.236,1337.644,1365.236Z" transform="translate(-1300.426 -1350.652)" fill="#ff5b7e"/>
    <path id="Path_9657" data-name="Path 9657" d="M1349.039,1350.652s-35.308,27.7-46.224,48.228c0,0,30.171-11.8,35.922-16.67,2.22-1.878,4.262-7.011,5.932-12.6-3-1.616-7.024-4.369-7.024-4.369l8.89-2.6C1348.1,1356.162,1349.039,1350.652,1349.039,1350.652Z" transform="translate(-1300.426 -1350.652)" fill="#e03268"/>
    <path id="Path_9658" data-name="Path 9658" d="M1337.273,1567.87a42.461,42.461,0,0,0-17.6-1.336c-1.015,2.332-2.287,5.1-2.287,5.1l-1.424-4.427c-20.375,4.585-33.364,22.627-33.364,22.627,13.664,4.16,24.16,3.468,32.125.585.054-1.7.1-4.225.1-4.225l2.423,3.207a36.422,36.422,0,0,0,9.418-6.139c-1.273-1.659-2.659-3.574-2.659-3.574l5.011,1.278A39.422,39.422,0,0,0,1337.273,1567.87Z" transform="translate(-1282.597 -1540.687)" fill="#ff5b7e"/>
    <path id="Path_9659" data-name="Path 9659" d="M1314.722,1603.231c.054-1.7.1-4.225.1-4.225l2.423,3.207a36.416,36.416,0,0,0,9.418-6.139c-1.273-1.659-2.659-3.574-2.659-3.574l5.011,1.278a39.422,39.422,0,0,0,8.26-13.091c-24.188,3.7-54.676,21.959-54.676,21.959C1296.261,1606.806,1306.757,1606.114,1314.722,1603.231Z" transform="translate(-1282.597 -1553.504)" fill="#e03268"/>
  </g>
  <g id="Group_9651" data-name="Group 9651" transform="translate(24.718 111.087)">
    <path id="Path_9660" data-name="Path 9660" d="M415.75,1118.87h-3.355a3.507,3.507,0,0,1,1.983-.6h84.059c4.4,0,7.963,3.16,7.963,7.059v4.484c0,3.9-3.565,7.059-7.963,7.059l-83.119-.025Z" transform="translate(-411.144 -1118.27)" fill="#e03268"/>
    <path id="Path_9661" data-name="Path 9661" d="M1088.818,1129.812v-4.484c0-3.9-3.565-7.059-7.963-7.059h1.805c4.4,0,7.963,3.16,7.963,7.059v4.484c0,3.9-3.565,7.059-7.963,7.059h-1.781C1085.266,1136.859,1088.818,1133.7,1088.818,1129.812Z" transform="translate(-1000.613 -1118.27)" fill="#feb546"/>
    <path id="Path_9662" data-name="Path 9662" d="M922.217,1129.812v-4.484c0-3.9-3.565-7.059-7.963-7.059h1.805c4.4,0,7.963,3.16,7.963,7.059v4.484c0,3.9-3.565,7.059-7.963,7.059h-1.781C918.665,1136.859,922.217,1133.7,922.217,1129.812Z" transform="translate(-853.699 -1118.27)" fill="#feb546"/>
    <path id="Path_9663" data-name="Path 9663" d="M454.134,1118.41c4.206,0,7.615,3.022,7.615,6.75v5.067c0,3.728-3.409,6.75-7.615,6.75H401.8v-1.133h.216l13.3-1.117,2.689-9.351s-5.19-5.167-5.528-5.3-10.464-.538-10.464-.538l-.216,0v-1.127Z" transform="translate(-401.805 -1118.394)" fill="#ff5b7e"/>
    <path id="Path_9664" data-name="Path 9664" d="M406.742,1136.118a10.8,10.8,0,0,0-3.187-8.117h51.05c3.863,0,6.995,2.776,6.995,6.2v3.9c0,3.424-3.132,6.2-6.995,6.2h-51.05S406.742,1143,406.742,1136.118Z" transform="translate(-403.348 -1126.851)" fill="#daeef7"/>
    <path id="Path_9665" data-name="Path 9665" d="M461.6,1134.2v3.9a5.546,5.546,0,0,1-.2,1.487,14.626,14.626,0,0,0-11.3-8.488c-14.666-2.7-46.538-3.1-46.538-3.1h51.05C458.468,1128,461.6,1130.777,461.6,1134.2Z" transform="translate(-403.348 -1126.851)" fill="#daeef7" style="mix-blend-mode: multiply;isolation: isolate"/>
  </g>
  <g id="Group_9652" data-name="Group 9652" transform="translate(25.494 148.115)">
    <path id="Path_9666" data-name="Path 9666" d="M424.162,1432.375h-3.8a3.707,3.707,0,0,1,2.244-.751h95.139a8.925,8.925,0,0,1,9.013,8.835v5.612a8.925,8.925,0,0,1-9.013,8.836l-94.075-.031Z" transform="translate(-418.948 -1431.624)" fill="#07085b"/>
    <path id="Path_9667" data-name="Path 9667" d="M467.6,1431.8a8.535,8.535,0,0,1,8.619,8.45v6.342a8.536,8.536,0,0,1-8.619,8.45H408.378v-1.419h.245l15.057-1.4,3.043-11.7s-5.874-6.468-6.257-6.635-11.843-.673-11.843-.673l-.245,0V1431.8Z" transform="translate(-408.378 -1431.78)" fill="#55769f"/>
    <path id="Path_9668" data-name="Path 9668" d="M413.967,1453.967c0-6.843-3.607-10.161-3.607-10.161h57.779a7.84,7.84,0,0,1,7.917,7.761v4.882a7.84,7.84,0,0,1-7.917,7.761H410.36S413.967,1462.583,413.967,1453.967Z" transform="translate(-410.126 -1442.367)" fill="#daeef7"/>
    <path id="Path_9669" data-name="Path 9669" d="M476.056,1451.567v4.882a7.63,7.63,0,0,1-.231,1.861,16.93,16.93,0,0,0-12.793-10.624c-16.6-3.38-52.672-3.881-52.672-3.881h57.779A7.84,7.84,0,0,1,476.056,1451.567Z" transform="translate(-410.126 -1442.367)" fill="#daeef7" style="mix-blend-mode: multiply;isolation: isolate"/>
  </g>
  <g id="Group_9653" data-name="Group 9653" transform="translate(33.804 129.641)">
    <path id="Path_9670" data-name="Path 9670" d="M581.335,1275.877h3.8a4.374,4.374,0,0,0-2.245-.6H487.713c-4.98,0-9.016,3.139-9.016,7.011v4.453c0,3.872,4.037,7.011,9.016,7.011l94.111-.025Z" transform="translate(-478.697 -1275.281)" fill="#02ccc0"/>
    <path id="Path_9671" data-name="Path 9671" d="M825.669,1275.421c-4.762,0-8.622,3-8.622,6.7v5.033c0,3.7,3.86,6.7,8.622,6.7h59.249v-1.126h-.245l-15.062-1.109-3.045-9.287s5.876-5.132,6.259-5.264,11.848-.534,11.848-.534l.245,0v-1.12Z" transform="translate(-777.065 -1275.405)" fill="#06bfad"/>
    <path id="Path_9672" data-name="Path 9672" d="M895.375,1293.009a10.234,10.234,0,0,1,3.609-8.062h-57.8c-4.374,0-7.92,2.757-7.92,6.158v3.874c0,3.4,3.546,6.158,7.92,6.158h57.8S895.375,1299.846,895.375,1293.009Z" transform="translate(-791.364 -1283.805)" fill="#daeef7"/>
    <path id="Path_9673" data-name="Path 9673" d="M833.262,1291.105v3.874a4.87,4.87,0,0,0,.231,1.477c1.95-3.709,5.686-7.281,12.8-8.43,16.606-2.682,52.692-3.079,52.692-3.079h-57.8C836.808,1284.947,833.262,1287.7,833.262,1291.105Z" transform="translate(-791.364 -1283.805)" fill="#daeef7" style="mix-blend-mode: multiply;isolation: isolate"/>
    <path id="Path_9674" data-name="Path 9674" d="M558.8,1286.745v-4.453c0-3.872,4.037-7.011,9.016-7.011h-9.038c-4.979,0-9.016,3.139-9.016,7.011v4.453c0,3.872,4.037,7.011,9.016,7.011l8.918,0C562.775,1293.7,558.8,1290.586,558.8,1286.745Z" transform="translate(-541.367 -1275.281)" fill="#55769f" opacity="0.5"/>
  </g>
  <path id="Path_9675" data-name="Path 9675" d="M440.091,1629.728h4.763a6.006,6.006,0,0,0-2.815-.666H322.72c-6.243,0-11.3,3.507-11.3,7.833v4.975c0,4.326,5.061,7.833,11.3,7.833l117.985-.028Z" transform="translate(-297.381 -1457.615)" fill="#feb546"/>
  <path id="Path_9676" data-name="Path 9676" d="M746.407,1629.218c-5.97,0-10.81,3.354-10.81,7.491v5.623c0,4.137,4.84,7.491,10.81,7.491h74.279v-1.258h-.307l-18.883-1.239-3.817-10.376s7.366-5.734,7.847-5.882,14.853-.6,14.853-.6l.307,0v-1.251Z" transform="translate(-671.435 -1457.754)" fill="#f4a640"/>
  <path id="Path_9677" data-name="Path 9677" d="M833.794,1648.869a11.113,11.113,0,0,1,4.524-9.008H765.854c-5.484,0-9.929,3.081-9.929,6.881v4.328c0,3.8,4.445,6.881,9.929,6.881h72.464S833.794,1656.508,833.794,1648.869Z" transform="translate(-689.361 -1467.139)" fill="#daeef7"/>
  <path id="Path_9678" data-name="Path 9678" d="M755.925,1646.742v4.328a4.906,4.906,0,0,0,.29,1.65c2.444-4.144,7.128-8.135,16.045-9.419,20.818-3,66.059-3.44,66.059-3.44H765.854C760.37,1639.861,755.925,1642.942,755.925,1646.742Z" transform="translate(-689.361 -1467.139)" fill="#daeef7" style="mix-blend-mode: multiply;isolation: isolate"/>
  <path id="Rectangle_1735" data-name="Rectangle 1735" d="M1.139,0H173.754a1.139,1.139,0,0,1,1.139,1.139v0a1.139,1.139,0,0,1-1.139,1.139H1.139A1.139,1.139,0,0,1,0,1.139v0A1.139,1.139,0,0,1,1.139,0Z" transform="translate(174.893 194.224) rotate(180)" fill="#c4dfe8"/>
  <path id="Path_9679" data-name="Path 9679" d="M1398.647,1025.071l-33.406-19.107-4.515,8.944,34.182,18.084Z" transform="translate(-1222.693 -908.148)" fill="#f4a640"/>
  <path id="Path_9680" data-name="Path 9680" d="M1432.05,583.232s.264,2.6,2.314,2.778c-2.05.18-2.314,2.778-2.314,2.778s-.263-2.6-2.314-2.778C1431.786,585.83,1432.05,583.232,1432.05,583.232Z" transform="translate(-1283.551 -535.369)" fill="#02ccc0"/>
  <path id="Path_9681" data-name="Path 9681" d="M1729.308,1224.174s.4,3.9,3.471,4.167c-3.075.27-3.471,4.167-3.471,4.167s-.4-3.9-3.471-4.167C1728.912,1228.071,1729.308,1224.174,1729.308,1224.174Z" transform="translate(-1544.66 -1100.572)" fill="#ff5b7e"/>
  <path id="Path_9682" data-name="Path 9682" d="M1650.6,403.436s.351,3.461,3.082,3.7c-2.731.239-3.082,3.7-3.082,3.7s-.351-3.461-3.082-3.7C1650.252,406.9,1650.6,403.436,1650.6,403.436Z" transform="translate(-1475.599 -376.819)" fill="#feb546"/>
  <path id="Path_9683" data-name="Path 9683" d="M282.506,1354.033s.236,2.329,2.074,2.49c-1.838.161-2.074,2.49-2.074,2.49s-.236-2.329-2.074-2.49C282.27,1356.362,282.506,1354.033,282.506,1354.033Z" transform="translate(-270.056 -1215.086)" fill="#feb546"/>
  <path id="Path_9684" data-name="Path 9684" d="M1554.308,800.107s.236,2.324,2.069,2.485c-1.834.161-2.069,2.485-2.069,2.485s-.236-2.324-2.07-2.485C1554.072,802.431,1554.308,800.107,1554.308,800.107Z" transform="translate(-1391.576 -726.617)" fill="#ff5b7e"/>
  <path id="Path_9685" data-name="Path 9685" d="M1284.146,283.937s.236,2.324,2.07,2.485c-1.834.161-2.07,2.485-2.07,2.485s-.236-2.324-2.069-2.485C1283.911,286.261,1284.146,283.937,1284.146,283.937Z" transform="translate(-1153.34 -271.441)" fill="#ff5b7e"/>
  <path id="Path_9686" data-name="Path 9686" d="M465.894,534.259s.309,3.041,2.708,3.251c-2.4.21-2.708,3.251-2.708,3.251s-.308-3.041-2.708-3.251C465.586,537.3,465.894,534.259,465.894,534.259Z" transform="translate(-431.215 -492.184)" fill="#ff5b7e"/>
  <path id="Path_9687" data-name="Path 9687" d="M281.809,980.007s.452,4.455,3.968,4.764c-3.516.308-3.968,4.764-3.968,4.764s-.452-4.455-3.968-4.764C281.357,984.462,281.809,980.007,281.809,980.007Z" transform="translate(-267.771 -885.258)" fill="#ff5b7e"/>
  <path id="Path_9688" data-name="Path 9688" d="M1198.175,637.466s.351,3.461,3.082,3.7c-2.731.24-3.082,3.7-3.082,3.7s-.351-3.461-3.082-3.7C1197.824,640.927,1198.175,637.466,1198.175,637.466Z" transform="translate(-1076.635 -583.194)" fill="#ff5b7e"/>
  <path id="Path_9689" data-name="Path 9689" d="M1758.29,953.619s.351,3.461,3.082,3.7c-2.731.239-3.082,3.7-3.082,3.7s-.351-3.461-3.082-3.7C1757.939,957.08,1758.29,953.619,1758.29,953.619Z" transform="translate(-1570.56 -861.988)" fill="#02ccc0"/>
  <path id="Path_9690" data-name="Path 9690" d="M313.612,352.678s.25,2.465,2.2,2.636c-1.945.171-2.2,2.636-2.2,2.636s-.25-2.465-2.2-2.636C313.362,355.143,313.612,352.678,313.612,352.678Z" transform="translate(-297.381 -332.06)" fill="#02ccc0"/>
  <path id="Path_9691" data-name="Path 9691" d="M523.527,868.389s.4,3.948,3.516,4.221c-3.115.273-3.516,4.221-3.516,4.221s-.4-3.948-3.516-4.221C523.127,872.337,523.527,868.389,523.527,868.389Z" transform="translate(-481.325 -786.83)" fill="#02ccc0"/>
  <path id="Path_9692" data-name="Path 9692" d="M239.341,650.842s.274,3.132,2.4,3.349c-2.128.217-2.4,3.349-2.4,3.349s-.274-3.132-2.4-3.349C239.067,653.974,239.341,650.842,239.341,650.842Z" transform="translate(-231.704 -594.99)" fill="#feb546"/>
  <path id="Path_9693" data-name="Path 9693" d="M670.367,227.1s.274,3.141,2.408,3.358c-2.134.217-2.408,3.358-2.408,3.358s-.274-3.141-2.408-3.358C670.093,230.236,670.367,227.1,670.367,227.1Z" transform="translate(-611.791 -221.316)" fill="#feb546"/>
  <path id="Path_9694" data-name="Path 9694" d="M963.7,760.6l5.39.433-1.74,4.36-2.721-.218-1.133,3.635c-.276-.126-.48-.222-.52-.249a33.338,33.338,0,0,1-.648-3.562Z" transform="translate(-871.373 -691.777)" fill="#daeef7" style="mix-blend-mode: multiply;isolation: isolate"/>
  <path id="Path_9695" data-name="Path 9695" d="M999.96,1099.924v1.9a.284.284,0,0,0,.283.284h4.436a.322.322,0,0,0,.173-.593l-2.489-1.591A2.353,2.353,0,0,1,999.96,1099.924Z" transform="translate(-904.558 -991.004)" fill="#e03268"/>
  <path id="Path_9696" data-name="Path 9696" d="M907.434,399.736a.088.088,0,0,1-.118-.1,9.882,9.882,0,0,0,.322-2.249c-.152-.07-.491,1.408-.645,1.426s.213-1.416.038-1.464-.466,1.27-.546,1.275.063-1.288-.022-1.378-.407,1.271-.5,1.305-.187-.979-.274-.981-.146-.019-.6,2.321a3.246,3.246,0,0,1-.178,1.059l.338.689,1.047.035s2.274-2.057,2.255-2.182S908.432,399.345,907.434,399.736Z" transform="translate(-820.742 -371.358)" fill="#bf8b52"/>
  <path id="Path_9697" data-name="Path 9697" d="M1010.813,406.434a.087.087,0,0,0,.15-.034,9.9,9.9,0,0,1,.738-2.149c.167.007-.2,1.477-.075,1.564s.456-1.357.633-1.321-.164,1.342-.095,1.384.531-1.175.648-1.216-.217,1.317-.147,1.391.612-.787.692-.748.138.05-.528,2.338a3.244,3.244,0,0,0-.324,1.024l-.615.459-.948-.446s-1.086-2.867-1.012-2.97S1010.1,405.631,1010.813,406.434Z" transform="translate(-913.347 -377.538)" fill="#bf8b52"/>
  <path id="Path_9698" data-name="Path 9698" d="M918.164,573.089l.016,4-3.886-.6.648-4.5Z" transform="translate(-829.017 -525.458)" fill="#d69e5b"/>
  <path id="Path_9699" data-name="Path 9699" d="M917.255,574.063l.3-2.071,3.225,1.476,0,.79A5.864,5.864,0,0,1,917.255,574.063Z" transform="translate(-831.627 -525.457)" fill="#bf8b52"/>
  <path id="Path_9700" data-name="Path 9700" d="M846.242,1098.137v2.084a.312.312,0,0,1-.312.312h-4.88a.353.353,0,0,1-.19-.651l2.738-1.745A2.6,2.6,0,0,0,846.242,1098.137Z" transform="translate(-764.117 -989.43)" fill="#e03268"/>
  <g id="Group_9656" data-name="Group 9656" transform="translate(76.54 70.183)">
    <g id="Group_9655" data-name="Group 9655" transform="translate(0)">
      <g id="Group_9654" data-name="Group 9654">
        <path id="Path_9701" data-name="Path 9701" d="M841.483,775.231c.01-.446-1.15.868-1.129.513.456-7.4,14.915-1.2,14.915-1.2l3.529,2.59,3.985,34.3a7.16,7.16,0,0,1-3.586.114l-8.824-29.391-1.085-.417A61.323,61.323,0,0,1,841.483,775.231Z" transform="translate(-840.354 -772.113)" fill="#07085b"/>
      </g>
    </g>
  </g>
  <g id="Group_9666" data-name="Group 9666" transform="translate(76.493 72.132)">
    <g id="Group_9665" data-name="Group 9665" transform="translate(0 0)">
      <g id="Group_9657" data-name="Group 9657" transform="translate(0.019 1.983)">
        <path id="Path_9702" data-name="Path 9702" d="M840.132,805.39c0,.087-.008.175-.012.266C840.124,805.565,840.128,805.477,840.132,805.39Z" transform="translate(-840.12 -805.39)" fill="#06bfad"/>
      </g>
      <g id="Group_9658" data-name="Group 9658" transform="translate(0.009 2.254)">
        <path id="Path_9703" data-name="Path 9703" d="M840.045,807.679c0,.093-.007.188-.01.285C840.038,807.867,840.041,807.772,840.045,807.679Z" transform="translate(-840.035 -807.679)" fill="#06bfad"/>
      </g>
      <g id="Group_9659" data-name="Group 9659" transform="translate(0 2.577)">
        <path id="Path_9704" data-name="Path 9704" d="M839.966,810.412c0,.1-.006.2-.008.31C839.96,810.616,839.963,810.513,839.966,810.412Z" transform="translate(-839.958 -810.412)" fill="#06bfad"/>
      </g>
      <g id="Group_9660" data-name="Group 9660" transform="translate(0.033 1.681)">
        <path id="Path_9705" data-name="Path 9705" d="M840.255,802.835c0,.08-.009.163-.014.248C840.245,803,840.25,802.915,840.255,802.835Z" transform="translate(-840.241 -802.835)" fill="#06bfad"/>
      </g>
      <g id="Group_9661" data-name="Group 9661" transform="translate(0.036)">
        <path id="Path_9706" data-name="Path 9706" d="M840.273,788.607a96.927,96.927,0,0,0,8.932,7.68l1.085.417-1.085-.417-3.355,29.694a7,7,0,0,1-3.757-.285S840.079,797.431,840.273,788.607Z" transform="translate(-840.26 -788.607)" fill="#07085b"/>
      </g>
      <g id="Group_9662" data-name="Group 9662" transform="translate(20.502 37.374)">
        <path id="Path_9707" data-name="Path 9707" d="M1015.428,1104.883a9.3,9.3,0,0,1-1.974.31,9.3,9.3,0,0,0,1.974-.31Z" transform="translate(-1013.454 -1104.883)" fill="#06bfad"/>
      </g>
      <g id="Group_9663" data-name="Group 9663" transform="translate(19.307 37.603)">
        <path id="Path_9708" data-name="Path 9708" d="M1003.345,1106.824c.1.02.194.036.293.048C1003.539,1106.86,1003.441,1106.844,1003.345,1106.824Z" transform="translate(-1003.345 -1106.824)" fill="#06bfad"/>
      </g>
      <g id="Group_9664" data-name="Group 9664" transform="translate(19.749 37.667)">
        <path id="Path_9709" data-name="Path 9709" d="M1007.838,1107.385a5.788,5.788,0,0,1-.753-.017A5.788,5.788,0,0,0,1007.838,1107.385Z" transform="translate(-1007.085 -1107.368)" fill="#06bfad"/>
      </g>
    </g>
  </g>
  <path id="Path_9710" data-name="Path 9710" d="M934.121,783.221l.569,4.895c-1.5.583-5.173,1.2-7.937-4.841a7.708,7.708,0,0,1-.935-4.264,39.228,39.228,0,0,1,4.773,1.62Z" transform="translate(-839.136 -708.014)" fill="#050645"/>
  <path id="Path_9711" data-name="Path 9711" d="M844.3,603.2c.167,0,2.671-5.676,2.671-5.676,2.143,1.5,5.05.459,5.05.459s11.7,21.411,3.854,24.75-15.248-.723-15.248-.723-1.67-4.341-1.67-4.508S844.135,603.2,844.3,603.2Z" transform="translate(-762.584 -547.971)" fill="#daeef7"/>
  <path id="Path_9712" data-name="Path 9712" d="M951.991,435.466s.507,10.159-.445,12.021c-3.158,6.177-7.081,6.8-7.081,6.8s-1.349,21.606-.237,26.782c0,0,3.7,1.141,9.154-1.419,0,0-4.174-16.751-3.951-18.865,0,0,6.678-5.955,6.9-12.967a47.347,47.347,0,0,0-1.614-13.245Z" transform="translate(-855.025 -404.279)" fill="#55769f"/>
  <path id="Path_9713" data-name="Path 9713" d="M822.86,467.627a98.625,98.625,0,0,1,2.254-15.666,79.432,79.432,0,0,1,3.172-10.8c-2.463-2.713-2.053-5.165-1.837-8.348.251-3.673,3.84-11.019,3.84-11.019l-2.421-1.586c-11.6,13.94-5.175,25.043-5.175,25.043s-4.341,15.359-4.925,20.034A35.349,35.349,0,0,0,822.86,467.627Z" transform="translate(-743.896 -391.614)" fill="#55769f"/>
  <path id="Path_9714" data-name="Path 9714" d="M979.285,637.887a2.571,2.571,0,0,1-.466-.443,4.711,4.711,0,0,1-.923-2.01,5.838,5.838,0,0,0,.993,1.951,2.373,2.373,0,0,0,.542.5l-.033.03c0,.014,0,.029,0,.044a1.269,1.269,0,0,1-.882-.207,4.007,4.007,0,0,1-.742-.532,5.341,5.341,0,0,0,.769.479A1.664,1.664,0,0,0,979.285,637.887Z" transform="translate(-884.992 -581.402)" fill="#fff"/>
  <path id="Path_9715" data-name="Path 9715" d="M859.567,613.5a2.567,2.567,0,0,0,.53-.488,5.68,5.68,0,0,0,.993-1.951,4.713,4.713,0,0,1-.923,2.01,2.574,2.574,0,0,1-.466.443,1.052,1.052,0,0,0,.327-.038,2.141,2.141,0,0,0,.419-.156,5.263,5.263,0,0,0,.769-.479,4.055,4.055,0,0,1-.742.533,2.189,2.189,0,0,1-.426.179.9.9,0,0,1-.476.024l-.089-.024Z" transform="translate(-780.681 -559.911)" fill="#fff"/>
  <path id="Path_9716" data-name="Path 9716" d="M898.115,509.777l-.235,2.745.434.273.8-3.343Z" transform="translate(-814.543 -470.308)" fill="#07085b"/>
  <path id="Path_9717" data-name="Path 9717" d="M891.17,525.82a.94.94,0,1,1-1.117-.953A1.051,1.051,0,0,1,891.17,525.82Z" transform="translate(-807.013 -483.889)" fill="#bf8b52"/>
  <path id="Path_9718" data-name="Path 9718" d="M898.083,498.25a9.067,9.067,0,0,1-.039-2.306c.015-.15.022-.3.025-.451a4.9,4.9,0,1,1,9.7,1.078,1.058,1.058,0,0,1,.949.114,1.477,1.477,0,0,1-1.669,2.349.938.938,0,0,1-.188-.179,4.593,4.593,0,0,1-5.3,3.232A4.508,4.508,0,0,1,898.083,498.25Z" transform="translate(-814.638 -453.781)" fill="#d69e5b"/>
  <path id="Path_9719" data-name="Path 9719" d="M943.5,533.938a.428.428,0,1,0,.389-.267A.428.428,0,0,0,943.5,533.938Z" transform="translate(-854.742 -491.665)" fill="#333"/>
  <path id="Path_9720" data-name="Path 9720" d="M912.706,529.329a.428.428,0,1,0,.389-.267A.428.428,0,0,0,912.706,529.329Z" transform="translate(-827.588 -487.601)" fill="#333"/>
  <path id="Path_9721" data-name="Path 9721" d="M919.282,558a2.8,2.8,0,0,1-.687.236,2.172,2.172,0,0,1-.716.027,1.848,1.848,0,0,1-.673-.235,2.583,2.583,0,0,1-.559-.462,1.975,1.975,0,0,0,.524.518,1.689,1.689,0,0,0,.7.264,1.939,1.939,0,0,0,.742-.048A2.126,2.126,0,0,0,919.282,558Z" transform="translate(-831.092 -512.735)" fill="#bf8b52"/>
  <path id="Path_9722" data-name="Path 9722" d="M940.809,526a4,4,0,0,1,.639-.068,2.109,2.109,0,0,1,.594.071,1.953,1.953,0,0,1,.546.237,6.143,6.143,0,0,1,.524.376,1.417,1.417,0,0,0-.375-.569,1.389,1.389,0,0,0-.616-.344,1.454,1.454,0,0,0-.7-.012A1.348,1.348,0,0,0,940.809,526Z" transform="translate(-852.398 -484.592)" fill="#07085b"/>
  <path id="Path_9723" data-name="Path 9723" d="M908.675,520.956a1.351,1.351,0,0,0-.477-.488,1.458,1.458,0,0,0-.671-.214,1.393,1.393,0,0,0-.693.128,1.423,1.423,0,0,0-.538.419,5.917,5.917,0,0,1,.616-.188,1.952,1.952,0,0,1,.593-.05,2.114,2.114,0,0,1,.585.124A4.025,4.025,0,0,1,908.675,520.956Z" transform="translate(-821.963 -479.83)" fill="#07085b"/>
  <path id="Path_9724" data-name="Path 9724" d="M923.356,530.779a6.143,6.143,0,0,0-.557.6,5.8,5.8,0,0,0-.479.672,1.608,1.608,0,0,0-.21.495c-.014.09-.007.177.143.324a1.976,1.976,0,0,0,.323.267,2.674,2.674,0,0,0,.358.206,4.5,4.5,0,0,1-.582-.559.79.79,0,0,1-.094-.146.317.317,0,0,1,.029-.153,2.227,2.227,0,0,1,.177-.349c.136-.231.289-.454.44-.68S923.209,531.011,923.356,530.779Z" transform="translate(-835.904 -489.114)" fill="#bf8b52"/>
  <path id="Path_9725" data-name="Path 9725" d="M894.783,473.068s-1.442-.278.334-1.148,6.131-1.378,8.407.572c0,0,.766-.982,1.454-.551s-.716.909-.716.909.961.185,1.147.719c.137.395-.451.278-.767.19.522.215,2.059,1.666.063,5.629a34.75,34.75,0,0,1-2.636-3.422s-4.59,1.508-3.753.258c0,0-5.349,1.345-4.053-1.079C894.262,475.144,892.29,474.847,894.783,473.068Z" transform="translate(-810.699 -436.529)" fill="#07085b"/>
  <path id="Path_9726" data-name="Path 9726" d="M966.812,496.786a.94.94,0,0,0-.875-.069c-.529.2-.865,1.383-.865,1.383s-1.732,1.418-.887-4.764c.83-6.074,1.979,1.011,1.979,1.011Z" transform="translate(-872.806 -453.927)" fill="#07085b"/>
  <g id="Group_9669" data-name="Group 9669" transform="translate(83.242)">
    <path id="Path_9727" data-name="Path 9727" d="M945.4,364.961l-7.92-.564a.727.727,0,0,1-.674-.777h0a.727.727,0,0,1,.777-.674l7.92.564a.728.728,0,0,1,.674.777h0A.728.728,0,0,1,945.4,364.961Z" transform="translate(-932.105 -341.111)" fill="#feb546"/>
    <path id="Path_9728" data-name="Path 9728" d="M908.08,178.189l2.768,6.785,7.158,1.566-5.6,4.729.722,7.292L906.9,194.7l-6.712,2.94,1.749-7.116-4.87-5.475,7.308-.536Z" transform="translate(-897.07 -178.189)" fill="#feb546"/>
    <g id="Group_9668" data-name="Group 9668">
      <g id="Group_9667" data-name="Group 9667">
        <path id="Path_9729" data-name="Path 9729" d="M984.946,178.189l-.709,9.955,3.477-3.171Z" transform="translate(-973.936 -178.189)" fill="#f4a640"/>
        <path id="Path_9730" data-name="Path 9730" d="M994.871,248.858l-10.635,1.6,5.038,3.124Z" transform="translate(-973.936 -240.508)" fill="#f4a640"/>
        <path id="Path_9731" data-name="Path 9731" d="M907.371,235.335l-2.992-3.632-7.308.536Z" transform="translate(-897.07 -225.38)" fill="#f4a640"/>
        <path id="Path_9732" data-name="Path 9732" d="M923.487,271.93l7.179-9.494-5.43,2.379Z" transform="translate(-920.366 -252.481)" fill="#f4a640"/>
        <path id="Path_9733" data-name="Path 9733" d="M986.512,272.852l-5.76-10.416-.467,6.554Z" transform="translate(-970.452 -252.481)" fill="#f4a640"/>
      </g>
    </g>
    <rect id="Rectangle_1736" data-name="Rectangle 1736" width="12.063" height="4.24" transform="translate(3.303 23.293) rotate(4.075)" fill="#6f747a"/>
    <rect id="Rectangle_1737" data-name="Rectangle 1737" width="0.463" height="12.063" transform="translate(3.002 27.522) rotate(-85.926)" fill="#cdd6e0" style="mix-blend-mode: multiply;isolation: isolate"/>
    <rect id="Rectangle_1738" data-name="Rectangle 1738" width="0.463" height="12.063" transform="translate(3.279 23.636) rotate(-85.926)" fill="#cdd6e0" style="mix-blend-mode: multiply;isolation: isolate"/>
    <path id="Path_9734" data-name="Path 9734" d="M933.739,369.835l-11.852-.844a.545.545,0,0,1-.5-.582h0a.545.545,0,0,1,.582-.5l11.852.844a.545.545,0,0,1,.5.582h0A.545.545,0,0,1,933.739,369.835Z" transform="translate(-918.508 -345.485)" fill="#f4a640"/>
    <path id="Path_9735" data-name="Path 9735" d="M930.228,411.915l-12.646-.9a.147.147,0,0,1-.136-.157l.057-.794a.146.146,0,0,1,.157-.136l12.646.9a.147.147,0,0,1,.136.157l-.057.794A.147.147,0,0,1,930.228,411.915Z" transform="translate(-915.038 -382.543)" fill="#6f747a"/>
    <path id="Path_9736" data-name="Path 9736" d="M951.7,388.8l-4.576-.326a1.032,1.032,0,0,1-.956-1.1h0a1.032,1.032,0,0,1,1.1-.956l4.575.326a1.032,1.032,0,0,1,.956,1.1h0A1.032,1.032,0,0,1,951.7,388.8Z" transform="translate(-940.367 -361.808)" fill="#feb546"/>
    <path id="Path_9737" data-name="Path 9737" d="M949.721,390.714a.689.689,0,0,1-.626-.82.708.708,0,0,1,.753-.551l4.517.322a.708.708,0,0,1,.668.652.689.689,0,0,1-.736.723Z" transform="translate(-942.935 -364.39)" fill="#d9d9d9" style="mix-blend-mode: multiply;isolation: isolate"/>
    <path id="Path_9738" data-name="Path 9738" d="M968.417,324.038l-2.545-.181.017-.236a12.78,12.78,0,0,1,1.687-5.72h0a12.388,12.388,0,0,1,.859,5.9Z" transform="translate(-957.742 -301.391)" fill="#feb546"/>
  </g>
</svg>
