<svg id="coins" xmlns="http://www.w3.org/2000/svg" width="18.24" height="16.353" viewBox="0 0 18.24 16.353">
  <path id="XMLID_148_" d="M11.177,43.887C6.661,43.887,3,42.955,3,42v2.2c0,.955,3.662,1.888,8.177,1.888s8.174-.933,8.177-1.888V42c0,.955-3.661,1.887-8.177,1.887" transform="translate(-2.056 -29.735)" fill="#e4af18"/>
  <path id="XMLID_147_" d="M8.177,32.887C3.661,32.887,0,31.955,0,31v2.2c0,.955,3.662,1.888,8.177,1.888s8.174-.933,8.177-1.888V31c0,.955-3.661,1.887-8.177,1.887" transform="translate(0 -22.194)" fill="#f4bf1a"/>
  <path id="XMLID_146_" d="M14.177,21.887C9.661,21.887,6,20.955,6,20v2.2c0,.955,3.662,1.888,8.177,1.888s8.174-.933,8.177-1.888V20c0,.955-3.661,1.887-8.177,1.887" transform="translate(-4.113 -14.654)" fill="#e4af18"/>
  <path id="XMLID_145_" d="M16.353,4.613c0,.955-3.661,1.846-8.177,1.846S0,5.568,0,4.613,3.661,3,8.177,3s8.177.658,8.177,1.613" transform="translate(0 -3)" fill="#ffd949"/>
  <path id="XMLID_144_" d="M8.177,9.887C3.661,9.887,0,8.955,0,8v2.2c0,.955,3.662,1.888,8.177,1.888s8.174-.933,8.177-1.888V8c0,.955-3.661,1.887-8.177,1.887" transform="translate(0 -6.428)" fill="#f4bf1a"/>
  <path id="XMLID_143_" d="M4,11.074v2.2q.287.106.629.2v-2.2q-.342-.1-.629-.2" transform="translate(-2.742 -8.535)" fill="#dca815"/>
  <path id="XMLID_142_" d="M46,11.277v2.2q.342-.1.629-.2v-2.2q-.287.106-.629.2" transform="translate(-31.534 -8.535)" fill="#dca815"/>
  <path id="XMLID_141_" d="M9,12.445v2.2q.3.063.629.119v-2.2Q9.3,12.508,9,12.445" transform="translate(-6.169 -9.475)" fill="#dca815"/>
  <path id="XMLID_140_" d="M41,12.564v2.2q.327-.057.629-.119v-2.2q-.3.063-.629.119" transform="translate(-28.106 -9.475)" fill="#dca815"/>
  <path id="XMLID_139_" d="M14,13.269v2.2c.205.026.414.051.629.073v-2.2c-.215-.022-.424-.047-.629-.073" transform="translate(-9.597 -10.04)" fill="#dca815"/>
  <path id="XMLID_138_" d="M36,13.342v2.2c.215-.022.424-.047.629-.073v-2.2c-.205.027-.414.051-.629.073" transform="translate(-24.679 -10.04)" fill="#dca815"/>
  <path id="XMLID_137_" d="M19,13.759v2.2q.31.022.629.038V13.8q-.319-.016-.629-.037" transform="translate(-13.025 -10.375)" fill="#dca815"/>
  <path id="XMLID_136_" d="M31,13.8V16q.319-.016.629-.038v-2.2q-.31.022-.629.037" transform="translate(-21.251 -10.375)" fill="#dca815"/>
  <path id="XMLID_135_" d="M25.314,14l-.314,0v2.2l.314,0,.314,0v-2.2l-.314,0" transform="translate(-17.138 -10.537)" fill="#dca815"/>
  <path id="XMLID_134_" d="M10,23.074v2.2q.287.106.629.2v-2.2q-.342-.1-.629-.2" transform="translate(-6.855 -16.761)" fill="#c49214"/>
  <path id="XMLID_133_" d="M52,23.277v2.2q.342-.1.629-.2v-2.2q-.287.106-.629.2" transform="translate(-35.647 -16.761)" fill="#c49214"/>
  <path id="XMLID_132_" d="M15,24.445v2.2q.3.063.629.119v-2.2q-.327-.056-.629-.119" transform="translate(-10.283 -17.701)" fill="#c49214"/>
  <path id="XMLID_131_" d="M47,24.564v2.2q.327-.057.629-.119v-2.2q-.3.063-.629.119" transform="translate(-32.219 -17.701)" fill="#c49214"/>
  <path id="XMLID_130_" d="M20,25.27v2.2c.205.026.414.051.629.073v-2.2c-.215-.022-.424-.047-.629-.073" transform="translate(-13.71 -18.266)" fill="#c49214"/>
  <path id="XMLID_129_" d="M42,25.343v2.2c.215-.022.424-.047.629-.073v-2.2c-.205.026-.414.051-.629.073" transform="translate(-28.792 -18.266)" fill="#c49214"/>
  <path id="XMLID_128_" d="M25,25.759v2.2q.31.022.629.038V25.8q-.319-.016-.629-.037" transform="translate(-17.138 -18.602)" fill="#c49214"/>
  <path id="XMLID_127_" d="M37,25.8V28q.319-.016.629-.038v-2.2q-.31.022-.629.037" transform="translate(-25.364 -18.602)" fill="#c49214"/>
  <path id="XMLID_126_" d="M31.314,26l-.314,0v2.2l.314,0,.314,0v-2.2l-.314,0" transform="translate(-21.251 -18.763)" fill="#c49214"/>
  <path id="XMLID_125_" d="M4,34.074v2.2q.287.106.629.2v-2.2q-.342-.1-.629-.2" transform="translate(-2.742 -24.302)" fill="#dca815"/>
  <path id="XMLID_124_" d="M46,34.277v2.2q.342-.1.629-.2v-2.2q-.287.106-.629.2" transform="translate(-31.534 -24.302)" fill="#dca815"/>
  <path id="XMLID_123_" d="M9,35.445v2.2q.3.063.629.119v-2.2Q9.3,35.508,9,35.445" transform="translate(-6.169 -25.242)" fill="#dca815"/>
  <path id="XMLID_122_" d="M41,35.564v2.2q.327-.057.629-.119v-2.2q-.3.063-.629.119" transform="translate(-28.106 -25.242)" fill="#dca815"/>
  <path id="XMLID_121_" d="M14,36.27v2.2c.205.026.414.051.629.073v-2.2c-.215-.022-.424-.047-.629-.073" transform="translate(-9.597 -25.807)" fill="#dca815"/>
  <path id="XMLID_120_" d="M36,36.343v2.2c.215-.022.424-.047.629-.073v-2.2c-.205.026-.414.051-.629.073" transform="translate(-24.679 -25.807)" fill="#dca815"/>
  <path id="XMLID_119_" d="M19,36.759v2.2q.31.022.629.038V36.8q-.319-.016-.629-.037" transform="translate(-13.025 -26.142)" fill="#dca815"/>
  <path id="XMLID_118_" d="M31,36.8V39q.319-.016.629-.038v-2.2q-.31.022-.629.037" transform="translate(-21.251 -26.142)" fill="#dca815"/>
  <path id="XMLID_117_" d="M25.314,37l-.314,0v2.2l.314,0,.314,0v-2.2l-.314,0" transform="translate(-17.138 -26.303)" fill="#dca815"/>
  <path id="XMLID_116_" d="M7,45.074v2.2q.287.106.629.2v-2.2q-.342-.1-.629-.2" transform="translate(-4.798 -31.843)" fill="#c49214"/>
  <path id="XMLID_115_" d="M49,45.277v2.2q.342-.1.629-.2v-2.2q-.287.106-.629.2" transform="translate(-33.59 -31.843)" fill="#c49214"/>
  <path id="XMLID_114_" d="M12,46.445v2.2q.3.063.629.119v-2.2q-.327-.056-.629-.119" transform="translate(-8.226 -32.782)" fill="#c49214"/>
  <path id="XMLID_113_" d="M44,46.564v2.2q.327-.057.629-.119v-2.2q-.3.063-.629.119" transform="translate(-30.163 -32.782)" fill="#c49214"/>
  <path id="XMLID_112_" d="M17,47.27v2.2c.205.026.414.051.629.073v-2.2c-.215-.022-.424-.047-.629-.073" transform="translate(-11.654 -33.348)" fill="#c49214"/>
  <path id="XMLID_111_" d="M39,47.343v2.2c.215-.022.424-.047.629-.073v-2.2c-.205.026-.414.051-.629.073" transform="translate(-26.735 -33.348)" fill="#c49214"/>
  <path id="XMLID_110_" d="M22,47.759v2.2q.31.022.629.038V47.8q-.319-.016-.629-.037" transform="translate(-15.082 -33.683)" fill="#c49214"/>
  <path id="XMLID_109_" d="M34,47.8V50q.319-.016.629-.038v-2.2q-.31.022-.629.037" transform="translate(-23.308 -33.683)" fill="#c49214"/>
  <path id="XMLID_108_" d="M28.314,48l-.314,0v2.2l.314,0,.314,0v-2.2l-.314,0" transform="translate(-19.194 -33.844)" fill="#c49214"/>
  <path id="XMLID_107_" d="M18.162,39.372c-.893.786-4.1,1.455-7.929,1.455A21.655,21.655,0,0,1,3.2,39.864a.52.52,0,0,0-.2.376c0,.955,3.661,1.846,8.177,1.846s8.177-.891,8.177-1.846c0-.329-.436-.624-1.191-.867" transform="translate(-2.056 -27.934)" fill="#fcc62d"/>
  <path id="XMLID_106_" d="M10.063,29.378c-4.155,0-7.584-.791-8.105-1.661C.738,27.993,0,28.362,0,28.79c0,.955,3.661,1.846,8.177,1.846s8.177-.891,8.177-1.846a.379.379,0,0,0-.024-.124,24.6,24.6,0,0,1-6.266.712" transform="translate(0 -19.944)" fill="#ffd949"/>
  <path id="XMLID_105_" d="M20.149,16.549c-.978.761-4.126,1.4-7.86,1.4a25.2,25.2,0,0,1-6.075-.66A.532.532,0,0,0,6,17.675c0,.955,3.661,1.846,8.177,1.846s8.177-.891,8.177-1.846c0-.457-.837-.845-2.2-1.126" transform="translate(-4.113 -12.288)" fill="#fcc62d"/>
</svg>
