<svg xmlns="http://www.w3.org/2000/svg" width="95.124" height="80.508" viewBox="0 0 95.124 80.508"><defs><style>.a{fill:#6f7070;}.b{fill:#464646;}.c{fill:#787878;}.d{fill:#3e3e3e;}.e{opacity:0.07;}.f{fill:#010101;}.g{fill:#4b9fd8;}.h{fill:#3a9bd6;}.i{fill:#fee218;}.j{fill:#cd494c;}.k{fill:#fff;}.l{fill:#8bd5ec;}.m{fill:#daeff6;}</style></defs><g transform="translate(0 -39.336)"><path class="a" d="M143.519,45.281v45.3a5.925,5.925,0,0,1-5.945,5.945H65.4a5.925,5.925,0,0,1-5.945-5.945v-45.3A5.943,5.943,0,0,1,65.4,39.336h72.173A5.943,5.943,0,0,1,143.519,45.281Z" transform="translate(-48.41 0)"/><rect class="b" width="84.093" height="9.655" transform="translate(11.031 50.15)"/><g transform="translate(51.036 41.771)"><path class="c" d="M296.861,52.44H277.677a2.973,2.973,0,0,0,0,5.945h19.185a2.973,2.973,0,0,0,0-5.945Z" transform="translate(-274.704 -52.44)"/><path class="c" d="M432.763,52.44h-5.2a2.973,2.973,0,0,0,0,5.945h5.2a2.973,2.973,0,1,0,0-5.945Z" transform="translate(-396.745 -52.44)"/></g><g transform="translate(15.936 52.005)"><path class="d" d="M103.243,107.528H88.749a2.973,2.973,0,1,0,0,5.945h14.494a2.973,2.973,0,1,0,0-5.945Z" transform="translate(-85.776 -107.528)"/><path class="d" d="M218.617,107.528h-5.2a2.973,2.973,0,1,0,0,5.945h5.2a2.973,2.973,0,1,0,0-5.945Z" transform="translate(-187.286 -107.528)"/></g><g class="e" transform="translate(81.971 67.991)"><path class="f" d="M454.355,204.664v11.5a5.925,5.925,0,0,1-5.945,5.945h-7.194l2.051-28.536Z" transform="translate(-441.216 -193.576)"/></g><path class="g" d="M78.142,221.993H5.945A5.943,5.943,0,0,1,0,216.048v-45.31a5.945,5.945,0,0,1,5.945-5.945h72.2a5.945,5.945,0,0,1,5.945,5.945v45.307A5.946,5.946,0,0,1,78.142,221.993Z" transform="translate(0 -102.148)"/><g transform="translate(0 62.644)"><path class="h" d="M38.405,164.792c-18.549,14.06-31.6,32.074-38.346,51.841A5.791,5.791,0,0,1,0,215.89v-45.3a5.933,5.933,0,0,1,4.607-5.8Z" transform="translate(0 -164.792)"/><path class="h" d="M245.9,245.481c18.549-14.06,31.6-32.074,38.346-51.841a5.791,5.791,0,0,1,.059.743v45.3a5.933,5.933,0,0,1-4.607,5.8Z" transform="translate(-200.219 -188.281)"/></g><circle class="i" cx="7.241" cy="7.241" r="7.241" transform="translate(50.292 71.561)"/><circle class="j" cx="7.241" cy="7.241" r="7.241" transform="translate(60.69 71.561)"/><g transform="translate(7.845 75.83)"><path class="k" d="M59.26,323.825H45.2a2.973,2.973,0,0,1,0-5.945H59.26a2.973,2.973,0,0,1,0,5.945Z" transform="translate(-42.224 -302.625)"/><path class="k" d="M71.822,241.713H45.2a2.973,2.973,0,1,1,0-5.945H71.822a2.973,2.973,0,1,1,0,5.945Z" transform="translate(-42.224 -235.768)"/></g><path class="l" d="M53.89,405.937h-8.71a2.973,2.973,0,1,1,0-5.945h8.71a2.973,2.973,0,1,1,0,5.945Z" transform="translate(-34.366 -293.652)"/><path class="m" d="M150.338,405.937h-8.71a2.973,2.973,0,0,1,0-5.945h8.71a2.973,2.973,0,1,1,0,5.945Z" transform="translate(-112.896 -293.652)"/><path class="l" d="M246.77,405.937h-8.71a2.973,2.973,0,1,1,0-5.945h8.71a2.973,2.973,0,0,1,0,5.945Z" transform="translate(-191.412 -293.652)"/><path class="m" d="M343.2,405.937h-8.71a2.973,2.973,0,1,1,0-5.945h8.71a2.973,2.973,0,0,1,0,5.945Z" transform="translate(-269.929 -293.652)"/></g></svg>