<svg id="Group_7317" data-name="Group 7317" xmlns="http://www.w3.org/2000/svg" width="129.474" height="128.036" viewBox="0 0 129.474 128.036">
  <ellipse id="Ellipse_8" data-name="Ellipse 8" cx="3.139" cy="3.139" rx="3.139" ry="3.139" transform="translate(0.37 0)" fill="#0097f5"/>
  <path id="Path_1302" data-name="Path 1302" d="M177.032,225.107a3.139,3.139,0,1,1-3.139-3.139A3.139,3.139,0,0,1,177.032,225.107Z" transform="translate(-129.442 -221.968)" fill="#0097f5"/>
  <ellipse id="Ellipse_9" data-name="Ellipse 9" cx="3.139" cy="3.139" rx="3.139" ry="3.139" transform="translate(82.254 0)" fill="#0097f5"/>
  <ellipse id="Ellipse_20" data-name="Ellipse 20" cx="3.139" cy="3.139" rx="3.139" ry="3.139" transform="translate(0 0)" fill="#0097f5"/>
  <ellipse id="Ellipse_10" data-name="Ellipse 10" cx="3.139" cy="3.139" rx="3.139" ry="3.139" transform="translate(123.197 0)" fill="#0097f5"/>
  <ellipse id="Ellipse_21" data-name="Ellipse 21" cx="3.139" cy="3.139" rx="3.139" ry="3.139" transform="translate(40.942 0)" fill="#0097f5"/>
  <ellipse id="Ellipse_11" data-name="Ellipse 11" cx="3.139" cy="3.139" rx="3.139" ry="3.139" transform="translate(0.37 40.586)" fill="#0097f5"/>
  <path id="Path_1303" data-name="Path 1303" d="M177.032,261.62a3.139,3.139,0,1,1-3.139-3.139A3.139,3.139,0,0,1,177.032,261.62Z" transform="translate(-129.442 -217.895)" fill="#0097f5"/>
  <ellipse id="Ellipse_12" data-name="Ellipse 12" cx="3.139" cy="3.139" rx="3.139" ry="3.139" transform="translate(82.254 40.586)" fill="#0097f5"/>
  <ellipse id="Ellipse_13" data-name="Ellipse 13" cx="3.139" cy="3.139" rx="3.139" ry="3.139" transform="translate(123.197 40.586)" fill="#0097f5"/>
  <ellipse id="Ellipse_14" data-name="Ellipse 14" cx="3.139" cy="3.139" rx="3.139" ry="3.139" transform="translate(0.37 81.172)" fill="#0097f5"/>
  <path id="Path_1304" data-name="Path 1304" d="M177.032,298.133a3.139,3.139,0,1,1-3.139-3.139A3.139,3.139,0,0,1,177.032,298.133Z" transform="translate(-129.442 -213.822)" fill="#0097f5"/>
  <ellipse id="Ellipse_15" data-name="Ellipse 15" cx="3.139" cy="3.139" rx="3.139" ry="3.139" transform="translate(82.254 81.172)" fill="#0097f5"/>
  <ellipse id="Ellipse_16" data-name="Ellipse 16" cx="3.139" cy="3.139" rx="3.139" ry="3.139" transform="translate(123.197 81.172)" fill="#0097f5"/>
  <ellipse id="Ellipse_17" data-name="Ellipse 17" cx="3.139" cy="3.139" rx="3.139" ry="3.139" transform="translate(0.37 121.758)" fill="#0097f5"/>
  <path id="Path_1305" data-name="Path 1305" d="M177.032,334.646a3.139,3.139,0,1,1-3.139-3.139A3.139,3.139,0,0,1,177.032,334.646Z" transform="translate(-129.442 -209.75)" fill="#0097f5"/>
  <ellipse id="Ellipse_18" data-name="Ellipse 18" cx="3.139" cy="3.139" rx="3.139" ry="3.139" transform="translate(82.254 121.758)" fill="#0097f5"/>
  <ellipse id="Ellipse_19" data-name="Ellipse 19" cx="3.139" cy="3.139" rx="3.139" ry="3.139" transform="translate(123.197 121.758)" fill="#0097f5"/>
</svg>
