<svg xmlns="http://www.w3.org/2000/svg" width="23.419" height="23.419" viewBox="0 0 23.419 23.419"><defs><style>.a{fill:#1976d2;}.b{fill:#fafafa;}</style></defs><path class="a" d="M20.492,0H2.927A2.93,2.93,0,0,0,0,2.927V20.492a2.93,2.93,0,0,0,2.927,2.927H20.492a2.93,2.93,0,0,0,2.927-2.927V2.927A2.93,2.93,0,0,0,20.492,0Z"/><path class="b" d="M202.978,103.319h-3.659v-2.927c0-.808.656-.732,1.464-.732h1.464V96h-2.927a4.391,4.391,0,0,0-4.391,4.391v2.927H192v3.659h2.927v8.05h4.391v-8.05h2.2Z" transform="translate(-183.218 -91.609)"/></svg>