<svg id="Component_27_1" data-name="Component 27 – 1" xmlns="http://www.w3.org/2000/svg" width="169" height="59" viewBox="0 0 169 59">
  <rect id="Rectangle_1590" data-name="Rectangle 1590" width="169" height="59" fill="#1976d2"/>
  <g id="Group_7789" data-name="Group 7789" transform="translate(24.702 15.496)">
    <path id="Path_8187" data-name="Path 8187" d="M1.143-10.781H8.8v1.9H3.384V-6.4H8.123v1.875H3.384V0H1.143Zm13.4,6.9a2.268,2.268,0,0,1-.4.2,3.338,3.338,0,0,1-.553.143l-.469.088a3.027,3.027,0,0,0-.945.286.957.957,0,0,0-.483.886.933.933,0,0,0,.3.773,1.116,1.116,0,0,0,.721.238,2.126,2.126,0,0,0,1.241-.4,1.687,1.687,0,0,0,.59-1.443Zm-1.267-.974a3.258,3.258,0,0,0,.828-.183.628.628,0,0,0,.447-.593.7.7,0,0,0-.341-.677,2.128,2.128,0,0,0-1-.187,1.3,1.3,0,0,0-1.047.366,1.522,1.522,0,0,0-.293.732H9.851a3.063,3.063,0,0,1,.586-1.721,3.408,3.408,0,0,1,2.842-1.055,5.049,5.049,0,0,1,2.329.52,2,2,0,0,1,1.018,1.963v3.662q0,.381.015.923a1.16,1.16,0,0,0,.125.557.748.748,0,0,0,.308.242V0H14.8a2.325,2.325,0,0,1-.132-.454q-.037-.212-.059-.483a4.289,4.289,0,0,1-1,.8,3,3,0,0,1-1.523.388A2.619,2.619,0,0,1,10.3-.37a2.207,2.207,0,0,1-.707-1.754A2.277,2.277,0,0,1,10.73-4.255a5.041,5.041,0,0,1,1.831-.513Zm9.976-.264a1.853,1.853,0,0,0-.3-.806,1.259,1.259,0,0,0-1.091-.483,1.437,1.437,0,0,0-1.443,1.047,4.379,4.379,0,0,0-.205,1.479,4.026,4.026,0,0,0,.205,1.414,1.393,1.393,0,0,0,1.406,1,1.24,1.24,0,0,0,1.04-.4,1.969,1.969,0,0,0,.374-1.025h2.131a3.492,3.492,0,0,1-.688,1.8A3.347,3.347,0,0,1,21.768.278,3.4,3.4,0,0,1,18.933-.864a4.623,4.623,0,0,1-.908-2.966,4.691,4.691,0,0,1,1-3.2A3.493,3.493,0,0,1,21.8-8.174a4.169,4.169,0,0,1,2.457.674,3.134,3.134,0,0,1,1.132,2.38Zm6.724-1.355a1.418,1.418,0,0,0-1.124.454,2.267,2.267,0,0,0-.5,1.23h3.245a1.817,1.817,0,0,0-.5-1.256A1.558,1.558,0,0,0,29.971-6.475Zm0-1.721a4.184,4.184,0,0,1,1.794.374,3.143,3.143,0,0,1,1.318,1.179A4.023,4.023,0,0,1,33.691-5a10.643,10.643,0,0,1,.066,1.582H28.293a1.984,1.984,0,0,0,.754,1.685,1.777,1.777,0,0,0,1.04.3,1.5,1.5,0,0,0,1.047-.366,1.739,1.739,0,0,0,.388-.549h2.131A2.648,2.648,0,0,1,32.915-.9,3.624,3.624,0,0,1,30.044.264a4.049,4.049,0,0,1-2.688-.981,3.958,3.958,0,0,1-1.165-3.193A4.438,4.438,0,0,1,27.242-7.09,3.594,3.594,0,0,1,29.971-8.2Zm9.507.037a2.957,2.957,0,0,1,2.465,1.135,4.609,4.609,0,0,1,.89,2.93,5.151,5.151,0,0,1-.879,3.083A2.85,2.85,0,0,1,39.5.212a2.848,2.848,0,0,1-1.589-.4A3.174,3.174,0,0,1,37.134-1V0H35.09V-10.781h2.08v3.838a3.046,3.046,0,0,1,.872-.85A2.589,2.589,0,0,1,39.478-8.159Zm-.535,6.65A1.433,1.433,0,0,0,40.2-2.161a2.976,2.976,0,0,0,.447-1.714,3.864,3.864,0,0,0-.22-1.406,1.53,1.53,0,0,0-1.538-1.055A1.553,1.553,0,0,0,37.324-5.3a3.876,3.876,0,0,0-.22,1.421,2.976,2.976,0,0,0,.454,1.7A1.555,1.555,0,0,0,38.943-1.509Zm8.965.037a1.654,1.654,0,0,0,1.406-.652A3.033,3.033,0,0,0,49.8-3.977a3.016,3.016,0,0,0-.491-1.849,1.658,1.658,0,0,0-1.406-.648,1.668,1.668,0,0,0-1.41.648A3,3,0,0,0,46-3.977,3.016,3.016,0,0,0,46.5-2.124,1.664,1.664,0,0,0,47.908-1.472Zm4.087-2.5A4.628,4.628,0,0,1,50.984-.97,3.714,3.714,0,0,1,47.915.278,3.714,3.714,0,0,1,44.846-.97a4.628,4.628,0,0,1-1.011-3.007,4.659,4.659,0,0,1,1.011-3A3.688,3.688,0,0,1,47.915-8.24a3.688,3.688,0,0,1,3.069,1.267A4.659,4.659,0,0,1,51.995-3.977Zm5.076,2.5a1.654,1.654,0,0,0,1.406-.652,3.033,3.033,0,0,0,.491-1.853,3.016,3.016,0,0,0-.491-1.849,1.658,1.658,0,0,0-1.406-.648,1.668,1.668,0,0,0-1.41.648,3,3,0,0,0-.494,1.849,3.016,3.016,0,0,0,.494,1.853A1.664,1.664,0,0,0,57.07-1.472Zm4.087-2.5A4.628,4.628,0,0,1,60.146-.97,3.714,3.714,0,0,1,57.078.278,3.714,3.714,0,0,1,54.009-.97,4.628,4.628,0,0,1,53-3.977a4.659,4.659,0,0,1,1.011-3A3.688,3.688,0,0,1,57.078-8.24a3.688,3.688,0,0,1,3.069,1.267A4.659,4.659,0,0,1,61.157-3.977Zm1.472-6.782H64.68v5.815l2.6-3h2.585L67.075-4.893,69.976,0h-2.52L65.544-3.413l-.864.9V0H62.629Z" transform="translate(37.298 18.504)" fill="#fff"/>
    <g id="facebook_1_" data-name="facebook (1)">
      <path id="Path_7438" data-name="Path 7438" d="M22.594,0H3.228A3.231,3.231,0,0,0,0,3.228V22.594a3.231,3.231,0,0,0,3.228,3.228H22.594a3.231,3.231,0,0,0,3.228-3.228V3.228A3.231,3.231,0,0,0,22.594,0Z" fill="#1976d2"/>
      <path id="Path_7439" data-name="Path 7439" d="M204.1,104.069h-4.035v-3.228c0-.891.723-.807,1.614-.807H203.3V96h-3.228a4.841,4.841,0,0,0-4.842,4.842v3.228H192V108.1h3.228v8.876h4.842V108.1h2.421Z" transform="translate(-182.317 -91.158)" fill="#fafafa"/>
    </g>
  </g>
</svg>
