<svg id="Component_29_1" data-name="Component 29 – 1" xmlns="http://www.w3.org/2000/svg" width="169" height="59" viewBox="0 0 169 59">
  <g id="Rectangle_1592" data-name="Rectangle 1592" fill="none" stroke="#a2a2a2" stroke-width="0.3">
    <rect width="169" height="59" stroke="none"/>
    <rect x="0.15" y="0.15" width="168.7" height="58.7" fill="none"/>
  </g>
  <g id="Group_7791" data-name="Group 7791" transform="translate(39.58 16.144)">
    <path id="Path_8188" data-name="Path 8188" d="M8.4-7.427A2.114,2.114,0,0,0,7.148-8.972a3.076,3.076,0,0,0-1.238-.242,2.688,2.688,0,0,0-2.142.985A4.478,4.478,0,0,0,2.93-5.266a3.68,3.68,0,0,0,.908,2.82A2.982,2.982,0,0,0,5.9-1.619a2.668,2.668,0,0,0,1.86-.656,2.834,2.834,0,0,0,.894-1.718H6.16v-1.8h4.5V0H9.163L8.936-1.348A5.173,5.173,0,0,1,7.764-.264a4.122,4.122,0,0,1-2.2.549A4.565,4.565,0,0,1,2.051-1.2,5.67,5.67,0,0,1,.623-5.288a6,6,0,0,1,1.443-4.2,4.917,4.917,0,0,1,3.816-1.582,4.988,4.988,0,0,1,3.307,1.044,3.881,3.881,0,0,1,1.432,2.6Zm7.822,5.955a1.654,1.654,0,0,0,1.406-.652,3.033,3.033,0,0,0,.491-1.853,3.016,3.016,0,0,0-.491-1.849,1.658,1.658,0,0,0-1.406-.648,1.668,1.668,0,0,0-1.41.648,3,3,0,0,0-.494,1.849,3.016,3.016,0,0,0,.494,1.853A1.664,1.664,0,0,0,16.223-1.472Zm4.087-2.5A4.628,4.628,0,0,1,19.3-.97,3.714,3.714,0,0,1,16.23.278,3.714,3.714,0,0,1,13.162-.97a4.628,4.628,0,0,1-1.011-3.007,4.659,4.659,0,0,1,1.011-3A3.688,3.688,0,0,1,16.23-8.24,3.688,3.688,0,0,1,19.3-6.973,4.659,4.659,0,0,1,20.31-3.977Zm5.076,2.5a1.654,1.654,0,0,0,1.406-.652,3.033,3.033,0,0,0,.491-1.853,3.016,3.016,0,0,0-.491-1.849,1.658,1.658,0,0,0-1.406-.648,1.668,1.668,0,0,0-1.41.648,3,3,0,0,0-.494,1.849,3.016,3.016,0,0,0,.494,1.853A1.664,1.664,0,0,0,25.386-1.472Zm4.087-2.5A4.628,4.628,0,0,1,28.462-.97,3.714,3.714,0,0,1,25.393.278,3.714,3.714,0,0,1,22.324-.97a4.628,4.628,0,0,1-1.011-3.007,4.659,4.659,0,0,1,1.011-3A3.688,3.688,0,0,1,25.393-8.24a3.688,3.688,0,0,1,3.069,1.267A4.659,4.659,0,0,1,29.473-3.977Zm4.922,2.263a1.613,1.613,0,0,0,1.238-.553,2.56,2.56,0,0,0,.505-1.761,2.7,2.7,0,0,0-.48-1.729,1.568,1.568,0,0,0-1.285-.593,1.515,1.515,0,0,0-1.516,1.033,3.662,3.662,0,0,0-.22,1.355,3.092,3.092,0,0,0,.234,1.238A1.528,1.528,0,0,0,34.395-1.714Zm-.52-6.46a2.75,2.75,0,0,1,1.047.183,2.508,2.508,0,0,1,1.23,1.157v-1.15h2.029V-.41a4.241,4.241,0,0,1-.52,2.329q-.894,1.348-3.428,1.348a4.671,4.671,0,0,1-2.5-.6A2.216,2.216,0,0,1,30.667.872h2.271a.94.94,0,0,0,.286.527,1.764,1.764,0,0,0,1.135.286A1.525,1.525,0,0,0,35.867.93,3.821,3.821,0,0,0,36.116-.7v-.513a2.545,2.545,0,0,1-.645.769,2.592,2.592,0,0,1-1.619.476A3.063,3.063,0,0,1,31.4-1.044a4.368,4.368,0,0,1-.919-2.926,4.932,4.932,0,0,1,.886-2.992A2.928,2.928,0,0,1,33.875-8.174ZM42.261,0H40.173V-10.8h2.087Zm5.186-6.475a1.418,1.418,0,0,0-1.124.454,2.267,2.267,0,0,0-.5,1.23h3.245a1.817,1.817,0,0,0-.5-1.256A1.558,1.558,0,0,0,47.446-6.475Zm0-1.721a4.184,4.184,0,0,1,1.794.374,3.143,3.143,0,0,1,1.318,1.179A4.023,4.023,0,0,1,51.167-5a10.643,10.643,0,0,1,.066,1.582H45.769a1.984,1.984,0,0,0,.754,1.685,1.777,1.777,0,0,0,1.04.3,1.5,1.5,0,0,0,1.047-.366A1.739,1.739,0,0,0,49-2.344H51.13A2.648,2.648,0,0,1,50.391-.9,3.624,3.624,0,0,1,47.52.264a4.049,4.049,0,0,1-2.688-.981,3.958,3.958,0,0,1-1.165-3.193A4.438,4.438,0,0,1,44.718-7.09,3.594,3.594,0,0,1,47.446-8.2Z" transform="translate(38.42 17.856)"/>
    <g id="google" transform="translate(0 1)">
      <path id="Path_7440" data-name="Path 7440" d="M5.79,107.731a6.521,6.521,0,0,1,.923-3.352v-4.164H2.549a12.358,12.358,0,0,0,0,15.033H6.713v-4.164A6.521,6.521,0,0,1,5.79,107.731Z" transform="translate(0 -95.38)" fill="#fbbd00"/>
      <path id="Path_7441" data-name="Path 7441" d="M198.895,373.88,196,376.774l2.895,2.895a12.258,12.258,0,0,0,7.516-2.549v-4.16h-4.16A6.561,6.561,0,0,1,198.895,373.88Z" transform="translate(-186.543 -354.966)" fill="#0f9d58"/>
      <path id="Path_7442" data-name="Path 7442" d="M56.987,325.477l-4.164,4.164a12.548,12.548,0,0,0,1.069,1.218,12.271,12.271,0,0,0,8.734,3.618v-5.79A6.564,6.564,0,0,1,56.987,325.477Z" transform="translate(-50.274 -309.773)" fill="#31aa52"/>
      <path id="Path_7443" data-name="Path 7443" d="M268.352,200.155a12.458,12.458,0,0,0-.2-2.238l-.109-.593H256v5.79h5.86a6.532,6.532,0,0,1-2.5,2.684l4.16,4.16a12.539,12.539,0,0,0,1.218-1.069A12.271,12.271,0,0,0,268.352,200.155Z" transform="translate(-243.649 -187.804)" fill="#3c79e6"/>
      <path id="Path_7444" data-name="Path 7444" d="M203.535,7.712l.512.512,4.094-4.094-.512-.512A12.271,12.271,0,0,0,198.895,0L196,2.895l2.895,2.895A6.519,6.519,0,0,1,203.535,7.712Z" transform="translate(-186.543 0)" fill="#cf2d48"/>
      <path id="Path_7445" data-name="Path 7445" d="M62.625,5.79V0a12.271,12.271,0,0,0-8.734,3.618,12.538,12.538,0,0,0-1.069,1.218L56.986,9A6.565,6.565,0,0,1,62.625,5.79Z" transform="translate(-50.273 0)" fill="#eb4132"/>
    </g>
  </g>
</svg>
