<svg xmlns="http://www.w3.org/2000/svg" width="24.703" height="24.703" viewBox="0 0 24.703 24.703"><defs><style>.a{fill:#fbbd00;}.b{fill:#0f9d58;}.c{fill:#31aa52;}.d{fill:#3c79e6;}.e{fill:#cf2d48;}.f{fill:#eb4132;}</style></defs><path class="a" d="M5.79,107.731a6.521,6.521,0,0,1,.923-3.352v-4.164H2.549a12.358,12.358,0,0,0,0,15.033H6.713v-4.164A6.521,6.521,0,0,1,5.79,107.731Z" transform="translate(0 -95.38)"/><path class="b" d="M198.895,373.88,196,376.774l2.895,2.895a12.258,12.258,0,0,0,7.516-2.549v-4.16h-4.16A6.561,6.561,0,0,1,198.895,373.88Z" transform="translate(-186.543 -354.966)"/><path class="c" d="M56.987,325.477l-4.164,4.164a12.548,12.548,0,0,0,1.069,1.218,12.271,12.271,0,0,0,8.734,3.618v-5.79A6.564,6.564,0,0,1,56.987,325.477Z" transform="translate(-50.274 -309.773)"/><path class="d" d="M268.352,200.155a12.458,12.458,0,0,0-.2-2.238l-.109-.593H256v5.79h5.86a6.532,6.532,0,0,1-2.5,2.684l4.16,4.16a12.539,12.539,0,0,0,1.218-1.069A12.271,12.271,0,0,0,268.352,200.155Z" transform="translate(-243.649 -187.804)"/><path class="e" d="M203.535,7.712l.512.512,4.094-4.094-.512-.512A12.271,12.271,0,0,0,198.895,0L196,2.895l2.895,2.895A6.519,6.519,0,0,1,203.535,7.712Z" transform="translate(-186.543 0)"/><path class="f" d="M62.625,5.79V0a12.271,12.271,0,0,0-8.734,3.618,12.538,12.538,0,0,0-1.069,1.218L56.986,9A6.565,6.565,0,0,1,62.625,5.79Z" transform="translate(-50.273 0)"/></svg>