<svg id="trophy" xmlns="http://www.w3.org/2000/svg" width="62.212" height="79.59" viewBox="0 0 62.212 79.59">
  <g id="Group_9615" data-name="Group 9615" transform="translate(28.774 55.191)">
    <path id="Path_9414" data-name="Path 9414" d="M241,357.377v9.308a2.332,2.332,0,0,0,2.332,2.332l.888-6.986-.888-6.986A2.332,2.332,0,0,0,241,357.377Z" transform="translate(-241 -355.045)" fill="#cdbfbb"/>
    <path id="Path_9415" data-name="Path 9415" d="M256,355.045v13.971a2.332,2.332,0,0,0,2.332-2.332v-9.308A2.332,2.332,0,0,0,256,355.045Z" transform="translate(-253.668 -355.045)" fill="#9e9797"/>
  </g>
  <g id="Group_9616" data-name="Group 9616">
    <path id="Path_9416" data-name="Path 9416" d="M56.267,16.766a2.332,2.332,0,0,0,.311,2.912l9.3,9.3H91.209L87,0A36.428,36.428,0,0,0,56.267,16.766Z" transform="translate(-55.895)" fill="#ffd74a"/>
    <path id="Path_9417" data-name="Path 9417" d="M286.734,16.766A36.433,36.433,0,0,0,256,0V28.98h21.121l9.3-9.3A2.332,2.332,0,0,0,286.734,16.766Z" transform="translate(-224.894)" fill="#fdbf00"/>
  </g>
  <g id="Group_9617" data-name="Group 9617" transform="translate(7.795 13.233)">
    <path id="Path_9418" data-name="Path 9418" d="M129.349,85.126a23.311,23.311,0,1,0,0,46.622h0l3.094-22.771-3.094-23.851Z" transform="translate(-106.038 -85.126)" fill="#e50148"/>
  </g>
  <path id="Path_9419" data-name="Path 9419" d="M279.311,108.438A23.337,23.337,0,0,0,256,85.127v46.622A23.338,23.338,0,0,0,279.311,108.438Z" transform="translate(-224.895 -71.894)" fill="#bf065b"/>
  <g id="Group_9618" data-name="Group 9618" transform="translate(20.04 26.858)">
    <path id="Path_9420" data-name="Path 9420" d="M191.346,172.778a6.535,6.535,0,0,0-4.627,11.15l7.479,7.533a2.332,2.332,0,0,0,1.651.689h.031L198.973,183l-3.094-8.4A6.489,6.489,0,0,0,191.346,172.778Z" transform="translate(-184.813 -172.778)" fill="#ff4949"/>
    <path id="Path_9421" data-name="Path 9421" d="M265.155,174.692a6.535,6.535,0,0,0-9.155-.086v17.542a2.331,2.331,0,0,0,1.622-.682l7.533-7.533a6.542,6.542,0,0,0,0-9.242Z" transform="translate(-244.934 -172.778)" fill="#e50148"/>
  </g>
  <g id="Group_9619" data-name="Group 9619" transform="translate(4.278 64.5)">
    <path id="Path_9422" data-name="Path 9422" d="M85.749,414.924a2.332,2.332,0,0,0-2.332,2.332v10.427a2.332,2.332,0,0,0,2.332,2.332h24.5l3.094-7.545-3.094-7.545Z" transform="translate(-83.417 -414.924)" fill="#f0e2de"/>
  </g>
  <path id="Path_9423" data-name="Path 9423" d="M280.5,414.924H256v15.09h24.5a2.332,2.332,0,0,0,2.332-2.332V417.256A2.332,2.332,0,0,0,280.5,414.924Z" transform="translate(-224.895 -350.425)" fill="#cdbfbb"/>
</svg>
