<svg id="_008-badge-3" data-name="008-badge-3" xmlns="http://www.w3.org/2000/svg" width="65.943" height="88.047" viewBox="0 0 65.943 88.047">
  <path id="Path_8377" data-name="Path 8377" d="M116.067,324.852H82.912a2.58,2.58,0,0,0-2.579,2.579v27.024a2.579,2.579,0,0,0,4.01,2.146l15.147-10.1,15.146,10.1a2.579,2.579,0,0,0,4.01-2.146V327.431A2.579,2.579,0,0,0,116.067,324.852Zm0,0" transform="translate(-66.518 -268.988)" fill="#fff36c"/>
  <path id="Path_8378" data-name="Path 8378" d="M207.716,324.852h-16.7v21.734l.124-.082,15.146,10.1a2.579,2.579,0,0,0,4.01-2.146V327.431A2.579,2.579,0,0,0,207.716,324.852Zm0,0" transform="translate(-158.168 -268.988)" fill="#ffcd00"/>
  <path id="Path_8379" data-name="Path 8379" d="M32.972,65.943A32.972,32.972,0,1,1,65.943,32.972,33.009,33.009,0,0,1,32.972,65.943Zm0,0" fill="#ff415b"/>
  <path id="Path_8380" data-name="Path 8380" d="M191.139,0h-.124v65.94l.124,0a32.972,32.972,0,0,0,0-65.943Zm0,0" transform="translate(-158.168)" fill="#c9001c"/>
  <path id="Path_8381" data-name="Path 8381" d="M95.819,107.942a2.579,2.579,0,0,1-1.672-2.415v-14H82.912a2.58,2.58,0,0,1-1.941-4.278l19.341-22.1a2.58,2.58,0,0,1,4.521,1.7v14h11.235a2.58,2.58,0,0,1,1.941,4.278l-19.34,22.1A2.585,2.585,0,0,1,95.819,107.942Zm0,0" transform="translate(-66.518 -53.215)" fill="#fff36c"/>
  <path id="Path_8382" data-name="Path 8382" d="M207.716,80.845H196.482v-14a2.58,2.58,0,0,0-4.521-1.7l-.945,1.079v40.2l18.642-21.306a2.579,2.579,0,0,0-1.941-4.278Zm0,0" transform="translate(-158.168 -53.215)" fill="#ffcd00"/>
</svg>
