<svg id="Component_4_1" data-name="Component 4 – 1" xmlns="http://www.w3.org/2000/svg" xmlns:xlink="http://www.w3.org/1999/xlink" width="734" height="1086" viewBox="0 0 734 1086">
  <defs>
    <clipPath id="clip-path">
      <rect id="Rectangle_3" data-name="Rectangle 3" width="734" height="1086" transform="translate(0 -6)" fill="#001b57"/>
    </clipPath>
    <linearGradient id="linear-gradient" x1="0.5" y1="1" x2="0.5" gradientUnits="objectBoundingBox">
      <stop offset="0.006" stop-color="#bae1f6"/>
      <stop offset="0.104" stop-color="#b3dbf5"/>
      <stop offset="0.243" stop-color="#a0cef3"/>
      <stop offset="0.407" stop-color="#82b7f0"/>
      <stop offset="0.549" stop-color="#629fee"/>
      <stop offset="0.731" stop-color="#4c7cec"/>
      <stop offset="0.989" stop-color="#2a45e9"/>
    </linearGradient>
    <linearGradient id="linear-gradient-2" x1="0.5" y1="1" x2="0.5" gradientUnits="objectBoundingBox">
      <stop offset="0" stop-color="#cdd9ff"/>
      <stop offset="1" stop-color="#f6f9ff"/>
    </linearGradient>
    <linearGradient id="linear-gradient-5" x1="0.5" y1="1" x2="0.5" gradientUnits="objectBoundingBox">
      <stop offset="0" stop-color="#cddaf1"/>
      <stop offset="1" stop-color="#fff"/>
    </linearGradient>
    <linearGradient id="linear-gradient-6" x1="0.533" y1="0.845" x2="0.533" y2="-0.872" gradientUnits="objectBoundingBox">
      <stop offset="0" stop-color="#a7aeff"/>
      <stop offset="1" stop-color="#a9b3ff"/>
    </linearGradient>
    <linearGradient id="linear-gradient-7" x1="0.5" y1="1" x2="0.5" gradientUnits="objectBoundingBox">
      <stop offset="0" stop-color="#c2d1ff"/>
      <stop offset="1" stop-color="#e0eaff"/>
    </linearGradient>
    <linearGradient id="linear-gradient-8" x1="0.317" y1="1.808" x2="0.317" y2="0.701" xlink:href="#linear-gradient-6"/>
    <radialGradient id="radial-gradient" cx="0.5" cy="0.5" r="0.769" gradientTransform="translate(0.172 0.148) scale(0.65 0.65)" gradientUnits="objectBoundingBox">
      <stop offset="0" stop-color="#fff"/>
      <stop offset="0.04" stop-color="#f1f1f1"/>
      <stop offset="0.316" stop-color="#9d9d9d"/>
      <stop offset="0.558" stop-color="#595959"/>
      <stop offset="0.76" stop-color="#292929"/>
      <stop offset="0.913" stop-color="#0b0b0b"/>
      <stop offset="1"/>
    </radialGradient>
  </defs>
  <g id="Mask_Group_34" data-name="Mask Group 34" transform="translate(0 6)" clip-path="url(#clip-path)">
    <g id="Group_7335" data-name="Group 7335" transform="translate(-6347.03 -1183)">
      <g id="Group_7334" data-name="Group 7334" transform="translate(5674.426 1183)">
        <path id="Path_6091" data-name="Path 6091" d="M0,0H2970.443V1160.055L0,1080.5Z" transform="translate(200.505)" fill="url(#linear-gradient)"/>
        <path id="Path_6092" data-name="Path 6092" d="M140.942,0s627.417,148.162,1109.49,230.209,1063.415,170.8,1063.415,170.8S1373.891,200.5,1112.726,63.122L1938.68,228.353S1596.674,120.674,1297.773,0Z" transform="translate(582.888)" fill-rule="evenodd" opacity="0.2" fill="url(#linear-gradient-2)" style="mix-blend-mode: soft-light;isolation: isolate"/>
        <path id="Path_6093" data-name="Path 6093" d="M609.667,0s351.5,87.877,706.717,100.252c0,0-370.693-56.932-537.468-100.252Z" transform="translate(1854.564)" fill-rule="evenodd" opacity="0.2" fill="url(#linear-gradient-2)" style="mix-blend-mode: soft-light;isolation: isolate"/>
        <path id="Path_6094" data-name="Path 6094" d="M-54,68.01S2198.238,293.233,3116.948,264.148V436.694l-1323.325,2.362-55.536,90.1L259.263,502.2,979.636,442.65-20.274,290.756Z" transform="translate(54 184.515)" fill-rule="evenodd" opacity="0.2" fill="url(#linear-gradient-2)" style="mix-blend-mode: soft-light;isolation: isolate"/>
        <path id="Path_6095" data-name="Path 6095" d="M771.112,197.507a166.761,166.761,0,0,1-3.082-17.637A74.413,74.413,0,0,1,771.112,197.507Z" transform="translate(2284.211 487.997)" fill-rule="evenodd" opacity="0.79" fill="url(#linear-gradient-5)" style="mix-blend-mode: multiply;isolation: isolate"/>
        <path id="Path_6101" data-name="Path 6101" d="M469.043,88.48c56.7,10.267,125.379,15.112,163.244,16.683-2.261-3.5-55.246-20.069-57.471-22.924s-2.774-6.62-3.527-10.159C568.218,57.61,560.105,43.79,547.47,36.1s-29.976-8.161-41.772.761c-7.816,5.907-12.268,18.439-5.306,25.33q-5.575-.713-11.154-1.418c6.576-8.432-.6-20.641-8.7-27.621-8.425-7.263-18.446-13.181-29.482-14.581-16.794-2.139-33.143,6.3-50.048,7.14-7.1.349-14.251-.646-21.28.371a38.013,38.013,0,0,0-26.184,16.865c-.954,1.489-1.831,3.212-1.5,4.946a7.762,7.762,0,0,0,2.458,3.732l11.306,11.436a26.919,26.919,0,0,1-11.885,1.073c17.032,3.36,30.766,13.3,47.223,16.835C423.231,85.71,446.876,84.47,469.043,88.48Z" transform="translate(1155.433 49.456)" fill-rule="evenodd" fill="url(#linear-gradient-6)"/>
        <path id="Path_6102" data-name="Path 6102" d="M465.654,131.885s2.332-43.825,27.681-56.446c65.539-32.627,43.855,52.321,35.274,56.446,0,0,23.207-15.034,39.915,0s0,16.887,0,16.887L597.3,163.825l-175.59-31.94Z" transform="translate(1344.626 184.475)" fill-rule="evenodd" fill="url(#linear-gradient-7)"/>
        <path id="Path_6103" data-name="Path 6103" d="M740.105,84.55a332.407,332.407,0,0,0,63.787,5.2c-4.938.438-9.13-4.014-10.579-8.752s-.973-9.821-1.366-14.763a42.108,42.108,0,0,0-7.783-21.179c-8.77-12.142-25.772-18.888-39.507-12.91s-19.832,26.262-9.535,37.138c-6.943,1.43-42.789,2.18-49.732,3.609,4,4.534,44.868,10.244,54.715,11.655Z" transform="translate(2060.004 81.216)" fill-rule="evenodd" fill="url(#linear-gradient-8)"/>
        <ellipse id="Ellipse_240" data-name="Ellipse 240" cx="558.722" cy="363.35" rx="558.722" ry="363.35" transform="translate(1618.735 47.165)" opacity="0.6" fill="url(#radial-gradient)" style="mix-blend-mode: screen;isolation: isolate"/>
      </g>
    </g>
    <g id="Group_1399" data-name="Group 1399" transform="translate(-341.444 -3.138)" opacity="0.257">
      <path id="Path_3410" data-name="Path 3410" d="M936.912,795.566V298.979H878.2V211.485H814.553V273.27h-69.4V166.426H698.613v65.311H625.76v70.783H557.529V110.633H496.357v85.281H427.288v274.7H362.328V312.158H297.94v66.881H196.661V513.8H144V255.208H72.471V375.4H0V795.566Z" transform="translate(469.695 472.138)" fill="#001b57" opacity="0.515"/>
      <path id="Path_3411" data-name="Path 3411" d="M768.2,350.093V201.832H708.328v58.122h-65.29V159.445H599.261v61.439H530.728v66.587H466.542V106.959H409v80.225H354.02v564.1H823.433V350.093Z" transform="translate(-354.02 516.082)" fill="#001b57" opacity="0.468"/>
    </g>
  </g>
</svg>
