<svg id="logout_2_" data-name="logout (2)" xmlns="http://www.w3.org/2000/svg" width="22.791" height="22.791" viewBox="0 0 22.791 22.791">
  <path id="Path_7671" data-name="Path 7671" d="M16.242,5.718V.668A.668.668,0,0,0,15.574,0H.668A.668.668,0,0,0,0,.668V22.123a.668.668,0,0,0,.668.668H15.574a.668.668,0,0,0,.668-.668V17.074a.668.668,0,0,0-.668-.668V6.386A.668.668,0,0,0,16.242,5.718Z" fill="#fed42d"/>
  <path id="Path_7672" data-name="Path 7672" d="M48.387,5.6V.668A.668.668,0,0,0,47.719,0H40.266V22.791h7.453a.668.668,0,0,0,.668-.668V17.195a.668.668,0,0,0-.668-.668V6.263A.668.668,0,0,0,48.387,5.6Z" transform="translate(-32.145)" fill="#fcbf29"/>
  <path id="Path_7673" data-name="Path 7673" d="M58.763,28.873,55.1,25.214a2.8,2.8,0,0,0-1.991-.825h0a2.817,2.817,0,0,0-2.683,3.663H48.91a2.813,2.813,0,1,0,0,5.626H50.43a2.817,2.817,0,0,0,2.683,3.664h0a2.794,2.794,0,0,0,1.988-.824l3.66-3.66a2.813,2.813,0,0,0,0-3.985Zm-5.649,7.8Z" transform="translate(-36.8 -19.47)" fill="#fd3018"/>
  <path id="Path_7674" data-name="Path 7674" d="M59.59,56.5a2.793,2.793,0,0,1-.827,1.992L55.1,62.153a2.8,2.8,0,0,1-1.991.825h0a2.817,2.817,0,0,1-2.683-3.663H48.91A2.813,2.813,0,0,1,46.1,56.5H59.59Z" transform="translate(-36.8 -45.106)" fill="#e61e14"/>
</svg>
