<svg id="Component_8_1" data-name="Component 8 – 1" xmlns="http://www.w3.org/2000/svg" width="208.338" height="44.159" viewBox="0 0 208.338 44.159">
  <path id="Path_16" data-name="Path 16" d="M133.877,439.108a2.071,2.071,0,0,1-1.109-1.876,1.649,1.649,0,0,1,.381-1.13,1.2,1.2,0,0,1,.935-.433,3.83,3.83,0,0,1,1.63.555,15.118,15.118,0,0,0,2.028.8,8.238,8.238,0,0,0,2.34.277,4.439,4.439,0,0,0,2.271-.486,1.505,1.505,0,0,0,.815-1.355,1.309,1.309,0,0,0-.33-.938,3.032,3.032,0,0,0-1.179-.643,24.854,24.854,0,0,0-2.582-.677,9.891,9.891,0,0,1-4.42-1.772,3.945,3.945,0,0,1-1.335-3.161,4.564,4.564,0,0,1,.9-2.761A5.842,5.842,0,0,1,136.7,423.6a9.015,9.015,0,0,1,3.588-.677,10.744,10.744,0,0,1,2.808.365,8.533,8.533,0,0,1,2.427,1.059,2.1,2.1,0,0,1,1.109,1.841,1.789,1.789,0,0,1-.381,1.164,1.167,1.167,0,0,1-.936.469,1.875,1.875,0,0,1-.745-.156,10.01,10.01,0,0,1-.919-.469,14.453,14.453,0,0,0-1.733-.782,5.4,5.4,0,0,0-1.8-.26,3.483,3.483,0,0,0-2.028.521,1.646,1.646,0,0,0-.745,1.424,1.448,1.448,0,0,0,.762,1.32,10.877,10.877,0,0,0,2.948.9,16.8,16.8,0,0,1,3.64,1.112,4.269,4.269,0,0,1,1.889,1.563,4.547,4.547,0,0,1,.572,2.4,4.459,4.459,0,0,1-1.958,3.787,8.68,8.68,0,0,1-5.217,1.424,11.118,11.118,0,0,1-6.1-1.494" transform="translate(-88.782 -409.641)" fill="#fff"/>
  <path id="Path_17" data-name="Path 17" d="M163.286,438.069a1.414,1.414,0,0,1-.676,1.268,3.224,3.224,0,0,1-1.925.365l-.935-.07q-5.824-.417-5.824-6.253v-7.574h-1.734a2.2,2.2,0,0,1-1.438-.417,1.722,1.722,0,0,1,0-2.432,2.2,2.2,0,0,1,1.438-.416h1.734v-3.2a1.955,1.955,0,0,1,.589-1.494,2.231,2.231,0,0,1,1.594-.556,2.186,2.186,0,0,1,1.561.556,1.958,1.958,0,0,1,.589,1.494v3.2h2.947a2.2,2.2,0,0,1,1.438.416,1.722,1.722,0,0,1,0,2.432,2.2,2.2,0,0,1-1.438.417h-2.947v7.885q0,2.571,2.357,2.745l.935.07q1.733.1,1.734,1.563" transform="translate(-91.289 -408.844)" fill="#fff"/>
  <path id="Path_18" data-name="Path 18" d="M182.773,423.556a1.955,1.955,0,0,1,.589,1.494v13.479a1.885,1.885,0,0,1-.606,1.459,2.249,2.249,0,0,1-1.578.555,2.09,2.09,0,0,1-1.49-.52,1.86,1.86,0,0,1-.554-1.425v-.868a5.538,5.538,0,0,1-2.15,2.136,6.2,6.2,0,0,1-3.05.747q-6.241,0-6.24-7.017V425.05a1.955,1.955,0,0,1,.589-1.494,2.184,2.184,0,0,1,1.56-.555,2.234,2.234,0,0,1,1.595.555,1.955,1.955,0,0,1,.589,1.494v8.581a4.1,4.1,0,0,0,.728,2.675,2.821,2.821,0,0,0,2.288.869,3.731,3.731,0,0,0,2.9-1.2,4.538,4.538,0,0,0,1.091-3.178V425.05a1.955,1.955,0,0,1,.589-1.494,2.184,2.184,0,0,1,1.56-.555,2.234,2.234,0,0,1,1.595.555" transform="translate(-93.791 -409.652)" fill="#fff"/>
  <path id="Path_19" data-name="Path 19" d="M206.545,415.017a1.861,1.861,0,0,1,.624,1.459v20.774a1.956,1.956,0,0,1-.589,1.494,2.466,2.466,0,0,1-3.121,0,1.953,1.953,0,0,1-.589-1.494v-.869a5.429,5.429,0,0,1-2.2,2.224,6.634,6.634,0,0,1-3.276.8,7.011,7.011,0,0,1-3.9-1.112,7.363,7.363,0,0,1-2.669-3.143,10.875,10.875,0,0,1-.953-4.673,10.533,10.533,0,0,1,.953-4.621,7,7,0,0,1,6.569-4.133,6.78,6.78,0,0,1,3.258.764,5.3,5.3,0,0,1,2.184,2.154v-8.233a1.843,1.843,0,0,1,.572-1.407,2.159,2.159,0,0,1,1.542-.539,2.31,2.31,0,0,1,1.595.556m-4.8,19.593a6.421,6.421,0,0,0,1.126-4.065,6.347,6.347,0,0,0-1.126-4.047,3.833,3.833,0,0,0-3.172-1.408,3.944,3.944,0,0,0-3.224,1.39,6.142,6.142,0,0,0-1.144,3.995,6.5,6.5,0,0,0,1.144,4.1,4.267,4.267,0,0,0,6.4.034" transform="translate(-96.971 -408.443)" fill="#fff"/>
  <path id="Path_20" data-name="Path 20" d="M227.251,423.331a1.881,1.881,0,0,1,1.023-.3,2.177,2.177,0,0,1,1.438.539,1.679,1.679,0,0,1,.642,1.337,1.793,1.793,0,0,1-.207.8l-9.464,19.872a1.938,1.938,0,0,1-1.837,1.181,2.133,2.133,0,0,1-1.4-.5,1.578,1.578,0,0,1-.606-1.269,2.241,2.241,0,0,1,.207-.868l2.357-4.968L212.95,425.71a1.76,1.76,0,0,1-.172-.8,1.7,1.7,0,0,1,.675-1.355A2.365,2.365,0,0,1,215,423a2.031,2.031,0,0,1,1.074.3,1.976,1.976,0,0,1,.763.92l4.853,10.734,4.819-10.7a2.009,2.009,0,0,1,.745-.921" transform="translate(-100.256 -409.652)" fill="#fff"/>
  <path id="Path_21" data-name="Path 21" d="M260.395,424.57q1.472,1.651,1.473,5.332v8.546a1.958,1.958,0,0,1-.607,1.546,2.288,2.288,0,0,1-1.577.538,2.237,2.237,0,0,1-1.543-.538,1.958,1.958,0,0,1-.606-1.546V429.9a4.307,4.307,0,0,0-.676-2.727,2.527,2.527,0,0,0-2.063-.816,3.393,3.393,0,0,0-2.7,1.164,4.7,4.7,0,0,0-1.006,3.179v7.747a1.958,1.958,0,0,1-.606,1.546,2.239,2.239,0,0,1-1.543.538,2.3,2.3,0,0,1-1.56-.538,1.929,1.929,0,0,1-.624-1.546V429.9a4.3,4.3,0,0,0-.677-2.727,2.526,2.526,0,0,0-2.062-.816,3.342,3.342,0,0,0-2.687,1.164,4.758,4.758,0,0,0-.988,3.179v7.747a1.929,1.929,0,0,1-.624,1.546,2.3,2.3,0,0,1-1.56.538,2.237,2.237,0,0,1-1.543-.538,1.955,1.955,0,0,1-.606-1.546V425a1.836,1.836,0,0,1,.624-1.494,2.349,2.349,0,0,1,1.56-.521,2.151,2.151,0,0,1,1.473.5,1.822,1.822,0,0,1,.572,1.442v.833a5.437,5.437,0,0,1,2.132-2.119,6.289,6.289,0,0,1,3.068-.73q3.812,0,5.1,3.2a5.733,5.733,0,0,1,2.254-2.328,6.565,6.565,0,0,1,3.362-.868,5.4,5.4,0,0,1,4.247,1.65" transform="translate(-103.588 -409.641)" fill="#fff"/>
  <path id="Path_24" data-name="Path 24" d="M283.545,424.675q1.715,1.754,1.716,5.332v8.476a1.962,1.962,0,0,1-.554,1.476,2.1,2.1,0,0,1-1.526.539,2.024,2.024,0,0,1-1.473-.556,1.941,1.941,0,0,1-.572-1.459v-.763a4.527,4.527,0,0,1-1.855,2.119,5.559,5.559,0,0,1-2.929.764,6.8,6.8,0,0,1-3.086-.694A5.48,5.48,0,0,1,271.083,438a4.833,4.833,0,0,1-.8-2.71,4.3,4.3,0,0,1,.953-2.953,5.728,5.728,0,0,1,3.1-1.563,28.241,28.241,0,0,1,5.928-.486h.867v-.8a3.561,3.561,0,0,0-.728-2.484,3.093,3.093,0,0,0-2.357-.781,7.482,7.482,0,0,0-2.046.3q-1.039.295-2.461.851a3.456,3.456,0,0,1-1.317.452,1.3,1.3,0,0,1-1.023-.452,1.714,1.714,0,0,1-.4-1.181,1.78,1.78,0,0,1,.295-1.025,2.8,2.8,0,0,1,.988-.816,11.352,11.352,0,0,1,2.9-1.042,14.885,14.885,0,0,1,3.31-.382q3.537,0,5.253,1.755m-3.5,11.637a4.211,4.211,0,0,0,1.092-3v-.73h-.624a23.847,23.847,0,0,0-3.605.209,3.494,3.494,0,0,0-1.837.729,1.86,1.86,0,0,0-.555,1.425,2.362,2.362,0,0,0,.78,1.824,2.748,2.748,0,0,0,1.924.712,3.7,3.7,0,0,0,2.825-1.164" transform="translate(-108.504 -409.641)" fill="#fff"/>
  <path id="Path_25" data-name="Path 25" d="M302.746,438.069a1.414,1.414,0,0,1-.676,1.268,3.224,3.224,0,0,1-1.925.365l-.935-.07q-5.824-.417-5.824-6.253v-7.574h-1.734a2.2,2.2,0,0,1-1.438-.417,1.721,1.721,0,0,1,0-2.432,2.2,2.2,0,0,1,1.438-.416h1.734v-3.2a1.955,1.955,0,0,1,.589-1.494,2.229,2.229,0,0,1,1.594-.556,2.188,2.188,0,0,1,1.561.556,1.958,1.958,0,0,1,.588,1.494v3.2h2.947a2.2,2.2,0,0,1,1.439.416,1.724,1.724,0,0,1,0,2.432,2.2,2.2,0,0,1-1.439.417h-2.947v7.885q0,2.571,2.358,2.745l.935.07q1.733.1,1.734,1.563" transform="translate(-111.29 -408.844)" fill="#fff"/>
  <path id="Path_26" data-name="Path 26" d="M321.487,436.121a1.879,1.879,0,0,1,.364,1.215,2.106,2.106,0,0,1-1.282,1.807A11.614,11.614,0,0,1,317.9,440.2a11,11,0,0,1-2.843.4,8.825,8.825,0,0,1-6.483-2.362,8.67,8.67,0,0,1-2.392-6.462,9.939,9.939,0,0,1,1.041-4.621,7.574,7.574,0,0,1,2.93-3.126,8.283,8.283,0,0,1,4.281-1.112,7.666,7.666,0,0,1,3.987,1.008,6.823,6.823,0,0,1,2.634,2.848,9.463,9.463,0,0,1,.936,4.343q0,1.494-1.317,1.494H310.445a5.472,5.472,0,0,0,1.353,3.526,4.542,4.542,0,0,0,3.328,1.129,6.3,6.3,0,0,0,1.959-.278,19.2,19.2,0,0,0,1.924-.764,3.821,3.821,0,0,1,1.526-.555,1.164,1.164,0,0,1,.953.451m-9.776-9.033a5.258,5.258,0,0,0-1.265,3.2h7.835a4.964,4.964,0,0,0-1.04-3.214,3.427,3.427,0,0,0-2.7-1.094,3.72,3.72,0,0,0-2.826,1.112" transform="translate(-113.651 -409.641)" fill="#fff"/>
  <path id="Path_14" data-name="Path 14" d="M85.074,418.57l-3.656,24.78a26.379,26.379,0,0,1,18.569,9.834q.1-12.727.192-25.454a16.48,16.48,0,0,0-4.618-5.689,16.957,16.957,0,0,0-10.487-3.471" transform="translate(-81.418 -409.025)" fill="#002984"/>
  <path id="Path_15" data-name="Path 15" d="M119.55,418.57l3.656,24.78a26.379,26.379,0,0,0-18.569,9.834q-.1-12.727-.193-25.454a16.491,16.491,0,0,1,4.618-5.689,16.958,16.958,0,0,1,10.488-3.471" transform="translate(-84.72 -409.025)" fill="#10a3ff"/>
  <path id="Path_22" data-name="Path 22" d="M91.976,412.175a4.62,4.62,0,1,0,4.619-4.725,4.672,4.672,0,0,0-4.619,4.725" transform="translate(-82.932 -407.45)" fill="#002984"/>
  <path id="Path_23" data-name="Path 23" d="M105.23,412.175a4.62,4.62,0,1,0,4.619-4.725,4.672,4.672,0,0,0-4.619,4.725" transform="translate(-84.833 -407.45)" fill="#10a3ff"/>
</svg>
