<svg id="XMLID_66_" xmlns="http://www.w3.org/2000/svg" width="11.901" height="22.18" viewBox="0 0 11.901 22.18">
  <path id="XMLID_67_" d="M117.137,222.37a5.951,5.951,0,1,0,5.951,5.951A5.957,5.957,0,0,0,117.137,222.37Z" transform="translate(-111.186 -212.091)" fill="#ddb200"/>
  <path id="XMLID_68_" d="M239.917,222.37h0v11.9h0a5.951,5.951,0,0,0,0-11.9Z" transform="translate(-233.966 -212.091)" fill="#cca400"/>
  <path id="XMLID_69_" d="M170.635,279.325a.693.693,0,0,0-.56-.472l-1.6-.232-.714-1.447a.693.693,0,0,0-1.244,0l-.714,1.447-1.6.232a.693.693,0,0,0-.384,1.183l1.156,1.127-.273,1.591a.693.693,0,0,0,1.006.731l1.429-.751,1.429.751a.693.693,0,0,0,1.006-.731l-.273-1.591,1.156-1.127A.693.693,0,0,0,170.635,279.325Z" transform="translate(-161.191 -263.992)" fill="#ffd422"/>
  <path id="XMLID_70_" d="M243.41,279.325a.693.693,0,0,0-.56-.472l-1.6-.232-.714-1.447a.693.693,0,0,0-.622-.386v5.946l1.429.751a.693.693,0,0,0,1.006-.731l-.273-1.591,1.156-1.127A.694.694,0,0,0,243.41,279.325Z" transform="translate(-233.966 -263.992)" fill="#eebf00"/>
  <path id="XMLID_93_" d="M128.709,0h-9.871a.693.693,0,0,0-.693.693v7.97a.693.693,0,0,0,.4.628L123.48,11.6a.694.694,0,0,0,.588,0L129,9.292a.693.693,0,0,0,.4-.628V.693A.693.693,0,0,0,128.709,0Z" transform="translate(-117.823)" fill="#0150ce"/>
  <path id="XMLID_848_" d="M244.853,0h-4.936V11.666a.694.694,0,0,0,.294-.065l4.936-2.309a.693.693,0,0,0,.4-.628V.693A.693.693,0,0,0,244.853,0Z" transform="translate(-233.966)" fill="#10a3ff"/>
</svg>
