<svg id="_015-new" data-name="015-new" xmlns="http://www.w3.org/2000/svg" width="36.877" height="36.877" viewBox="0 0 36.877 36.877">
  <path id="Path_8389" data-name="Path 8389" d="M36.877,18.439a3.8,3.8,0,0,0-.849-2.391l-1.547-1.906.386-2.427a3.794,3.794,0,0,0-2.393-4.143l-2.3-.88L29.3,4.4a3.79,3.79,0,0,0-4.143-2.4L22.734,2.4,20.829.851a3.789,3.789,0,0,0-4.782,0L14.142,2.4,11.715,2.01A3.794,3.794,0,0,0,7.572,4.4l-.88,2.3L4.4,7.574a3.79,3.79,0,0,0-2.4,4.143L2.4,14.143l-1.545,1.9a3.789,3.789,0,0,0,0,4.782L2.4,22.736,2.01,25.162A3.794,3.794,0,0,0,4.4,29.3l2.3.88.875,2.288a3.79,3.79,0,0,0,4.143,2.4l2.426-.387,1.9,1.545a3.789,3.789,0,0,0,4.782,0l1.906-1.547,2.427.386A3.794,3.794,0,0,0,29.3,32.474l.88-2.3,2.288-.875a3.79,3.79,0,0,0,2.4-4.143l-.387-2.426,1.545-1.9A3.787,3.787,0,0,0,36.877,18.439Zm0,0" fill="#fff36c"/>
  <path id="Path_8390" data-name="Path 8390" d="M274.439,18.439a3.806,3.806,0,0,0-.849-2.392l-1.547-1.905.386-2.427a3.794,3.794,0,0,0-2.393-4.143l-2.3-.879L266.864,4.4a3.79,3.79,0,0,0-4.143-2.4l-2.427.387-1.9-1.545A3.786,3.786,0,0,0,256,0V36.877a3.806,3.806,0,0,0,2.392-.849l1.905-1.547,2.427.386a3.794,3.794,0,0,0,4.143-2.393l.879-2.3,2.289-.875a3.79,3.79,0,0,0,2.4-4.143l-.387-2.427,1.545-1.9A3.786,3.786,0,0,0,274.439,18.439Zm0,0" transform="translate(-237.562)" fill="#ffcd00"/>
  <path id="Path_8391" data-name="Path 8391" d="M101.529,201.9a1.081,1.081,0,0,1-.933-.536l-2.037-3.491v2.947a1.08,1.08,0,1,1-2.161,0v-6.943a1.08,1.08,0,0,1,2.014-.544l2.037,3.492v-2.947a1.08,1.08,0,1,1,2.161,0v6.943a1.082,1.082,0,0,1-1.08,1.081Zm0,0" transform="translate(-89.456 -178.912)" fill="#c9001c"/>
  <path id="Path_8392" data-name="Path 8392" d="M205.384,199.744h-2.391v-1.311h1.813a1.08,1.08,0,0,0,0-2.161h-1.813v-1.311h2.391a1.08,1.08,0,0,0,0-2.161h-3.472a1.08,1.08,0,0,0-1.08,1.08v6.943a1.08,1.08,0,0,0,1.08,1.08h3.472a1.08,1.08,0,0,0,0-2.161Zm0,0" transform="translate(-186.367 -178.914)" fill="#c9001c"/>
  <g id="Group_8022" data-name="Group 8022" transform="translate(18.438 13.886)">
    <path id="Path_8393" data-name="Path 8393" d="M296.544,201.9a1.081,1.081,0,0,1-1.016-.714l-1.49-4.13-1.494,4.131a1.08,1.08,0,0,1-2.079-.176l-1.25-6.943a1.08,1.08,0,0,1,2.126-.383l.538,2.987,1.144-3.163a1.08,1.08,0,0,1,1.016-.713h0a1.08,1.08,0,0,1,1.016.714l1.141,3.162.54-2.988a1.08,1.08,0,1,1,2.126.384l-1.256,6.943A1.086,1.086,0,0,1,296.544,201.9Zm0,0" transform="translate(-286.806 -192.798)" fill="#850012"/>
    <path id="Path_8394" data-name="Path 8394" d="M257.08,242.08A1.08,1.08,0,0,0,256,241v2.161A1.08,1.08,0,0,0,257.08,242.08Zm0,0" transform="translate(-256 -237.528)" fill="#850012"/>
    <path id="Path_8395" data-name="Path 8395" d="M256,194.962h.578a1.08,1.08,0,0,0,0-2.161H256Zm0,0" transform="translate(-256 -192.801)" fill="#850012"/>
    <path id="Path_8396" data-name="Path 8396" d="M257.659,290.28a1.08,1.08,0,0,0-1.08-1.08H256v2.161h.578A1.08,1.08,0,0,0,257.659,290.28Zm0,0" transform="translate(-256 -282.256)" fill="#850012"/>
  </g>
</svg>
