<svg id="_007-like" data-name="007-like" xmlns="http://www.w3.org/2000/svg" width="65.998" height="88.12" viewBox="0 0 65.998 88.12">
  <path id="Path_8370" data-name="Path 8370" d="M116.1,324.852H82.914a2.582,2.582,0,0,0-2.582,2.582V354.48a2.581,2.581,0,0,0,4.014,2.148l15.16-10.106,15.159,10.106a2.581,2.581,0,0,0,4.014-2.148V327.433A2.581,2.581,0,0,0,116.1,324.852Zm0,0" transform="translate(-66.506 -268.941)" fill="#3440db"/>
  <path id="Path_8371" data-name="Path 8371" d="M207.73,324.852H191.016V346.6l.124-.082L206.3,356.628a2.581,2.581,0,0,0,4.014-2.148V327.433A2.581,2.581,0,0,0,207.73,324.852Zm0,0" transform="translate(-158.14 -268.941)" fill="#1c259e"/>
  <path id="Path_8372" data-name="Path 8372" d="M33,66A33,33,0,1,1,66,33,33.037,33.037,0,0,1,33,66Zm0,0" fill="#00ceff"/>
  <path id="Path_8373" data-name="Path 8373" d="M191.139,0h-.124V66l.124,0a33,33,0,0,0,0-66Zm0,0" transform="translate(-158.14)" fill="#0092dd"/>
  <path id="Path_8374" data-name="Path 8374" d="M110.042,182.422H98.98a2.581,2.581,0,0,1-2.582-2.582V163.25a2.581,2.581,0,0,1,2.582-2.582h11.061a2.582,2.582,0,0,1,2.582,2.582v16.591A2.582,2.582,0,0,1,110.042,182.422Zm0,0" transform="translate(-79.808 -133.016)" fill="#3440db"/>
  <path id="Path_8375" data-name="Path 8375" d="M177.076,115.913H163.25a2.581,2.581,0,0,1-2.582-2.582V82.914a2.582,2.582,0,0,1,2.582-2.582,8.106,8.106,0,0,1,8.112,8.112v.185l5.719,0a8.121,8.121,0,0,1,8.107,8.112V107.8A8.121,8.121,0,0,1,177.076,115.913Zm0,0" transform="translate(-133.016 -66.506)" fill="#eff6fe"/>
  <path id="Path_8376" data-name="Path 8376" d="M202.205,90.756l-5.719,0v-.185a8.1,8.1,0,0,0-5.471-7.67v35.139H202.2a8.121,8.121,0,0,0,8.112-8.112V98.868A8.121,8.121,0,0,0,202.205,90.756Zm0,0" transform="translate(-158.14 -68.631)" fill="#d2dce7"/>
</svg>
