<svg id="Component_33_1" data-name="Component 33 – 1" xmlns="http://www.w3.org/2000/svg" xmlns:xlink="http://www.w3.org/1999/xlink" width="713.105" height="489.166" viewBox="0 0 713.105 489.166">
  <defs>
    <linearGradient id="linear-gradient" x1="-12.224" y1="-0.248" x2="-12.72" y2="1.695" gradientUnits="objectBoundingBox">
      <stop offset="0" stop-color="#fdc831"/>
      <stop offset="1" stop-color="#f27336"/>
    </linearGradient>
    <linearGradient id="linear-gradient-2" x1="-0.606" y1="1.79" x2="1.048" y2="0.156" xlink:href="#linear-gradient"/>
    <linearGradient id="linear-gradient-3" x1="-43.366" y1="-0.127" x2="-43.076" y2="0.931" gradientUnits="objectBoundingBox">
      <stop offset="0" stop-color="#fdda7b"/>
      <stop offset="0.077" stop-color="#fcd275"/>
      <stop offset="0.471" stop-color="#f8ae5a"/>
      <stop offset="0.792" stop-color="#f69849"/>
      <stop offset="1" stop-color="#f69144"/>
    </linearGradient>
    <linearGradient id="linear-gradient-4" x1="-0.088" y1="1.089" x2="0.823" y2="0.118" xlink:href="#linear-gradient"/>
    <linearGradient id="linear-gradient-5" x1="-10.948" y1="-0.359" x2="-10.918" y2="2.58" gradientUnits="objectBoundingBox">
      <stop offset="0" stop-color="#c085b9"/>
      <stop offset="1" stop-color="#8577b6"/>
    </linearGradient>
    <linearGradient id="linear-gradient-6" y1="0.5" x2="1" y2="0.5" gradientUnits="objectBoundingBox">
      <stop offset="0" stop-color="#187bc9"/>
      <stop offset="0.189" stop-color="#2064bd"/>
      <stop offset="0.536" stop-color="#2d40aa"/>
      <stop offset="0.819" stop-color="#352a9f"/>
      <stop offset="1" stop-color="#39229b"/>
    </linearGradient>
    <linearGradient id="linear-gradient-7" x1="0.124" y1="0.5" x2="1.124" y2="0.5" gradientUnits="objectBoundingBox">
      <stop offset="0" stop-color="#f2f6fb"/>
      <stop offset="0.327" stop-color="#ebf0f8"/>
      <stop offset="0.792" stop-color="#d8dff1"/>
      <stop offset="1" stop-color="#ced6ed"/>
    </linearGradient>
    <linearGradient id="linear-gradient-8" x1="0.498" y1="-4.257" x2="0.502" y2="5.781" gradientUnits="objectBoundingBox">
      <stop offset="0" stop-color="#35c1f1"/>
      <stop offset="0.181" stop-color="#2f9eef"/>
      <stop offset="0.436" stop-color="#2974ee"/>
      <stop offset="0.666" stop-color="#2456ec"/>
      <stop offset="0.862" stop-color="#2243ec"/>
      <stop offset="1" stop-color="#213dec"/>
    </linearGradient>
    <linearGradient id="linear-gradient-9" x1="0.497" y1="-2.109" x2="0.503" y2="2.838" xlink:href="#linear-gradient-8"/>
    <linearGradient id="linear-gradient-10" x1="0.253" y1="0.508" x2="-0.094" y2="0.52" xlink:href="#linear-gradient-8"/>
    <linearGradient id="linear-gradient-11" x1="0.503" y1="-0.675" x2="0.496" y2="1.546" gradientUnits="objectBoundingBox">
      <stop offset="0" stop-color="#35c1f1"/>
      <stop offset="1" stop-color="#213dec"/>
    </linearGradient>
    <linearGradient id="linear-gradient-12" x1="0.586" y1="-0.245" x2="0.279" y2="1.911" gradientUnits="objectBoundingBox">
      <stop offset="0" stop-color="#d62034"/>
      <stop offset="1" stop-color="#660d36"/>
    </linearGradient>
    <linearGradient id="linear-gradient-13" x1="-7.702" y1="0.5" x2="-6.702" y2="0.5" xlink:href="#linear-gradient-7"/>
    <linearGradient id="linear-gradient-14" x1="-8.983" y1="-4.257" x2="-8.979" y2="5.781" gradientUnits="objectBoundingBox">
      <stop offset="0" stop-color="#941800"/>
      <stop offset="0.031" stop-color="#981800"/>
      <stop offset="0.337" stop-color="#c41904"/>
      <stop offset="0.611" stop-color="#e41a06"/>
      <stop offset="0.842" stop-color="#f81a08"/>
      <stop offset="1" stop-color="#ff1b09"/>
    </linearGradient>
    <linearGradient id="linear-gradient-15" x1="-8.931" y1="-2.109" x2="-8.925" y2="2.838" xlink:href="#linear-gradient-14"/>
    <linearGradient id="linear-gradient-16" x1="0.54" y1="-0.089" x2="0.493" y2="0.809" gradientUnits="objectBoundingBox">
      <stop offset="0" stop-color="#941800"/>
      <stop offset="0.276" stop-color="#b41802"/>
      <stop offset="0.763" stop-color="#ea1a07"/>
      <stop offset="1" stop-color="#ff1b09"/>
    </linearGradient>
    <linearGradient id="linear-gradient-17" x1="0.495" y1="1.838" x2="0.503" y2="-0.652" xlink:href="#linear-gradient-14"/>
    <linearGradient id="linear-gradient-18" x1="-73.589" y1="-0.245" x2="-73.897" y2="1.911" xlink:href="#linear-gradient-14"/>
    <linearGradient id="linear-gradient-19" x1="-9.824" y1="0.5" x2="-8.824" y2="0.5" xlink:href="#linear-gradient-7"/>
    <linearGradient id="linear-gradient-20" x1="-11.496" y1="-4.257" x2="-11.493" y2="5.781" gradientUnits="objectBoundingBox">
      <stop offset="0.354" stop-color="#f37d35"/>
      <stop offset="0.373" stop-color="#f27b35"/>
      <stop offset="0.539" stop-color="#f27435"/>
      <stop offset="1" stop-color="#f27336"/>
    </linearGradient>
    <linearGradient id="linear-gradient-21" x1="-11.431" y1="-2.109" x2="-11.425" y2="2.838" xlink:href="#linear-gradient-20"/>
    <linearGradient id="linear-gradient-22" x1="0.614" y1="1.429" x2="0.548" y2="0.782" xlink:href="#linear-gradient-20"/>
    <linearGradient id="linear-gradient-23" x1="0.503" y1="-1.892" x2="0.499" y2="1.174" gradientUnits="objectBoundingBox">
      <stop offset="0" stop-color="#fdb431"/>
      <stop offset="0.24" stop-color="#fcaf31"/>
      <stop offset="0.495" stop-color="#faa232"/>
      <stop offset="0.756" stop-color="#f68d33"/>
      <stop offset="1" stop-color="#f27336"/>
    </linearGradient>
    <linearGradient id="linear-gradient-24" x1="-94.349" y1="-0.245" x2="-94.657" y2="1.911" gradientUnits="objectBoundingBox">
      <stop offset="0" stop-color="#1887c9"/>
      <stop offset="1" stop-color="#39449b"/>
    </linearGradient>
    <linearGradient id="linear-gradient-25" y1="0.5" x2="1" y2="0.5" gradientUnits="objectBoundingBox">
      <stop offset="0" stop-color="#e8aec7"/>
      <stop offset="1" stop-color="#654fa0"/>
    </linearGradient>
    <linearGradient id="linear-gradient-26" x1="0.812" y1="-0.303" x2="0.189" y2="1.781" gradientUnits="objectBoundingBox">
      <stop offset="0" stop-color="#35b0ff"/>
      <stop offset="1" stop-color="#426fb5"/>
    </linearGradient>
    <linearGradient id="linear-gradient-27" x1="0" y1="0.5" x2="1" y2="0.5" xlink:href="#linear-gradient-26"/>
    <linearGradient id="linear-gradient-28" x1="-14.886" y1="0.5" x2="-13.886" y2="0.5" gradientUnits="objectBoundingBox">
      <stop offset="0" stop-color="#fdc831"/>
      <stop offset="0.163" stop-color="#fcc031"/>
      <stop offset="0.409" stop-color="#f9ab32"/>
      <stop offset="0.707" stop-color="#f48934"/>
      <stop offset="0.876" stop-color="#f27336"/>
    </linearGradient>
    <linearGradient id="linear-gradient-29" x1="-34.74" y1="0.5" x2="-33.74" y2="0.5" gradientUnits="objectBoundingBox">
      <stop offset="0" stop-color="#7951a0"/>
      <stop offset="1" stop-color="#504c9e"/>
    </linearGradient>
    <linearGradient id="linear-gradient-30" x1="-31.973" y1="0.5" x2="-30.973" y2="0.5" xlink:href="#linear-gradient-29"/>
    <linearGradient id="linear-gradient-31" x1="-10.948" y1="1.109" x2="-11.057" y2="-0.36" xlink:href="#linear-gradient-6"/>
    <linearGradient id="linear-gradient-32" x1="-12.129" y1="0.016" x2="-12.443" y2="1.633" xlink:href="#linear-gradient"/>
    <linearGradient id="linear-gradient-34" x1="0.498" y1="-4.257" x2="0.502" y2="5.781" xlink:href="#linear-gradient-8"/>
    <linearGradient id="linear-gradient-37" x1="0.503" y1="-0.675" x2="0.496" y2="1.546" xlink:href="#linear-gradient-11"/>
    <linearGradient id="linear-gradient-38" x1="0.586" y1="-0.245" x2="0.279" y2="1.911" xlink:href="#linear-gradient-12"/>
    <linearGradient id="linear-gradient-39" x1="-55.825" y1="0.5" x2="-54.825" y2="0.5" xlink:href="#linear-gradient-7"/>
    <linearGradient id="linear-gradient-40" x1="-65.984" y1="-4.257" x2="-65.98" y2="5.781" xlink:href="#linear-gradient-14"/>
    <linearGradient id="linear-gradient-41" x1="-65.63" y1="-2.109" x2="-65.624" y2="2.838" xlink:href="#linear-gradient-14"/>
    <linearGradient id="linear-gradient-44" x1="-544.42" y1="-0.245" x2="-544.728" y2="1.911" xlink:href="#linear-gradient-14"/>
    <linearGradient id="linear-gradient-45" x1="-75.731" y1="0.5" x2="-74.731" y2="0.5" xlink:href="#linear-gradient-7"/>
    <linearGradient id="linear-gradient-46" x1="-89.562" y1="-4.257" x2="-89.559" y2="5.781" xlink:href="#linear-gradient-20"/>
    <linearGradient id="linear-gradient-47" x1="-89.083" y1="-2.109" x2="-89.077" y2="2.838" xlink:href="#linear-gradient-20"/>
    <linearGradient id="linear-gradient-49" x1="0.503" y1="-1.892" x2="0.499" y2="1.174" xlink:href="#linear-gradient-23"/>
    <linearGradient id="linear-gradient-50" x1="-739.146" y1="-0.245" x2="-739.454" y2="1.911" xlink:href="#linear-gradient-24"/>
    <linearGradient id="linear-gradient-51" x1="-16.793" y1="0.955" x2="-17.499" y2="0.005" gradientUnits="objectBoundingBox">
      <stop offset="0" stop-color="#fdc831"/>
      <stop offset="0.181" stop-color="#fcc431"/>
      <stop offset="0.346" stop-color="#fbb931"/>
      <stop offset="0.503" stop-color="#f8a632"/>
      <stop offset="0.656" stop-color="#f58d34"/>
      <stop offset="0.777" stop-color="#f27336"/>
    </linearGradient>
    <linearGradient id="linear-gradient-52" x1="-21.378" y1="0.5" x2="-20.378" y2="0.5" xlink:href="#linear-gradient-6"/>
  </defs>
  <g id="Group_7964" data-name="Group 7964">
    <path id="Path_8037" data-name="Path 8037" d="M1405.01,937.939c-9.431,13.214-28.964,16.567-28.964,16.567-9.426,6.193-29.884,1.939-29.884,1.939a84.454,84.454,0,0,1-17.776.049c-43.127-4.878-36.56-48.221-36.56-48.221-41.068-30.019.528-70.145.528-70.145-2.275-14.555-2.14-25.987-.589-34.966a29.092,29.092,0,0,1,7.124-15.234,20.62,20.62,0,0,1,19.4-6.362c8.774,1.872,16.434,9.781,17.04,23.468.005.093.009.142.009.142,23.877-5.241,37.478,16.456,37.478,16.456,11.307,9.6,1.376,56.319,1.376,56.319,19.61.428,35.139,37.477,35.139,37.477C1411.186,925.019,1409,932.361,1405.01,937.939Z" transform="translate(-1224.203 -681.976)" fill="#9ce3ef" opacity="0.72"/>
    <path id="Path_8038" data-name="Path 8038" d="M1390.368,955.457c-23.164-61.3-38.857-133.054-41.177-143.94a1.429,1.429,0,0,1,1.112-1.7h0a1.429,1.429,0,0,1,1.689,1.1c2.3,10.807,17.956,82.4,41.055,143.525a1.429,1.429,0,0,1-.829,1.842h0A1.432,1.432,0,0,1,1390.368,955.457Z" transform="translate(-1264.088 -697.127)" fill="#fff"/>
    <path id="Path_8039" data-name="Path 8039" d="M1631.186,914.388l-.009,34.995-2.259-.014-31.69-.182-59.876.24-1.937.007-3.653.015q-.03-.819-.044-1.646c-.225-12.4,2.005-26.387,3.767-35.355,1.112-5.665,2.037-9.329,2.037-9.329,4.738-17.58,12.467-27.053,19.844-32.127a34.042,34.042,0,0,1,4.228-2.483,28.8,28.8,0,0,1,15.53-3.139h15.429s17.167-.277,25.142,4.6a29.69,29.69,0,0,1,2.59,1.771C1623.533,874.215,1632.612,883.037,1631.186,914.388Z" transform="translate(-1360.587 -726.448)" fill="url(#linear-gradient)"/>
    <path id="Path_8040" data-name="Path 8040" d="M1580.884,942.9l9.223,24.767a3.546,3.546,0,0,0,4.253,2.185l18.41-5a15.737,15.737,0,0,0,11.266-11.588q.049-.213.093-.43l2.338,15.361-41.312,8.125-6.384-25.824Z" transform="translate(-1385.467 -767.492)" fill="#3d3d3d" opacity="0.14" style="mix-blend-mode: multiply;isolation: isolate"/>
    <path id="Path_8041" data-name="Path 8041" d="M1699.219,938l-4.954,48.309h-22.429a3.258,3.258,0,0,0-.306-1.837,3.3,3.3,0,0,0-.828-.9S1694.643,966.726,1699.219,938Z" transform="translate(-1434.066 -764.901)" fill="#3d3d3d" opacity="0.16" style="mix-blend-mode: multiply;isolation: isolate"/>
    <path id="Path_8042" data-name="Path 8042" d="M1698.448,914.514l-.009,34.995-2.259-.014-.452-53.277a31.129,31.129,0,0,0-8.181-21.818c-5.789-7.569-28.606-7.68-28.606-7.68l.037-1.224h.838s17.167-.277,25.142,4.6a29.7,29.7,0,0,1,2.59,1.771C1690.794,874.341,1699.874,883.163,1698.448,914.514Z" transform="translate(-1427.849 -726.574)" fill="#fff" opacity="0.35"/>
    <path id="Path_8043" data-name="Path 8043" d="M1656.965,913.883c-5.007,34.56-21.3,40.252-21.3,40.252-1.86,1-7.026,1.573-13.08,1.887-12.065.623-27.66.228-27.66.228l-2.616-10.462,21.852-6.989c2.61-.835,5.255-1.549,7.909-2.23,7.66-1.964,8.363-8.091,8.363-8.091l4.843-34.562c1.173-4.108,3.39-6.358,5.659-7.573a10.427,10.427,0,0,1,10.237.3,10.973,10.973,0,0,1,2.051,1.56,15.238,15.238,0,0,1,3.646,5.718C1660.129,902.647,1656.965,913.883,1656.965,913.883Z" transform="translate(-1392.627 -736.962)" fill="url(#linear-gradient-2)"/>
    <path id="Path_8044" data-name="Path 8044" d="M1629.694,828.743a8.077,8.077,0,0,1-7.846,4.791,9.17,9.17,0,0,1-5.835-2.842c-1.374-1.52-2.425-3.85-2.354-7.42v-6.315s-13.715-.494-12.235-16.873a43.208,43.208,0,0,1,.86-7.667,3.2,3.2,0,0,1,3.529-2.386c3.087.4,9.133.949,14.108-.124.2-.042.388-.085.58-.133a6.225,6.225,0,0,1,5.782,1.555l.042.041a11.946,11.946,0,0,1,3.58,7.64l1.021,12.42v11.939A13.677,13.677,0,0,1,1629.694,828.743Z" transform="translate(-1397.384 -686.453)" fill="url(#linear-gradient-3)"/>
    <path id="Path_8045" data-name="Path 8045" d="M1559.343,893.962c-2.126,6.793-6.027,21.072-9.166,32.776-2.679,9.985-4.8,18.1-4.8,18.1a10.527,10.527,0,0,1-9.957,8.23l-3.7-1.631c-.368-20.24,5.8-44.683,5.8-44.683,4.738-17.58,12.467-27.054,19.844-32.128a34.45,34.45,0,0,1,4.249-2.5,4.462,4.462,0,0,1,.671,1.771C1562.844,876.436,1563.033,882.177,1559.343,893.962Z" transform="translate(-1360.587 -730.078)" fill="url(#linear-gradient-4)"/>
    <path id="Path_8046" data-name="Path 8046" d="M1581.2,865.333l.252,1.69s-11.409-.5-18.255,5.51c0,0-11.466,8.515-21.65,35.563-.638,1.693-1.242,3.131-1.817,4.335,1.112-5.665,2.037-9.329,2.037-9.329,4.738-17.579,12.467-27.053,19.844-32.127a34.014,34.014,0,0,1,4.227-2.483C1574.309,864.313,1581.2,865.333,1581.2,865.333Z" transform="translate(-1364.829 -726.431)" opacity="0.2" style="mix-blend-mode: multiply;isolation: isolate"/>
    <path id="Path_8047" data-name="Path 8047" d="M1690.919,923.728c-5.007,34.56-21.3,40.252-21.3,40.252-1.86,1-7.026,1.573-13.08,1.887,4.422-2.046,8.609-4.166,10.494-5.133.6-.311,1.222-.594,1.841-.876,18.661-8.517,21.855-55.764,21.855-55.764l.095-.329C1694.083,912.491,1690.919,923.728,1690.919,923.728Z" transform="translate(-1426.581 -746.806)" fill="#fff" opacity="0.2"/>
    <path id="Path_8048" data-name="Path 8048" d="M1546.2,989.71a2.455,2.455,0,0,1-2.456,2.454H1446.4a2.454,2.454,0,0,1-2.373-1.83l-10.978-41.672a2.453,2.453,0,0,1,2.373-3.079h62.769a2.455,2.455,0,0,1,2.381,1.855l9.5,37.794a2.674,2.674,0,0,0,2.591,2.022h31.081a2.45,2.45,0,0,1,1.736.719q.082.083.155.171A2.446,2.446,0,0,1,1546.2,989.71Z" transform="translate(-1308.389 -768.912)" fill="url(#linear-gradient-5)"/>
    <path id="Path_8049" data-name="Path 8049" d="M1523.958,992.164H1446.4a2.454,2.454,0,0,1-2.373-1.83l-10.978-41.672a2.453,2.453,0,0,1,2.373-3.079s3.456,43.825,72.326,45.078C1515.383,990.8,1520.644,991.331,1523.958,992.164Z" transform="translate(-1308.389 -768.912)" fill="#3d3d3d" opacity="0.1" style="mix-blend-mode: multiply;isolation: isolate"/>
    <circle id="Ellipse_304" data-name="Ellipse 304" cx="4.842" cy="4.842" r="4.842" transform="translate(154.007 200.199) rotate(-45)" fill="#fff"/>
    <path id="Path_8050" data-name="Path 8050" d="M1616.012,816.66v14.491c-1.374-1.52-2.425-3.85-2.354-7.42v-6.315s-13.715-.494-12.235-16.873a43.208,43.208,0,0,1,.86-7.667,3.2,3.2,0,0,1,3.529-2.386s-4.4,4.264-2.528,13.934C1603.284,804.425,1604.961,815.575,1616.012,816.66Z" transform="translate(-1397.384 -686.91)" fill="#fff" opacity="0.3"/>
    <path id="Path_8051" data-name="Path 8051" d="M1617.376,988.107c-.01-.01-.018-.02-.027-.028s-.03-.031-.042-.045l-.055-.058a2.45,2.45,0,0,0-1.736-.719h-31.081a2.674,2.674,0,0,1-2.591-2.022l-9.5-37.794a2.455,2.455,0,0,0-2.381-1.855l-1.228.208,9.46,40.784a3.1,3.1,0,0,0,3.025,2.4l36.626-.051Z" transform="translate(-1380.161 -768.912)" fill="#3d3d3d" opacity="0.16" style="mix-blend-mode: multiply;isolation: isolate"/>
    <path id="Path_8052" data-name="Path 8052" d="M1629.74,788.049a14.722,14.722,0,0,1-.57,4.344,6.467,6.467,0,0,1-7.3,4.846c-.9-.119-3.306-.841-3.592-5.135,0,0,0-15.516-9.521-10.225,0,0-11.61,6.528-19.406,4.368a5.654,5.654,0,0,1-2.99-2.041,5.957,5.957,0,0,1-1.182-4.159c.657-7.042,5.112-21.226,31.371-12.4.737.247,1.492.451,2.25.627C1621.535,768.92,1629.74,772.175,1629.74,788.049Z" transform="translate(-1388.843 -673.366)" fill="url(#linear-gradient-6)"/>
    <path id="Path_8053" data-name="Path 8053" d="M1629.74,788.049a14.722,14.722,0,0,1-.57,4.344c-2.145-8.3-7.414-21.778-19.394-24.523-17.577-4.028-23.413,16.336-23.413,16.336a5.957,5.957,0,0,1-1.182-4.159c.657-7.042,5.112-21.226,31.371-12.4.737.247,1.492.451,2.25.627C1621.535,768.92,1629.74,772.175,1629.74,788.049Z" transform="translate(-1388.843 -673.366)" opacity="0.2" style="mix-blend-mode: multiply;isolation: isolate"/>
    <ellipse id="Ellipse_305" data-name="Ellipse 305" cx="325.455" cy="32.155" rx="325.455" ry="32.155" transform="translate(51.108 424.857)" fill="#6dbcfc" opacity="0.8"/>
    <path id="Path_8054" data-name="Path 8054" d="M2548.382,943.367a17.149,17.149,0,0,1-2.9-2.493c-6.14-6.474-11.615-20.043-12.433-36.345-.978-18.835,4.562-34.42,11.093-40.254,7.9,3.89,17.043,18.668,18.091,38.7C2563.244,922.987,2556.088,938.934,2548.382,943.367Z" transform="translate(-1889.875 -725.93)" fill="#5faadd"/>
    <path id="Path_8055" data-name="Path 8055" d="M2533.755,1153.768a586.244,586.244,0,0,0,14.955-124.41l-4.809-.064a581.4,581.4,0,0,1-14.833,123.4Z" transform="translate(-1887.828 -813.165)" fill="#5faadd"/>
    <path id="Path_8056" data-name="Path 8056" d="M2597.223,1081.687c-13.134,12.046-27.519,16.208-36.169,14.714a14.871,14.871,0,0,1-2.757-.738c-.647-4.524.856-10.6,4.29-17.231,3.213-6.648,8.67-13.836,15.513-20.581,13.966-13.474,29.352-19.277,37.927-17C2617.74,1050.428,2611.585,1068.261,2597.223,1081.687Z" transform="translate(-1903.202 -819.019)" fill="#5faadd"/>
    <path id="Path_8057" data-name="Path 8057" d="M2499.79,1093.234a14.4,14.4,0,0,1-2.917.078c-8.755-.585-21.876-8.011-32.507-20.48-12.158-13.98-16.531-28.671-14.718-36.587,8.537-1.533,24.159,3.542,36.7,17.564a60.27,60.27,0,0,1,12.684,21.786C2501.146,1082.633,2501.323,1088.978,2499.79,1093.234Z" transform="translate(-1845.636 -816.7)" fill="#5faadd"/>
    <path id="Path_8058" data-name="Path 8058" d="M2484.34,1216.031l0,.009a13.237,13.237,0,0,1-2.168-.112c-8.687-1.1-21.2-9.934-30.954-23.866-10.455-15.116-13.529-30.2-10.785-37.878,8.666-.642,23.584,6.014,34.684,21.266C2486.165,1190.672,2488.471,1207.948,2484.34,1216.031Z" transform="translate(-1840.467 -879.164)" fill="#5faadd"/>
    <path id="Path_8059" data-name="Path 8059" d="M2576.757,1220.49c-14.524,10.962-29.908,13.411-38.211,10.66a13.763,13.763,0,0,1-1.944-.8l0-.009c-.156-9.085,8.425-23.565,23.672-35.539,15.2-11.96,31.2-16.133,39.478-12.976C2600.355,1191.5,2592.63,1208.655,2576.757,1220.49Z" transform="translate(-1891.811 -893.259)" fill="#5faadd"/>
    <path id="Path_8060" data-name="Path 8060" d="M2449.487,1405.051a582.76,582.76,0,0,0,40.525-118.574l-4.692-1.056a577.951,577.951,0,0,1-40.188,117.589Z" transform="translate(-1843.456 -948.562)" fill="#5faadd"/>
    <path id="Path_8061" data-name="Path 8061" d="M2562.324,1337.977a63.172,63.172,0,0,1-19.688,18.208c-15.576,9.388-31.112,10.2-39.088,6.594a14.361,14.361,0,0,1-1.866-1.012c.754-9.072,10.907-22.53,27.249-32.88,16.515-10.283,32.652-12.817,40.622-8.8C2569.323,1324.935,2567.01,1331.459,2562.324,1337.977Z" transform="translate(-1873.351 -965.928)" fill="#5faadd"/>
    <path id="Path_8062" data-name="Path 8062" d="M2456.109,1335.794a13.937,13.937,0,0,1-2.676-.478c-8.462-2.3-19.674-12.28-27.754-26.848a71.552,71.552,0,0,1-8.022-22.678c-.908-6.717-.548-12.423,1.23-16.079,8.617.249,22.976,8.462,32.282,24.746C2460.648,1310.776,2461.026,1328.166,2456.109,1335.794Z" transform="translate(-1828.678 -940.256)" fill="#5faadd"/>
    <path id="Path_8063" data-name="Path 8063" d="M2414.76,1452.426l0,0a12.488,12.488,0,0,1-1.785-.463c-8.283-2.723-19.067-14.187-25.588-29.959-7.152-17.008-6.849-32.307-2.676-39.251,8.565,1.168,21.908,10.829,29.5,28.033,3.665,8.538,5.536,17.306,5.276,24.62C2419.287,1442.754,2417.529,1448.859,2414.76,1452.426Z" transform="translate(-1809.951 -1000.017)" fill="#5faadd"/>
    <path id="Path_8064" data-name="Path 8064" d="M2494.889,1488.444c-16.695,7.608-32.039,6.855-39.578,2.393a13.59,13.59,0,0,1-1.715-1.182l0-.009c.776-4.5,4.052-9.836,9.393-15.061a79.566,79.566,0,0,1,21.159-14.748c17.448-8.489,33.838-9.3,41.31-4.46C2524.129,1465.028,2512.8,1480.158,2494.889,1488.444Z" transform="translate(-1847.931 -1036.84)" fill="#5faadd"/>
    <path id="Path_8065" data-name="Path 8065" d="M2545.485,940.874c-6.14-6.474-11.615-20.043-12.433-36.345-.978-18.835,4.562-34.42,11.093-40.254C2544.145,864.275,2528.576,897.331,2545.485,940.874Z" transform="translate(-1889.875 -725.93)" fill="#5faadd"/>
    <path id="Path_8066" data-name="Path 8066" d="M2497.2,1093.235l-.33.372c-8.755-.585-21.876-8.011-32.507-20.48-12.158-13.98-16.531-28.672-14.718-36.587C2449.649,1036.541,2461.931,1077.391,2497.2,1093.235Z" transform="translate(-1845.636 -816.995)" fill="#5faadd"/>
    <path id="Path_8067" data-name="Path 8067" d="M2482.167,1215.976c-8.687-1.1-21.2-9.933-30.954-23.866-10.455-15.116-13.529-30.2-10.785-37.877C2440.428,1154.232,2449.253,1196.8,2482.167,1215.976Z" transform="translate(-1840.467 -879.211)" fill="#5faadd"/>
    <path id="Path_8068" data-name="Path 8068" d="M2453.617,1335.093l-.184.222c-8.462-2.3-19.674-12.28-27.754-26.848a71.552,71.552,0,0,1-8.022-22.678c-.908-6.717-.548-12.423,1.23-16.079C2418.886,1269.71,2424.617,1315.271,2453.617,1335.093Z" transform="translate(-1828.678 -940.256)" fill="#5faadd"/>
    <path id="Path_8069" data-name="Path 8069" d="M2412.973,1451.967c-8.283-2.723-19.067-14.187-25.588-29.959-7.152-17.008-6.849-32.307-2.676-39.251,0,0,3.418,51.444,27.86,68.921C2412.707,1451.779,2412.841,1451.876,2412.973,1451.967Z" transform="translate(-1809.951 -1000.017)" fill="#5faadd"/>
    <path id="Path_8070" data-name="Path 8070" d="M2600.478,1082.229c-13.133,12.046-27.519,16.208-36.169,14.714,42.7-9.482,54.974-55.548,54.974-55.548C2621,1050.97,2614.841,1068.8,2600.478,1082.229Z" transform="translate(-1906.458 -819.561)" fill="#5faadd"/>
    <path id="Path_8071" data-name="Path 8071" d="M2578.937,1221.629c-14.524,10.962-29.908,13.411-38.211,10.66,44.153-5.291,61.21-49.329,61.21-49.329C2602.535,1192.641,2594.81,1209.793,2578.937,1221.629Z" transform="translate(-1893.991 -894.397)" fill="#5faadd"/>
    <path id="Path_8072" data-name="Path 8072" d="M2564.417,1340.01a63.173,63.173,0,0,1-19.688,18.209c-15.576,9.388-31.112,10.2-39.087,6.594,43.72,1.946,66-42.694,66-42.694C2571.416,1326.968,2569.1,1333.491,2564.417,1340.01Z" transform="translate(-1875.444 -967.961)" fill="#5faadd"/>
    <path id="Path_8073" data-name="Path 8073" d="M2496.813,1491.769c-16.695,7.608-32.04,6.855-39.578,2.394.122,0,.243.009.367.016,44.561,2.465,69.785-35.475,69.785-35.475C2526.052,1468.353,2514.722,1483.483,2496.813,1491.769Z" transform="translate(-1849.854 -1040.165)" fill="#5faadd"/>
    <path id="Path_8074" data-name="Path 8074" d="M1733.728,1468.34H1439.1a.292.292,0,0,1-.279-.38h0a111.658,111.658,0,0,0,0-66.9h0a.292.292,0,0,1,.279-.38h294.624a.292.292,0,0,1,.292.292v67.076A.292.292,0,0,1,1733.728,1468.34Z" transform="translate(-1311.481 -1009.492)" fill="url(#linear-gradient-7)"/>
    <rect id="Rectangle_1648" data-name="Rectangle 1648" width="249.227" height="7.823" transform="translate(124.038 384.798)" fill="url(#linear-gradient-8)"/>
    <rect id="Rectangle_1649" data-name="Rectangle 1649" width="250.555" height="7.823" transform="translate(123.773 458.661)" fill="url(#linear-gradient-9)"/>
    <path id="Path_8075" data-name="Path 8075" d="M1923.116,1387.051h259.238s35.757,41.91,0,82.109H1924.741S1950.746,1431.527,1923.116,1387.051Z" transform="translate(-1567.501 -1002.287)" fill="url(#linear-gradient-10)"/>
    <path id="Path_8076" data-name="Path 8076" d="M1939.382,1387.051H2196.4s35.45,41.91,0,82.109H1940.993S1966.776,1431.527,1939.382,1387.051Z" transform="translate(-1576.1 -1002.287)" fill="url(#linear-gradient-11)"/>
    <path id="Path_8077" data-name="Path 8077" d="M1801.253,1460.093c-2.485,4.11-5.109,12.374-4.664,28.85l13.638-9.274,12.274,9s-1.032-25.2,4.026-31.094a.74.74,0,0,0-.544-1.233l-17.554-.189A8.264,8.264,0,0,0,1801.253,1460.093Z" transform="translate(-1500.588 -1038.817)" fill="url(#linear-gradient-12)"/>
    <path id="Path_8078" data-name="Path 8078" d="M1758.947,1121.061H2053.57a.292.292,0,0,0,.279-.38h0a111.66,111.66,0,0,1,0-66.9h0a.292.292,0,0,0-.279-.38H1758.947a.292.292,0,0,0-.292.292v67.076A.292.292,0,0,0,1758.947,1121.061Z" transform="translate(-1480.561 -825.908)" fill="url(#linear-gradient-13)"/>
    <rect id="Rectangle_1650" data-name="Rectangle 1650" width="249.227" height="7.823" transform="translate(576.594 228.926) rotate(180)" fill="url(#linear-gradient-14)"/>
    <rect id="Rectangle_1651" data-name="Rectangle 1651" width="250.555" height="7.823" transform="translate(576.859 302.788) rotate(180)" fill="url(#linear-gradient-15)"/>
    <path id="Path_8079" data-name="Path 8079" d="M1592.076,1039.772H1332.837s-35.757,41.91,0,82.109H1590.45S1564.445,1084.247,1592.076,1039.772Z" transform="translate(-1247.058 -818.703)" fill="url(#linear-gradient-16)"/>
    <path id="Path_8080" data-name="Path 8080" d="M1578.451,1039.772H1321.434s-35.451,41.91,0,82.109H1576.84S1551.058,1084.247,1578.451,1039.772Z" transform="translate(-1241.102 -818.703)" fill="url(#linear-gradient-17)"/>
    <path id="Path_8081" data-name="Path 8081" d="M1988.655,1112.814c2.484,4.11,5.109,12.374,4.664,28.85l-13.637-9.274-12.274,9s1.032-25.2-4.026-31.094a.74.74,0,0,1,.545-1.232l17.553-.189A8.264,8.264,0,0,1,1988.655,1112.814Z" transform="translate(-1588.688 -855.234)" fill="url(#linear-gradient-18)"/>
    <path id="Path_8082" data-name="Path 8082" d="M1852.993,1294.008h294.624a.292.292,0,0,0,.279-.38h0a111.654,111.654,0,0,1,0-66.9h0a.292.292,0,0,0-.279-.38H1852.993a.292.292,0,0,0-.292.292v67.076A.292.292,0,0,0,1852.993,1294.008Z" transform="translate(-1530.277 -917.334)" fill="url(#linear-gradient-19)"/>
    <rect id="Rectangle_1652" data-name="Rectangle 1652" width="249.227" height="7.823" transform="translate(620.924 310.447) rotate(180)" fill="url(#linear-gradient-20)"/>
    <rect id="Rectangle_1653" data-name="Rectangle 1653" width="250.555" height="7.823" transform="translate(621.19 384.309) rotate(180)" fill="url(#linear-gradient-21)"/>
    <path id="Path_8083" data-name="Path 8083" d="M1686.122,1212.719H1426.884s-35.757,41.909,0,82.108H1684.5S1658.492,1257.194,1686.122,1212.719Z" transform="translate(-1296.775 -910.129)" fill="url(#linear-gradient-22)"/>
    <path id="Path_8084" data-name="Path 8084" d="M1672.5,1212.719H1415.48s-35.451,41.909,0,82.108h255.407S1645.1,1257.194,1672.5,1212.719Z" transform="translate(-1290.818 -910.129)" fill="url(#linear-gradient-23)"/>
    <path id="Path_8085" data-name="Path 8085" d="M2082.7,1285.76c2.485,4.11,5.109,12.374,4.664,28.85l-13.638-9.274-12.274,9s1.032-25.2-4.026-31.094a.741.741,0,0,1,.544-1.233l17.553-.188A8.264,8.264,0,0,1,2082.7,1285.76Z" transform="translate(-1638.404 -946.659)" fill="url(#linear-gradient-24)"/>
    <path id="Path_8086" data-name="Path 8086" d="M2307.784,1181.96c-20.991,2.652-78.173-.242-78.173-.242,5.308,8.443,21.229,71.98,21.229,71.98l-1.382.943-6.85,4.672-2.383,1.624c-5.107-4.787-24.466-47.576-24.766-48.246l0-.008-7.24.481-5.15-32.352-.239-1.509c-2.586-6.65-3.14-11.488-2.794-14.952a9.928,9.928,0,0,1,.993-3.456,10.379,10.379,0,0,1,2.19-2.952,10.786,10.786,0,0,1,4.9-2.656c28.075-6.762,98.533-9.475,105.81-9.741a.818.818,0,0,1,.8.569q.549,1.726,1,3.349C2323.733,1178.415,2307.784,1181.96,2307.784,1181.96Z" transform="translate(-1713.84 -874.62)" fill="#28196f"/>
    <path id="Path_8087" data-name="Path 8087" d="M2207.329,1250.541l-9.329,43.59h-13.432s4.1-65.627,10.133-76.969c0,0,0,0,0,.008.039.127.516,1.739,1.278,4.2C2198.539,1229.582,2204.266,1247.231,2207.329,1250.541Z" transform="translate(-1705.713 -912.478)" fill="#28196f"/>
    <path id="Path_8088" data-name="Path 8088" d="M2316.949,1149.467l-.273.665H2270.3a75.685,75.685,0,0,0-13.956,1.3l-52.216,9.8-1.882-.331a10.388,10.388,0,0,1,2.19-2.952,10.786,10.786,0,0,1,4.9-2.656c28.076-6.762,98.533-9.475,105.81-9.741a.819.819,0,0,1,.8.569Q2316.5,1147.844,2316.949,1149.467Z" transform="translate(-1715.058 -874.62)" opacity="0.3"/>
    <path id="Path_8089" data-name="Path 8089" d="M2196.445,1219.687q-.224.733-.462,1.681c-3.849,15.572-9.418,72.763-9.418,72.763h-2s4.1-65.627,10.133-76.969c0,0,0,0,0,.008C2195.625,1218.44,2196.445,1219.687,2196.445,1219.687Z" transform="translate(-1705.713 -912.478)" opacity="0.3"/>
    <path id="Path_8090" data-name="Path 8090" d="M2339.52,922.719c-4.064,8.7-17.858,10.63-19.6,10.841l-.181.019a14.445,14.445,0,0,0,.127-11.5,1.263,1.263,0,0,0-2.174-.212,10.781,10.781,0,0,1-3.956,2.921c-.5.238-.99.443-1.44.616a5.35,5.35,0,0,1-4.4-.25c-14.34-7.47-11.931-26.579-11.931-26.579l4.472-13.62,20.39,6.273,9.167,19.543Z" transform="translate(-1764.519 -736.864)" fill="#f7beba"/>
    <path id="Path_8091" data-name="Path 8091" d="M2325.142,899.771s8.278,2.866,7.5,13.127a10.353,10.353,0,0,0,1.646,6.586c2,2.961,6.154,5.673,14.747,3.111,15.624-4.658-3.619-20.326-4-20.7s-11.863-5.686-11.863-5.686Z" transform="translate(-1780.026 -742.81)" fill="#fff" opacity="0.28"/>
    <path id="Path_8092" data-name="Path 8092" d="M2227.315,1110.822,2184.1,1117.2a8.939,8.939,0,0,1-1.232.089,8.334,8.334,0,0,1-1.936-.227,8.536,8.536,0,0,1-5.173-3.587l-25.8-39.044a2.113,2.113,0,0,1,.335-2.725,2.043,2.043,0,0,1,.266-.207,2.117,2.117,0,0,1,2.933.6l25.8,39.041a4.289,4.289,0,0,0,4.187,1.87l43.22-6.373a2.119,2.119,0,0,1,2.371,1.6,1.386,1.386,0,0,1,.034.181A2.122,2.122,0,0,1,2227.315,1110.822Z" transform="translate(-1687.229 -835.287)" fill="url(#linear-gradient-25)"/>
    <path id="Path_8093" data-name="Path 8093" d="M2325.046,900.909c-1.29,4.064-6.355,4.788-6.355,4.788a14.327,14.327,0,0,1-4.96-.454c-3.537-.966-7.785-3.683-8.471-11.088v-1.367c0-5.072-3.568-8.655-8.548-9.633-.1-.019-.635-.081-.743-.1-5.692-1.058-10.864.374-14.848,4.572-1.059,1.112-2.717,1.794-5.3.858,0,0-15.429-10.511-3.66-16.788.454-.242.95-.477,1.489-.708a4.877,4.877,0,0,1,.778-.258,20.614,20.614,0,0,0,7.832-3.864c2.417-1.947,6.312-3.506,12.142-1.789v0a15.259,15.259,0,0,0,9.01-.42,7.881,7.881,0,0,1,7.035,1.02,7.631,7.631,0,0,1,4.164,3.848,29.213,29.213,0,0,0,5.715,8.19,7.951,7.951,0,0,1,2.175,6.089,20.335,20.335,0,0,0,1.743,8.278A12.633,12.633,0,0,1,2325.046,900.909Z" transform="translate(-1749.679 -725.911)" fill="#2d267f"/>
    <path id="Path_8094" data-name="Path 8094" d="M2381.047,1053.314h-55.905v-32.071c.712-18.388,2.633-29.334,4.611-35.835a.03.03,0,0,0,0-.011c.031-.092.057-.185.084-.273,2.5-8.055,5.064-9.09,5.372-9.187a.013.013,0,0,0,.008,0,.027.027,0,0,1,.015,0,.013.013,0,0,1,.008,0l5.858-4,.373-.254.646-.315,8.475-4.13c.02-.008.031-.016.042-.019l4.388-2.14C2382.09,979.02,2381.047,1053.314,2381.047,1053.314Z" transform="translate(-1780.026 -779.211)" fill="url(#linear-gradient-26)"/>
    <path id="Path_8095" data-name="Path 8095" d="M2346,1054.47s3.2,26.842-16.009,34.389c0,0,20.421-4.769,21.065-5.283s0-26.2,0-26.2l-3.393-.462S2346.4,1056.6,2346,1054.47Z" transform="translate(-1782.591 -826.473)" opacity="0.2"/>
    <path id="Path_8096" data-name="Path 8096" d="M2175.264,1390a2.2,2.2,0,0,1-1.828,2.228l-31.109,5.257a1.084,1.084,0,0,1-.873-.235,1.069,1.069,0,0,1-.4-.839v-.188a2.06,2.06,0,0,1,.858-1.674l19.651-14.1H2175l.031,1.108,0,.081Z" transform="translate(-1682.712 -998.798)" fill="#e7404d"/>
    <path id="Path_8097" data-name="Path 8097" d="M2328.356,1055.7h-3.214V1023.63c.712-18.388,2.633-29.334,4.611-35.835a.03.03,0,0,0,0-.011c.031-.092.057-.185.084-.273,2.536-7.874,5.061-9.067,5.372-9.187a.013.013,0,0,0,.008,0,.027.027,0,0,1,.015,0,.014.014,0,0,1,.008,0,36.268,36.268,0,0,1,5.858-4c.338-.192.677-.385,1.02-.569,3.995-2.2,7.913-3.891,8.475-4.13.02-.008.031-.016.042-.019l.027-.012,3.433,2.567C2318.776,978.975,2328.356,1055.7,2328.356,1055.7Z" transform="translate(-1780.026 -781.597)" opacity="0.2"/>
    <path id="Path_8098" data-name="Path 8098" d="M2311.347,1083.282a5.537,5.537,0,0,1-2.936,3.145c-11.219,5.1-40.788,3.583-40.788,3.583-10.726.962-15.841-.62-17.8-1.536a2.174,2.174,0,0,0-.654-.188h-.011a2.387,2.387,0,0,0-1.482.285c-3.156,1.759-4.826,1.686-5.688.951a2.918,2.918,0,0,1-.858-2.04,3.232,3.232,0,0,1,1.316-2.8c9.46-7.047,19.228-1.124,19.228-1.124,19.351.912,31.074-4.3,36.273-7.424a6.567,6.567,0,0,0,3.183-5.642v-20.567l2.848-8.671,12.3,8.652.065.046A90.579,90.579,0,0,1,2311.347,1083.282Z" transform="translate(-1735.607 -819.485)" fill="#f7beba"/>
    <path id="Path_8099" data-name="Path 8099" d="M2383.106,1023.88a2.63,2.63,0,0,1-2.071,2.479c-.735.158-1.466.285-2.186.385a39.222,39.222,0,0,1-10.076.05c-1.158-.139-2.159-.308-2.948-.462a2.627,2.627,0,0,1-2.1-2.44c-1.455-24.569,5.076-26.5,5.076-26.5a3.115,3.115,0,0,1,2.151-.766,9.528,9.528,0,0,1,3.518.766C2382.9,1004.4,2383.275,1018.639,2383.106,1023.88Z" transform="translate(-1800.308 -795.895)" fill="url(#linear-gradient-27)"/>
    <path id="Path_8100" data-name="Path 8100" d="M2287.634,1386.019l-22.6,16.91a1.744,1.744,0,0,1-1.039.347,1.627,1.627,0,0,1-.366-.039,1.726,1.726,0,0,1-.992-.623c-.02-.027-.039-.051-.054-.077a1.721,1.721,0,0,1-.084-1.859l10.672-18.451,2.382-1.624,6.781-4.626,1.451-.99,4.561,6.959A3.017,3.017,0,0,1,2287.634,1386.019Z" transform="translate(-1746.789 -995.91)" fill="#e7404d"/>
    <path id="Path_8101" data-name="Path 8101" d="M2175.03,1380.451v1.189h-5.665a22.915,22.915,0,0,0-13.085,4.1c-6.184,4.3-15.039,10.444-15.221,10.484a2.06,2.06,0,0,1,.858-1.674l19.651-14.1Z" transform="translate(-1682.712 -998.798)" opacity="0.3"/>
    <path id="Path_8102" data-name="Path 8102" d="M2175.709,1391.337a2.2,2.2,0,0,1-1.828,2.228l-31.109,5.257a1.084,1.084,0,0,1-.873-.235l23.525-5.591a11.8,11.8,0,0,0,8.977-10.022h1.077Z" transform="translate(-1683.157 -1000.132)" fill="#fff" opacity="0.15"/>
    <path id="Path_8103" data-name="Path 8103" d="M2207.789,1331.565l11.815-43.589-9.3,43.589Z" transform="translate(-1717.989 -949.912)" fill="#fff" opacity="0.15"/>
    <path id="Path_8104" data-name="Path 8104" d="M2242.608,1273.217l-2.383,1.624c-5.107-4.787-24.466-47.576-24.766-48.246l0-.007-11.381-31.593s-.377-.089-1.009-.277l-.239-1.509c-2.586-6.65-3.14-11.488-2.794-14.952a10.177,10.177,0,0,1,3.183-6.408,35.77,35.77,0,0,0,3.791,21.359Z" transform="translate(-1713.84 -888.523)" opacity="0.3"/>
    <path id="Path_8105" data-name="Path 8105" d="M2336,1182.6c-20.99,2.652-78.173-.242-78.173-.242,5.307,8.444,21.229,71.981,21.229,71.981l-1.382.943-.115-.019-24.188-75.463a1.059,1.059,0,0,1,1.009-1.382h69.55a20.245,20.245,0,0,0,20.253-19.615,50.144,50.144,0,0,0-1.235-12.044C2353.164,1178.785,2336,1182.6,2336,1182.6Z" transform="translate(-1742.059 -875.259)" fill="#999" opacity="0.11"/>
    <path id="Path_8106" data-name="Path 8106" d="M2289.163,1386.019l-22.6,16.91a1.744,1.744,0,0,1-1.039.347,1.623,1.623,0,0,1-.366-.039c8.825-7.543,23.2-19.789,23.469-19.724.366.092-4.272-6.8-4.764-7.536-.031-.042-.046-.066-.046-.066l1.5-.924,4.561,6.959A3.018,3.018,0,0,1,2289.163,1386.019Z" transform="translate(-1748.319 -995.91)" fill="#fff" opacity="0.15"/>
    <path id="Path_8107" data-name="Path 8107" d="M2275.557,1386.9l-12.97,21.933a1.721,1.721,0,0,1-.084-1.859l10.672-18.451Z" transform="translate(-1746.789 -1002.208)" opacity="0.3"/>
    <path id="Path_8108" data-name="Path 8108" d="M2409.672,1053.314h-7.4c10.776-66.643-22.976-86.121-22.976-86.121l4.36-2.128C2410.715,979.02,2409.672,1053.314,2409.672,1053.314Z" transform="translate(-1808.651 -779.211)" fill="#fff" opacity="0.15"/>
    <path id="Path_8109" data-name="Path 8109" d="M2368.8,1026.8h-.023c-1.158-.139-2.159-.308-2.948-.462a2.627,2.627,0,0,1-2.1-2.44c-1.455-24.569,5.076-26.5,5.076-26.5a3.113,3.113,0,0,1,2.151-.766C2365.418,1006.071,2368.8,1026.8,2368.8,1026.8Z" transform="translate(-1800.308 -795.897)" opacity="0.2"/>
    <path id="Path_8110" data-name="Path 8110" d="M2395.394,1024.741a2.63,2.63,0,0,1-2.071,2.479c-.735.157-1.466.285-2.186.385,1.189-14.7-4.384-29.35-4.384-29.35C2395.19,1005.263,2395.563,1019.5,2395.394,1024.741Z" transform="translate(-1812.595 -796.756)" fill="#fff" opacity="0.15"/>
    <path id="Path_8111" data-name="Path 8111" d="M2320.373,1092.985a5.536,5.536,0,0,1-2.937,3.145c-11.219,5.1-40.788,3.583-40.788,3.583-10.726.963-15.841-.619-17.8-1.535a2.181,2.181,0,0,0-.654-.188c.843.035,47.169,1.978,55.94-3.36,8.852-5.388,9.044-34.592,9.044-34.592.966-.158,1.643-.3,2.121-.431l.065.046A90.575,90.575,0,0,1,2320.373,1092.985Z" transform="translate(-1744.632 -829.188)" opacity="0.2"/>
    <path id="Path_8112" data-name="Path 8112" d="M2302.029,1084.131c-7.694,13.212-40.861,10.391-40.861,10.391s-12.446-3.529-16.037-.962a7.5,7.5,0,0,0-3.148,5.685,2.918,2.918,0,0,1-.858-2.04,3.232,3.232,0,0,1,1.316-2.8c9.46-7.047,19.228-1.124,19.228-1.124,19.351.912,31.074-4.3,36.273-7.424a6.567,6.567,0,0,0,3.183-5.642v-20.567l2.948.461C2304.172,1069.242,2302.029,1084.131,2302.029,1084.131Z" transform="translate(-1735.607 -829.21)" fill="#fff" opacity="0.3"/>
    <path id="Path_8113" data-name="Path 8113" d="M2313.73,913.6v0c-3.537-.966-7.785-3.683-8.471-11.088v-1.367c0-5.072-3.568-8.655-8.548-9.633-.1-.019-.635-.081-.743-.1-5.692-1.058-10.864.374-14.848,4.572-1.059,1.112-2.717,1.794-5.3.858,0,0-15.429-10.511-3.66-16.788l0,0s-.069,10.48,5.319,11.25C2277.484,891.314,2310.979,870.208,2313.73,913.6Z" transform="translate(-1749.679 -734.275)" opacity="0.2"/>
    <path id="Path_8114" data-name="Path 8114" d="M2313.735,936.153c-.5.239-.99.443-1.44.616a5.35,5.35,0,0,1-4.4-.25c-14.34-7.47-11.931-26.579-11.931-26.579s3.094-2.825,4.776-3.49C2300.884,906.392,2293.918,928.225,2313.735,936.153Z" transform="translate(-1764.519 -748.225)" opacity="0.2"/>
    <path id="Path_8115" data-name="Path 8115" d="M2352.433,971.211l-5.677,3.983c-.119.012-.181.019-.181.019a14.446,14.446,0,0,0,.127-11.5A9.451,9.451,0,0,1,2352.433,971.211Z" transform="translate(-1791.355 -778.499)" opacity="0.2"/>
    <path id="Path_8116" data-name="Path 8116" d="M2180.928,1117.682a8.536,8.536,0,0,1-5.173-3.587l-25.8-39.044a2.112,2.112,0,0,1,.335-2.725Z" transform="translate(-1687.229 -835.913)" opacity="0.2"/>
    <path id="Path_8117" data-name="Path 8117" d="M2261.351,1152.421l-43.219,6.373a8.911,8.911,0,0,1-1.232.089,8.327,8.327,0,0,1-1.936-.227l-.978-1.451,49.117-7.37a1.389,1.389,0,0,1,.034.181A2.122,2.122,0,0,1,2261.351,1152.421Z" transform="translate(-1721.264 -876.886)" opacity="0.2"/>
    <path id="Path_8118" data-name="Path 8118" d="M2115.713,682.422a46.9,46.9,0,0,0-14.567,34.093v1.462h-30.29v-1.456a48.156,48.156,0,0,0-14.968-34.483,43.247,43.247,0,0,1,21.7-73.459,43.245,43.245,0,0,1,38.126,73.842Z" transform="translate(-1630.747 -590.329)" fill="#ff9d00"/>
    <path id="Path_8119" data-name="Path 8119" d="M2070.857,718.894v-1.456a48.156,48.156,0,0,0-14.968-34.483,43.247,43.247,0,0,1,21.7-73.459c-5.006,3.17-39.138,26.355-22.916,59.619a50.022,50.022,0,0,0,7.185,10.744c3.961,4.581,13.258,16.9,20.96,39.035Z" transform="translate(-1630.747 -591.245)" fill="#3a3a3a" opacity="0.16"/>
    <path id="Path_8120" data-name="Path 8120" d="M2153.608,719.129v-1.456a48.155,48.155,0,0,1,14.969-34.483,43.247,43.247,0,0,0-21.7-73.459c5.006,3.17,39.139,26.355,22.916,59.618a50.017,50.017,0,0,1-7.185,10.745c-3.961,4.581-13.259,16.9-20.961,39.034Z" transform="translate(-1683.024 -591.369)" fill="#3a3a3a" opacity="0.16"/>
    <circle id="Ellipse_306" data-name="Ellipse 306" cx="7.151" cy="7.151" r="7.151" transform="translate(446.651 140.337) rotate(-13.282)" fill="#afafaf"/>
    <path id="Rectangle_1654" data-name="Rectangle 1654" d="M10.71,0h9.542a10.71,10.71,0,0,1,10.71,10.71v5.168A10.709,10.709,0,0,1,20.252,26.586H10.709A10.709,10.709,0,0,1,0,15.877V10.71A10.71,10.71,0,0,1,10.71,0Z" transform="translate(439.774 120.75)" fill="#d6d6d6"/>
    <path id="Path_8121" data-name="Path 8121" d="M2101.138,838.192h28.605a2.692,2.692,0,1,1,0,5.384h-28.605a2.692,2.692,0,0,1,0-5.384Z" transform="translate(-1660.186 -712.141)" fill="#afafaf"/>
    <path id="Path_8122" data-name="Path 8122" d="M2101.138,858.9h28.605a2.692,2.692,0,1,1,0,5.384h-28.605a2.692,2.692,0,0,1,0-5.384Z" transform="translate(-1660.186 -723.087)" fill="#afafaf"/>
    <path id="Path_8123" data-name="Path 8123" d="M2228.014,765.113c1.945.013,3.615,1.777,5.016,2.912,1.692,1.369,3.821,2.784,4.443,4.912a1.929,1.929,0,0,1-2.407,2.286c-2.064-.461-3.562-2.236-4.942-3.654-1.362-1.4-3.493-3.034-3.6-5.046A1.456,1.456,0,0,1,2228.014,765.113Z" transform="translate(-1727.894 -673.509)" fill="#ff9d00"/>
    <path id="Path_8124" data-name="Path 8124" d="M2248.628,707.1c1.228-1.236,3.393-1.084,5.066-1.219,2.183-.177,4.4-.39,6.171,1.005a1.558,1.558,0,0,1-.337,2.487c-1.657,1.207-3.9.75-5.834.586-1.651-.14-3.908-.115-5.066-1.366A1.037,1.037,0,0,1,2248.628,707.1Z" transform="translate(-1739.41 -642.128)" fill="#ff9d00"/>
    <path id="Path_8125" data-name="Path 8125" d="M2240.545,650.379c.647-1.644,2.167-2.637,3.6-3.661,1.885-1.35,3.571-2.47,5.972-2.665a1.484,1.484,0,0,1,1.1,2.526,14,14,0,0,1-4.688,2.807c-1.663.765-3.317,1.881-5.213,1.952A.769.769,0,0,1,2240.545,650.379Z" transform="translate(-1735.284 -609.51)" fill="#ff9d00"/>
    <path id="Path_8126" data-name="Path 8126" d="M2193.257,597.887a13.621,13.621,0,0,1,3.85-3.768c.967-.659,2.531.443,2.076,1.516a13.228,13.228,0,0,1-2.926,4.451c-1.139,1.148-2.373,2.66-4,3.138a.975.975,0,0,1-1.239-.9C2191.118,600.7,2192.345,599.221,2193.257,597.887Z" transform="translate(-1709.12 -583.011)" fill="#ff9d00"/>
    <path id="Path_8127" data-name="Path 8127" d="M2038.721,765.113c-1.946.013-3.615,1.777-5.017,2.912-1.692,1.369-3.82,2.784-4.443,4.912a1.929,1.929,0,0,0,2.407,2.286c2.063-.461,3.562-2.236,4.942-3.654,1.362-1.4,3.493-3.034,3.6-5.046A1.456,1.456,0,0,0,2038.721,765.113Z" transform="translate(-1623.574 -673.509)" fill="#ff9d00"/>
    <path id="Path_8128" data-name="Path 8128" d="M2016.948,707.1c-1.228-1.236-3.393-1.084-5.066-1.219-2.182-.177-4.4-.39-6.171,1.005a1.558,1.558,0,0,0,.337,2.487c1.657,1.207,3.9.75,5.834.586,1.651-.14,3.908-.115,5.066-1.366A1.037,1.037,0,0,0,2016.948,707.1Z" transform="translate(-1610.899 -642.128)" fill="#ff9d00"/>
    <path id="Path_8129" data-name="Path 8129" d="M2026.082,650.379c-.647-1.644-2.167-2.637-3.6-3.661-1.885-1.35-3.572-2.47-5.972-2.665a1.484,1.484,0,0,0-1.1,2.526,14,14,0,0,0,4.688,2.807c1.663.765,3.318,1.881,5.214,1.952A.769.769,0,0,0,2026.082,650.379Z" transform="translate(-1616.076 -609.51)" fill="#ff9d00"/>
    <path id="Path_8130" data-name="Path 8130" d="M2076.582,597.887a13.615,13.615,0,0,0-3.85-3.768c-.967-.659-2.531.443-2.076,1.516a13.222,13.222,0,0,0,2.926,4.451c1.139,1.148,2.373,2.66,4,3.138a.974.974,0,0,0,1.238-.9C2078.72,600.7,2077.493,599.221,2076.582,597.887Z" transform="translate(-1645.453 -583.011)" fill="#ff9d00"/>
    <path id="Path_8131" data-name="Path 8131" d="M2130.27,571.227a1.782,1.782,0,0,1,2.675.327c1.1,1.908.031,4.271-.317,6.289-.1.6.039,4.324-1.537,3.848-1.706-.515-1.736-3.042-1.94-4.455C2128.872,575.3,2128.514,572.609,2130.27,571.227Z" transform="translate(-1676.295 -570.776)" fill="#ff9d00"/>
    <rect id="Rectangle_1655" data-name="Rectangle 1655" width="1.459" height="49.598" transform="translate(449.691 71.115)" fill="#fff"/>
    <path id="Path_8132" data-name="Path 8132" d="M2119.211,728.084a4.316,4.316,0,1,1,4.316-4.315A4.32,4.32,0,0,1,2119.211,728.084Zm0-7.172a2.857,2.857,0,1,0,2.857,2.857A2.86,2.86,0,0,0,2119.211,720.912Z" transform="translate(-1668.882 -649.372)" fill="#fff"/>
    <rect id="Rectangle_1656" data-name="Rectangle 1656" width="1.459" height="49.598" transform="translate(459.537 71.115)" fill="#fff"/>
    <path id="Path_8133" data-name="Path 8133" d="M2140.1,728.084a4.316,4.316,0,1,1,4.315-4.315A4.32,4.32,0,0,1,2140.1,728.084Zm0-7.172a2.857,2.857,0,1,0,2.856,2.857A2.861,2.861,0,0,0,2140.1,720.912Z" transform="translate(-1679.925 -649.372)" fill="#fff"/>
    <circle id="Ellipse_307" data-name="Ellipse 307" cx="12.764" cy="12.764" r="12.764" transform="translate(426.206 36.126) rotate(-22.5)" fill="#ffb850"/>
    <path id="Path_8134" data-name="Path 8134" d="M1930.09,964.537v34.3s-1.956.23-5.177.591c-11.864,1.319-40.854-5.378-52.174-5.347-11.488.031-40.064,7-53.73,5.562-4.6-.483-7.508-.806-7.508-.806V963.486l7.508.069,105.9.936,5.169.046Z" transform="translate(-1508.497 -778.376)" fill="#2d267f"/>
    <path id="Path_8135" data-name="Path 8135" d="M2085.816,1008.08a5.243,5.243,0,1,1-10.46,0,5.544,5.544,0,0,1,4.068-5.473V940.775h2.325v61.833A5.544,5.544,0,0,1,2085.816,1008.08Z" transform="translate(-1647.98 -766.37)" fill="#2d267f"/>
    <path id="Path_8136" data-name="Path 8136" d="M1930.707,909.929,1902.5,917.49l-2.677.721h-.008l-5.169,1.388-52.174,13.989-53.731-14.41-7.508-2.009-26.988-7.24,85.581-34.074,7.454,2.792Z" transform="translate(-1478.231 -732.051)" fill="#2d267f"/>
    <path id="Path_8137" data-name="Path 8137" d="M1788.743,912.122v41.2c-4.6-.483-7.508-.806-7.508-.806V917.168l-26.988-7.24,85.581-34.075-67.443,32.686S1788.743,911.355,1788.743,912.122Z" transform="translate(-1478.231 -732.051)" fill="#fff" opacity="0.2"/>
    <path id="Path_8138" data-name="Path 8138" d="M2028.285,909.929l-28.207,7.24v.322l-2.677.721v34.3s-1.956.23-5.177.591V912.122c0-.767,17.1-3.581,17.1-3.581l-64.467-29.895-6.028-2.792Z" transform="translate(-1575.809 -732.051)" fill="#3d3d3d" opacity="0.1" style="mix-blend-mode: multiply;isolation: isolate"/>
    <ellipse id="Ellipse_308" data-name="Ellipse 308" cx="22.577" cy="4.387" rx="22.577" ry="4.387" transform="translate(72.289 453.718)" fill="#258dc1" opacity="0.4" style="mix-blend-mode: multiply;isolation: isolate"/>
    <ellipse id="Ellipse_309" data-name="Ellipse 309" cx="22.577" cy="4.387" rx="22.577" ry="4.387" transform="translate(28.078 455.156)" fill="#258dc1" opacity="0.4" style="mix-blend-mode: multiply;isolation: isolate"/>
    <path id="Path_8139" data-name="Path 8139" d="M1440.1,1175.5s4.341,3.276,5.433,4.262a1.536,1.536,0,0,1,.43.516c.158.378.363,2.378,2.029,3.142a17.5,17.5,0,0,0,2.9.941c1.07.275,2.305.262,3.095,1.044a4.919,4.919,0,0,1,.709,1.036,11.725,11.725,0,0,0,4.477,4.331,1.529,1.529,0,0,0,1.423.205c0-.217.006-.433.01-.65.306.1.492.406.737.616s.693.284.835-.009a.686.686,0,0,0,.019-.4q-.6-3.829-1.433-7.613a5.686,5.686,0,0,0-.4-1.292,5.744,5.744,0,0,0-.619-.928,37.136,37.136,0,0,0-2.673-3.236,4.52,4.52,0,0,0-1.169-.945,5.067,5.067,0,0,0-1.409-.4c-1.295-.234-5.222-.979-5.8-1.194-.943-.348-6.075-6.307-6.075-6.307Z" transform="translate(-1312.165 -886.815)" fill="#ffbe9d"/>
    <path id="Path_8140" data-name="Path 8140" d="M1332.838,1033.014c3.689,8.928,9.417,21.912,13.074,25.965,8.175,9.066,36.643,29.764,36.643,29.764l4.091-5.544.378-.51s-28.2-33.214-29.584-33.669c-1.193-.392-10.619-31.377-17.859-42.489a11.009,11.009,0,0,0-3.252-3.6c-3.183-1.768-4.933,2.059-5.894,6.931A40.26,40.26,0,0,0,1332.838,1033.014Z" transform="translate(-1253.803 -798.999)" fill="url(#linear-gradient-28)"/>
    <path id="Path_8141" data-name="Path 8141" d="M1347.289,1506.873a53.623,53.623,0,0,1-.306,6.718c-.351,1.76-6.023,1.193-6.567.191s.134-9.2.134-9.2Z" transform="translate(-1259.354 -1064.419)" fill="#ffccb0"/>
    <path id="Path_8142" data-name="Path 8142" d="M1337.007,1523.786c-.155,1.859-.145,5.37-.145,5.37l5.815,1.4.139-.185a1,1,0,0,1,1.368-.228,9.076,9.076,0,0,0,2.65,1.288,22.791,22.791,0,0,0,5.484.529c4.8-.321,8.118-1.819,8.284-2.522.689-2.937-5.7-2.568-7-2.676a8.422,8.422,0,0,1-6.972-4.9c-.528-1.384-.217-1.7-1.01-1.512a1.93,1.93,0,0,0-1.239.872,3.465,3.465,0,0,1-3.68,1.567,4.149,4.149,0,0,1-2.2-1.257A2.393,2.393,0,0,0,1337.007,1523.786Z" transform="translate(-1257.587 -1072.731)" fill="url(#linear-gradient-29)"/>
    <path id="Path_8143" data-name="Path 8143" d="M1317.95,1337.164c1.023,2.143,2.05,4.174,3.062,6.026A59.333,59.333,0,0,0,1317.95,1337.164Z" transform="translate(-1247.589 -975.915)" fill="#1947b7"/>
    <path id="Path_8144" data-name="Path 8144" d="M1243.851,1510.234s-.22,8.221.378,9.191,6.294,1.22,6.547-.557.895-8.768.895-8.768Z" transform="translate(-1208.397 -1067.335)" fill="#ffccb0"/>
    <path id="Path_8145" data-name="Path 8145" d="M1241.253,1528.926a38,38,0,0,0,.189,4.928l6.552.44h0a1,1,0,0,1,1.375-.558,8.256,8.256,0,0,0,2.742.834l5.531.371c4.049.272,6.382-.089,6.532-.795.628-2.949-4.218-3.138-5.478-3.223-3.616-.243-7.417-2.2-8.148-4.092-.529-1.374-.233-1.693-1-1.493a1.88,1.88,0,0,0-1.188.894,3.328,3.328,0,0,1-3.542,1.635,3.965,3.965,0,0,1-2.142-1.217A2.4,2.4,0,0,0,1241.253,1528.926Z" transform="translate(-1207.029 -1075.362)" fill="url(#linear-gradient-30)"/>
    <path id="Path_8146" data-name="Path 8146" d="M1226.2,1190.046a30.833,30.833,0,0,0,2.3,8.456c1.775,3.9,3.71,5.121,3.869,7.943,1.984,35.142,6.987,46.053,7.09,53.733v0c-8.754,35.125-6.078,70.184-6.078,70.184s.926.2,2.25.392a29.713,29.713,0,0,0,4.275.322,10.832,10.832,0,0,0,2.867-.35s9.052-43.609,13.054-65.34a13.312,13.312,0,0,1,.52-1.855,3.058,3.058,0,0,0,.128-.475c.836-4.268,2.555-15.959,4.233-29.238a2.037,2.037,0,0,1,2.462-1.75h0a1.971,1.971,0,0,1,1.449,1.2c1.526,3.581,3.1,7.142,4.677,10.439a.014.014,0,0,0,0,.007.1.1,0,0,0,.014.024,59.318,59.318,0,0,1,3.062,6.026c.035.077.066.152.1.229l1.581,37.465c3.956,16.4,4.944,40.606,4.944,40.606a.066.066,0,0,1,.017,0,24.07,24.07,0,0,0,3.141.365s.007,0,.01,0a23.622,23.622,0,0,0,3.526-.073,16.54,16.54,0,0,0,2.566-.423s5.482-62.674,3.859-73.661c-.686-4.663-2.282-15.63-3.075-21.073-.028-.2-.059-.4-.087-.607-.014-.1-.031-.208-.045-.312-.073-.489-.142-.981-.215-1.481-.017-.124-.035-.239-.049-.336-.01-.08-.024-.16-.034-.243,0-.031-.01-.059-.014-.09s-.01-.066-.014-.1a.021.021,0,0,0,0-.014c-2.916-20.029-7.694-47.187-12.451-61.464h0c-.624-1.883-1.251-3.54-1.872-4.927l-30.922-3.19q-.645,1.919-1.169,3.714l-10.772,1.543S1224.548,1178.49,1226.2,1190.046Z" transform="translate(-1198.951 -882.495)" fill="url(#linear-gradient-31)"/>
    <path id="Path_8147" data-name="Path 8147" d="M1225.665,1039.274c1.411,7.468,5.013,25.972,5.013,30.437s-2.4,6.379-1.279,7.676c2.507,2.9,19.651,4.123,27.7,4.123,5.256,0,13.213-1.03,17.328-2.479l.014-.007c1.484-.527,2.465-1.11,2.631-1.719.919-3.4-1.4-3.277-1.712-6.848s-2-27.123.1-30.545c3.328-5.433,6.636-19.745,6.889-23.836.146-2.344,1.349-6.618,1.824-10.45v-.01a21.259,21.259,0,0,0,.187-2.621c.007-.2,0-.392,0-.579,0-.014,0-.028,0-.042a8.854,8.854,0,0,0-.246-1.879c0-.014-.007-.024-.01-.038a.1.1,0,0,0-.007-.034,4.044,4.044,0,0,0-.818-1.651c-2.146-2.458-7.836-6.13-15.7-7.575-.537-.1-1.085-.187-1.643-.264a37.625,37.625,0,0,0-6.345-.336c-2.118.065-5.177.2-8.595.471-6.324.489-13.875,1.407-18.965,3.082-2.836.936-4.909,2.1-5.575,3.568C1225.165,1000.533,1223.793,1029.341,1225.665,1039.274Z" transform="translate(-1198.32 -792.698)" fill="url(#linear-gradient-32)"/>
    <path id="Path_8148" data-name="Path 8148" d="M1217.489,1219.308h-27.374a.027.027,0,0,1-.026-.035h0a10.373,10.373,0,0,0,0-6.216h0a.027.027,0,0,1,.026-.035h27.374a.027.027,0,0,1,.027.027v6.232A.027.027,0,0,1,1217.489,1219.308Z" transform="translate(-1179.997 -910.289)" fill="url(#linear-gradient-7)"/>
    <rect id="Rectangle_1657" data-name="Rectangle 1657" width="23.156" height="0.727" transform="translate(9.784 302.139)" fill="url(#linear-gradient-34)"/>
    <rect id="Rectangle_1658" data-name="Rectangle 1658" width="23.28" height="0.727" transform="translate(9.76 309.002)" fill="url(#linear-gradient-9)"/>
    <path id="Path_8149" data-name="Path 8149" d="M1235.086,1211.756h24.086s3.323,3.894,0,7.629h-23.935A7.131,7.131,0,0,0,1235.086,1211.756Z" transform="translate(-1203.785 -909.62)" fill="url(#linear-gradient-10)"/>
    <path id="Path_8150" data-name="Path 8150" d="M1236.6,1211.756h23.88s3.294,3.894,0,7.629h-23.73A7.182,7.182,0,0,0,1236.6,1211.756Z" transform="translate(-1204.584 -909.62)" fill="url(#linear-gradient-37)"/>
    <path id="Path_8151" data-name="Path 8151" d="M1223.763,1218.543a5.042,5.042,0,0,0-.433,2.681l1.267-.862,1.14.836s-.1-2.342.374-2.889a.069.069,0,0,0-.05-.115l-1.631-.017A.768.768,0,0,0,1223.763,1218.543Z" transform="translate(-1197.568 -913.014)" fill="url(#linear-gradient-38)"/>
    <path id="Path_8152" data-name="Path 8152" d="M1219.832,1187.042h27.374a.027.027,0,0,0,.026-.035h0a10.372,10.372,0,0,1,0-6.216h0a.027.027,0,0,0-.026-.035h-27.374a.027.027,0,0,0-.027.027v6.233A.027.027,0,0,0,1219.832,1187.042Z" transform="translate(-1195.707 -893.232)" fill="url(#linear-gradient-39)"/>
    <rect id="Rectangle_1659" data-name="Rectangle 1659" width="23.156" height="0.727" transform="translate(51.833 287.657) rotate(180)" fill="url(#linear-gradient-40)"/>
    <rect id="Rectangle_1660" data-name="Rectangle 1660" width="23.28" height="0.727" transform="translate(51.858 294.519) rotate(180)" fill="url(#linear-gradient-41)"/>
    <path id="Path_8153" data-name="Path 8153" d="M1204.328,1179.489h-24.087s-3.322,3.894,0,7.629h23.936A7.13,7.13,0,0,1,1204.328,1179.489Z" transform="translate(-1174.011 -892.563)" fill="url(#linear-gradient-16)"/>
    <path id="Path_8154" data-name="Path 8154" d="M1203.061,1179.489h-23.88s-3.294,3.894,0,7.629h23.731A7.182,7.182,0,0,1,1203.061,1179.489Z" transform="translate(-1173.458 -892.563)" fill="url(#linear-gradient-17)"/>
    <path id="Path_8155" data-name="Path 8155" d="M1241.175,1186.276a5.043,5.043,0,0,1,.433,2.681l-1.267-.862-1.14.836s.1-2.342-.374-2.889a.069.069,0,0,1,.05-.115l1.631-.017A.768.768,0,0,1,1241.175,1186.276Z" transform="translate(-1205.753 -895.957)" fill="url(#linear-gradient-44)"/>
    <path id="Path_8156" data-name="Path 8156" d="M1228.57,1203.111h27.374a.027.027,0,0,0,.026-.035h0a10.373,10.373,0,0,1,0-6.216h0a.027.027,0,0,0-.026-.035H1228.57a.027.027,0,0,0-.027.027v6.233A.027.027,0,0,0,1228.57,1203.111Z" transform="translate(-1200.326 -901.727)" fill="url(#linear-gradient-45)"/>
    <rect id="Rectangle_1661" data-name="Rectangle 1661" width="23.156" height="0.727" transform="translate(55.952 295.231) rotate(180)" fill="url(#linear-gradient-46)"/>
    <rect id="Rectangle_1662" data-name="Rectangle 1662" width="23.28" height="0.727" transform="translate(55.977 302.094) rotate(180)" fill="url(#linear-gradient-47)"/>
    <path id="Path_8157" data-name="Path 8157" d="M1213.066,1195.558h-24.087s-3.322,3.894,0,7.629h23.935A7.133,7.133,0,0,1,1213.066,1195.558Z" transform="translate(-1178.63 -901.057)" fill="url(#linear-gradient-22)"/>
    <path id="Path_8158" data-name="Path 8158" d="M1211.8,1195.558h-23.881s-3.294,3.894,0,7.629h23.731A7.183,7.183,0,0,1,1211.8,1195.558Z" transform="translate(-1178.077 -901.057)" fill="url(#linear-gradient-49)"/>
    <path id="Path_8159" data-name="Path 8159" d="M1249.913,1202.345a5.047,5.047,0,0,1,.434,2.681l-1.268-.862-1.14.836s.1-2.342-.375-2.889a.069.069,0,0,1,.051-.115l1.631-.017A.767.767,0,0,1,1249.913,1202.345Z" transform="translate(-1210.372 -904.452)" fill="url(#linear-gradient-50)"/>
    <path id="Path_8160" data-name="Path 8160" d="M1232.33,1057.2c-.853,1.776-6.651,11.1-6.651,11.1l-.235,1.115a46.366,46.366,0,0,0,.59,4.982c1.408,7.469,5.013,25.971,5.013,30.437s-2.4,6.379-1.279,7.676c1,1.161,4.355,2.048,8.517,2.7a10.769,10.769,0,0,1-1.924-2.77c-.334-1.311,1.859-.976,2.26-2.079s-4.977-22.689-6.29-33.059S1233.184,1055.418,1232.33,1057.2Z" transform="translate(-1198.688 -827.817)" fill="#5ab5e2" opacity="0.3" style="mix-blend-mode: multiply;isolation: isolate"/>
    <path id="Path_8161" data-name="Path 8161" d="M1354.184,1086.314c-2.816-2.492-11.751-28.914-11.751-28.914l-2.15,9.045c3.569,8.34,8.133,18.133,11.222,21.557,8.175,9.065,36.642,29.764,36.642,29.764l1.74-2.356S1357,1088.806,1354.184,1086.314Z" transform="translate(-1259.396 -828.022)" fill="#5ab5e2" opacity="0.3" style="mix-blend-mode: multiply;isolation: isolate"/>
    <path id="Path_8162" data-name="Path 8162" d="M1206.455,1199.692a10.014,10.014,0,0,1,1.391,6.263c-.117,1.055-.4,2.092-.431,3.153a6.6,6.6,0,0,0,1.355,4.164,5.158,5.158,0,0,1,1.32,2.128,2.58,2.58,0,0,1-1.042,2.284,3.225,3.225,0,0,0,2.921.767,3.129,3.129,0,0,1,2.287.476,1.861,1.861,0,0,0,.714.258,1.968,1.968,0,0,0,1.937-.966,1.876,1.876,0,0,1,.4-.622c.389-.3.939-.066,1.42.037,1.688.362,3.3-1.26,3.521-2.973a7.881,7.881,0,0,0-1.428-4.877c-1.82-3.081-6.36-6.947-6.957-8.1-.916-1.771-2.625-5.257-2.625-5.257Z" transform="translate(-1188.65 -901.515)" fill="#ffbe9d"/>
    <path id="Path_8163" data-name="Path 8163" d="M1168.681,1059.359c.055,8.883,18.993,40.343,18.993,40.343l1.4-.877,3.158-1.976,1.508-.943-10.651-38.817s19.894-30.621,21.2-35.278c0,0,6.723-10.054.607-20.271a20.7,20.7,0,0,0-2.129-2.937c-.115-.132-.232-.263-.35-.4,0,0-6.487,2.143-9.725,6.38C1182.532,1017.9,1168.622,1050.473,1168.681,1059.359Z" transform="translate(-1168.68 -796.731)" fill="url(#linear-gradient-51)"/>
    <path id="Path_8164" data-name="Path 8164" d="M1260.078,919.589a6.039,6.039,0,0,0,3.817,4.684,3.346,3.346,0,0,0,1.086.17,15.069,15.069,0,0,0,2.888,4.538,7.291,7.291,0,0,0,1.723,1.328,5.672,5.672,0,0,0,1.009.444c2.888.936,6.109.329,9.014-.194.645-.115,1.29-.236,1.931-.361.873-.166,1.747-.34,2.625-.5.353-.069.707-.131,1.061-.2a5.25,5.25,0,0,0,3.058-1.55c3.959-3.387,2.2-10.807,1.126-14.857-.822-3.106-1.557-6.327-2.687-9.34-.333-.891-.929-3.155-1.675-5.332a18.312,18.312,0,0,0-1.733-3.942c-.756-1.137-2.507-1.422-4.33-1.491a21.3,21.3,0,0,0-9.424,1.848l-11.608,5.131,3.675,13.345.551,2C1260.567,915.5,1259.694,917.544,1260.078,919.589Z" transform="translate(-1215.877 -741.099)" fill="#ffbe9d"/>
    <path id="Path_8165" data-name="Path 8165" d="M1278.111,962.224c.534,4.424,1.147,9.6,1.147,10.055a.507.507,0,0,1-.042.2,2.535,2.535,0,0,0,1.345,3.1c.412.2.849.423,1.307.648,3.814,1.89,8.931,4.389,11.074,5.267.315.128.565.218.738.27,1.241.368,2.229-2.312,2.85-4.667a4.482,4.482,0,0,0-1.578-4.59c-.028-.021-.052-.045-.072-.063-.33-.329-.44-7.1-.468-9.5-.007-.52-.01-.835-.01-.835l-1.706-.624-14.021-5.131-1.342-.493S1277.7,958.816,1278.111,962.224Z" transform="translate(-1226.119 -774.342)" fill="#ffbe9d"/>
    <path id="Path_8166" data-name="Path 8166" d="M1262.353,942.4a6.039,6.039,0,0,0,3.817,4.684,3.345,3.345,0,0,0,1.086.17,15.069,15.069,0,0,0,2.888,4.538c.533,4.424,1.147,9.6,1.147,10.055a.5.5,0,0,1-.042.2,2.536,2.536,0,0,0,1.345,3.1c.412.2.85.423,1.307.648l-2.035-12.672-1.158-7.2-1.085-6.75-1.29-2.58-4.424-.464.551,2C1262.842,938.309,1261.968,940.354,1262.353,942.4Z" transform="translate(-1218.151 -763.91)" fill="#5ab5e2" opacity="0.3" style="mix-blend-mode: multiply;isolation: isolate"/>
    <path id="Path_8167" data-name="Path 8167" d="M1256.584,906.186a25.289,25.289,0,0,0,2.42,4.046,1.059,1.059,0,0,1,.426-.339,1.766,1.766,0,0,1,2.119.385,7.483,7.483,0,0,0,1.622,1.435c.919.555,1.865.579,2.309-1.127,1-3.831-1.986-8.474.416-12.974,1.8-3.374,17.446-3.748,22.526-6.636a2.848,2.848,0,0,0,1.536-1.647,2.553,2.553,0,0,0-.884-2.278c-6.238-6.9-20.886-6.917-30.486,1.636C1252.354,894.239,1254.389,901.662,1256.584,906.186Z" transform="translate(-1214.008 -735.331)" fill="url(#linear-gradient-52)"/>
    <path id="Path_8168" data-name="Path 8168" d="M1350.713,1016.443l15.644,38.616,31.2,32.59.146.059.378-.51s-28.2-33.214-29.584-33.669c-1.193-.392-10.62-31.377-17.859-42.489l-.017-.014A16.532,16.532,0,0,1,1350.713,1016.443Z" transform="translate(-1264.862 -803.508)" fill="#fff" opacity="0.35"/>
    <path id="Path_8169" data-name="Path 8169" d="M1193.866,1060.336l11.684,40.245,1.509-.943-10.651-38.817s19.894-30.621,21.2-35.278c0,0,6.723-10.054.607-20.271l-.021,0s1.592,10.508-.921,14.13c-.277.4-.558.8-.8,1.217Z" transform="translate(-1181.995 -800.463)" fill="#fff" opacity="0.35"/>
    <path id="Path_8170" data-name="Path 8170" d="M1168.681,1059.359c.055,8.883,18.993,40.343,18.993,40.343l1.4-.877c-14.649-23.077-18.174-42.628-18.174-42.628.229-6.355,17.97-42.412,17.97-42.412,4.854-11.355,14.041-14.735,14.041-14.735l-.142-.447c-.115-.132-.232-.263-.35-.4,0,0-6.487,2.143-9.725,6.38C1182.532,1017.9,1168.622,1050.473,1168.681,1059.359Z" transform="translate(-1168.68 -796.731)" fill="#5ab5e2" opacity="0.3" style="mix-blend-mode: multiply;isolation: isolate"/>
    <path id="Path_8171" data-name="Path 8171" d="M1315.567,991.9a8.86,8.86,0,0,1,.967,1.494l3.093.991c10.568,3.6,12.457,11.5,12.551,11.927a.063.063,0,0,1,0,.018,12.312,12.312,0,0,0,.184-2.639,17.169,17.169,0,0,0-.264-2.538.094.094,0,0,0-.007-.034,4.04,4.04,0,0,0-.818-1.651c-2.146-2.458-7.836-6.13-15.7-7.575Z" transform="translate(-1246.33 -793.391)" fill="#fff" opacity="0.35"/>
    <path id="Path_8172" data-name="Path 8172" d="M1240.175,994.679c.315.482.534.867.534.867,7.454-1.387,18.918-2.435,18.918-2.435a6.367,6.367,0,0,1-.2-.758,5.14,5.14,0,0,1,.085-.774l-.369.018C1252.816,992.086,1245.265,993,1240.175,994.679Z" transform="translate(-1206.475 -793.227)" fill="#5ab5e2" opacity="0.3" style="mix-blend-mode: multiply;isolation: isolate"/>
    <path id="Path_8173" data-name="Path 8173" d="M1326,1093.08l-.114.347,1.421-.409.014-.007c1.484-.527,2.465-1.11,2.631-1.719.919-3.4-1.4-3.277-1.712-6.848s-2-27.123.1-30.545c3.328-5.433,6.636-19.745,6.889-23.836.146-2.344,1.349-6.618,1.824-10.45v0l-.995-2.573a126.387,126.387,0,0,1-11.268,37.732l1.126,31.637C1328.345,1088.92,1326,1093.08,1326,1093.08Z" transform="translate(-1251.206 -806.685)" fill="#5ab5e2" opacity="0.3" style="mix-blend-mode: multiply;isolation: isolate"/>
    <path id="Path_8174" data-name="Path 8174" d="M1271.866,1179.992l.411,2.516s16.967,2.42,25.749-.008c0,0,14.908,72.923,14.908,87.717l-2.964,67.251a16.529,16.529,0,0,0,2.566-.423s5.481-62.674,3.859-73.661c-.686-4.663-2.281-15.63-3.075-21.073-.028-.2-.059-.4-.087-.607-.014-.1-.031-.208-.045-.312-.073-.489-.142-.981-.215-1.481-.017-.124-.034-.239-.048-.336-.01-.08-.024-.159-.035-.243,0-.031-.01-.059-.014-.09s-.01-.066-.014-.1a.022.022,0,0,0,0-.014c-2.916-20.029-7.694-47.187-12.451-61.464h0C1299.652,1177.94,1288.234,1181.157,1271.866,1179.992Z" transform="translate(-1223.228 -891.597)" fill="#fff" opacity="0.15"/>
    <path id="Path_8175" data-name="Path 8175" d="M1304.917,1312.378a1.971,1.971,0,0,1,1.449,1.2c1.526,3.581,3.1,7.142,4.677,10.439a.013.013,0,0,0,0,.007.1.1,0,0,0,.014.024,59.268,59.268,0,0,1,3.061,6.026c.035.076.066.152.1.229l1.581,37.465c3.956,16.4,4.944,40.606,4.944,40.606a.065.065,0,0,1,.018,0,11.874,11.874,0,0,0,3.141.364s.007,0,.01,0a2.588,2.588,0,0,0,.364-.063s-2.889-36.23-5.489-41.778l-1.213-36.924s-8.668-16.3-12.4-17.6A.414.414,0,0,0,1304.917,1312.378Z" transform="translate(-1240.7 -962.802)" fill="#5ab5e2" opacity="0.6" style="mix-blend-mode: multiply;isolation: isolate"/>
    <path id="Path_8176" data-name="Path 8176" d="M1255.555,1413.371a10.836,10.836,0,0,0,2.867-.35s9.052-43.609,13.053-65.34a13.306,13.306,0,0,1,.52-1.855,3.055,3.055,0,0,0,.128-.475c.836-4.268,2.555-15.959,4.233-29.238Z" transform="translate(-1214.605 -964.787)" fill="#fff" opacity="0.15"/>
    <path id="Path_8177" data-name="Path 8177" d="M1242.315,1302.051v0c-8.754,35.125-6.078,70.184-6.078,70.184s.926.2,2.25.392l7.035-70.916c-2.309-3.928-8.377-54.894-8.377-54.894-1.733-2.08-2.6-7.167-2.6-7.167-1.966,1.5-3.179.638-3.179.638l-.01.083c1.775,3.9,3.71,5.121,3.869,7.943C1237.208,1283.46,1242.211,1294.371,1242.315,1302.051Z" transform="translate(-1201.813 -924.368)" fill="#5ab5e2" opacity="0.6" style="mix-blend-mode: multiply;isolation: isolate"/>
    <path id="Path_8178" data-name="Path 8178" d="M1307.749,934.68l.118,1.629.693,9.465s2.628,1.675,2.195,4.1a20.384,20.384,0,0,1-1.734,4.483c.315.128.565.218.739.27,1.241.368,2.229-2.312,2.85-4.667a4.483,4.483,0,0,0-1.578-4.59c-.028-.021-.052-.045-.072-.063-.33-.329-.44-7.1-.468-9.5.354-.069.707-.131,1.061-.2a5.25,5.25,0,0,0,3.058-1.55c3.959-3.387,2.2-10.807,1.126-14.857-.822-3.106-1.556-6.327-2.687-9.34-.333-.891-.929-3.155-1.675-5.332l-1.775.333,5.083,21.724s.947,5.27-5.908,7.76C1308.453,934.465,1308.11,934.575,1307.749,934.68Z" transform="translate(-1242.197 -747.21)" fill="#fff" opacity="0.3"/>
    <path id="Path_8179" data-name="Path 8179" d="M1256.584,906.186c-1.639-15.977,5.37-16.607,12.922-20.83,9.1-5.09,17.952,1.754,20.452,3.973a2.553,2.553,0,0,0-.884-2.278c-6.238-6.9-20.886-6.917-30.486,1.636C1252.354,894.239,1254.389,901.662,1256.584,906.186Z" transform="translate(-1214.008 -735.331)" fill="#5ab5e2" opacity="0.28" style="mix-blend-mode: multiply;isolation: isolate"/>
    <path id="Path_8180" data-name="Path 8180" d="M2439.575,756.216l.014,2.6a3.4,3.4,0,0,1-3.381,3.416h0a3.4,3.4,0,0,1-3.416-3.381l-.013-2.6a3.4,3.4,0,0,0-3.417-3.381l-3.827.02a3.4,3.4,0,0,1-3.416-3.381l0-.365a3.4,3.4,0,0,1,3.381-3.416l3.828-.02a3.4,3.4,0,0,0,3.381-3.416l-.014-2.63a3.4,3.4,0,0,1,3.381-3.416h0a3.4,3.4,0,0,1,3.416,3.381l.014,2.63a3.4,3.4,0,0,0,3.416,3.381l3.385-.018A3.4,3.4,0,0,1,2449.72,749l0,.364a3.4,3.4,0,0,1-3.381,3.416l-3.385.017A3.4,3.4,0,0,0,2439.575,756.216Z" transform="translate(-1831.289 -658.25)" fill="#fff"/>
    <path id="Path_8181" data-name="Path 8181" d="M2394.966,797.119l.009,1.745a2.276,2.276,0,0,1-2.264,2.288h0a2.276,2.276,0,0,1-2.288-2.264l-.009-1.744a2.277,2.277,0,0,0-2.288-2.265l-2.564.014a2.277,2.277,0,0,1-2.289-2.264v-.244a2.276,2.276,0,0,1,2.264-2.288l2.564-.013a2.276,2.276,0,0,0,2.264-2.288l-.009-1.762a2.276,2.276,0,0,1,2.264-2.288h0a2.276,2.276,0,0,1,2.288,2.264l.009,1.762a2.276,2.276,0,0,0,2.288,2.264l2.268-.011a2.276,2.276,0,0,1,2.288,2.264v.244a2.276,2.276,0,0,1-2.265,2.288l-2.267.012A2.276,2.276,0,0,0,2394.966,797.119Z" transform="translate(-1810.755 -683.358)" fill="#fff"/>
    <path id="Path_8182" data-name="Path 8182" d="M2439.448,837.91l.012,2.4a3.13,3.13,0,0,1-3.114,3.147h0a3.13,3.13,0,0,1-3.146-3.114l-.013-2.4a3.131,3.131,0,0,0-3.147-3.114l-3.526.018a3.13,3.13,0,0,1-3.146-3.114l0-.336a3.131,3.131,0,0,1,3.114-3.147l3.526-.018a3.13,3.13,0,0,0,3.114-3.147l-.012-2.423a3.13,3.13,0,0,1,3.114-3.146h0a3.13,3.13,0,0,1,3.146,3.114l.013,2.423a3.131,3.131,0,0,0,3.147,3.114l3.119-.016a3.13,3.13,0,0,1,3.146,3.114l0,.336a3.13,3.13,0,0,1-3.114,3.147l-3.119.016A3.13,3.13,0,0,0,2439.448,837.91Z" transform="translate(-1831.95 -702.268)" fill="#fff"/>
    <path id="Path_8183" data-name="Path 8183" d="M1493.575,682.216l.014,2.6a3.4,3.4,0,0,1-3.381,3.416h0a3.4,3.4,0,0,1-3.416-3.381l-.013-2.6a3.4,3.4,0,0,0-3.416-3.38l-3.828.02a3.4,3.4,0,0,1-3.417-3.381l0-.365a3.4,3.4,0,0,1,3.381-3.416l3.828-.02a3.4,3.4,0,0,0,3.381-3.416l-.014-2.63a3.4,3.4,0,0,1,3.38-3.416h0a3.4,3.4,0,0,1,3.417,3.381l.014,2.63a3.4,3.4,0,0,0,3.416,3.381l3.385-.018A3.4,3.4,0,0,1,1503.72,675l0,.364a3.4,3.4,0,0,1-3.381,3.416l-3.385.017A3.4,3.4,0,0,0,1493.575,682.216Z" transform="translate(-1331.201 -619.131)" fill="#ff9d00"/>
    <path id="Path_8184" data-name="Path 8184" d="M1448.965,723.119l.009,1.745a2.277,2.277,0,0,1-2.265,2.288h0a2.276,2.276,0,0,1-2.288-2.264l-.009-1.744a2.277,2.277,0,0,0-2.288-2.265l-2.564.014a2.276,2.276,0,0,1-2.288-2.264v-.244a2.276,2.276,0,0,1,2.264-2.288l2.564-.013a2.276,2.276,0,0,0,2.265-2.288l-.009-1.762a2.276,2.276,0,0,1,2.264-2.288h0a2.277,2.277,0,0,1,2.289,2.264l.009,1.762a2.276,2.276,0,0,0,2.288,2.264l2.268-.011a2.276,2.276,0,0,1,2.288,2.264v.244a2.276,2.276,0,0,1-2.264,2.288l-2.267.012A2.276,2.276,0,0,0,1448.965,723.119Z" transform="translate(-1310.667 -644.239)" fill="#ff9d00"/>
    <path id="Path_8185" data-name="Path 8185" d="M1493.448,763.91l.013,2.4a3.131,3.131,0,0,1-3.114,3.147h0a3.13,3.13,0,0,1-3.147-3.114l-.013-2.4a3.131,3.131,0,0,0-3.147-3.114l-3.526.018a3.131,3.131,0,0,1-3.147-3.114l0-.336a3.131,3.131,0,0,1,3.114-3.147l3.526-.018a3.13,3.13,0,0,0,3.114-3.147l-.012-2.423a3.13,3.13,0,0,1,3.114-3.146h0a3.131,3.131,0,0,1,3.147,3.114l.013,2.423a3.13,3.13,0,0,0,3.147,3.114l3.119-.016a3.131,3.131,0,0,1,3.147,3.114l0,.336a3.131,3.131,0,0,1-3.114,3.147l-3.119.016A3.131,3.131,0,0,0,1493.448,763.91Z" transform="translate(-1331.862 -663.149)" fill="#ff9d00"/>
  </g>
</svg>
