<svg xmlns="http://www.w3.org/2000/svg" width="23" height="24" viewBox="0 0 23 24"><defs><style>.a{fill:#fff;stroke:#000;}.b{fill:#1b1b1b;}.c{stroke:none;}.d{fill:none;}</style></defs><g transform="translate(-0.467 0.1)"><g class="a" transform="translate(0.467 -0.1)"><rect class="c" width="23" height="24"/><rect class="d" x="0.5" y="0.5" width="22" height="23"/></g><g transform="translate(7.893 6.381)"><path class="b" d="M142.686,112.136l-3.427-1.985-3.4-1.961a1.358,1.358,0,0,0-1.04-.142,1.38,1.38,0,0,0-.827.638,1.4,1.4,0,0,0-.142.331c-.024.071-.024.165-.047.26v8.129a1.4,1.4,0,0,0,.4.969,1.338,1.338,0,0,0,.969.4,2.328,2.328,0,0,0,.78-.26l3.356-1.938h.024l.024-.024,3.474-2.009a1.361,1.361,0,0,0,.638-.851.886.886,0,0,0,.024-.26A1.791,1.791,0,0,0,142.686,112.136Zm-.473,1.394-3.427,1.985a.083.083,0,0,0-.047.024l-3.356,1.938a.451.451,0,0,1-.189.071.336.336,0,0,1-.142-.047.253.253,0,0,1-.047-.142V109.3a.023.023,0,0,1,.024-.024.083.083,0,0,0,.024-.047c.024-.024.071-.047.095-.071h.118c.024.024.047.024.071.047l3.356,1.938a.073.073,0,0,0,.047.024h.024l3.427,1.985c.047.024.142.095.142.165A.271.271,0,0,1,142.213,113.53Z" transform="translate(-133.8 -108)"/></g></g></svg>