<svg id="play" xmlns="http://www.w3.org/2000/svg" width="24" height="24" viewBox="0 0 24 24">
  <path id="Path_7677" data-name="Path 7677" d="M248.5,0V24a12,12,0,0,0,0-24Z" transform="translate(-236.5)" fill="#c10500"/>
  <path id="Path_7678" data-name="Path 7678" d="M22.551,12C22.551,5.373,17.827,0,12,0a12,12,0,0,0,0,24C17.827,24,22.551,18.627,22.551,12Z" fill="#f62620"/>
  <path id="Path_7679" data-name="Path 7679" d="M198.717,125.154l-8.219-4.746a1.457,1.457,0,0,0-.826-.191V132.6a1.455,1.455,0,0,0,.826-.191l8.219-4.745a1.448,1.448,0,0,0,0-2.51Z" transform="translate(-180.513 -114.409)" fill="#c10500"/>
  <path id="Path_7680" data-name="Path 7680" d="M170.783,127.731a1.564,1.564,0,0,0,0-2.51l-7.148-4.746a1.153,1.153,0,0,0-.542-.191,1.448,1.448,0,0,0-1.348,1.446s0,9.491,0,9.491a1.448,1.448,0,0,0,1.349,1.446,1.151,1.151,0,0,0,.542-.191Z" transform="translate(-153.934 -114.476)" fill="#fff"/>
</svg>
