<svg id="student" xmlns="http://www.w3.org/2000/svg" width="17.693" height="18.873" viewBox="0 0 17.693 18.873">
  <path id="Path_7658" data-name="Path 7658" d="M32.588,336.156a.548.548,0,0,1-.553.553H16.553a.548.548,0,0,1-.553-.553A6.156,6.156,0,0,1,22.082,330a.562.562,0,0,1,.464.243l1.747,2.632,1.747-2.632a.562.562,0,0,1,.464-.243A6.156,6.156,0,0,1,32.588,336.156Z" transform="translate(-16 -317.836)" fill="#0a4eaf"/>
  <path id="Path_7659" data-name="Path 7659" d="M249.294,336.156a.548.548,0,0,1-.553.553H241v-3.834l1.747-2.632a.562.562,0,0,1,.464-.243A6.156,6.156,0,0,1,249.294,336.156Z" transform="translate(-232.706 -317.836)" fill="#063e8b"/>
  <path id="Path_7660" data-name="Path 7660" d="M176.22,292.738l-.243-.487a.54.54,0,0,0-.7-.265,3.53,3.53,0,0,1-2.632,0,.54.54,0,0,0-.7.265l-.243.487-.31.63,2.566,3.848,2.566-3.848Z" transform="translate(-165.67 -281.182)" fill="#ffcf99"/>
  <path id="Path_7661" data-name="Path 7661" d="M317.793,421.106h-1.106a.553.553,0,0,1,0-1.106h1.106A.553.553,0,0,1,317.793,421.106Z" transform="translate(-305.076 -404.518)" fill="#c5c9f7"/>
  <path id="Path_7662" data-name="Path 7662" d="M243.566,293.369,241,297.218v-4.976a3.659,3.659,0,0,0,1.316-.254.54.54,0,0,1,.7.266l.243.487Z" transform="translate(-232.706 -281.183)" fill="#ffc380"/>
  <path id="Path_7663" data-name="Path 7663" d="M115.93,150.153v-.089a.555.555,0,0,0-1.106-.066.468.468,0,0,1-.254.376,8.144,8.144,0,0,1-3.594.807,8.384,8.384,0,0,1-3.605-.807.511.511,0,0,1-.254-.354.554.554,0,0,0-1.095.077v.077c-.011.155-.022.3-.022.464a5.631,5.631,0,0,0,2.72,4.921,4.927,4.927,0,0,0,.542.265,4.473,4.473,0,0,0,1.714.343,4.569,4.569,0,0,0,1.725-.343,3.967,3.967,0,0,0,.531-.265,5.631,5.631,0,0,0,2.72-4.921C115.953,150.485,115.941,150.33,115.93,150.153Z" transform="translate(-102.683 -144.005)" fill="#ffdbb2"/>
  <path id="Path_7664" data-name="Path 7664" d="M245.976,150.641a5.631,5.631,0,0,1-2.72,4.921,3.971,3.971,0,0,1-.531.265,4.569,4.569,0,0,1-1.725.343v-4.987a8.145,8.145,0,0,0,3.594-.807.468.468,0,0,0,.254-.376.555.555,0,0,1,1.106.066v.089C245.965,150.331,245.976,150.486,245.976,150.641Z" transform="translate(-232.706 -144.006)" fill="#ffcf99"/>
  <path id="Path_7665" data-name="Path 7665" d="M115.731,85.937a.581.581,0,0,0-.487-.088l-4.269,1.216-4.269-1.216a.556.556,0,0,0-.708.531v2.178a2.317,2.317,0,0,0,.022.276,1.591,1.591,0,0,0,.863,1.194,9.451,9.451,0,0,0,8.172,0,1.6,1.6,0,0,0,.874-1.216,1.973,1.973,0,0,0,.022-.254V86.379A.545.545,0,0,0,115.731,85.937Z" transform="translate(-102.683 -82.664)" fill="#063e8b"/>
  <path id="Path_7666" data-name="Path 7666" d="M436,78.158v-6.22a.553.553,0,0,1,1.106,0v6.22A.553.553,0,0,1,436,78.158Z" transform="translate(-420.518 -68.758)" fill="#fe9923"/>
  <path id="Path_7667" data-name="Path 7667" d="M408.765,243.318h-2.212a.553.553,0,0,1-.553-.553v-1.106a1.659,1.659,0,1,1,3.318,0v1.106A.553.553,0,0,1,408.765,243.318Z" transform="translate(-391.624 -231.153)" fill="#fc3"/>
  <path id="Path_7668" data-name="Path 7668" d="M245.976,86.428v2.178a1.965,1.965,0,0,1-.022.254,1.6,1.6,0,0,1-.874,1.216,9.316,9.316,0,0,1-4.081.929V87.114l4.269-1.216a.581.581,0,0,1,.487.088A.545.545,0,0,1,245.976,86.428Z" transform="translate(-232.706 -82.712)" fill="#032e68"/>
  <path id="Path_7669" data-name="Path 7669" d="M32.19,2.234,24.449.022a.554.554,0,0,0-.31,0L16.4,2.234a.553.553,0,0,0,0,1.062L24.14,5.507a.552.552,0,0,0,.31,0L32.19,3.3A.553.553,0,0,0,32.19,2.234Z" transform="translate(-16)" fill="#0a4eaf"/>
  <path id="Path_7670" data-name="Path 7670" d="M241.155,5.507a.351.351,0,0,1-.155.022V0a.352.352,0,0,1,.155.022L248.9,2.234a.553.553,0,0,1,0,1.062Z" transform="translate(-232.706)" fill="#063e8b"/>
</svg>
