<svg id="trophy" xmlns="http://www.w3.org/2000/svg" width="19" height="19" viewBox="0 0 19 19">
  <path id="Path_7646" data-name="Path 7646" d="M372.629,67.566a.557.557,0,0,1,0-1.113h.67a2.851,2.851,0,0,0,2.857-2.783.557.557,0,0,0-.557-.557h-2.524a.557.557,0,0,1,0-1.113H375.6a1.672,1.672,0,0,1,1.67,1.67C377.27,65.623,375.873,67.566,372.629,67.566Z" transform="translate(-358.27 -59.699)" fill="#fe9923"/>
  <g id="Group_7903" data-name="Group 7903" transform="translate(0 2.301)">
    <path id="Path_7647" data-name="Path 7647" d="M4.565,67.566c-3.089,0-4.565-1.8-4.565-3.9A1.672,1.672,0,0,1,1.67,62H4.119a.557.557,0,0,1,0,1.113H1.67a.557.557,0,0,0-.557.557A2.786,2.786,0,0,0,3.9,66.453h.668A.557.557,0,0,1,4.565,67.566Z" transform="translate(0 -62)" fill="#fea832"/>
    <path id="Path_7648" data-name="Path 7648" d="M157.236,304.227a1.668,1.668,0,0,1-1.67-1.67.551.551,0,0,0-.557-.557h-2.227a.551.551,0,0,0-.557.557,1.692,1.692,0,0,1-1.67,1.67.557.557,0,1,0,0,1.113h6.68a.557.557,0,0,0,0-1.113Z" transform="translate(-144.434 -293.094)" fill="#fea832"/>
  </g>
  <path id="Path_7649" data-name="Path 7649" d="M157.236,362h-6.68a.551.551,0,0,0-.557.557v2.227a.551.551,0,0,0,.557.557h6.68a.551.551,0,0,0,.557-.557v-2.227A.551.551,0,0,0,157.236,362Z" transform="translate(-144.434 -348.566)" fill="#063e8b"/>
  <path id="Path_7650" data-name="Path 7650" d="M258.34,305.34H255V302h1.113a.551.551,0,0,1,.557.557,1.668,1.668,0,0,0,1.67,1.67.557.557,0,0,1,0,1.113Z" transform="translate(-245.537 -290.793)" fill="#fe9923"/>
  <path id="Path_7651" data-name="Path 7651" d="M258.9,362.557v2.227a.551.551,0,0,1-.557.557H255V362h3.34A.551.551,0,0,1,258.9,362.557Z" transform="translate(-245.537 -348.566)" fill="#032e68"/>
  <path id="Path_7652" data-name="Path 7652" d="M101.613,0H90.48a.558.558,0,0,0-.557.612l.668,6.776a5.483,5.483,0,0,0,10.91,0L102.17.612A.558.558,0,0,0,101.613,0Z" transform="translate(-86.584)" fill="#fedb41"/>
  <path id="Path_7653" data-name="Path 7653" d="M261.123.612l-.668,6.776A5.465,5.465,0,0,1,255,12.32V0h5.566A.558.558,0,0,1,261.123.612Z" transform="translate(-245.537)" fill="#fc3"/>
  <path id="Path_7654" data-name="Path 7654" d="M168.64,67.382l-1.7-.256-.757-1.536a.578.578,0,0,0-1,0l-.757,1.536-1.7.256a.553.553,0,0,0-.312.946l1.236,1.2-.289,1.692a.556.556,0,0,0,.8.59l1.525-.8,1.525.8a.556.556,0,0,0,.8-.59l-.289-1.692,1.236-1.2A.553.553,0,0,0,168.64,67.382Z" transform="translate(-156.215 -62.877)" fill="#fea832"/>
  <path id="Path_7655" data-name="Path 7655" d="M256.525,71.813l-1.525-.8V65.3a.562.562,0,0,1,.5.289l.757,1.536,1.7.256a.553.553,0,0,1,.312.946l-1.236,1.2.289,1.692A.556.556,0,0,1,256.525,71.813Z" transform="translate(-245.537 -62.877)" fill="#fe9923"/>
  <path id="Path_7656" data-name="Path 7656" d="M100.576,422H91.67A1.668,1.668,0,0,0,90,423.67v1.113a.551.551,0,0,0,.557.557h11.133a.551.551,0,0,0,.557-.557V423.67A1.668,1.668,0,0,0,100.576,422Z" transform="translate(-86.66 -406.34)" fill="#0a4eaf"/>
  <path id="Path_7657" data-name="Path 7657" d="M261.123,423.67v1.113a.551.551,0,0,1-.557.557H255V422h4.453A1.668,1.668,0,0,1,261.123,423.67Z" transform="translate(-245.537 -406.34)" fill="#063e8b"/>
</svg>
