<svg id="Component_4_1" data-name="Component 4 – 1" xmlns="http://www.w3.org/2000/svg" width="164.979" height="169.479" viewBox="0 0 164.979 169.479">
  <path id="Path_7524" data-name="Path 7524" d="M201.536,173.128a75.442,75.442,0,1,0-114.446,0Z" transform="translate(-56.461 -41.08)" fill="#ffb41f"/>
  <g id="Group_7853" data-name="Group 7853" transform="translate(27.694 149.797)" opacity="0.158">
    <g id="Group_7852" data-name="Group 7852">
      <ellipse id="Ellipse_290" data-name="Ellipse 290" cx="15.459" cy="3.509" rx="15.459" ry="3.509" transform="translate(0 1.101)" fill="#ffb41f"/>
      <path id="Path_7525" data-name="Path 7525" d="M299.309,402.032c-3.22,0-6.289.1-9.086.267,1.952-.544,3.061-1.168,3.061-1.83,0-2.117-11.306-3.833-25.253-3.833s-25.253,1.716-25.253,3.833,11.306,3.832,25.253,3.832c3.579,0,6.982-.114,10.067-.317-1.531.461-2.393.979-2.393,1.527,0,1.922,10.568,3.48,23.6,3.48s23.6-1.558,23.6-3.48S312.345,402.032,299.309,402.032Z" transform="translate(-185.628 -393.996)" fill="#ffb41f"/>
      <path id="Path_7526" data-name="Path 7526" d="M155.162,407.228q-.7,0-1.391.008c.9-.412,1.391-.858,1.391-1.325,0-2.061-9.563-3.732-21.359-3.732s-21.359,1.671-21.359,3.732,9.487,3.718,21.219,3.731c-2.128.714-3.352,1.543-3.352,2.427,0,2.674,11.127,4.842,24.853,4.842s24.853-2.168,24.853-4.842S168.887,407.228,155.162,407.228Z" transform="translate(-109.579 -397.23)" fill="#ffb41f"/>
      <ellipse id="Ellipse_291" data-name="Ellipse 291" cx="5.102" cy="1.425" rx="5.102" ry="1.425" transform="translate(126.487 3.126)" fill="#ffb41f"/>
      <path id="Path_7527" data-name="Path 7527" d="M394.665,394.435c0,.32-1.025.579-2.291.579s-2.291-.259-2.291-.579,1.026-.579,2.291-.579S394.665,394.115,394.665,394.435Z" transform="translate(-271.58 -392.374)" fill="#ffb41f"/>
      <ellipse id="Ellipse_292" data-name="Ellipse 292" cx="2.522" cy="0.729" rx="2.522" ry="0.729" transform="translate(48.086 2.298)" fill="#ffb41f"/>
      <path id="Path_7528" data-name="Path 7528" d="M250.3,390.847c0,.3-.711.55-1.588.55s-1.588-.246-1.588-.55.711-.55,1.588-.55S250.3,390.544,250.3,390.847Z" transform="translate(-188.165 -390.297)" fill="#ffb41f"/>
    </g>
  </g>
  <g id="Group_7854" data-name="Group 7854" transform="translate(2.792 115.399)">
    <path id="Path_7529" data-name="Path 7529" d="M70.681,342.839c-2.441-7-4.911-14.054-8.77-20.381s-9.269-11.95-16.132-14.746c2.341,8.9,4.645,18.275,10.673,25.224C60.317,337.392,65.415,340.18,70.681,342.839Z" transform="translate(-45.779 -307.712)" fill="#8dc63f"/>
    <path id="Path_7530" data-name="Path 7530" d="M77.465,348.039c-1.551-2.9-3.145-5.772-4.843-8.586q-1.412-2.34-2.928-4.615c-2.174-3.248-4.649-6.471-8.1-8.311,1.367,3.611,2.734,7.224,4.252,10.775a39.8,39.8,0,0,0,4.275,7.995,30.81,30.81,0,0,0,5.158,5.35c.959.8,1.951,1.563,2.957,2.3l.042.033q.812.42,1.63.833-.6-1.721-1.21-3.444Q78.086,349.2,77.465,348.039Z" transform="translate(-55.008 -318.69)" fill="#7cb332"/>
  </g>
  <g id="Group_7855" data-name="Group 7855" transform="translate(0 136.427)">
    <path id="Path_7531" data-name="Path 7531" d="M64.16,370.512a68,68,0,0,0-11.329-8.847c-4.163-2.392-8.987-3.9-13.756-3.354,4.1,4.325,8.329,8.935,13.917,11.006C56.576,370.645,60.34,370.641,64.16,370.512Z" transform="translate(-39.075 -358.199)" fill="#8dc63f"/>
    <path id="Path_7532" data-name="Path 7532" d="M69.632,371.51c-1.783-1.163-3.584-2.3-5.425-3.369q-1.531-.89-3.1-1.71a15.568,15.568,0,0,0-7.189-2.2c1.9,1.626,3.8,3.252,5.771,4.8a25.773,25.773,0,0,0,4.918,3.21,19.941,19.941,0,0,0,4.6,1.433c.794.157,1.595.28,2.4.388l.034.006q.592-.014,1.186-.034-.877-.791-1.76-1.579Q70.348,371.979,69.632,371.51Z" transform="translate(-47.736 -361.718)" fill="#7cb332"/>
  </g>
  <g id="Group_7856" data-name="Group 7856" transform="translate(14.095 106.515)">
    <path id="Path_7533" data-name="Path 7533" d="M81.8,312.883a68.007,68.007,0,0,0-1.534-14.292c-1.18-4.653-3.454-9.168-7.168-12.21-.251,5.954-.617,12.2,1.786,17.653C76.426,307.531,79.049,310.231,81.8,312.883Z" transform="translate(-72.915 -286.381)" fill="#8dc63f"/>
    <path id="Path_7534" data-name="Path 7534" d="M85.261,317.4c-.407-2.09-.844-4.174-1.357-6.24q-.427-1.718-.93-3.416a15.569,15.569,0,0,0-3.425-6.692c.156,2.5.312,4.994.573,7.482a25.753,25.753,0,0,0,1.119,5.766,19.952,19.952,0,0,0,2.171,4.3c.44.68.909,1.34,1.39,1.992l.02.028q.422.415.85.828c-.029-.787-.057-1.575-.091-2.363C85.475,318.518,85.37,317.958,85.261,317.4Z" transform="translate(-76.786 -294.94)" fill="#7cb332"/>
  </g>
  <g id="Group_7857" data-name="Group 7857" transform="translate(106.722 114.885)">
    <path id="Path_7535" data-name="Path 7535" d="M295.787,332.595a67.98,67.98,0,0,0,7.747-12.107c1.992-4.368,3.044-9.312,2.051-14.01-3.922,4.487-8.117,9.129-9.655,14.886C294.945,325.057,295.3,328.8,295.787,332.595Z" transform="translate(-295.304 -306.478)" fill="#8dc63f"/>
    <path id="Path_7536" data-name="Path 7536" d="M298.473,338.122c.991-1.884,1.954-3.784,2.847-5.717q.742-1.608,1.412-3.247a15.571,15.571,0,0,0,1.517-7.363c-1.441,2.045-2.882,4.091-4.236,6.195a25.774,25.774,0,0,0-2.736,5.2,19.949,19.949,0,0,0-1,4.71c-.082.806-.13,1.614-.162,2.423,0,.01,0,.023,0,.034q.069.588.145,1.177.705-.947,1.408-1.9Q298.073,338.879,298.473,338.122Z" transform="translate(-295.778 -315.416)" fill="#7cb332"/>
  </g>
  <g id="Group_7858" data-name="Group 7858" transform="translate(106.743 107.336)">
    <path id="Path_7537" data-name="Path 7537" d="M297.914,312.291a58.545,58.545,0,0,0,3.525-11.86,19.651,19.651,0,0,0-1.64-12.078c-2.175,4.646-4.539,9.485-4.44,14.614C295.422,306.256,296.61,309.271,297.914,312.291Z" transform="translate(-295.356 -288.353)" fill="#8dc63f"/>
    <path id="Path_7538" data-name="Path 7538" d="M300.873,316.941c.371-1.795.715-3.6.993-5.407.154-1,.288-2.012.4-3.022a13.4,13.4,0,0,0-.5-6.452c-.7,2.035-1.409,4.07-2.028,6.133a22.186,22.186,0,0,0-1.025,4.951,17.162,17.162,0,0,0,.3,4.133c.124.686.277,1.366.443,2.043l.006.029q.2.47.4.939.357-.952.712-1.907Q300.722,317.661,300.873,316.941Z" transform="translate(-297.297 -296.351)" fill="#7cb332"/>
  </g>
  <path id="Path_7539" data-name="Path 7539" d="M282.949,136.421a32.3,32.3,0,0,0-11.669-9.573c-.883,11.75-1.326,23.573-1.069,35.353a41.361,41.361,0,0,0,8.9-5.877,18.487,18.487,0,0,0,5.7-8.879A13.265,13.265,0,0,0,282.949,136.421Z" transform="translate(-173.898 -86.78)" fill="#1c75bc"/>
  <path id="Path_7540" data-name="Path 7540" d="M272.783,127.568a3.671,3.671,0,0,0-.708,1.331c0,.01,0,.019-.007.029q-.143,2-.268,3.993-.053,6.987-.106,13.975a18.538,18.538,0,0,0,.851,7.014,12.327,12.327,0,0,0,1.759,2.969c.4.513,1.421,2.178,2.252,1.965.728-.185.975-2.5,1.177-3.164q.585-1.928,1.3-3.815a6.236,6.236,0,0,0,.523-2.025,5.97,5.97,0,0,0-.42-1.991,51.739,51.739,0,0,1-2.82-11.471,45.183,45.183,0,0,1-.011-6.729A32.082,32.082,0,0,0,272.783,127.568Z" transform="translate(-174.804 -87.201)" fill="#155f99"/>
  <g id="Group_7879" data-name="Group 7879" transform="translate(10.726)">
    <path id="Path_7541" data-name="Path 7541" d="M119.825,72.691s-3.929-.319-7.521,5.2c9.371-2.135,14.422-.364,14.422-.364S124.067,72.437,119.825,72.691Z" transform="translate(-92.529 -55.175)" fill="#808285"/>
    <path id="Path_7542" data-name="Path 7542" d="M156.682,48.8a30.865,30.865,0,0,1-4.127-6.27c1.681-1.481,1.853-4.423,1.184-6.562a7.657,7.657,0,0,0-4.53-4.664,10.742,10.742,0,0,0-6.606-.257,9.009,9.009,0,0,0-6.207,4.839c-1.047,2.51-.139,5.878,2.346,6.983a30.813,30.813,0,0,1-5.152,9.328c6.555.055,13.113.11,19.666-.079a5.737,5.737,0,0,0,3.087-.685A1.774,1.774,0,0,0,156.682,48.8Zm-7.689-9.031a4.457,4.457,0,0,1-4.156.427,3.118,3.118,0,0,1-1.982-4.051,4.179,4.179,0,0,1,1.417-2.042c.894-.706,5.408-1.907,6.44,1.775A3.837,3.837,0,0,1,148.993,39.767Z" transform="translate(-104.949 -30.649)" fill="#bcbec0"/>
    <path id="Path_7543" data-name="Path 7543" d="M139.042,53.749a53.914,53.914,0,0,1,3.454-9.321,6.3,6.3,0,0,1-1.811-11.183A8.258,8.258,0,0,0,136.4,37.4c-1.047,2.51-.139,5.878,2.346,6.983a30.813,30.813,0,0,1-5.152,9.328Q136.315,53.733,139.042,53.749Z" transform="translate(-104.949 -32.164)" fill="#d1d3d4"/>
    <g id="Group_7859" data-name="Group 7859" transform="translate(0 19.602)">
      <path id="Path_7544" data-name="Path 7544" d="M72.448,77.713h84.559l10.806,123.261L84.281,211.046Z" transform="translate(-69.273 -77.713)" fill="#1c75bc"/>
      <path id="Path_7545" data-name="Path 7545" d="M215.766,90.588s7.631-2.827,5.157-12.875H210.347Z" transform="translate(-149.736 -77.713)" fill="#155f99"/>
      <path id="Path_7546" data-name="Path 7546" d="M68,77.713l-3.175,2.313,11.9,129.793,3.1,1.227Z" transform="translate(-64.826 -77.713)" fill="#519bd6"/>
      <path id="Path_7547" data-name="Path 7547" d="M177.863,206.184l-7.449-84.97-5.954-33.1L89.679,86.642s-.81,97.341,14.44,128.434Z" transform="translate(-79.323 -82.923)" fill="#155f99"/>
    </g>
    <path id="Path_7548" data-name="Path 7548" d="M93.226,90.469l75.416-1.353c2.515,37.143,6.874,74.157,14.082,110.68-25.1.768-50.319,4.275-74.981,8.99C100.859,183.781,93.226,112.647,93.226,90.469Z" transform="translate(-81.397 -64.764)" fill="#fff"/>
    <path id="Path_7549" data-name="Path 7549" d="M215.59,89.947l3.235,7.687a9.406,9.406,0,0,0,5.595-7.846Z" transform="translate(-152.795 -65.156)" fill="#e6e7e8"/>
    <path id="Path_7550" data-name="Path 7550" d="M149.832,68.26l15.979-.728A30.95,30.95,0,0,1,163,63.481a22.974,22.974,0,0,0-5.353,1.1A41.545,41.545,0,0,0,149.832,68.26Z" transform="translate(-114.426 -49.806)" fill="#808285"/>
    <g id="Group_7860" data-name="Group 7860" transform="translate(27.296 16.226)">
      <path id="Path_7551" data-name="Path 7551" d="M134.484,85.834l34.611.024c1.822-3.946,1.028-8.688-.426-12.972a3.736,3.736,0,0,0-3.193-2.533,153.971,153.971,0,0,0-35.114.544C134.216,72.926,134.825,80.278,134.484,85.834Z" transform="translate(-130.362 -69.607)" fill="#bcbec0"/>
      <path id="Path_7552" data-name="Path 7552" d="M174.431,85.322l-35.793.1a28.35,28.35,0,0,1,.756,6.765L174.82,92A18.045,18.045,0,0,0,174.431,85.322Z" transform="translate(-135.191 -78.776)" fill="#d1d3d4"/>
      <path id="Path_7553" data-name="Path 7553" d="M168.479,71.506a16.3,16.3,0,0,0-6.226,1.035c-.347.152-.742.432-.672.8.06.323.432.469.75.553,4.875,1.281,9.972,1.222,14.961.854.98-.072,6.01.071,5.8-1.266-.284-1.786-4.657-1.571-5.887-1.681A79.1,79.1,0,0,0,168.479,71.506Z" transform="translate(-148.573 -70.704)" fill="#d1d3d4"/>
      <ellipse id="Ellipse_293" data-name="Ellipse 293" cx="2.421" cy="0.937" rx="2.421" ry="0.937" transform="translate(6.692 1.726)" fill="#d1d3d4"/>
    </g>
    <g id="Group_7861" data-name="Group 7861" transform="translate(67.794 43.414)">
      <path id="Path_7554" data-name="Path 7554" d="M243.909,151.491l-13.7.694-2.619-16.609,13.7-.694Zm-12.285-1.046,10.351-.524-2.1-13.3-10.35.524Z" transform="translate(-227.594 -134.882)" fill="#bcbec0"/>
    </g>
    <g id="Group_7862" data-name="Group 7862" transform="translate(72.048 72.372)">
      <path id="Path_7555" data-name="Path 7555" d="M254.049,221.028l-13.7.631-2.542-16.621,13.7-.631Zm-12.28-1.1,10.353-.477-2.035-13.308-10.353.477Z" transform="translate(-237.806 -204.408)" fill="#bcbec0"/>
    </g>
    <g id="Group_7863" data-name="Group 7863" transform="translate(77.137 101.279)">
      <path id="Path_7556" data-name="Path 7556" d="M252.861,291.257l-2.835-16.573,13.687-.873,2.836,16.573Zm-.88-15.029,2.27,13.27,10.343-.66-2.27-13.27Z" transform="translate(-250.026 -273.811)" fill="#bcbec0"/>
    </g>
    <g id="Group_7868" data-name="Group 7868" transform="translate(17.785 46.351)">
      <g id="Group_7864" data-name="Group 7864" transform="translate(0.96 3.654)">
        <path id="Path_7557" data-name="Path 7557" d="M110.871,154.169a1.041,1.041,0,0,1-.033-2.082l43.156-1.38a1.041,1.041,0,1,1,.067,2.081l-43.156,1.38Z" transform="translate(-109.831 -150.707)" fill="#808285"/>
      </g>
      <g id="Group_7865" data-name="Group 7865" transform="translate(1.794 8.023)">
        <path id="Path_7558" data-name="Path 7558" d="M112.874,164.657a1.041,1.041,0,0,1-.033-2.082L156,161.2a1.041,1.041,0,0,1,.067,2.081l-43.156,1.38Z" transform="translate(-111.834 -161.195)" fill="#808285"/>
      </g>
      <g id="Group_7866" data-name="Group 7866" transform="translate(2.628 13.082)">
        <path id="Path_7559" data-name="Path 7559" d="M114.877,176.113a1.041,1.041,0,0,1-.033-2.082l21.578-.69a1.041,1.041,0,1,1,.067,2.081l-21.578.69Z" transform="translate(-113.837 -173.341)" fill="#808285"/>
      </g>
      <g id="Group_7867" data-name="Group 7867">
        <path id="Path_7560" data-name="Path 7560" d="M108.567,144.706a1.041,1.041,0,0,1-.033-2.082l21.578-.69a1.041,1.041,0,0,1,.067,2.081l-21.578.69Z" transform="translate(-107.527 -141.933)" fill="#8dc63f"/>
      </g>
    </g>
    <g id="Group_7873" data-name="Group 7873" transform="translate(23.354 76.332)">
      <g id="Group_7869" data-name="Group 7869" transform="translate(1.228 2.247)">
        <path id="Path_7561" data-name="Path 7561" d="M124.885,225.452a1.041,1.041,0,0,1-.1-2.078l42.987-4.059a1.041,1.041,0,1,1,.2,2.073l-42.987,4.058A.989.989,0,0,1,124.885,225.452Z" transform="translate(-123.846 -219.31)" fill="#808285"/>
      </g>
      <g id="Group_7870" data-name="Group 7870" transform="translate(2.332 6.556)">
        <path id="Path_7562" data-name="Path 7562" d="M127.536,235.8a1.041,1.041,0,0,1-.1-2.078l42.987-4.058a1.041,1.041,0,1,1,.2,2.073l-42.987,4.059C127.6,235.795,127.568,235.8,127.536,235.8Z" transform="translate(-126.496 -229.655)" fill="#808285"/>
      </g>
      <g id="Group_7871" data-name="Group 7871" transform="translate(3.436 12.894)">
        <path id="Path_7563" data-name="Path 7563" d="M130.187,248.984a1.041,1.041,0,0,1-.1-2.078l21.494-2.03a1.041,1.041,0,0,1,.2,2.073l-21.494,2.03C130.253,248.982,130.219,248.984,130.187,248.984Z" transform="translate(-129.147 -244.873)" fill="#808285"/>
      </g>
      <g id="Group_7872" data-name="Group 7872">
        <path id="Path_7564" data-name="Path 7564" d="M121.938,218.028a1.041,1.041,0,0,1-.1-2.078l21.494-2.03a1.041,1.041,0,0,1,.2,2.073l-21.494,2.03C122,218.026,121.971,218.028,121.938,218.028Z" transform="translate(-120.898 -213.915)" fill="#8dc63f"/>
      </g>
    </g>
    <g id="Group_7878" data-name="Group 7878" transform="translate(28.385 106.469)">
      <g id="Group_7874" data-name="Group 7874" transform="translate(1.297 1.876)">
        <path id="Path_7565" data-name="Path 7565" d="M137.132,297.619a1.041,1.041,0,0,1-.114-2.076l42.915-4.76a1.041,1.041,0,1,1,.229,2.069l-42.915,4.76A1,1,0,0,1,137.132,297.619Z" transform="translate(-136.091 -290.776)" fill="#808285"/>
      </g>
      <g id="Group_7875" data-name="Group 7875" transform="translate(2.472 6.166)">
        <path id="Path_7566" data-name="Path 7566" d="M139.951,307.918a1.041,1.041,0,0,1-.114-2.076l42.915-4.76a1.041,1.041,0,1,1,.229,2.069l-42.915,4.76A.987.987,0,0,1,139.951,307.918Z" transform="translate(-138.911 -301.075)" fill="#808285"/>
      </g>
      <g id="Group_7876" data-name="Group 7876" transform="translate(3.646 12.836)">
        <path id="Path_7567" data-name="Path 7567" d="M142.77,321.551a1.041,1.041,0,0,1-.113-2.076l21.457-2.38a1.041,1.041,0,1,1,.23,2.07l-21.457,2.38A1,1,0,0,1,142.77,321.551Z" transform="translate(-141.73 -317.089)" fill="#808285"/>
      </g>
      <g id="Group_7877" data-name="Group 7877">
        <path id="Path_7568" data-name="Path 7568" d="M134.017,290.735a1.041,1.041,0,0,1-.114-2.076l21.457-2.38a1.041,1.041,0,1,1,.23,2.069l-21.457,2.38A.993.993,0,0,1,134.017,290.735Z" transform="translate(-132.977 -286.272)" fill="#8dc63f"/>
      </g>
    </g>
    <path id="Path_7569" data-name="Path 7569" d="M225.956,132.96a18.464,18.464,0,0,1,7.992,4.676c2.925-3.765,5.562-7.174,9.688-10.108a53.517,53.517,0,0,0-8.985,15.462A29.621,29.621,0,0,0,225.956,132.96Z" transform="translate(-158.844 -87.177)" fill="#39b54a"/>
    <path id="Path_7570" data-name="Path 7570" d="M236.08,205.724a18.461,18.461,0,0,1,7.992,4.676c2.925-3.765,5.562-7.174,9.688-10.108a53.5,53.5,0,0,0-8.984,15.462A29.631,29.631,0,0,0,236.08,205.724Z" transform="translate(-164.751 -129.634)" fill="#39b54a"/>
    <path id="Path_7571" data-name="Path 7571" d="M248.637,273.725a18.462,18.462,0,0,1,7.992,4.676c2.925-3.765,5.562-7.174,9.688-10.108a53.506,53.506,0,0,0-8.985,15.462A29.63,29.63,0,0,0,248.637,273.725Z" transform="translate(-172.078 -169.312)" fill="#39b54a"/>
  </g>
  <g id="Group_7886" data-name="Group 7886" transform="translate(97.667 46.601)">
    <path id="Path_7572" data-name="Path 7572" d="M297.022,387.785l-8.329,4.042c-.326.158-.7.4-.675.763.035.438.606.571,1.045.587l11.774.421V388.82A19.432,19.432,0,0,1,297.022,387.785Z" transform="translate(-281.998 -285.635)" fill="#fff"/>
    <path id="Path_7573" data-name="Path 7573" d="M366.29,404.4c-.8,1.562-4.466,3.071-6.862,4.234-.281.136-.608.347-.583.658.03.378.523.493.9.506,2.446.087,6.348.175,9.6.262a2.022,2.022,0,0,0,1.867-2.914l-1.873-4.068C368.3,402.9,367.274,404.81,366.29,404.4Z" transform="translate(-323.325 -294.554)" fill="#fff"/>
    <path id="Path_7574" data-name="Path 7574" d="M350.707,231.461c-4.419,1.518-8.688,1.449-12.749,2-.715,1-3.458,5.039-4.173,6.037l11.459,1.439a5.383,5.383,0,0,0,1.863.016,4.138,4.138,0,0,0,2.216-1.594A9.007,9.007,0,0,0,350.707,231.461Z" transform="translate(-308.703 -194.422)" fill="#092942"/>
    <path id="Path_7575" data-name="Path 7575" d="M321,212.147c1.486-2.274,3.535-3.849,5.608-3.539-.169-.025-1.771,3.7-2.017,4.131a27.588,27.588,0,0,1-2.524,3.661,21.785,21.785,0,0,1-2.838,2.889c-.294.247-1.093,1.177-1.347.432-.16-.472.518-1.913.673-2.347A24.941,24.941,0,0,1,321,212.147Z" transform="translate(-299.407 -181.064)" fill="#092942"/>
    <g id="Group_7881" data-name="Group 7881">
      <g id="Group_7880" data-name="Group 7880" transform="translate(0)">
        <path id="Path_7576" data-name="Path 7576" d="M355.147,152.27l-46.526,41.184-7.382-8.338,46.526-41.184a5.568,5.568,0,0,1,7.86.478h0A5.568,5.568,0,0,1,355.147,152.27Z" transform="translate(-289.713 -142.533)" fill="#fbb040"/>
        <path id="Path_7577" data-name="Path 7577" d="M285.092,244.77l-11.526,17.641,18.908-9.3Z" transform="translate(-273.566 -202.188)" fill="#f98c6e"/>
        <rect id="Rectangle_1640" data-name="Rectangle 1640" width="56.855" height="4.477" transform="matrix(0.749, -0.663, 0.663, 0.749, 13.733, 45.075)" fill="#9c681c"/>
        <path id="Path_7578" data-name="Path 7578" d="M277.7,271.934l-4.134,6.327,6.781-3.336Z" transform="translate(-273.566 -218.037)" fill="#39b54a"/>
        <path id="Path_7579" data-name="Path 7579" d="M406.314,143.932l-4.733,4.19,7.382,8.338,4.733-4.19a5.568,5.568,0,0,0-7.382-8.338Z" transform="translate(-348.262 -142.533)" fill="#f98c6e"/>
        <rect id="Rectangle_1641" data-name="Rectangle 1641" width="4.477" height="11.136" transform="translate(50.747 7.867) rotate(-41.519)" fill="#fff"/>
      </g>
      <path id="Path_7580" data-name="Path 7580" d="M339,154.9a5.563,5.563,0,0,0,.478-7.86l-65.912,58.346,18.908-9.3Z" transform="translate(-273.566 -145.163)" fill="#231f20" opacity="0.25"/>
    </g>
    <path id="Path_7581" data-name="Path 7581" d="M367.924,221.5c1.073,1.916,1.158,7.163.664,9.3,1.641.276,3.494-2.327,5.135-2.052a13.77,13.77,0,0,1-.516-6.056,2.629,2.629,0,0,0-.19-1.96,2.04,2.04,0,0,0-2.362-.3C369.86,220.744,368.775,221.566,367.924,221.5Z" transform="translate(-328.623 -187.855)" fill="#e67a5c"/>
    <path id="Path_7582" data-name="Path 7582" d="M325.965,295.376s-10.282,9.576-12.5,17.212-5.36,20.548-5.36,20.548l5.731,1.124,5.877-18.2,9.3-9.719S329.443,296.768,325.965,295.376Z" transform="translate(-293.717 -231.715)" fill="#092942"/>
    <path id="Path_7583" data-name="Path 7583" d="M340.544,295.376a75.6,75.6,0,0,0-7.456,8.262c.559,2.931,1.229,5.846,1.887,8.7q.278,1.2.572,2.4l8.044-8.4S344.022,296.768,340.544,295.376Z" transform="translate(-308.297 -231.715)" fill="#051d2e"/>
    <path id="Path_7584" data-name="Path 7584" d="M361.027,260.1c-.522,1.39-4.417,3.146-5.9,3.434a4.047,4.047,0,0,1-3.518-1.242,5.2,5.2,0,0,1-1.813-3.313c-.257-18.789,3.229-22.743,6.4-25.873,2.769-2.735,6.505-2.24,8.615.971,2.334,3.552,1.1,8.346.164,12.154A100.873,100.873,0,0,1,361.027,260.1Z" transform="translate(-318.034 -194.345)" fill="#0e4066"/>
    <path id="Path_7585" data-name="Path 7585" d="M357.323,259.383a30.324,30.324,0,0,0,5.673-17.4,24.694,24.694,0,0,1-5.591,8.522,4.783,4.783,0,0,1-5.7,1.291c-.329-.08-.66-.167-.991-.252-.267,1.737-.471,3.742-.6,6.066A44.692,44.692,0,0,0,357.323,259.383Z" transform="translate(-318.235 -200.561)" fill="#092942"/>
    <path id="Path_7586" data-name="Path 7586" d="M357.711,308.036c1.379-4.234,2.38-6.553,2.226-11.156-7.125,2.169-11.466-1.5-11.466-1.5-1.116,10.175-1.378,15.632,0,25.78.807,5.959,6.824,14.609,10.216,19.731,1.462-.367,2.131-.663,3.592-1.03-1.259-4.73-3.565-13.269-6.07-17.555C356.8,316.984,356.026,313.212,357.711,308.036Z" transform="translate(-316.725 -231.715)" fill="#092942"/>
    <path id="Path_7587" data-name="Path 7587" d="M335.372,208.528a5.211,5.211,0,0,1,4.719-.873c.354.152.718.428.733.813.019.494-.521.8-.988.962a12.39,12.39,0,0,1-4.533.661C334.816,209.951,334.216,209.482,335.372,208.528Z" transform="translate(-309.241 -180.383)" fill="#f98c6e"/>
    <path id="Path_7588" data-name="Path 7588" d="M355.454,248.642a3.178,3.178,0,0,0,1.347-.1,2.98,2.98,0,0,0,1.392-1.5,20.945,20.945,0,0,0,2.219-6.539,4.286,4.286,0,0,0-1.17-3.888,13.169,13.169,0,0,0-4.83,8.683c-.72-.02-1.48-.033-2.233-.048-.231.943-.44,1.982-.62,3.147Z" transform="translate(-319.074 -197.423)" fill="#092942"/>
    <g id="Group_7882" data-name="Group 7882" transform="translate(18.273 37.174)">
      <path id="Path_7589" data-name="Path 7589" d="M320.426,253.209A3.068,3.068,0,0,0,319,252a1.2,1.2,0,0,0-1.536.717c-.193.888.993,1.728.636,2.564-.1.24-.317.415-.437.647a1.249,1.249,0,0,0,.289,1.376,3.428,3.428,0,0,0,1.285.75,5.1,5.1,0,0,0,2.035.469,1.605,1.605,0,0,0,1.16-.474c.556-.636-.078-1.589-.381-2.2A17.134,17.134,0,0,0,320.426,253.209Z" transform="translate(-317.438 -243.545)" fill="#f98c6e"/>
      <path id="Path_7590" data-name="Path 7590" d="M339.855,244.231c1.272-5.14,1.113-6.387,2.931-9.766a5.649,5.649,0,0,1,2.916-2.375,3.6,3.6,0,0,1,3.6.38,3.648,3.648,0,0,1,1.187,2.627,8.782,8.782,0,0,1-.461,2.916c-1.939,6.6-2.95,7.55-6.986,13.127-5.5-.515-12.771-1.656-16.673-3.714A1.907,1.907,0,0,1,326,244.9c.514-.823,1.7-.838,2.65-.661C331.71,244.812,335.176,244.319,339.855,244.231Z" transform="translate(-322.255 -231.785)" fill="#0e4066"/>
    </g>
    <path id="Path_7591" data-name="Path 7591" d="M306.637,383.064l6.751,1.822-.729,2.291-6.606-1.752Z" transform="translate(-292.523 -282.881)" fill="#0e4066"/>
    <path id="Path_7592" data-name="Path 7592" d="M376.752,397.8l-4.877,2.226,1.064,2.186,4.72-2.187Z" transform="translate(-330.928 -291.481)" fill="#0e4066"/>
    <path id="Path_7593" data-name="Path 7593" d="M300.839,399.7v-1.289l-12.625-.166a.561.561,0,0,0-.195.447c.035.438.606.571,1.045.587Z" transform="translate(-281.998 -291.741)" fill="#808285"/>
    <path id="Path_7594" data-name="Path 7594" d="M359.238,416.262c-.219.133-.411.313-.392.555.03.378.523.493.9.506,2.446.087,6.348.175,9.6.262a2.018,2.018,0,0,0,2.037-1.626Q365.314,416.179,359.238,416.262Z" transform="translate(-323.325 -302.075)" fill="#808285"/>
    <g id="Group_7885" data-name="Group 7885" transform="translate(32.484 17.084)">
      <g id="Group_7883" data-name="Group 7883">
        <path id="Path_7595" data-name="Path 7595" d="M357.347,206.431c-.168,1.338,0,3.41.9,4.418a3.3,3.3,0,0,0,3.03.895,7.246,7.246,0,0,0,2.944-1.425,18.591,18.591,0,0,0,3.99-3.993c1.043-1.423,1.909-3.22,1.386-4.905a4.864,4.864,0,0,0-2.611-2.724,6.665,6.665,0,0,0-4.583-.6C358.556,199.1,357.761,203.132,357.347,206.431Z" transform="translate(-354.902 -191.935)" fill="#f98c6e"/>
        <path id="Path_7596" data-name="Path 7596" d="M363.9,197.452a4.4,4.4,0,0,0-3.6-5.317,10.891,10.891,0,0,0-3.217.2,5.664,5.664,0,0,1-3.182-.239,3.919,3.919,0,0,1-1.881-2.057,6.794,6.794,0,0,1-.458-2.792,5.574,5.574,0,0,1,.343-1.964,2.852,2.852,0,0,1,1.276-1.492,2.267,2.267,0,0,1,3.194,2.737,6.7,6.7,0,0,1,3.04-2.372,2.1,2.1,0,0,1,2.245.131,1.609,1.609,0,0,1,.377,1.408,4.127,4.127,0,0,1-.589,1.387,5.089,5.089,0,0,1,4.4-1.408.862.862,0,0,1,.49.206.851.851,0,0,1,.054.878,3.667,3.667,0,0,1-1.7,1.951,6.559,6.559,0,0,1,3.169,2.018,4.338,4.338,0,0,1,.659,2.841,6.025,6.025,0,0,1-2.739,4.582,1.792,1.792,0,0,1-1.19.342A.967.967,0,0,1,363.9,197.452Z" transform="translate(-351.558 -183.551)" fill="#092942"/>
        <path id="Path_7597" data-name="Path 7597" d="M380.292,214.733a1.154,1.154,0,0,1,.826-.129.872.872,0,0,1,.548.727,1.838,1.838,0,0,1-.169.935,4.338,4.338,0,0,1-2.187,2.268.684.684,0,0,1-.632.047c-.52-.328-.346-1.723-.134-2.222A3.691,3.691,0,0,1,380.292,214.733Z" transform="translate(-367.183 -201.651)" fill="#f98c6e"/>
      </g>
      <path id="Path_7598" data-name="Path 7598" d="M368.783,210.825c-.242.607-.7.993-1.033.862s-.4-.729-.158-1.335.7-.993,1.033-.862S369.025,210.218,368.783,210.825Z" transform="translate(-360.831 -198.671)" fill="#092942"/>
      <path id="Path_7599" data-name="Path 7599" d="M360.5,210.825c-.242.607-.7.993-1.033.862s-.4-.729-.158-1.335.7-.993,1.033-.862S360.743,210.218,360.5,210.825Z" transform="translate(-355.998 -198.671)" fill="#092942"/>
      <path id="Path_7600" data-name="Path 7600" d="M360.38,216.164a1.843,1.843,0,0,0-.406.158.384.384,0,0,0-.2.362.44.44,0,0,0,.3.3,1.251,1.251,0,0,0,1.322-.309,1.528,1.528,0,0,0,.371-1.334c-.026-.136-.128-.417-.312-.312-.125.071-.165.359-.238.479A1.591,1.591,0,0,1,360.38,216.164Z" transform="translate(-356.352 -201.904)" fill="#d1684b"/>
      <g id="Group_7884" data-name="Group 7884" transform="translate(5.776 15.093)">
        <path id="Path_7601" data-name="Path 7601" d="M365.97,221.486a1.711,1.711,0,0,1-.383-.043.208.208,0,1,1,.092-.406,1.345,1.345,0,0,0,1.625-1.078.208.208,0,0,1,.41.072,1.757,1.757,0,0,1-1.744,1.454Z" transform="translate(-365.425 -219.787)" fill="#d1684b"/>
      </g>
    </g>
  </g>
  <path id="Path_7602" data-name="Path 7602" d="M299.42,143.436a12.253,12.253,0,0,1-4.319,2.813c-3.342,5.25-.739,5.911,1.979,4.417l3.234-1.78a1.1,1.1,0,0,0,.468-.387,1.107,1.107,0,0,0-.051-.881C300.277,146.312,300.45,144.356,299.42,143.436Z" transform="translate(-187.544 -96.459)" fill="#e67a5c"/>
  <path id="Path_7603" data-name="Path 7603" d="M274.462,246.73a22.991,22.991,0,0,0-1.8,2.986.972.972,0,0,0-.147.7.667.667,0,0,0,.515.413,1.963,1.963,0,0,0,.688-.021,19.862,19.862,0,0,0-.691,3.288.639.639,0,0,0,.525.555c.332.024,1.23-1.245,1.958-2.51a7.97,7.97,0,0,0,1.531-.766,2.614,2.614,0,0,0,1.046-1.3,2.839,2.839,0,0,0-.514-2.412,3.468,3.468,0,0,0-1.125-1.082C275.988,246.33,274.975,246.617,274.462,246.73Z" transform="translate(-175.27 -156.587)" fill="#f98c6e"/>
  <path id="Path_7604" data-name="Path 7604" d="M288.487,165.31c.735,12.027-3.248,25.187-8.7,36.018a8.921,8.921,0,0,1-4.044-.418A149.761,149.761,0,0,1,280.739,173a11.08,11.08,0,0,1,1.908-4.383C283.68,167.381,287.006,164.688,288.487,165.31Z" transform="translate(-177.17 -109.169)" fill="#1c75bc"/>
  <g id="Group_7889" data-name="Group 7889" transform="translate(109.193 38.39)">
    <g id="Group_7887" data-name="Group 7887">
      <path id="Path_7605" data-name="Path 7605" d="M309.7,145.336c-1.142.853-3.168,1.805-4.638,1.579a3.616,3.616,0,0,1-2.638-2.1,6.638,6.638,0,0,1-.434-3.253,17,17,0,0,1,1.324-5.5c.7-1.639,1.85-3.327,3.727-3.778a5.86,5.86,0,0,1,4.086.769,7,7,0,0,1,3.292,3.569C315.787,140.419,312.517,143.235,309.7,145.336Z" transform="translate(-301.661 -128.277)" fill="#f98c6e"/>
      <path id="Path_7606" data-name="Path 7606" d="M303.761,130.717c2.266.652,4.022.311,5.156-1.879.562,2.583,5.452,11.374,10.181,7.165-2.32-1.2-2.186-3.632-2.963-6a5.977,5.977,0,0,0-1.54-2.585,3.749,3.749,0,0,0-2.942-1.019,11.252,11.252,0,0,0,1.794-.835c.191-.11.4-.255.411-.461.019-.3-.366-.479-.693-.527a3.128,3.128,0,0,0-2.341.6,3.573,3.573,0,0,0-1.64-2.11,1.573,1.573,0,0,0-.66-.244.688.688,0,0,0-.622.245.758.758,0,0,0-.07.553,3.611,3.611,0,0,0,.977,1.928,4.633,4.633,0,0,0-4.089,1.7,11.317,11.317,0,0,0-1.888,3.9C303.054,131.083,303.541,130.786,303.761,130.717Z" transform="translate(-302.169 -122.819)" fill="#092942"/>
      <path id="Path_7607" data-name="Path 7607" d="M304.229,138.946a1.124,1.124,0,0,0-.374-.769,1.049,1.049,0,0,0-1-.08,1.934,1.934,0,0,0-.766.639,4,4,0,0,0-.8,3.058.68.68,0,0,0,.334.561c.614.267,1.806-.62,2.142-1.065A3.379,3.379,0,0,0,304.229,138.946Z" transform="translate(-301.239 -131.681)" fill="#f98c6e"/>
    </g>
    <path id="Path_7608" data-name="Path 7608" d="M317.345,148.669c-.419.527-.5,1.123-.184,1.333s.915-.048,1.334-.575.5-1.124.184-1.333S317.764,148.143,317.345,148.669Z" transform="translate(-310.416 -137.524)" fill="#092942"/>
    <path id="Path_7609" data-name="Path 7609" d="M322.286,155.694c-.419.527-.5,1.124-.184,1.333s.915-.048,1.334-.575.5-1.124.184-1.333S322.705,155.167,322.286,155.694Z" transform="translate(-313.3 -141.623)" fill="#092942"/>
    <path id="Path_7610" data-name="Path 7610" d="M317.239,157.918a1.705,1.705,0,0,1,.095.428.372.372,0,0,1-.219.359.528.528,0,0,1-.457-.095,1.2,1.2,0,0,1-.5-1.285,1.564,1.564,0,0,1,1.016-1.023c.142-.05.464-.112.476.1.009.143-.234.331-.3.456A1.447,1.447,0,0,0,317.239,157.918Z" transform="translate(-309.923 -142.327)" fill="#d1684b"/>
    <g id="Group_7888" data-name="Group 7888" transform="translate(3.282 12.685)">
      <path id="Path_7611" data-name="Path 7611" d="M309.434,155.578a1.809,1.809,0,0,0,.268.3.247.247,0,0,0,.325,0,.194.194,0,0,0,0-.294,1.325,1.325,0,0,1-.446-.986,1.3,1.3,0,0,1,.477-.964.193.193,0,0,0,.013-.294.246.246,0,0,0-.324-.015,1.634,1.634,0,0,0-.309,2.251Z" transform="translate(-309.118 -153.274)" fill="#d1684b"/>
    </g>
  </g>
  <g id="Group_7893" data-name="Group 7893" transform="translate(22.81 95.678)">
    <path id="Path_7612" data-name="Path 7612" d="M188.544,358.372a9.839,9.839,0,0,1,2.833-.11,3.327,3.327,0,0,1,2.365,1.415,4.307,4.307,0,0,1,.132,3.371,29.257,29.257,0,0,1-2.7,6.072c-2.483,4.568-5.1,9.063-7.71,13.557a8.06,8.06,0,0,1-2.477-.154,2.468,2.468,0,0,1-1.655-1.566,3.654,3.654,0,0,1,.066-1.656l2.858-14.632a10.324,10.324,0,0,1,1.628-4.475C184.871,358.929,187.135,357.608,188.544,358.372Z" transform="translate(-143.682 -317.419)" fill="#092942"/>
    <path id="Path_7613" data-name="Path 7613" d="M196.445,367.916a4.742,4.742,0,0,1-.266-.443,16.077,16.077,0,0,1-1.731-6.157,15.517,15.517,0,0,1,.082-3.068c-.461.031-.922.092-1.379.155a1.863,1.863,0,0,0-.668-.2q-1.174.307-2.345.628a5.935,5.935,0,0,0-1.645,1.4,7.946,7.946,0,0,0-1.336,3.1c.582.792,1.128,1.618,1.694,2.416a38.779,38.779,0,0,0,5.424,6.141c.506-.908,1.011-1.817,1.508-2.731Q196.118,368.537,196.445,367.916Z" transform="translate(-148.29 -317.45)" fill="#051d2e"/>
    <path id="Path_7614" data-name="Path 7614" d="M190.832,380.324a29.237,29.237,0,0,0-2.769-3.953c-.92-1.046-2.27-2.027-3.6-1.609-.062.02-.119.049-.178.073l-1.372,7.023a3.75,3.75,0,0,1,.671.223,6.952,6.952,0,0,1,3.173,3.627,13.017,13.017,0,0,1,.811,3.21q2.074-3.582,4.1-7.191C191.4,381.251,191.117,380.783,190.832,380.324Z" transform="translate(-145.813 -327.057)" fill="#051d2e"/>
    <path id="Path_7615" data-name="Path 7615" d="M132.767,318.2a105.838,105.838,0,0,0,20.089,17.9,3.286,3.286,0,0,1-5.237,1.19c-3.695-2.1-7.442-4.233-10.417-7.266A16.043,16.043,0,0,1,132.767,318.2Z" transform="translate(-116.538 -294.108)" fill="#8dc63f"/>
    <path id="Path_7616" data-name="Path 7616" d="M132.767,318.2a16.045,16.045,0,0,0,4.435,11.82,27.013,27.013,0,0,0,3.061,2.648c.022-.8.03-1.608.017-2.412-.024-1.5-.107-3-.249-4.5Q136.217,322.155,132.767,318.2Z" transform="translate(-116.538 -294.108)" fill="#7cb332"/>
    <path id="Path_7617" data-name="Path 7617" d="M104.625,312.7q-3.078,1.158-6.06,2.477a4.178,4.178,0,0,0-1.911,1.315,3.282,3.282,0,0,0,.071,2.794q3.836,11.618,8.6,23.031c.2.479,2.878,7.133,3.391,7.211,2.768.42,3.343-5.783,6.117-5.986a4.592,4.592,0,0,0,2.141-.531,3.264,3.264,0,0,0,1.212-2.122c.891-3.575-2.452-21.615-4.716-25.029S108.743,311.147,104.625,312.7Z" transform="translate(-95.312 -290.521)" fill="#8dc63f"/>
    <path id="Path_7618" data-name="Path 7618" d="M121.855,347.865a3.593,3.593,0,0,0,1.095.219c-.169-1.6-.421-3.392-.733-5.247a23.988,23.988,0,0,1-5.364-1.428,29.193,29.193,0,0,1-3.013-1.388,50.574,50.574,0,0,1-9.167-6.534,29.222,29.222,0,0,0,3.769,5.815,25.863,25.863,0,0,0,4.807,3.928A37.411,37.411,0,0,0,121.855,347.865Z" transform="translate(-100.16 -303.031)" fill="#7cb332"/>
    <path id="Path_7619" data-name="Path 7619" d="M113.085,302.157a12.683,12.683,0,0,0-.17,4.832,1.248,1.248,0,0,1-1.325,1.45,12.317,12.317,0,0,1-1.908-.285,1.487,1.487,0,0,1-.683-.3,1.58,1.58,0,0,1-.384-.943q-.389-2.33-.779-4.661a1.964,1.964,0,0,1,.085-1.311,1.843,1.843,0,0,1,1.607-.663,4.319,4.319,0,0,1,1.938.287C112.064,300.84,113.234,301.516,113.085,302.157Z" transform="translate(-101.965 -283.651)" fill="#e67a5c"/>
    <g id="Group_7891" data-name="Group 7891">
      <path id="Path_7620" data-name="Path 7620" d="M112.838,284.715c.388,1.371.554,3.6-.182,4.9a3.615,3.615,0,0,1-2.9,1.715,6.642,6.642,0,0,1-3.193-.757,17,17,0,0,1-4.666-3.2c-1.282-1.239-2.447-2.917-2.2-4.83a5.858,5.858,0,0,1,2.179-3.541,6.99,6.99,0,0,1,4.509-1.8C110.421,277.274,111.881,281.334,112.838,284.715Z" transform="translate(-97.239 -270.184)" fill="#f98c6e"/>
      <path id="Path_7621" data-name="Path 7621" d="M116.687,290.533c.342.58.87.87,1.179.648s.282-.872-.06-1.451-.87-.87-1.18-.648S116.345,289.954,116.687,290.533Z" transform="translate(-107.01 -277.077)" fill="#092942"/>
      <path id="Path_7622" data-name="Path 7622" d="M125.013,288.429c.342.58.87.87,1.179.648s.282-.871-.06-1.451-.87-.87-1.179-.648S124.671,287.849,125.013,288.429Z" transform="translate(-111.868 -275.849)" fill="#092942"/>
      <path id="Path_7623" data-name="Path 7623" d="M125.226,294.307a1.7,1.7,0,0,1,.434.064.372.372,0,0,1,.257.332.529.529,0,0,1-.252.393,1.2,1.2,0,0,1-1.379.009,1.564,1.564,0,0,1-.592-1.315c0-.15.061-.473.263-.409.137.043.225.337.318.446A1.45,1.45,0,0,0,125.226,294.307Z" transform="translate(-111.258 -279.625)" fill="#d1684b"/>
      <g id="Group_7890" data-name="Group 7890" transform="translate(10.074 16.53)">
        <path id="Path_7624" data-name="Path 7624" d="M120.028,301.462a1.742,1.742,0,0,0,.378-.142.246.246,0,0,0,.117-.3.193.193,0,0,0-.276-.1,1.325,1.325,0,0,1-1.08.064,1.3,1.3,0,0,1-.729-.79.194.194,0,0,0-.27-.117.246.246,0,0,0-.13.3,1.634,1.634,0,0,0,1.992,1.093Z" transform="translate(-118.024 -300.052)" fill="#d1684b"/>
      </g>
      <path id="Path_7625" data-name="Path 7625" d="M98.85,277.843a5.086,5.086,0,0,0,.255-6.086,33.232,33.232,0,0,0,6.979-1.785,4.284,4.284,0,0,0,2.5-1.776,3.365,3.365,0,0,0,.15-2.275c-.529-2.286-2.262-4.095-4.1-5.557l.968,2.895a10.917,10.917,0,0,0-3.173-2.347,23.532,23.532,0,0,1,1.558,4.076,11.669,11.669,0,0,0-6.6,1.113,6.547,6.547,0,0,0-3.552,5.4,6.237,6.237,0,0,0,1.409,3.892A10.453,10.453,0,0,0,98.85,277.843Z" transform="translate(-93.839 -260.364)" fill="#092942"/>
      <path id="Path_7626" data-name="Path 7626" d="M103.192,298.1a1.122,1.122,0,0,0-.852.074,1.049,1.049,0,0,0-.432.907,1.94,1.94,0,0,0,.323.944,4,4,0,0,0,2.57,1.841.681.681,0,0,0,.643-.111c.469-.479.066-1.908-.23-2.382A3.378,3.378,0,0,0,103.192,298.1Z" transform="translate(-98.547 -282.357)" fill="#f98c6e"/>
    </g>
    <path id="Path_7627" data-name="Path 7627" d="M102.277,344.046a51.275,51.275,0,0,0,9.512,6.3,32.2,32.2,0,0,0,8.683,2.905c-.049-1.137-.177-2.5-.365-4-1.338-.478-2.663-.992-3.966-1.558a67.089,67.089,0,0,1-16.069-9.862Q101.141,340.945,102.277,344.046Z" transform="translate(-97.476 -305.565)" fill="#7cb332"/>
    <path id="Path_7628" data-name="Path 7628" d="M102.64,325.514c.884,3.672,4.026,6.73,7.767,8.692a43.662,43.662,0,0,0,12.346,3.751,2.887,2.887,0,0,1,.505,1.125,1.087,1.087,0,0,1-.428,1.158,2.25,2.25,0,0,1-1.181.245,29.213,29.213,0,0,1-15.392-4.032,23.178,23.178,0,0,1-9.648-11.014,5.1,5.1,0,0,1-.47-2.041,2.257,2.257,0,0,1,.992-1.838,3.283,3.283,0,0,1,3.665.487A7.041,7.041,0,0,1,102.64,325.514Z" transform="translate(-95.18 -295.857)" fill="#8dc63f"/>
    <path id="Path_7629" data-name="Path 7629" d="M169.358,348.428c.179.78.155,3,.308,3.993-7.6,2.75-15.487,3.824-23.6,6.1l-3.849,1.078a1.943,1.943,0,0,1-1.41.031c-.427-.224-.551-.967-.1-1.149,8.244-3.363,16.16-7.588,24.62-10.361a6.81,6.81,0,0,1,1.959-.429C167.95,347.673,169.208,347.773,169.358,348.428Z" transform="translate(-121.018 -311.315)" fill="#92c6f0"/>
    <g id="Group_7892" data-name="Group 7892" transform="translate(26.976 25.335)">
      <path id="Path_7630" data-name="Path 7630" d="M160.765,324.1l19.666-2.9a1.451,1.451,0,0,1,1.641,1.695,125.673,125.673,0,0,0-1.794,14.06c-6.961.928-13.625,1.761-21.673,2.983.534-5.431.789-9.745.918-14.439A1.456,1.456,0,0,1,160.765,324.1Z" transform="translate(-158.606 -321.192)" fill="#92c6f0"/>
      <path id="Path_7631" data-name="Path 7631" d="M188.544,340.678a2.115,2.115,0,1,1-1.626-2.8A2.309,2.309,0,0,1,188.544,340.678Z" transform="translate(-173.654 -330.912)" fill="#a6d7ff"/>
    </g>
    <path id="Path_7632" data-name="Path 7632" d="M124.935,380.947a12.307,12.307,0,0,0,7.706-.158c5.587-1.823,10.036-6,14.285-10.064,2.941,4.248,6.517,8.328,9.458,12.576a5.593,5.593,0,0,0,2.353,2.265c1.033.4,3.707-2.806,3.578-3.654a7.6,7.6,0,0,0-.933-2.386,135.347,135.347,0,0,0-8.214-13.24c-1.118-1.614-2.392-3.313-4.267-3.9-1.955-.608-4.042.152-5.958.873-6.168,2.32-11.156,3.065-18.009,5.205C117.09,370.916,121.061,379.552,124.935,380.947Z" transform="translate(-109.349 -319.765)" fill="#092942"/>
    <path id="Path_7633" data-name="Path 7633" d="M223.716,412.25c.27.053.592.153.655.421.075.322-.284.564-.59.692a38.293,38.293,0,0,1-9.719,2.187,2.219,2.219,0,0,1-1.23-.067,2.01,2.01,0,0,1-.884-1.114,2.66,2.66,0,0,1-.278-1.45,2.369,2.369,0,0,1,1.3-1.554,5.139,5.139,0,0,1,1.8-.783,10.162,10.162,0,0,1,1.926.358q2.267.4,4.53.831Q222.47,412.007,223.716,412.25Z" transform="translate(-162.58 -348.014)" fill="#fff"/>
    <path id="Path_7634" data-name="Path 7634" d="M176.628,414.545a2.068,2.068,0,0,0-.049,1.381,1.507,1.507,0,0,0,.926.779,4.315,4.315,0,0,0,1.23.168c2.224.081,4.45.075,6.675.068a11.571,11.571,0,0,0,1.866-.106c.345-.057.768-.257.726-.6-.03-.246-.287-.389-.513-.491q-2.51-1.133-5.08-2.128-1.3-.505-2.621-.974c-.494-.176-1.438-.716-1.98-.494C177.134,412.418,176.811,413.92,176.628,414.545Z" transform="translate(-142.058 -348.895)" fill="#fff"/>
  </g>
</svg>
