<svg id="badge" xmlns="http://www.w3.org/2000/svg" width="77.167" height="67.409" viewBox="0 0 77.167 67.409">
  <g id="Group_9611" data-name="Group 9611">
    <path id="Path_9406" data-name="Path 9406" d="M28.05,32.371H20.422a2.261,2.261,0,0,0-1.958,1.13L.3,64.958a2.26,2.26,0,0,0,0,2.261L18.464,98.675a2.238,2.238,0,0,0,1.958,1.105H28.05l10.533-2.941v-60.8Z" transform="translate(0 -32.371)" fill="#ff4949"/>
    <path id="Path_9407" data-name="Path 9407" d="M294.281,64.958,276.119,33.5a2.261,2.261,0,0,0-1.958-1.13h-7.628L256,36.044v60.8l10.533,2.941h7.628a2.238,2.238,0,0,0,1.958-1.105l18.161-31.456a2.26,2.26,0,0,0,0-2.261Z" transform="translate(-217.417 -32.371)" fill="#e50148"/>
  </g>
  <g id="Group_9612" data-name="Group 9612" transform="translate(28.05)">
    <path id="Path_9408" data-name="Path 9408" d="M186.111,32.371V99.78h10.533l3.233-33.7-3.233-33.7Z" transform="translate(-186.111 -32.371)" fill="#e50148"/>
    <path id="Path_9409" data-name="Path 9409" d="M256,32.371h10.533V99.78H256Z" transform="translate(-245.467 -32.371)" fill="#bf065b"/>
  </g>
  <g id="Group_9613" data-name="Group 9613" transform="translate(17.517 12.65)">
    <path id="Path_9410" data-name="Path 9410" d="M116.222,137.372a21.091,21.091,0,0,0,21.067,21.067l2.351-20.028-2.351-22.106A21.091,21.091,0,0,0,116.222,137.372Z" transform="translate(-116.222 -116.305)" fill="#ffd74a"/>
    <path id="Path_9411" data-name="Path 9411" d="M256,116.3v42.134a21.067,21.067,0,1,0,0-42.134Z" transform="translate(-234.933 -116.305)" fill="#fdbf00"/>
  </g>
  <g id="Group_9614" data-name="Group 9614" transform="translate(25.917 21.259)">
    <path id="Path_9412" data-name="Path 9412" d="M182.813,174.327l-3.612,4.831-5.711,1.942a2.261,2.261,0,0,0-1.119,3.444l3.479,4.928.082,6.032a2.261,2.261,0,0,0,2.93,2.129l5.762-1.785,1.34-10.27-1.34-12.157A2.261,2.261,0,0,0,182.813,174.327Z" transform="translate(-171.956 -173.42)" fill="#fdbf00"/>
  </g>
  <path id="Path_9413" data-name="Path 9413" d="M268.555,182.543a2.261,2.261,0,0,0-1.422-1.442l-5.711-1.942-3.612-4.831a2.261,2.261,0,0,0-1.811-.907v22.428l5.762,1.785a2.261,2.261,0,0,0,2.93-2.129l.082-6.032,3.479-4.928a2.26,2.26,0,0,0,.3-2Z" transform="translate(-217.416 -152.162)" fill="#ff9102"/>
</svg>
