<svg id="_006-badge-2" data-name="006-badge-2" xmlns="http://www.w3.org/2000/svg" width="66.305" height="88.53" viewBox="0 0 66.305 88.53">
  <path id="Path_8364" data-name="Path 8364" d="M116.263,324.852H82.926a2.594,2.594,0,0,0-2.594,2.594v27.172a2.593,2.593,0,0,0,4.032,2.158l15.23-10.153,15.23,10.153a2.593,2.593,0,0,0,4.032-2.158V327.445A2.593,2.593,0,0,0,116.263,324.852Zm0,0" transform="translate(-66.441 -268.682)" fill="#ff415b"/>
  <path id="Path_8365" data-name="Path 8365" d="M207.808,324.852H191.016V346.7l.124-.082,15.229,10.153a2.593,2.593,0,0,0,4.032-2.158V327.445A2.593,2.593,0,0,0,207.808,324.852Zm0,0" transform="translate(-157.987 -268.682)" fill="#c9001c"/>
  <path id="Path_8366" data-name="Path 8366" d="M33.153,66.305A33.153,33.153,0,1,1,66.3,33.153,33.19,33.19,0,0,1,33.153,66.305Zm0,0" fill="#fff36c"/>
  <path id="Path_8367" data-name="Path 8367" d="M191.14,0h-.124V66.3l.124,0A33.153,33.153,0,0,0,191.14,0Zm0,0" transform="translate(-157.987)" fill="#ffcd00"/>
  <path id="Path_8368" data-name="Path 8368" d="M99.165,142.923a2.588,2.588,0,0,1-1.834-.759L82.963,127.8a10.927,10.927,0,1,1,15.454-15.454l.748.748.705-.705a10.928,10.928,0,1,1,15.456,15.454L101,142.164A2.588,2.588,0,0,1,99.165,142.923Zm0,0" transform="translate(-65.971 -90.27)" fill="#ff415b"/>
  <path id="Path_8369" data-name="Path 8369" d="M199.616,109.383a10.862,10.862,0,0,0-7.728,3.2l-.705.705-.167-.167v29.993c.056,0,.111.008.168.008a2.588,2.588,0,0,0,1.834-.759l14.326-14.326a10.928,10.928,0,0,0-7.728-18.655Zm0,0" transform="translate(-157.987 -90.47)" fill="#c9001c"/>
</svg>
