<svg id="Component_36_1" data-name="Component 36 – 1" xmlns="http://www.w3.org/2000/svg" width="100.451" height="95.534" viewBox="0 0 100.451 95.534">
  <path id="Path_8488" data-name="Path 8488" d="M114.249,137.523H75.881l50.225,16.32Z" transform="translate(-75.881 -101.033)" fill="#e9b331"/>
  <path id="Path_8489" data-name="Path 8489" d="M165.355,166.6Z" transform="translate(-115.129 -113.786)" fill="#ffdb31"/>
  <path id="Path_8490" data-name="Path 8490" d="M165.355,166.6h0l31.04,42.724-11.856-36.492Z" transform="translate(-115.129 -113.786)" fill="#ffdb31"/>
  <path id="Path_8491" data-name="Path 8491" d="M110.055,209.321,141.1,186.766V166.6Z" transform="translate(-90.872 -113.786)" fill="#e9b331"/>
  <path id="Path_8492" data-name="Path 8492" d="M215.581,137.523H177.211l-11.856,16.32Z" transform="translate(-115.129 -101.033)" fill="#ffdb31"/>
  <path id="Path_8493" data-name="Path 8493" d="M165.355,166.6Z" transform="translate(-115.129 -113.786)" fill="#ffdb31"/>
  <path id="Path_8494" data-name="Path 8494" d="M165.355,186.766l31.04,22.554L165.355,166.6Z" transform="translate(-115.129 -113.786)" fill="#d39e2d"/>
  <path id="Path_8495" data-name="Path 8495" d="M141.1,166.6l-19.185,6.232-11.858,36.492L141.1,166.6Z" transform="translate(-90.872 -113.786)" fill="#ffdb31"/>
  <path id="Path_8496" data-name="Path 8496" d="M144.232,109.008l11.857,16.32V72.518Z" transform="translate(-105.863 -72.518)" fill="#ffdb31"/>
  <path id="Path_8497" data-name="Path 8497" d="M165.355,72.518v52.81l11.856-16.32Z" transform="translate(-115.129 -72.518)" fill="#e9b331"/>
  <path id="Path_8498" data-name="Path 8498" d="M126.106,153.843l-50.225-16.32,31.041,22.552,19.185-6.232Z" transform="translate(-75.881 -101.033)" fill="#d39e2d"/>
  <path id="Path_8499" data-name="Path 8499" d="M165.355,153.843l19.183,6.232,31.042-22.552-50.226,16.32Z" transform="translate(-115.129 -101.033)" fill="#d39e2d"/>
  <path id="Path_8500" data-name="Path 8500" d="M165.355,166.6Z" transform="translate(-115.129 -113.786)" fill="#ffdb31"/>
  <path id="Path_8501" data-name="Path 8501" d="M165.355,166.6Z" transform="translate(-115.129 -113.786)" fill="#ffdb31"/>
</svg>
