<svg id="Component_55_1" data-name="Component 55 – 1" xmlns="http://www.w3.org/2000/svg" xmlns:xlink="http://www.w3.org/1999/xlink" width="178.352" height="269.111" viewBox="0 0 178.352 269.111">
  <defs>
    <linearGradient id="linear-gradient" x1="0.5" x2="0.5" y2="1" gradientUnits="objectBoundingBox">
      <stop offset="0" stop-color="#10a3ff"/>
      <stop offset="1" stop-color="#002984"/>
    </linearGradient>
  </defs>
  <g id="Group_9550" data-name="Group 9550" transform="translate(32.923)">
    <g id="Group_9539" data-name="Group 9539" transform="translate(11.591 0.888)">
      <path id="Path_9339" data-name="Path 9339" d="M168.914,148.787a101.136,101.136,0,0,0,7.681,26.032c4.625,10.482,11.422,14.235,22.525,15.912a26.99,26.99,0,0,0,9.826.153,23.973,23.973,0,0,0,7.854-3.667,50.94,50.94,0,0,0,16.909-17.945,30.027,30.027,0,0,0,3.173-8.348,37.051,37.051,0,0,0-.141-12.727,27.57,27.57,0,0,0-2.349-8.473,26.294,26.294,0,0,0-6.416-7.6c-8.3-7.272-18.989-12.756-29.977-11.733-6.757.629-13.047,3.645-19.676,5.1-3.029.665-7.372-1.033-9.211,2.351a9.72,9.72,0,0,0-.9,4.016A79.38,79.38,0,0,0,168.914,148.787Z" transform="translate(-168.037 -74.742)" fill="#272e3d"/>
      <path id="Path_9340" data-name="Path 9340" d="M197.329,84.827l11.487,12.394a19.53,19.53,0,0,1,3.843,5.2c1.317,3,1.044,6.418.894,9.69a51.882,51.882,0,0,0,1.414,16.413,50.34,50.34,0,0,0,6.177,13.077c2.623,4.161,5.627,8.186,9.591,11.1,4.4,3.234,9.75,4.926,15.115,5.928a69.448,69.448,0,0,0,29.368-.862c6.536-1.623,13.4-5.062,17.047-11.069,3.308-5.443,4.319-17.046-.162-22.139,4.794-1.419,8.833-5.675,9.257-10.656.576-6.77-5.185-12.468-11.241-15.548s-12.931-4.711-18.252-8.936S263.4,78.866,259.389,73.371a58.451,58.451,0,0,0-52-23.231c-2.443,7.969-5.529,15.351-7.972,23.32-1.19,3.882-2.391,7.833-2.4,11.892C196.625,84.943,197.718,85.235,197.329,84.827Z" transform="translate(-178.244 -49.872)" fill="#272e3d"/>
    </g>
    <g id="Group_9548" data-name="Group 9548">
      <g id="Group_9544" data-name="Group 9544" transform="translate(0 0.997)">
        <path id="Path_9341" data-name="Path 9341" d="M160.5,80.107s.118-7.778-6.334-6.629S149.115,93.3,157.33,94.142s3.462-14.627,3.462-14.627Z" transform="translate(-150.113 -58.28)" fill="#ce786a"/>
        <path id="Path_9342" data-name="Path 9342" d="M195.254,50.336s-17.269-2.456-25.586,6.782S156.9,88.071,158.682,99.285s13.23,18.333,30.2,19.936,29.188-2.848,36.607-18.512,2.968-36.133,2.968-36.133A51.857,51.857,0,0,0,195.254,50.336Z" transform="translate(-153.003 -50.041)" fill="#efaf8f"/>
        <g id="Group_9543" data-name="Group 9543" transform="translate(11.076 18.5)">
          <g id="Group_9542" data-name="Group 9542" transform="translate(5.523)">
            <g id="Group_9540" data-name="Group 9540" transform="translate(8.131)">
              <path id="Path_9343" data-name="Path 9343" d="M195.015,97.352a.375.375,0,0,1-.188-.05l-6.28-3.589a.381.381,0,0,1-.116-.558L199.2,78.8a.38.38,0,0,1,.609.456L189.3,93.266l5.906,3.375a.38.38,0,0,1-.189.711Z" transform="translate(-188.354 -78.647)"/>
            </g>
            <path id="Path_9344" data-name="Path 9344" d="M215.723,89.1s5.234-6.881,11.216-2.117l-.788,1.657S222,86.411,215.723,89.1Z" transform="translate(-189.892 -80.999)"/>
            <path id="Path_9345" data-name="Path 9345" d="M184.9,86.926s-1.879-7.808-9.123-4.507l.966.966S181.321,82.205,184.9,86.926Z" transform="translate(-175.781 -79.692)"/>
            <g id="Group_9541" data-name="Group 9541" transform="translate(10.358 17.362)">
              <path id="Path_9346" data-name="Path 9346" d="M191.8,110.7a11.945,11.945,0,0,0,4.327,1.542,7.725,7.725,0,0,0,4.217-.633l.976-.483c.3-.214.6-.435.905-.641a5.259,5.259,0,0,0,.872-.707c.276-.257.568-.5.858-.753.5-.579,1.063-1.12,1.581-1.711.5-.609.993-1.225,1.557-1.819-.268.759-.6,1.5-.94,2.239-.387.711-.85,1.39-1.307,2.075a10.72,10.72,0,0,1-3.881,3.187,6.547,6.547,0,0,1-1.23.424,5.069,5.069,0,0,1-1.285.226,5.674,5.674,0,0,1-1.3-.012,5.438,5.438,0,0,1-1.265-.234A7.825,7.825,0,0,1,191.8,110.7Z" transform="translate(-191.797 -105.493)"/>
            </g>
          </g>
          <circle id="Ellipse_322" data-name="Ellipse 322" cx="6.282" cy="6.282" r="6.282" transform="translate(0 6.901)" fill="#d3796a" opacity="0.46" style="mix-blend-mode: multiply;isolation: isolate"/>
          <circle id="Ellipse_323" data-name="Ellipse 323" cx="6.282" cy="6.282" r="6.282" transform="translate(36.173 11.955)" fill="#d3796a" opacity="0.46" style="mix-blend-mode: multiply;isolation: isolate"/>
        </g>
      </g>
      <g id="Group_9545" data-name="Group 9545" transform="translate(10.383)">
        <path id="Path_9347" data-name="Path 9347" d="M213.4,49.929c-.435.053-4.283,19.518,35.743,36.825l1.083-25.2S229.983,47.912,213.4,49.929Z" transform="translate(-182.753 -48.932)" fill="#272e3d"/>
        <path id="Path_9348" data-name="Path 9348" d="M166.169,67.4s23.4-5.509,30.65-17.905C196.819,49.5,171.258,42.137,166.169,67.4Z" transform="translate(-166.169 -48.498)" fill="#272e3d"/>
      </g>
      <g id="Group_9547" data-name="Group 9547" transform="translate(69.075 33.373)">
        <path id="Path_9349" data-name="Path 9349" d="M256.924,105.867s7.5-9.62,14.366-4.006,2.97,23.729-14.366,19.054Z" transform="translate(-256.924 -100.102)" fill="#ce786a"/>
        <g id="Group_9546" data-name="Group 9546" transform="translate(3.409 5.66)">
          <path id="Path_9350" data-name="Path 9350" d="M262.2,115.973a8.541,8.541,0,0,1,3.325-5.692,8.107,8.107,0,0,1,1.487-.856,7.423,7.423,0,0,1,1.645-.461,7.628,7.628,0,0,1,1.683-.109,13.723,13.723,0,0,1,1.648.242,14.173,14.173,0,0,0-3.2.447,7.986,7.986,0,0,0-2.811,1.35,9.841,9.841,0,0,0-2.2,2.246A14.819,14.819,0,0,0,262.2,115.973Z" transform="translate(-262.196 -108.855)"/>
          <path id="Path_9351" data-name="Path 9351" d="M263.733,115.178a5.885,5.885,0,0,1,7.308.389,13.26,13.26,0,0,0-7.308-.389Z" transform="translate(-262.739 -110.705)"/>
        </g>
      </g>
    </g>
    <g id="Group_9549" data-name="Group 9549" transform="translate(25 60.424)">
      <path id="Path_9352" data-name="Path 9352" d="M226.547,180.052s-17.416.936-28.457,1.575c-4.87.289-8.5.51-8.857.57-.92.16.632-22.864,1.286-32.048.168-2.29.274-3.72.274-3.72l29.263-4.5Z" transform="translate(-188.834 -141.932)" fill="#efaf8f"/>
      <path id="Path_9353" data-name="Path 9353" d="M197.912,186.3c-4.87.289-8.5.51-8.857.57-.921.16.631-22.864,1.286-32.048,0,0,7.175,2.343,18.406,1.712C208.747,156.53,210.527,178.862,197.912,186.3Z" transform="translate(-188.771 -146.485)" fill="#d3796a" opacity="0.46" style="mix-blend-mode: multiply;isolation: isolate"/>
    </g>
  </g>
  <g id="Group_9570" data-name="Group 9570" transform="translate(0 83.783)">
    <g id="Group_9551" data-name="Group 9551" transform="translate(119.567 66.696)">
      <path id="Path_9354" data-name="Path 9354" d="M290.906,348.366s38.643,16.709,46.688-35.445l-13.155-31.736-40.348,34.25Z" transform="translate(-284.091 -281.184)" fill="#272e3d"/>
      <path id="Path_9355" data-name="Path 9355" d="M355.263,338.183a22.217,22.217,0,0,1-13.406,8.8,22.6,22.6,0,0,1-10.036-.334c-15.522-3.858,8.271-16.9,8.271-16.9l1.849-1.461,10.515-8.324Z" transform="translate(-299.096 -294.886)" fill="#fff"/>
      <path id="Path_9356" data-name="Path 9356" d="M341.941,332.839l-.083,4.892v13.8a22.6,22.6,0,0,1-10.036-.334c-15.522-3.858,8.271-16.9,8.271-16.9Z" transform="translate(-299.096 -299.433)" fill="#ccdfe5"/>
    </g>
    <g id="Group_9553" data-name="Group 9553" transform="translate(0 9.52)">
      <path id="Path_9357" data-name="Path 9357" d="M153.564,203.328l-42.514,16.343a4.692,4.692,0,0,0-6.469.949c-2.225,2.567-1.345,4.077-1.345,4.077s-12.91,70.329,7.475,112.119c0,0,45.367-8.28,84.129-40.77l-10.153-15.629-44.757,8.834-2.512-51.643Z" transform="translate(-99.205 -196.502)" fill="url(#linear-gradient)"/>
      <path id="Path_9358" data-name="Path 9358" d="M210.415,192.773l64.279,14.115-17.968,68.026L241.162,282.2l7.089,59.755L162.6,349.475,143.289,231.552l17.675-25.326,18.753-11.608,14.165,4.3Z" transform="translate(-114.78 -192.773)" fill="url(#linear-gradient)"/>
      <g id="Group_9552" data-name="Group 9552" transform="translate(9.076 25.131)">
        <path id="Path_9359" data-name="Path 9359" d="M178.942,329.038c-2.924,1.087-5.873,2.1-8.826,3.091s-5.925,1.93-8.887,2.9c-2.98.909-5.95,1.85-8.939,2.73l-4.488,1.305c-1.5.409-3,.843-4.513,1.229,1.46-.551,2.933-1.055,4.4-1.584l4.425-1.507c2.953-1,5.925-1.93,8.887-2.9,2.981-.908,5.95-1.851,8.94-2.729S175.923,329.826,178.942,329.038Z" transform="translate(-123.855 -266.046)" fill="#ccdfe5"/>
        <path id="Path_9360" data-name="Path 9360" d="M158.206,316.385c-.433-3.767-.784-7.541-1.121-11.315s-.611-7.554-.92-11.33c-.247-3.781-.527-7.559-.744-11.343l-.309-5.676c-.076-1.894-.177-3.786-.23-5.681.224,1.883.4,3.77.6,5.654l.521,5.661c.338,3.774.611,7.553.918,11.33.246,3.781.528,7.559.742,11.343S158.086,312.6,158.206,316.385Z" transform="translate(-127.952 -245.556)" fill="#ccdfe5"/>
        <path id="Path_9361" data-name="Path 9361" d="M138.85,339.542a61.631,61.631,0,0,1,13.656.49,53.854,53.854,0,0,1-6.841.135A54.577,54.577,0,0,1,138.85,339.542Z" transform="translate(-122.287 -269.693)" fill="#ccdfe5"/>
        <path id="Path_9362" data-name="Path 9362" d="M151.5,389.616q5.307-2.119,10.552-4.357c3.5-1.5,6.988-3,10.432-4.612,1.74-.768,3.455-1.586,5.181-2.384l5.132-2.488c1.714-.823,3.411-1.683,5.1-2.551,1.714-.83,3.375-1.757,5.084-2.6-3.239,2-6.543,3.911-9.922,5.674-3.367,1.788-6.805,3.436-10.263,5.042-3.479,1.557-6.975,3.077-10.527,4.46S155.148,388.5,151.5,389.616Z" transform="translate(-126.758 -280.737)" fill="#ccdfe5"/>
        <path id="Path_9363" data-name="Path 9363" d="M113.239,231.633a28.743,28.743,0,0,1,4.672,1.678,28.4,28.4,0,0,1,4.361,2.371A28.422,28.422,0,0,1,117.6,234,28.771,28.771,0,0,1,113.239,231.633Z" transform="translate(-113.239 -231.633)" fill="#ccdfe5"/>
      </g>
    </g>
    <g id="Group_9556" data-name="Group 9556" transform="translate(50.767)">
      <g id="Group_9554" data-name="Group 9554">
        <path id="Path_9364" data-name="Path 9364" d="M206.041,193.719,198.1,210.74l-15.522-12.014-4.87-3.766,7.852-16.907,5.379,4.116Z" transform="translate(-177.706 -178.052)" fill="#fff"/>
        <path id="Path_9365" data-name="Path 9365" d="M190.938,182.168c-1.864,3.653-6.071,11.908-8.362,16.557l-4.87-3.766,7.852-16.907Z" transform="translate(-177.706 -178.052)" fill="#ccdfe5"/>
      </g>
      <g id="Group_9555" data-name="Group 9555" transform="translate(28.335)">
        <path id="Path_9366" data-name="Path 9366" d="M243.274,193.719l-13.049,20.62-1.735-4.1-6.97-16.519,14.023-15.667h2.511Z" transform="translate(-221.521 -178.052)" fill="#fff"/>
        <path id="Path_9367" data-name="Path 9367" d="M226.025,191.216s9.815,12.935,9.815,13.193c0,.19-4.755,3.842-7.35,5.828l-6.97-16.519,14.023-15.666h2.51Z" transform="translate(-221.521 -178.052)" fill="#ccdfe5"/>
      </g>
    </g>
    <g id="Group_9565" data-name="Group 9565" transform="translate(69.127 11.368)">
      <g id="Group_9558" data-name="Group 9558" transform="translate(39.855 86.413)">
        <g id="Group_9557" data-name="Group 9557">
          <path id="Path_9368" data-name="Path 9368" d="M333.981,409.957l-32.269-16.808L267.724,416.8l.023-54.251.008-24.926v-4.6l41.057-3.766.274.89.54,1.735,7.053,22.6Z" transform="translate(-267.724 -329.25)" fill="#bc4040"/>
          <path id="Path_9369" data-name="Path 9369" d="M316.691,354.96c-.335.312-.67.616-1.012.905-19.41,17.067-40.06,10.645-47.92,7.167l.008-24.927,41.331-7.479.54,1.734Z" transform="translate(-267.736 -329.737)" fill="#8c1f1f" opacity="0.5"/>
        </g>
        <path id="Path_9370" data-name="Path 9370" d="M356.074,411.391,337.76,356.813l-7.5-22.347,1.461-1.156,7.053,22.6Z" transform="translate(-289.817 -330.684)" fill="#d87171"/>
      </g>
      <g id="Group_9564" data-name="Group 9564">
        <g id="Group_9560" data-name="Group 9560" transform="translate(0 1.796)">
          <path id="Path_9371" data-name="Path 9371" d="M310.04,250.375a51.968,51.968,0,0,1-45.873,51.61c-.768.091-1.544.168-2.32.221-1.248.091-2.5.137-3.774.137-1.012,0-2.009-.03-3.005-.091-.776-.038-1.552-.1-2.328-.175a51.8,51.8,0,0,1-5.9-.951q-1.129-.251-2.237-.548c-1.544-.411-3.051-.89-4.535-1.445-.791-.282-1.568-.594-2.336-.921a51.62,51.62,0,0,1-5.9-2.975c-.677-.4-1.339-.806-1.993-1.225a52,52,0,0,1-6.955-5.4c-.563-.51-1.119-1.035-1.651-1.583a51.9,51.9,0,0,1-8.4-11.063c-.388-.669-.753-1.354-1.111-2.047a52.192,52.192,0,0,1-3.165-7.715c-.236-.723-.449-1.453-.647-2.192a51.958,51.958,0,0,1-1.515-8.05c-.083-.753-.144-1.514-.19-2.274-.069-1.1-.107-2.2-.107-3.31,0-.563.008-1.119.03-1.674.023-.776.061-1.544.122-2.306a52.347,52.347,0,0,1,.852-6.232c.153-.768.32-1.529.51-2.282a49.369,49.369,0,0,1,1.978-6.262c.281-.746.593-1.484.92-2.214a49.92,49.92,0,0,1,3.546-6.673c.441-.708.905-1.4,1.385-2.085a52.16,52.16,0,0,1,4.01-5.044c.586-.647,1.179-1.279,1.8-1.895a50.421,50.421,0,0,1,7.191-6.026c.874-.616,1.773-1.2,2.686-1.758a51.984,51.984,0,0,1,78.91,44.451Z" transform="translate(-206.096 -198.407)" fill="#e59351"/>
          <g id="Group_9559" data-name="Group 9559" transform="translate(0.03 7.517)" style="mix-blend-mode: multiply;isolation: isolate">
            <path id="Path_9372" data-name="Path 9372" d="M218.8,261.091q-5.582.388-11.155.411c.153-.768.32-1.529.51-2.282,3.545-.03,7.1-.16,10.645-.411C220.272,258.7,220.257,260.984,218.8,261.091Z" transform="translate(-206.675 -227.262)" fill="#eda71b" opacity="0.64"/>
            <path id="Path_9373" data-name="Path 9373" d="M222.2,249.116q-5.364-.182-10.706-.563c.281-.746.593-1.484.92-2.214q4.885.331,9.785.495C223.671,246.879,223.671,249.162,222.2,249.116Z" transform="translate(-208.035 -222.858)" fill="#eda71b" opacity="0.64"/>
            <path id="Path_9374" data-name="Path 9374" d="M228.051,236.016q-4.851-.366-9.648-1.134c.441-.707.905-1.4,1.385-2.085,2.739.418,5.494.723,8.264.936C229.512,233.84,229.519,236.122,228.051,236.016Z" transform="translate(-210.474 -218.074)" fill="#eda71b" opacity="0.64"/>
            <path id="Path_9375" data-name="Path 9375" d="M236.7,226.038a98.187,98.187,0,0,1-9.952-2.077c.586-.647,1.179-1.279,1.8-1.895q4.337,1.085,8.758,1.773C238.759,224.061,238.135,226.26,236.7,226.038Z" transform="translate(-213.422 -214.283)" fill="#eda71b" opacity="0.64"/>
            <path id="Path_9376" data-name="Path 9376" d="M248.458,213.341q-3.915-.7-7.806-1.552c.874-.616,1.773-1.2,2.686-1.758q2.853.594,5.729,1.1C250.513,211.393,249.9,213.592,248.458,213.341Z" transform="translate(-218.335 -210.031)" fill="#eda71b" opacity="0.64"/>
            <path id="Path_9377" data-name="Path 9377" d="M216.514,272.673l-10.371,1.484c.023-.776.061-1.544.122-2.306,3.218-.464,6.429-.913,9.64-1.377C217.343,270.269,217.96,272.468,216.514,272.673Z" transform="translate(-206.143 -231.381)" fill="#eda71b" opacity="0.64"/>
            <path id="Path_9378" data-name="Path 9378" d="M214.509,284.273q-4.029.616-8.058,1.24c-.083-.753-.144-1.514-.19-2.274l7.64-1.164C215.338,281.853,215.954,284.053,214.509,284.273Z" transform="translate(-206.185 -235.478)" fill="#eda71b" opacity="0.64"/>
            <path id="Path_9379" data-name="Path 9379" d="M220.919,297.936q-5.707,1.245-11.375,2.641c-.236-.723-.449-1.453-.647-2.192q5.684-1.4,11.413-2.648C221.748,295.426,222.357,297.625,220.919,297.936Z" transform="translate(-207.116 -240.3)" fill="#eda71b" opacity="0.64"/>
            <path id="Path_9380" data-name="Path 9380" d="M226.121,312.782q-5.17,1.21-10.219,2.8c-.388-.669-.753-1.354-1.111-2.047q5.3-1.7,10.721-2.952C226.95,310.248,227.551,312.455,226.121,312.782Z" transform="translate(-209.198 -245.543)" fill="#eda71b" opacity="0.64"/>
            <path id="Path_9381" data-name="Path 9381" d="M239.1,326.782q-3.972,3.253-7.951,6.513c-.563-.51-1.119-1.035-1.651-1.582q3.995-3.276,7.989-6.543C238.613,324.24,240.242,325.853,239.1,326.782Z" transform="translate(-214.394 -250.61)" fill="#eda71b" opacity="0.64"/>
            <path id="Path_9382" data-name="Path 9382" d="M249.729,340.435a39.925,39.925,0,0,0-4.93,4.207c-.677-.4-1.339-.806-1.993-1.225a44.943,44.943,0,0,1,5.767-4.954C249.767,337.6,250.908,339.583,249.729,340.435Z" transform="translate(-219.095 -255.331)" fill="#eda71b" opacity="0.64"/>
            <path id="Path_9383" data-name="Path 9383" d="M262.322,344.858q-2.362,2.785-4.969,5.311c-.791-.282-1.568-.594-2.336-.921a74.391,74.391,0,0,0,5.692-6C261.659,342.127,263.265,343.748,262.322,344.858Z" transform="translate(-223.41 -256.962)" fill="#eda71b" opacity="0.64"/>
            <path id="Path_9384" data-name="Path 9384" d="M270.374,347.506q-1.2,2.932-2.5,5.813-1.129-.251-2.237-.548,1.313-2.91,2.534-5.874C268.723,345.558,270.929,346.144,270.374,347.506Z" transform="translate(-227.163 -258.118)" fill="#eda71b" opacity="0.64"/>
            <path id="Path_9385" data-name="Path 9385" d="M281.7,348.478a34.9,34.9,0,0,1-1.088,6.2c-.023.069-.038.137-.061.206-.776-.038-1.552-.1-2.328-.175a31.985,31.985,0,0,0,1.194-6.232C279.543,347.025,281.833,347.017,281.7,348.478Z" transform="translate(-231.607 -258.558)" fill="#eda71b" opacity="0.64"/>
            <path id="Path_9386" data-name="Path 9386" d="M295.574,346.8c-.274,2.412-.586,4.824-.951,7.228-.768.091-1.544.167-2.32.22q.57-3.709.989-7.449C293.451,345.351,295.741,345.337,295.574,346.8Z" transform="translate(-236.583 -257.965)" fill="#eda71b" opacity="0.64"/>
          </g>
        </g>
        <g id="Group_9563" data-name="Group 9563" transform="translate(5.288)">
          <g id="Group_9562" data-name="Group 9562">
            <g id="Group_9561" data-name="Group 9561">
              <path id="Path_9387" data-name="Path 9387" d="M318.21,247.6a51.968,51.968,0,1,1-51.969-51.968q2.466,0,4.863.228A51.969,51.969,0,0,1,318.21,247.6Z" transform="translate(-214.273 -195.63)" fill="#ffca45"/>
              <circle id="Ellipse_324" data-name="Ellipse 324" cx="42.144" cy="42.144" r="42.144" transform="translate(9.823 9.825)" fill="none" stroke="#e59351" stroke-miterlimit="10" stroke-width="1"/>
            </g>
            <path id="Path_9388" data-name="Path 9388" d="M307.634,268.93,290.062,273.3,283.7,290.26,274.113,274.9l-18.091-.808,11.645-13.868-4.822-17.455,16.788,6.79,15.11-9.98-1.27,18.064Z" transform="translate(-229.023 -211.157)" fill="#e59351"/>
          </g>
          <path id="Path_9389" data-name="Path 9389" d="M336.367,281.97c14.6-19.851,13.726-49.13-3.051-67.345-8.3-9.009-19.433-15.111-31.165-18.641a51.96,51.96,0,0,1,34.217,85.987Z" transform="translate(-245.319 -195.755)" fill="#ffefae"/>
        </g>
      </g>
    </g>
    <g id="Group_9569" data-name="Group 9569" transform="translate(56.877 75.861)">
      <g id="Group_9568" data-name="Group 9568" transform="translate(0 2.186)">
        <g id="Group_9567" data-name="Group 9567" transform="translate(0 16.559)">
          <g id="Group_9566" data-name="Group 9566">
            <path id="Path_9390" data-name="Path 9390" d="M222.231,343.99l-21.822,17.835a145.826,145.826,0,0,1-10.059-21.769,65.124,65.124,0,0,1-3.2-12.3l20.779-3.409c.167-.053,1.872,2.2,4.055,5.2C216.212,335.361,222.231,343.99,222.231,343.99Z" transform="translate(-187.154 -324.343)" fill="#fff"/>
            <path id="Path_9391" data-name="Path 9391" d="M211.989,329.54l-21.639,10.515a65.124,65.124,0,0,1-3.2-12.3l20.779-3.409C208.1,324.29,209.806,326.542,211.989,329.54Z" transform="translate(-187.154 -324.343)" fill="#ccdfe5"/>
          </g>
          <path id="Path_9392" data-name="Path 9392" d="M230.79,355.992a2.284,2.284,0,1,1-2.284-2.284A2.284,2.284,0,0,1,230.79,355.992Z" transform="translate(-200.956 -334.717)" fill="#272e3d"/>
        </g>
        <path id="Path_9393" data-name="Path 9393" d="M248.877,320.616a14.441,14.441,0,0,1-5.859,7.654,22.765,22.765,0,0,1-5.851,2.922c-2.13.723-4.01,1.78-6.338,1.21a11.146,11.146,0,0,1-4.329-2.481,13.431,13.431,0,0,1-5.281-10.226,32.392,32.392,0,0,1,.023-3.439,17.538,17.538,0,0,1,3.751-10.059,22.5,22.5,0,0,1,8.636-6.886c1.826-.723,3.272-.769,3.926-.107v.008a.822.822,0,0,1,.19.236c1.18,2.039-11.36,10.074-9.648,17.9,0,0,9.214-13.506,12.646-11.892,3.386,1.582-7.83,15.78-8.134,16.168.32-.358,11.383-12.615,13.7-10.812,2.359,1.818-11.033,14.89-11.033,14.89A11.756,11.756,0,0,0,243,323.233c3.211-2.785.959-7.624,4.71-6.97C249.562,316.583,249.219,319.353,248.877,320.616Z" transform="translate(-199.176 -298.737)" fill="#efaf8f"/>
      </g>
      <path id="Path_9394" data-name="Path 9394" d="M353.9,317.927c3.027-7.344-9.033-23.731-11.941-22.506s9.117,15.585,7.4,17.826-8.93-14.458-13.217-13.234,10.126,17.327,8.1,19.278-9.633-13.307-13.307-11.47,8.795,15.6,7.586,16.492-4.032,2.759-4.032,2.759S349.361,328.951,353.9,317.927Z" transform="translate(-237.712 -295.356)" fill="#efaf8f"/>
    </g>
  </g>
</svg>
