<svg id="Component_6_1" data-name="Component 6 – 1" xmlns="http://www.w3.org/2000/svg" xmlns:xlink="http://www.w3.org/1999/xlink" width="919" height="212" viewBox="0 0 919 212">
  <defs>
    <clipPath id="clip-path">
      <rect id="Rectangle_1486" data-name="Rectangle 1486" width="919" height="212" transform="translate(501 238)" fill="#fff" stroke="#707070" stroke-width="1"/>
    </clipPath>
    <linearGradient id="linear-gradient" y1="0.5" x2="1" y2="0.5" gradientUnits="objectBoundingBox">
      <stop offset="0" stop-color="#ab482c"/>
      <stop offset="1" stop-color="#892a36"/>
    </linearGradient>
    <linearGradient id="linear-gradient-2" x1="0.5" y1="1" x2="0.5" gradientUnits="objectBoundingBox">
      <stop offset="0.004" stop-color="#ed8652"/>
      <stop offset="1" stop-color="#fbbd6d"/>
    </linearGradient>
    <linearGradient id="linear-gradient-3" x1="0.149" y1="-0.002" x2="1.049" y2="0.929" gradientUnits="objectBoundingBox">
      <stop offset="0" stop-color="#52a2d4"/>
      <stop offset="0.996" stop-color="#1d72c2"/>
    </linearGradient>
    <linearGradient id="linear-gradient-4" y1="0.5" x2="1" y2="0.5" gradientUnits="objectBoundingBox">
      <stop offset="0.004" stop-color="#c86d52"/>
      <stop offset="1" stop-color="#e0792f"/>
    </linearGradient>
    <linearGradient id="linear-gradient-5" y1="0.5" x2="1" y2="0.5" gradientUnits="objectBoundingBox">
      <stop offset="0" stop-color="#a24821"/>
      <stop offset="1" stop-color="#7f1825"/>
    </linearGradient>
    <linearGradient id="linear-gradient-6" x1="0.5" y1="1" x2="0.5" gradientUnits="objectBoundingBox">
      <stop offset="0" stop-color="#aa4936"/>
      <stop offset="1" stop-color="#ff9240"/>
    </linearGradient>
    <linearGradient id="linear-gradient-7" y1="0.5" x2="1" y2="0.5" gradientUnits="objectBoundingBox">
      <stop offset="0" stop-color="#a23730"/>
      <stop offset="1" stop-color="#7f1825"/>
    </linearGradient>
    <linearGradient id="linear-gradient-8" y1="0.5" x2="1" y2="0.5" gradientUnits="objectBoundingBox">
      <stop offset="0" stop-color="#ab482c"/>
      <stop offset="1" stop-color="#a73c3b"/>
    </linearGradient>
    <linearGradient id="linear-gradient-9" x1="0.5" y1="1" x2="0.5" y2="0" xlink:href="#linear-gradient-4"/>
    <linearGradient id="linear-gradient-10" x1="0.5" y1="1" x2="0.5" gradientUnits="objectBoundingBox">
      <stop offset="0" stop-color="#ba5943"/>
      <stop offset="1" stop-color="#b04947"/>
    </linearGradient>
    <linearGradient id="linear-gradient-17" x1="5.735" y1="0.875" x2="-4.593" y2="0.133" gradientUnits="objectBoundingBox">
      <stop offset="0" stop-color="#ab482c"/>
      <stop offset="1" stop-color="#ae4f36"/>
    </linearGradient>
    <linearGradient id="linear-gradient-21" x1="0.5" y1="1" x2="0.5" gradientUnits="objectBoundingBox">
      <stop offset="0" stop-color="#c25136"/>
      <stop offset="1" stop-color="#e0761b"/>
    </linearGradient>
    <linearGradient id="linear-gradient-22" x1="0" y1="0.5" x2="1" y2="0.5" xlink:href="#linear-gradient-21"/>
    <linearGradient id="linear-gradient-23" y1="0.5" x2="1" y2="0.5" gradientUnits="objectBoundingBox">
      <stop offset="0" stop-color="#a84436"/>
      <stop offset="1" stop-color="#b5502c"/>
    </linearGradient>
    <linearGradient id="linear-gradient-24" x1="0.5" y1="1" x2="0.5" gradientUnits="objectBoundingBox">
      <stop offset="0" stop-color="#892a36"/>
      <stop offset="1" stop-color="#ab482c"/>
    </linearGradient>
    <linearGradient id="linear-gradient-25" x1="0.5" y1="1" x2="0.5" gradientUnits="objectBoundingBox">
      <stop offset="0" stop-color="#983436"/>
      <stop offset="1" stop-color="#c75f2c"/>
    </linearGradient>
    <linearGradient id="linear-gradient-26" y1="0.5" x2="1" y2="0.5" gradientUnits="objectBoundingBox">
      <stop offset="0" stop-color="#c75c2c"/>
      <stop offset="1" stop-color="#9b3736"/>
    </linearGradient>
    <linearGradient id="linear-gradient-27" y1="0.5" x2="1" y2="0.5" gradientUnits="objectBoundingBox">
      <stop offset="0" stop-color="#c75c2c"/>
      <stop offset="1" stop-color="#b24936"/>
    </linearGradient>
    <linearGradient id="linear-gradient-31" x1="0.69" y1="0.847" x2="0.69" y2="-0.143" xlink:href="#linear-gradient-21"/>
    <linearGradient id="linear-gradient-32" x1="0.5" y1="1" x2="0.5" gradientUnits="objectBoundingBox">
      <stop offset="0"/>
      <stop offset="1" stop-color="#c75c2c"/>
    </linearGradient>
    <linearGradient id="linear-gradient-35" x1="0.5" y1="1" x2="0.5" gradientUnits="objectBoundingBox">
      <stop offset="0"/>
      <stop offset="1" stop-color="#d45c00"/>
    </linearGradient>
  </defs>
  <g id="Mask_Group_42" data-name="Mask Group 42" transform="translate(-501 -238)" clip-path="url(#clip-path)">
    <g id="Group_7823" data-name="Group 7823" transform="translate(417.662 33.026)">
      <rect id="Rectangle_1490" data-name="Rectangle 1490" width="921.089" height="654.458" transform="translate(79.564 0)" fill="none"/>
      <g id="Group_7728" data-name="Group 7728" transform="translate(0 150.76)">
        <path id="Path_6971" data-name="Path 6971" d="M-758.213-189.417l321.677,32.827L241.819-266.476v-33.5H-758.213Z" transform="translate(758.614 300.087)" fill="url(#linear-gradient)"/>
        <path id="Path_6972" data-name="Path 6972" d="M-758.213-238.192V87.242h312.67l9.007-292.607Z" transform="translate(758.614 348.863)" fill="url(#linear-gradient-2)"/>
        <path id="Path_6973" data-name="Path 6973" d="M103.878-281.255-574.477-171.369l-9.007,292.607,687.362,155Z" transform="translate(896.555 314.866)" fill="url(#linear-gradient-3)"/>
        <path id="Path_6974" data-name="Path 6974" d="M241.819-281.255-436.536-171.369-758.213-204.2v10l321.121,26.945,678.911-93.336Z" transform="translate(758.614 314.866)" fill="url(#linear-gradient-4)"/>
        <path id="Path_6975" data-name="Path 6975" d="M-758.213-200.953l321.677,26.806,678.355-88.475V-269.7l-678.911,93.336-321.121-26.945Z" transform="translate(758.614 323.985)" fill="url(#linear-gradient-5)"/>
        <path id="Path_6976" data-name="Path 6976" d="M-437.092-200.143l.556-4.118-321.677-35.327v12.5Z" transform="translate(758.614 347.76)" fill="#c95946"/>
        <g id="Group_7702" data-name="Group 7702" transform="translate(0 427.347)">
          <path id="Path_6977" data-name="Path 6977" d="M-758.213-56.33h312.67l687.362,155v75.7H-758.213Z" transform="translate(758.614 65.087)" fill="url(#linear-gradient-6)"/>
          <path id="Path_6978" data-name="Path 6978" d="M241.819,130.09-445.543-49.5l-312.67.972V-59.361l312.67,5.423,687.362,155Z" transform="translate(758.614 62.694)" fill="url(#linear-gradient-7)"/>
          <path id="Path_6979" data-name="Path 6979" d="M241.819,102.531l-687.362-155-312.67-5.423v-3.334l312.752,6.106L241.819,96Z" transform="translate(758.614 61.223)" fill="#e88b57"/>
          <g id="Group_7701" data-name="Group 7701" transform="translate(0 12.914)" opacity="0.3" style="mix-blend-mode: multiply;isolation: isolate">
            <g id="Group_7687" data-name="Group 7687" transform="translate(276.113 0)">
              <rect id="Rectangle_1538" data-name="Rectangle 1538" width="0.832" height="728.511" transform="matrix(0.31, -0.951, 0.951, 0.31, 0, 0.791)" fill="#a33746"/>
            </g>
            <g id="Group_7688" data-name="Group 7688" transform="translate(222.752 0.174)">
              <rect id="Rectangle_1539" data-name="Rectangle 1539" width="0.833" height="614.73" transform="translate(0 0.775) rotate(-68.432)" fill="#a33746"/>
            </g>
            <g id="Group_7689" data-name="Group 7689" transform="translate(180.231 0.314)">
              <rect id="Rectangle_1540" data-name="Rectangle 1540" width="0.833" height="544.104" transform="translate(0 0.758) rotate(-65.476)" fill="#a33746"/>
            </g>
            <g id="Group_7690" data-name="Group 7690" transform="translate(152.691 0.42)">
              <rect id="Rectangle_1541" data-name="Rectangle 1541" width="0.833" height="447.763" transform="translate(0 0.719) rotate(-59.722)" fill="#a33746"/>
            </g>
            <g id="Group_7691" data-name="Group 7691" transform="translate(124.319 0.363)">
              <rect id="Rectangle_1542" data-name="Rectangle 1542" width="0.832" height="371.533" transform="matrix(0.608, -0.794, 0.794, 0.608, 0, 0.661)" fill="#a33746"/>
            </g>
            <g id="Group_7692" data-name="Group 7692" transform="translate(88.432 0.685)">
              <path id="Path_6980" data-name="Path 6980" d="M-484.675,172.524-709.018-53.035l.591-.589,224.344,225.559Z" transform="translate(709.018 53.624)" fill="#a33746"/>
            </g>
            <g id="Group_7693" data-name="Group 7693" transform="translate(54.235 0.444)">
              <rect id="Rectangle_1543" data-name="Rectangle 1543" width="0.834" height="281.679" transform="matrix(0.802, -0.598, 0.598, 0.802, 0, 0.498)" fill="#a33746"/>
            </g>
            <g id="Group_7694" data-name="Group 7694" transform="translate(18.358 1.011)">
              <rect id="Rectangle_1544" data-name="Rectangle 1544" width="0.834" height="251.496" transform="matrix(0.896, -0.444, 0.444, 0.896, 0, 0.37)" fill="#a33746"/>
            </g>
            <g id="Group_7695" data-name="Group 7695" transform="translate(0 35.585)">
              <rect id="Rectangle_1545" data-name="Rectangle 1545" width="0.834" height="198.378" transform="translate(0 0.228) rotate(-15.846)" fill="#a33746"/>
            </g>
            <g id="Group_7696" data-name="Group 7696" transform="translate(29.345 137.252)">
              <rect id="Rectangle_1546" data-name="Rectangle 1546" width="57.019" height="0.833" transform="translate(0 0)" fill="#a33746"/>
            </g>
            <g id="Group_7697" data-name="Group 7697" transform="translate(156.666 137.252)">
              <rect id="Rectangle_1547" data-name="Rectangle 1547" width="68.015" height="0.833" transform="translate(0 0)" fill="#a33746"/>
            </g>
            <g id="Group_7698" data-name="Group 7698" transform="translate(145.934 58.078)">
              <rect id="Rectangle_1548" data-name="Rectangle 1548" width="54.14" height="0.833" fill="#a33746"/>
            </g>
            <g id="Group_7699" data-name="Group 7699" transform="translate(452.192 175.098)">
              <rect id="Rectangle_1549" data-name="Rectangle 1549" width="111.396" height="0.833" fill="#a33746"/>
            </g>
            <g id="Group_7700" data-name="Group 7700" transform="translate(441.268 86.459)">
              <rect id="Rectangle_1550" data-name="Rectangle 1550" width="99.806" height="0.833" transform="translate(0 0)" fill="#a33746"/>
            </g>
          </g>
          <path id="Path_6981" data-name="Path 6981" d="M-672.991-20.668l169.172,166.88h92.781L-624.031-20.668Z" transform="translate(825.892 93.24)" fill="#bc9c8b" opacity="0.5" style="mix-blend-mode: soft-light;isolation: isolate"/>
          <path id="Path_6982" data-name="Path 6982" d="M-671.766-53.693l297.1,170.975,105.016,1.068L-644.841-52.824Z" transform="translate(826.86 67.168)" fill="#bc9c8b" opacity="0.5" style="mix-blend-mode: soft-light;isolation: isolate"/>
          <path id="Path_6983" data-name="Path 6983" d="M-387.929,3.067h-52.062l69.613,32.992L-474.757-5.173h-33.682L-145.372,133.98H8.244Z" transform="translate(955.799 105.473)" fill="#8e0a2f" opacity="0.2" style="mix-blend-mode: multiply;isolation: isolate"/>
          <path id="Path_6984" data-name="Path 6984" d="M-707.207-25.8h17.065l42.176,47.461-3.7-7.138h12.639l26.39,32.406,22.865-1.193,13.8,13.874-66.96.82Z" transform="translate(798.88 89.188)" fill="#8e0a2f" opacity="0.2" style="mix-blend-mode: multiply;isolation: isolate"/>
          <path id="Path_6985" data-name="Path 6985" d="M-474.613,62.249H-347.64l40.56,18.5H-440.626Z" transform="translate(982.503 158.699)" fill="#8e0a2f" opacity="0.2" style="mix-blend-mode: multiply;isolation: isolate"/>
          <path id="Path_6986" data-name="Path 6986" d="M-557.154,53.473-639.8-9.816h18.534L-598.478,7.5l-34.249-29.654,23.978-1.908,142.369,83.12-20.3.966L-575.851,7.5l61.287,43.251Z" transform="translate(852.094 90.56)" fill="#8e0a2f" opacity="0.2" style="mix-blend-mode: multiply;isolation: isolate"/>
          <path id="Path_6987" data-name="Path 6987" d="M-719.411,111.8l-19.338-68.129h19.338l9.521,17.106-5.023-37.846h25.225l42.779,88.869Z" transform="translate(773.98 127.656)" fill="#8e0a2f" opacity="0.2" style="mix-blend-mode: multiply;isolation: isolate"/>
        </g>
        <path id="Path_6988" data-name="Path 6988" d="M-669.573-100.972l2.222-.694,31.39-.694.015,1.041Z" transform="translate(828.591 456.095)" fill="url(#linear-gradient-8)"/>
        <g id="Group_7703" data-name="Group 7703" transform="translate(0 208.369)">
          <path id="Path_6989" data-name="Path 6989" d="M-737.722,49.658l6.406-179.96c13.917-66.081,125.519-78.974,148.36,9.251l1.644,170.741Z" transform="translate(774.791 183.632)" fill="url(#linear-gradient-9)"/>
          <path id="Path_6990" data-name="Path 6990" d="M-635.3-118.577s-6.385-72.435-74.871-59.6c-.65-.782,79.754-30.317,105.47,57.169l.8,82.769.834,87.969L-635.3,41.511Z" transform="translate(796.539 183.595)" fill="#842b31"/>
          <path id="Path_6991" data-name="Path 6991" d="M-736.036-79.7l122.484,3.343v35.847l32.24,8.221-156.41-.034Z" transform="translate(774.791 265.615)" fill="url(#linear-gradient-10)"/>
          <path id="Path_6992" data-name="Path 6992" d="M-650.75-98.366h122.686L-530.3-25.795l-119.776-2.338Z" transform="translate(843.451 250.88)" fill="url(#linear-gradient-8)"/>
          <path id="Path_6993" data-name="Path 6993" d="M-650.785-101.973l.062,6.454h122.686l3.618-5.759Z" transform="translate(843.424 248.033)" fill="url(#linear-gradient-7)"/>
          <path id="Path_6994" data-name="Path 6994" d="M-646.168-36.053h102.845l1.389-58.335H-646.168Z" transform="translate(847.068 254.02)" fill="#cc6340"/>
          <path id="Path_6995" data-name="Path 6995" d="M-543.324-60.468l-3.827-2.995-95.759,1.14-3.258,1.855Z" transform="translate(847.068 278.435)" fill="#e88b57"/>
          <path id="Path_6996" data-name="Path 6996" d="M-585.618-94.388l-2.326,1.3-2.89,54.045,3.827,2.995Z" transform="translate(890.752 254.02)" fill="#963531"/>
          <path id="Path_6997" data-name="Path 6997" d="M-646.168-94.388l2.425,1.915,99.482-.619,2.326-1.3Z" transform="translate(847.068 254.02)" fill="#842b31"/>
          <path id="Path_6998" data-name="Path 6998" d="M-646.168-36.053l3.258-1.855-.833-54.565-2.425-1.915Z" transform="translate(847.068 254.02)" fill="#963531"/>
          <path id="Path_6999" data-name="Path 6999" d="M-718.555-100.17h-39.658v69.692h37.177Z" transform="translate(758.614 249.456)" fill="url(#linear-gradient-8)"/>
          <path id="Path_7000" data-name="Path 7000" d="M-718.555-97.214l2.566-6.7h-42.224v6.7Z" transform="translate(758.614 246.501)" fill="url(#linear-gradient-7)"/>
          <path id="Path_7001" data-name="Path 7001" d="M-715.989-103.178l-1.493-1.042-40.73-.625v1.667Z" transform="translate(758.614 245.765)" fill="#e88b57"/>
          <path id="Path_7002" data-name="Path 7002" d="M-758.02-94.24h30.127l-1.936,52.03h-28.609Z" transform="translate(758.437 254.138)" fill="#cc6340"/>
          <path id="Path_7003" data-name="Path 7003" d="M-729.828-64.144l-2.79-2.31h-25.417l-.4,2.31Z" transform="translate(758.437 276.072)" fill="#e88b57"/>
          <path id="Path_7004" data-name="Path 7004" d="M-739.283-94.24l-1.936,1.3-2.79,48.419,2.79,2.31Z" transform="translate(769.827 254.138)" fill="#963531"/>
          <path id="Path_7005" data-name="Path 7005" d="M-758.2-94.24l-.008,1.022,28.2.279,1.936-1.3Z" transform="translate(758.618 254.138)" fill="#842b31"/>
          <path id="Path_7006" data-name="Path 7006" d="M-635.89-95.519h-31.461l-2.222-5.759,33.622-.694Z" transform="translate(828.591 248.033)" fill="#7a2b31"/>
          <path id="Path_7007" data-name="Path 7007" d="M-650.79-102.361h126.376v1.389l-126.361-.348Z" transform="translate(843.419 247.726)" fill="#e88b57"/>
        </g>
        <path id="Path_7008" data-name="Path 7008" d="M-603.9-38.241l-.016.016-31.383.684v-81.035s-6.385-72.435-74.871-59.6c-.65-.782,79.754-30.317,105.47,57.169Z" transform="translate(796.539 391.964)" fill="#b34240"/>
        <path id="Path_7009" data-name="Path 7009" d="M-758.437,101.181l597.981,8.193L-274.423,52.647-356.7,33.21l-40.768-16.668-10.556-4.419,116.368,2.127-182.9-67.363L242,132.1v39.724H-758.036Z" transform="translate(758.437 494.974)" fill="#d18c90" opacity="0.5" style="mix-blend-mode: multiply;isolation: isolate"/>
        <path id="Path_7010" data-name="Path 7010" d="M-589.628-34.14l.731-57.537-1.488-3.853L-592.363-32.3Z" transform="translate(889.545 461.487)" fill="#722631"/>
        <g id="Group_7712" data-name="Group 7712" transform="translate(283.878 17.334)">
          <path id="Path_7011" data-name="Path 7011" d="M92.858,94.262-569.524,38.868V-173.956l662.382-107.3Z" transform="translate(623.697 297.532)" fill="#842b31"/>
          <path id="Path_7012" data-name="Path 7012" d="M-598.109,78.562l8.685-300.036,46.215.351-3.748,310.687Z" transform="translate(601.131 344.727)" fill="#722631"/>
          <path id="Path_7013" data-name="Path 7013" d="M115.425-35.8l-711.019-66.563-2.515,86.89L115.425,164.037Z" transform="translate(601.131 438.761)" fill="url(#linear-gradient)"/>
          <path id="Path_7014" data-name="Path 7014" d="M114.315-35.8-596.7-102.361h48.637L114.315-46.967Z" transform="translate(602.24 438.761)" fill="url(#linear-gradient-9)"/>
          <path id="Path_7015" data-name="Path 7015" d="M-596.7-7.659l6.169-213.146,2.744-1.514L-592.247-7.242Z" transform="translate(602.24 344.059)" fill="url(#linear-gradient-17)"/>
          <path id="Path_7016" data-name="Path 7016" d="M-593.256-174.278v13.417L111.593-253.5v-27.752Z" transform="translate(604.962 297.532)" fill="url(#linear-gradient)"/>
          <path id="Path_7017" data-name="Path 7017" d="M-591.7-163.5l-3.516-7.414L113.145-286v18.334Z" transform="translate(603.411 293.783)" fill="#842b31"/>
          <path id="Path_7018" data-name="Path 7018" d="M-591.723-173.465l45.834,7.35,656.272-76.714v-22.917Z" transform="translate(606.173 309.776)" fill="#561a31"/>
          <path id="Path_7019" data-name="Path 7019" d="M-595.221-167.483v-2.169l708.365-120.7v7.778Z" transform="translate(603.411 290.351)" fill="#c95946"/>
          <path id="Path_7020" data-name="Path 7020" d="M-595.681-129.846l709.189-7.917v-14.584l-708.976,18.88Z" transform="translate(603.048 399.299)" fill="url(#linear-gradient)"/>
          <path id="Path_7021" data-name="Path 7021" d="M-593.991-149.339l706.5-59.04v-9.167l-706.934,65Z" transform="translate(604.043 347.828)" fill="url(#linear-gradient)"/>
          <path id="Path_7022" data-name="Path 7022" d="M-335.368-148.565l-1.963,8.36,6.776.012v-8.264Z" transform="translate(807.003 402.285)" fill="#a77a9f" opacity="0.5" style="mix-blend-mode: multiply;isolation: isolate"/>
          <path id="Path_7023" data-name="Path 7023" d="M-335.293-83.946-338.2-73.464h8.733l-.018-10.152Z" transform="translate(806.314 453.298)" fill="#a77a9f" opacity="0.5" style="mix-blend-mode: multiply;isolation: isolate"/>
          <path id="Path_7024" data-name="Path 7024" d="M-335.54-207.436l-3.611,8.341,10.035.652-.015-8.612Z" transform="translate(805.566 355.809)" fill="#a77a9f" opacity="0.5" style="mix-blend-mode: multiply;isolation: isolate"/>
          <path id="Path_7025" data-name="Path 7025" d="M-298.273,69.031l-4.836-327.882-24.165,3.571,2.788,321.856Z" transform="translate(814.942 315.219)" fill="#843031"/>
          <path id="Path_7026" data-name="Path 7026" d="M-309.029,62.616l93.8-1.327V-242.287l-98.425-8.438Z" transform="translate(825.698 321.634)" fill="#722631"/>
          <path id="Path_7027" data-name="Path 7027" d="M-313.651-248.977l102.254,29.65,102.254-6.714v-26.9l-106.084,12.4Z" transform="translate(825.698 319.886)" fill="#a77a9f" opacity="0.5" style="mix-blend-mode: multiply;isolation: isolate"/>
          <path id="Path_7028" data-name="Path 7028" d="M-309.039-147.12v9.358h196.256v-14.584Z" transform="translate(829.338 399.299)" fill="#933f39"/>
          <path id="Path_7029" data-name="Path 7029" d="M-112.783-201.712l-196.256,11.25v-8.958l196.256-18.125Z" transform="translate(829.338 347.828)" fill="#933f39"/>
          <path id="Path_7030" data-name="Path 7030" d="M-309.039-197.448l90.172,16.529,106.084-3.551V-208.7Z" transform="translate(829.338 354.813)" fill="#a77a9f" opacity="0.5" style="mix-blend-mode: multiply;isolation: isolate"/>
          <path id="Path_7031" data-name="Path 7031" d="M-309.039-144.2l90.172,26.48,106.084,1.284V-144.2Z" transform="translate(829.338 405.733)" fill="#a77a9f" opacity="0.5" style="mix-blend-mode: multiply;isolation: isolate"/>
          <path id="Path_7032" data-name="Path 7032" d="M-319.171-69.939v139.7l214.387,45.771V-51.009Z" transform="translate(821.339 464.356)" fill="#792c31"/>
          <path id="Path_7033" data-name="Path 7033" d="M-112.783-36.555-309.039-57.811V44.851l196.256,33.72Z" transform="translate(829.338 473.931)" fill="#843031"/>
          <path id="Path_7034" data-name="Path 7034" d="M-304.878-.44l-9.431,8.774,205.687,39.685V33.279Z" transform="translate(825.178 519.222)" fill="#c95946"/>
          <path id="Path_7035" data-name="Path 7035" d="M-313.322,58.494l-2.237-122.473,11.667,11.037V49.72Z" transform="translate(824.191 469.061)" fill="#722631"/>
          <path id="Path_7036" data-name="Path 7036" d="M-315.559-63.979l207.923,17.844v16.81L-303.892-52.942Z" transform="translate(824.191 469.061)" fill="#561a31"/>
          <path id="Path_7037" data-name="Path 7037" d="M-104.784-51.009-319.171-69.939l6.464,10.665,207.923,19.792Z" transform="translate(821.339 464.356)" fill="#a04731"/>
          <path id="Path_7038" data-name="Path 7038" d="M-325,5.368l224.824,50.713V75.051l-218.21-50.957Z" transform="translate(816.735 523.808)" fill="#943a32"/>
          <path id="Path_7039" data-name="Path 7039" d="M-103.1,77.673-320.13,20.433l-1.177-4.6L-103.1,66.79Z" transform="translate(819.653 532.069)" fill="#722631"/>
          <path id="Path_7040" data-name="Path 7040" d="M-596.632-56.582l-3.166,5.293,286.125,74.182V9.976Z" transform="translate(599.798 474.901)" fill="#943a32"/>
          <path id="Path_7041" data-name="Path 7041" d="M-599.8-53.624v.916l285.621,77.155.5-3.889Z" transform="translate(599.798 477.236)" fill="#722631"/>
          <path id="Path_7042" data-name="Path 7042" d="M-590.572-96.928l258.88,28.082V30.772L-593.181-29.279Z" transform="translate(605.022 443.05)" fill="#792c31"/>
          <path id="Path_7043" data-name="Path 7043" d="M-335.336-62.758-590.1-93.377l-.731,57.537,257.291,52.634Z" transform="translate(606.874 445.853)" fill="#843031"/>
          <path id="Path_7044" data-name="Path 7044" d="M-589.769-91.677l-1.488-3.853L-333.21-66.571v6.042Z" transform="translate(606.54 444.153)" fill="#561a31"/>
          <path id="Path_7045" data-name="Path 7045" d="M-589.628-61.223l-2.736,1.84L-332.337-4v-4.59Z" transform="translate(605.667 471.237)" fill="#c95946"/>
          <path id="Path_7046" data-name="Path 7046" d="M-593.433-138.463l44.507,22.073,217.435,1.678v-26.72Z" transform="translate(604.822 407.916)" fill="#a77a9f" opacity="0.5" style="mix-blend-mode: multiply;isolation: isolate"/>
          <path id="Path_7047" data-name="Path 7047" d="M-593.433-138.463l42.784,9.32h219.157v-12.289Z" transform="translate(604.822 407.916)" fill="#561a31"/>
          <path id="Path_7048" data-name="Path 7048" d="M-594.181-169.724l46.711,21.237L-330.9-157.65v-34.075Z" transform="translate(604.232 368.212)" fill="#a77a9f" opacity="0.5" style="mix-blend-mode: multiply;isolation: isolate"/>
          <path id="Path_7049" data-name="Path 7049" d="M-490.484-226.461l7.9,14.216v50.164l-25.536,2.342v-64.276Z" transform="translate(672.175 340.79)" fill="#561a31"/>
          <path id="Path_7050" data-name="Path 7050" d="M-592.609-169.959l44.086,5.782,216.379-12.918v-14.63Z" transform="translate(605.473 368.212)" fill="#561a31"/>
          <g id="Group_7704" data-name="Group 7704" transform="translate(260.708 18.365)">
            <path id="Path_7051" data-name="Path 7051" d="M-281.355,227.551l-96.341.292-2.6-494.771L-285.42-248.9Z" transform="translate(512.379 290.478)" fill="#722631"/>
            <path id="Path_7052" data-name="Path 7052" d="M-365.505,224.894l-81.547-26.046V-242.277l81.547-24.168Z" transform="translate(459.675 290.859)" fill="url(#linear-gradient-21)"/>
            <path id="Path_7053" data-name="Path 7053" d="M-227.147-240.951l13.46-17.16L-318.547-277h-45l-90.558,33.612,12.622,9.445,81.547-24.167,37.918-.865Z" transform="translate(454.106 282.526)" fill="#842b31"/>
            <path id="Path_7054" data-name="Path 7054" d="M-380.292-258.976-376.82-277l104.86,18.889-13.46,17.16Z" transform="translate(512.379 282.526)" fill="#561a31"/>
            <path id="Path_7055" data-name="Path 7055" d="M-454.106-241.489v-3.031l89.586-34.886.972,4.306Z" transform="translate(454.106 280.626)" fill="url(#linear-gradient-22)"/>
            <path id="Path_7056" data-name="Path 7056" d="M-443.077-6.425l-9.011,10.481,87.256,33.865,47.888.084,98.884-4.6L-228.74,14.825l-92.29,4.8h-40.5Z" transform="translate(455.699 496.133)" fill="#ec7f46"/>
            <path id="Path_7057" data-name="Path 7057" d="M-452.088-.568V2.285l87.256,37.432V33.3Z" transform="translate(455.699 500.757)" fill="#842b31"/>
            <path id="Path_7058" data-name="Path 7058" d="M-378.849,10.31l4.085,19.511,98.884-5.728-6.614-18.725Z" transform="translate(513.518 505.443)" fill="#842b31"/>
            <path id="Path_7059" data-name="Path 7059" d="M-376.566,26.769l100.06-6.336-1.177-4.6-98.884,5.728Z" transform="translate(515.321 513.704)" fill="#561a31"/>
            <path id="Path_7060" data-name="Path 7060" d="M-401.482-266.063l37.918-.865,2.582,492.2h-40.5Z" transform="translate(495.651 290.478)" fill="#843031"/>
            <path id="Path_7061" data-name="Path 7061" d="M-273.492-255.674v-6.072l-102.637-18.342-2.222,5.525Z" transform="translate(513.911 280.088)" fill="#8c2b31"/>
            <path id="Path_7062" data-name="Path 7062" d="M-399.889-258.111-403.5-277h45l-3.472,18.025Z" transform="translate(494.058 282.526)" fill="#722631"/>
            <path id="Path_7063" data-name="Path 7063" d="M-355.847-280.088l-48.2,1.219.972,4.306h45Z" transform="translate(493.629 280.088)" fill="url(#linear-gradient-23)"/>
            <path id="Path_7064" data-name="Path 7064" d="M-400.024,8.13l-3.3,18.3,47.888,1.211L-359.525,8.13Z" transform="translate(494.194 507.623)" fill="#9b3431"/>
            <path id="Path_7065" data-name="Path 7065" d="M-403.327,18.356v6.42h47.888V19.568Z" transform="translate(494.194 515.697)" fill="#722631"/>
            <path id="Path_7066" data-name="Path 7066" d="M-443.085,190.353l71.144,21.112-5.586-443.9-17.587-26.412-39.359,12.662-8.611,27.874Z" transform="translate(462.807 296.854)" fill="#722631"/>
            <path id="Path_7067" data-name="Path 7067" d="M-392.737-255.28l-37.848,11.73-8.334,25.279,1.528,407.3-5.695,1.32V-218.315l8.611-27.874,39.359-12.662Z" transform="translate(462.807 296.854)" fill="#843031"/>
            <path id="Path_7068" data-name="Path 7068" d="M-371.941,13.872V8.038L-437.39-8.56l-5.695,1.32Z" transform="translate(462.807 494.448)" fill="#c95946"/>
            <path id="Path_7069" data-name="Path 7069" d="M-440.583-194.488l61.96-8.126-.094-7.455-61.888,9.54Z" transform="translate(464.764 335.365)" fill="#843031"/>
            <path id="Path_7070" data-name="Path 7070" d="M-376.566,210.964l85-4.306-4.584-428.347-13.334-27.084-52.918-9.445-14.167,23.038Z" transform="translate(515.321 297.355)" fill="#561a31"/>
            <path id="Path_7071" data-name="Path 7071" d="M-376.566,207.305l77.627-4.243-.75-423.64-13.4-26.112L-363.9-255.78l1.5-2.438,52.918,9.445,13.334,27.084,4.584,428.347-85,4.306Z" transform="translate(515.321 297.355)" fill="#662631"/>
            <path id="Path_7072" data-name="Path 7072" d="M-298.939-.44l7.376,3.6-85,4.306V3.8Z" transform="translate(515.321 500.857)" fill="#9b3431"/>
            <path id="Path_7073" data-name="Path 7073" d="M-354.2,190.488V-240.344l41.112-7.444-50.806-9.091-12.668,20.6V190.446Z" transform="translate(515.321 298.411)" fill="#a77a9f" opacity="0.5" style="mix-blend-mode: multiply;isolation: isolate"/>
            <path id="Path_7074" data-name="Path 7074" d="M-376.566-6.877l22.362.042,55.265,11.475-77.627,4.243Z" transform="translate(515.321 495.776)" fill="#9b3431"/>
            <path id="Path_7075" data-name="Path 7075" d="M-299.594-205.2l-76.972-4.582v8.189l76.988,5.005Z" transform="translate(515.321 335.591)" fill="#722631"/>
            <path id="Path_7076" data-name="Path 7076" d="M-299.58-147.741l-76.986-1.731v9.857l76.986.139Z" transform="translate(515.321 383.204)" fill="#722631"/>
            <path id="Path_7077" data-name="Path 7077" d="M-299.2-83.762h-77.363V-73.61h77.381Z" transform="translate(515.321 435.079)" fill="#722631"/>
            <path id="Path_7078" data-name="Path 7078" d="M-439.9-8.56h65.167l.282,16.6Z" transform="translate(465.32 494.448)" fill="#c95946"/>
            <path id="Path_7079" data-name="Path 7079" d="M-436.1-245.126l37.848,29.445,20.514,403.138-5.3-421.472-15.209-22.841Z" transform="translate(468.322 298.43)" fill="#a77a9f" opacity="0.5" style="mix-blend-mode: multiply;isolation: isolate"/>
            <path id="Path_7080" data-name="Path 7080" d="M-377.5-149.472l-62.929,2.774.027,7.222h62.9Z" transform="translate(464.907 383.204)" fill="#843031"/>
            <path id="Path_7081" data-name="Path 7081" d="M-376.205-83.049l-63.979-.713v7.9l63.979,1.146Z" transform="translate(465.097 435.079)" fill="#843031"/>
            <path id="Path_7082" data-name="Path 7082" d="M-440.593-197.777l61.96,11.1V-205.9Z" transform="translate(464.774 338.654)" fill="#a77a9f" opacity="0.5" style="mix-blend-mode: multiply;isolation: isolate"/>
            <path id="Path_7083" data-name="Path 7083" d="M-344.829-188.827l-31.737,4.167V-118.4l29.579.665Z" transform="translate(515.321 352.135)" fill="#721839"/>
            <path id="Path_7084" data-name="Path 7084" d="M-440.41-143.886l63.3,21.489-.4-21.489Z" transform="translate(464.919 387.614)" fill="#a77a9f" opacity="0.5" style="mix-blend-mode: multiply;isolation: isolate"/>
            <path id="Path_7085" data-name="Path 7085" d="M-440.184-79.347l64.436,28.425-.456-27.279Z" transform="translate(465.097 438.564)" fill="#a77a9f" opacity="0.5" style="mix-blend-mode: multiply;isolation: isolate"/>
            <path id="Path_7086" data-name="Path 7086" d="M-299.185-78.089l-77.381,29.168V-78.089Z" transform="translate(515.321 439.558)" fill="#a77a9f" opacity="0.5" style="mix-blend-mode: multiply;isolation: isolate"/>
            <path id="Path_7087" data-name="Path 7087" d="M-299.58-143.825l-76.986,21.489v-21.628Z" transform="translate(515.321 387.552)" fill="#a77a9f" opacity="0.5" style="mix-blend-mode: multiply;isolation: isolate"/>
            <path id="Path_7088" data-name="Path 7088" d="M-299.579-200.2l-76.988,16.529v-21.534Z" transform="translate(515.321 339.203)" fill="#a77a9f" opacity="0.5" style="mix-blend-mode: multiply;isolation: isolate"/>
            <path id="Path_7089" data-name="Path 7089" d="M-299.2-81.825l-77.363-4.392v4.392Z" transform="translate(515.321 433.141)" fill="#9b3431"/>
            <path id="Path_7090" data-name="Path 7090" d="M-376.566-243.548l53.474,8.195v55.407l-53.474-3.183Z" transform="translate(515.321 308.936)" fill="#334a5c"/>
            <path id="Path_7091" data-name="Path 7091" d="M-312.63-116.672l-47.407-1.066,2.159-71.089,45.249,1.944Z" transform="translate(528.37 352.135)" fill="#bf244f"/>
            <path id="Path_7092" data-name="Path 7092" d="M-362.583-120.242l15.487-61.835-7.743-4.422-18.855,58.891Z" transform="translate(517.588 353.973)" fill="#bf244f"/>
            <path id="Path_7093" data-name="Path 7093" d="M-376.566-129.4l42.5,1.284,2.374,78.537-44.876-.352Z" transform="translate(515.321 399.051)" fill="#334a5c"/>
            <path id="Path_7094" data-name="Path 7094" d="M-340.635-126.077l-12.013,5.265,20.673,69.668L-318.988-56Z" transform="translate(534.203 401.673)" fill="#9a134f"/>
            <path id="Path_7095" data-name="Path 7095" d="M-314.107-50.823h-44.724V41.4l45.89-2.068Z" transform="translate(529.322 461.083)" fill="#9a134f"/>
            <path id="Path_7096" data-name="Path 7096" d="M-376.566-46.141l31.737-1.111V38.584l-31.737,2.174Z" transform="translate(515.321 463.902)" fill="#b2404c"/>
            <path id="Path_7097" data-name="Path 7097" d="M-366.554-50.169V-129.1l8.889.743v78.537Z" transform="translate(523.225 399.289)" fill="#a53139"/>
            <path id="Path_7098" data-name="Path 7098" d="M-352.572-186.5h-23.994v61.113l5.139-2.222Z" transform="translate(515.321 353.973)" fill="#90244f"/>
            <path id="Path_7099" data-name="Path 7099" d="M-371.427-153.589h-5.139v7.366h16.251Z" transform="translate(515.321 379.954)" fill="#6b1543"/>
            <path id="Path_7100" data-name="Path 7100" d="M-352.647-123.135l2.074,68.612,18.6,1.056Z" transform="translate(534.203 403.996)" fill="#721839"/>
            <path id="Path_7101" data-name="Path 7101" d="M-346.008-188.276v70.667l12.5.281-.234-70.421Z" transform="translate(539.445 352.57)" fill="#90244f"/>
            <path id="Path_7102" data-name="Path 7102" d="M-344.829-44.434l-31.737-6.389v7.5Z" transform="translate(515.321 461.083)" fill="#9e2f4c"/>
            <path id="Path_7103" data-name="Path 7103" d="M-300.105-46.475l-65.488-9.855h-10.973v9.855l31.737,6.389v-6.389Z" transform="translate(515.321 456.735)" fill="#b32968"/>
            <path id="Path_7104" data-name="Path 7104" d="M-344.829-48.309l-31.737-5.7v5.7l31.737,6.389Z" transform="translate(515.321 458.569)" fill="#721839"/>
            <path id="Path_7105" data-name="Path 7105" d="M-358.831-44.434V41.4l3.056-91.88-3.056-.345Z" transform="translate(529.322 461.083)" fill="#721839"/>
            <path id="Path_7106" data-name="Path 7106" d="M-429.017-55.206l44.58-2.548,1.108,93.163h-44.924Z" transform="translate(473.914 455.611)" fill="#334a5c"/>
            <path id="Path_7107" data-name="Path 7107" d="M-440.184-48.3l.5-78.155,32.725-2.226,3.262,80.787Z" transform="translate(465.097 399.617)" fill="#33636e"/>
            <path id="Path_7108" data-name="Path 7108" d="M-421.615-128.681h29.269l1.481,81.094-27.488-.306Z" transform="translate(479.757 399.617)" fill="#334a5c"/>
            <path id="Path_7109" data-name="Path 7109" d="M-409.863-50.419l-11.528-70.863,8.959-4.2,16.054,71.1Z" transform="translate(479.934 402.142)" fill="#33636e"/>
            <path id="Path_7110" data-name="Path 7110" d="M-440.425-110.631l.431-79.41,46.137-5.117-.966,82.418Z" transform="translate(464.907 347.137)" fill="#bf3b66"/>
            <path id="Path_7111" data-name="Path 7111" d="M-386.444-244.091l-43.307,11.065L-431.79-176.1l46.112-7.108Z" transform="translate(471.724 308.507)" fill="#33636e"/>
            <path id="Path_7112" data-name="Path 7112" d="M-438.117-235.194v55.413l11.323-1.592-2.712-56.043Z" transform="translate(466.729 313.777)" fill="#33636e"/>
            <path id="Path_7113" data-name="Path 7113" d="M-413.976-195.158h15.091l1.271,81.752-17.328.665Z" transform="translate(485.025 347.137)" fill="#90244f"/>
            <path id="Path_7114" data-name="Path 7114" d="M-436.1-191.991l2.05,79.789,12.755-.611.738-80.9Z" transform="translate(468.322 348.276)" fill="#33636e"/>
            <path id="Path_7115" data-name="Path 7115" d="M-433.3-237.416l4.654,1.806-1.883,52.574Z" transform="translate(470.528 313.777)" fill="#334a5c"/>
            <path id="Path_7116" data-name="Path 7116" d="M-439.9-57.811l19.48,2.651.764,90.616L-439.9,30.322Z" transform="translate(465.32 455.566)" fill="#33636e"/>
            <path id="Path_7117" data-name="Path 7117" d="M-410.652-56.208l-18,76.9L-417.069,34.6l11.075-46.863,1.878,49.9,20.783,8.3L-384.7-56.574Z" transform="translate(474.199 456.543)" fill="#da722c"/>
            <path id="Path_7118" data-name="Path 7118" d="M-422.18,15.053l12.834-.124L-411.1-31.81Z" transform="translate(479.311 476.093)" fill="#b5481b"/>
            <path id="Path_7119" data-name="Path 7119" d="M-418.594-56.208l6.524,8.192h19.54l-.108-8.558Z" transform="translate(482.142 456.543)" fill="#da9261"/>
            <path id="Path_7120" data-name="Path 7120" d="M-361.625-241.258l2.841,58.082,8.914.531v-56.811Z" transform="translate(527.116 310.743)" fill="#b2404c"/>
            <path id="Path_7121" data-name="Path 7121" d="M-346.008-50.477V40.368l22.945-1.034-1.166-90.157Z" transform="translate(539.445 461.083)" fill="#b2404c"/>
            <path id="Path_7122" data-name="Path 7122" d="M-439.9-56.591l64.023-2.765.036,2.868-44.58,2.548Z" transform="translate(465.32 454.346)" fill="#456b7d"/>
            <path id="Path_7123" data-name="Path 7123" d="M-380.53-59.075-434-56.814l9.571,1.672,43.862-2.289Z" transform="translate(469.977 454.568)" fill="#da9261"/>
            <path id="Path_7124" data-name="Path 7124" d="M-439.68-127.182l8.517-.579,2.039,78.734h-11.061Z" transform="translate(465.097 400.343)" fill="#da722c"/>
            <path id="Path_7125" data-name="Path 7125" d="M-417.538-239.758l13.31-3.4v60.336l-10.443,1.61Z" transform="translate(482.976 309.243)" fill="#da722c"/>
            <path id="Path_7126" data-name="Path 7126" d="M-439.955-119.282v12.919h9.339l-.334-12.919Z" transform="translate(465.278 407.037)" fill="#ff932c"/>
            <path id="Path_7127" data-name="Path 7127" d="M-434.358-97.043l25.02-.966.695,17.206h-25.294Z" transform="translate(469.697 423.831)" fill="#ff932c"/>
            <path id="Path_7128" data-name="Path 7128" d="M-419.679-111.761l1.1,6.781,10.808-3.173-1.251-5.54Z" transform="translate(481.285 411.45)" fill="#ff932c"/>
            <path id="Path_7129" data-name="Path 7129" d="M-435.2-157.823l.289,11.26,12.972-1.461v-9.8Z" transform="translate(469.031 376.611)" fill="#ff932c"/>
            <path id="Path_7130" data-name="Path 7130" d="M-427.312-184.634l23.284-2.292-.283,10.891-23.23,2.1Z" transform="translate(475.078 353.636)" fill="#ff932c"/>
            <path id="Path_7131" data-name="Path 7131" d="M-364.527-179.43l-2.027,6.33,8.889,5.13,1.68-6.71Z" transform="translate(523.225 359.554)" fill="#e35448"/>
            <path id="Path_7132" data-name="Path 7132" d="M-359.7-155.375l24.763,1.25v7.919l-25.1-2.289Z" transform="translate(528.37 378.544)" fill="#e35448"/>
            <rect id="Rectangle_1551" data-name="Rectangle 1551" width="12.505" height="5.556" transform="translate(193.436 176.503)" fill="#e35448"/>
            <path id="Path_7133" data-name="Path 7133" d="M-343.765-91.364l3.71,12.5,12.511-6.25-3.218-10.417Z" transform="translate(541.215 425.788)" fill="#e35448"/>
            <path id="Path_7134" data-name="Path 7134" d="M-355.055-233.38l14.98,2.708-.192,10.9-14.788-2.772Z" transform="translate(532.303 316.963)" fill="#e35448"/>
            <path id="Path_7135" data-name="Path 7135" d="M-347.529-213.946l-29.037-2.357v6.736l29.037,1.875Z" transform="translate(515.321 330.443)" fill="#e35448"/>
            <path id="Path_7136" data-name="Path 7136" d="M-427.41-15.121l1.908-8.148,12.329,10.935-2.11,8.927Z" transform="translate(475.182 482.835)" fill="#ff932c"/>
            <path id="Path_7137" data-name="Path 7137" d="M-439.9-48.727v15.834l19.762,4.068-.282-17.362Z" transform="translate(465.32 462.737)" fill="#ff932c"/>
            <path id="Path_7138" data-name="Path 7138" d="M-438.117-224.384v5.98l9.893-2.99-.28-4.455Z" transform="translate(466.729 322.908)" fill="#ff932c"/>
            <path id="Path_7139" data-name="Path 7139" d="M-431.285-211.562l27.12-5.47.744,15.194-28.369,4.373Z" transform="translate(471.724 329.869)" fill="#ff932c"/>
            <path id="Path_7140" data-name="Path 7140" d="M-417.345-236.57l.325,6.648,12.639-3.324v-5.015Z" transform="translate(483.128 313.109)" fill="#ff932c"/>
            <path id="Path_7141" data-name="Path 7141" d="M-415.008-45.234v10.521l19.964,1.147-.151-11.355Z" transform="translate(484.972 465.495)" fill="#ff932c"/>
          </g>
          <path id="Path_7142" data-name="Path 7142" d="M-236.214-193.174l8.023,2.778-8.023.518Z" transform="translate(886.83 367.068)" fill="#b5481b"/>
          <path id="Path_7143" data-name="Path 7143" d="M-230.011,269.28l-51.656-541.725-27.372,4.664-24.284,15.952L-318.435,243.8Z" transform="translate(810.167 304.487)" fill="#a77a9f" style="mix-blend-mode: multiply;isolation: isolate"/>
          <path id="Path_7144" data-name="Path 7144" d="M-242.986-243.548l7.738,4.458-7.738.812Z" transform="translate(881.484 327.3)" fill="#334a5c"/>
          <g id="Group_7705" data-name="Group 7705" transform="translate(528.5 173.895)">
            <path id="Path_7145" data-name="Path 7145" d="M-230.125-191.725l35.044,2.546v68.452l-35.044.933Z" transform="translate(363.137 194.318)" fill="#334a5c"/>
            <path id="Path_7146" data-name="Path 7146" d="M-304.456-116.252v-66.885l133.012-8.588v71.931Z" transform="translate(304.456 194.318)" fill="#33636e"/>
            <path id="Path_7147" data-name="Path 7147" d="M-210.542-120.727l20-.533v-70.465h-20Z" transform="translate(378.597 194.318)" fill="#9a134f"/>
            <path id="Path_7148" data-name="Path 7148" d="M-286.149-115.98v-74.6l38.209-2.593-1.458,76.183Z" transform="translate(318.909 193.174)" fill="#9a134f"/>
            <path id="Path_7149" data-name="Path 7149" d="M-264.153-193.174l32.814,1.6v2.883l-27.392,1.769L-260.4-117.2l-5.208.208Z" transform="translate(335.122 193.174)" fill="#721839"/>
            <path id="Path_7150" data-name="Path 7150" d="M-241.518-118.107l.741-75.066h8.75l.729,74.829Z" transform="translate(354.143 193.174)" fill="#da722c"/>
            <path id="Path_7151" data-name="Path 7151" d="M-236.214-191.245l.729,71.533,3.282-.305-.97-71.424Z" transform="translate(358.33 194.541)" fill="#b5481b"/>
            <path id="Path_7152" data-name="Path 7152" d="M-224.913-186.5l25.717,1.945v59.7l-16.858-.533Z" transform="translate(367.252 198.443)" fill="#b5481b"/>
            <path id="Path_7153" data-name="Path 7153" d="M-211.94-125.386l-18.185-56.691,9.327-4.422,20.855,56.391Z" transform="translate(363.137 198.443)" fill="#da722c"/>
            <path id="Path_7154" data-name="Path 7154" d="M-252.207-120.091-254.2-190.17h1.983l1.037,70.079Z" transform="translate(344.13 195.545)" fill="#334a5c"/>
            <path id="Path_7155" data-name="Path 7155" d="M-275.589-116.927l5.042-.074v-75.631h-5.042Z" transform="translate(327.245 193.601)" fill="#721839"/>
            <path id="Path_7156" data-name="Path 7156" d="M-293.438-187.637l1.2,67.6,11.843-.315v-67.286Z" transform="translate(313.155 197.545)" fill="#334a5c"/>
            <path id="Path_7157" data-name="Path 7157" d="M-304.456-171.546l20.181-1.479.287,16.167h-20.468Z" transform="translate(304.456 209.08)" fill="#ff932c"/>
            <path id="Path_7158" data-name="Path 7158" d="M-222.554-158.895l11.751-3.469,2.8,7.56-12.333,2.812Z" transform="translate(369.114 217.497)" fill="#ff932c"/>
            <path id="Path_7159" data-name="Path 7159" d="M-241.2-178.431h8.923v-11.25l-8.82.829Z" transform="translate(354.394 195.931)" fill="#ff932c"/>
            <path id="Path_7160" data-name="Path 7160" d="M-259.556-162.363h-13.216v14.035h12.947Z" transform="translate(329.47 217.497)" fill="#ff932c"/>
            <rect id="Rectangle_1552" data-name="Rectangle 1552" width="20.001" height="8.889" transform="translate(168.056 9.722)" fill="#ff932c"/>
          </g>
          <g id="Group_7706" data-name="Group 7706" transform="translate(30.472 216.562)">
            <path id="Path_7161" data-name="Path 7161" d="M-523.244-168.428l21.811,1.585v42.6l-21.811.581Z" transform="translate(629.762 170.042)" fill="#334a5c"/>
            <path id="Path_7162" data-name="Path 7162" d="M-569.506-121.455v-41.628l82.785-5.345v44.769Z" transform="translate(593.24 170.042)" fill="#33636e"/>
            <path id="Path_7163" data-name="Path 7163" d="M-511.055-124.24l12.448-.332v-43.856h-12.448Z" transform="translate(639.384 170.042)" fill="#9a134f"/>
            <path id="Path_7164" data-name="Path 7164" d="M-558.112-121.286v-46.43l23.781-1.614-.908,47.415Z" transform="translate(602.235 169.33)" fill="#9a134f"/>
            <path id="Path_7165" data-name="Path 7165" d="M-544.422-169.33l20.423.994v1.794l-17.048,1.1-1.04,43.4-3.242.13Z" transform="translate(612.326 169.33)" fill="#721839"/>
            <path id="Path_7166" data-name="Path 7166" d="M-530.334-122.609l.461-46.72h5.446l.454,46.572Z" transform="translate(624.165 169.33)" fill="#da722c"/>
            <path id="Path_7167" data-name="Path 7167" d="M-527.033-168.129l.454,44.521,2.043-.19-.6-44.453Z" transform="translate(626.771 170.181)" fill="#b5481b"/>
            <path id="Path_7168" data-name="Path 7168" d="M-520-165.175l16.006,1.21v37.157l-10.373.49Z" transform="translate(632.323 172.61)" fill="#b5481b"/>
            <path id="Path_7169" data-name="Path 7169" d="M-511.806-126.317l-11.438-36.105,5.8-2.752,13.186,35.654Z" transform="translate(629.762 172.61)" fill="#da722c"/>
            <path id="Path_7170" data-name="Path 7170" d="M-536.987-123.844l-1.241-43.616h1.234l.646,43.616Z" transform="translate(617.932 170.805)" fill="#334a5c"/>
            <path id="Path_7171" data-name="Path 7171" d="M-551.54-121.875l3.138-.046v-47.072h-3.138Z" transform="translate(607.424 169.596)" fill="#721839"/>
            <path id="Path_7172" data-name="Path 7172" d="M-562.648-165.884l.747,42.074,7.371-.2v-41.877Z" transform="translate(598.654 172.05)" fill="#334a5c"/>
            <path id="Path_7173" data-name="Path 7173" d="M-569.506-155.869l12.561-.921.179,10.062h-12.739Z" transform="translate(593.24 179.23)" fill="#ff932c"/>
            <path id="Path_7174" data-name="Path 7174" d="M-518.531-147.995l7.314-2.159,1.74,4.705-7.676,1.75Z" transform="translate(633.482 184.468)" fill="#ff932c"/>
            <path id="Path_7175" data-name="Path 7175" d="M-530.137-160.154h5.554v-7l-5.489.516Z" transform="translate(624.32 171.046)" fill="#ff932c"/>
            <path id="Path_7176" data-name="Path 7176" d="M-541.561-150.154h-8.225v8.736h8.058Z" transform="translate(608.808 184.468)" fill="#ff932c"/>
            <rect id="Rectangle_1553" data-name="Rectangle 1553" width="12.448" height="5.532" transform="translate(128.329 6.051)" fill="#ff932c"/>
            <path id="Path_7177" data-name="Path 7177" d="M-559.036-161.97l-5.465-2.885-18.269,36.829,6.479,3.751Z" transform="translate(582.769 172.862)" fill="#33636e"/>
            <path id="Path_7178" data-name="Path 7178" d="M-579.149-125.548h17.255v-37.695Z" transform="translate(585.628 174.135)" fill="#334a5c"/>
            <path id="Path_7179" data-name="Path 7179" d="M-581.394-144.224l6.553,3.175,3.011-6.579-6.39-3Z" transform="translate(583.855 184.098)" fill="#ff932c"/>
          </g>
          <g id="Group_7707" data-name="Group 7707" transform="translate(172.962 213.677)">
            <path id="Path_7180" data-name="Path 7180" d="M-456.879-170.04l17.839,1.811v42.483l-17.839.475Z" transform="translate(539.664 171.654)" fill="#334a5c"/>
            <path id="Path_7181" data-name="Path 7181" d="M-503.142-123.067V-164.7l82.785-5.345v44.769Z" transform="translate(503.142 171.654)" fill="#33636e"/>
            <path id="Path_7182" data-name="Path 7182" d="M-491.747-122.9v-46.43l23.781-1.614-.908,47.415Z" transform="translate(512.137 170.942)" fill="#9a134f"/>
            <path id="Path_7183" data-name="Path 7183" d="M-478.057-170.942l20.423.994v1.794l-17.049,1.1-1.04,43.4-3.242.13Z" transform="translate(522.228 170.942)" fill="#721839"/>
            <path id="Path_7184" data-name="Path 7184" d="M-463.969-124.221l.461-46.72h5.446l.454,46.573Z" transform="translate(534.066 170.942)" fill="#da722c"/>
            <path id="Path_7185" data-name="Path 7185" d="M-460.668-169.742l.454,44.521,2.043-.19-.6-44.453Z" transform="translate(536.672 171.793)" fill="#b5481b"/>
            <path id="Path_7186" data-name="Path 7186" d="M-470.622-125.456l-1.241-43.616h1.235l.646,43.616Z" transform="translate(527.834 172.418)" fill="#334a5c"/>
            <path id="Path_7187" data-name="Path 7187" d="M-485.175-123.487l3.138-.046v-47.072h-3.138Z" transform="translate(517.325 171.208)" fill="#721839"/>
            <path id="Path_7188" data-name="Path 7188" d="M-496.284-167.265l.747,42.074,7.371-.2v-42.4Z" transform="translate(508.555 173.431)" fill="#334a5c"/>
            <path id="Path_7189" data-name="Path 7189" d="M-503.142-157.481l12.561-.92.179,10.062h-12.739Z" transform="translate(503.142 180.842)" fill="#ff932c"/>
            <path id="Path_7190" data-name="Path 7190" d="M-463.772-161.766h5.554v-7l-5.489.516Z" transform="translate(534.222 172.658)" fill="#ff932c"/>
            <path id="Path_7191" data-name="Path 7191" d="M-475.2-151.766h-8.225v8.736h8.058Z" transform="translate(518.71 186.08)" fill="#ff932c"/>
          </g>
          <g id="Group_7708" data-name="Group 7708" transform="translate(528.5 308.621)">
            <path id="Path_7192" data-name="Path 7192" d="M-304.456-44.628v-71.045H-116.4v85.212Z" transform="translate(304.456 119.63)" fill="#b2404c"/>
            <path id="Path_7193" data-name="Path 7193" d="M-279.234-117.884v78.4l67.491,5.084-2.114-83Z" transform="translate(324.368 117.884)" fill="#33636e"/>
            <path id="Path_7194" data-name="Path 7194" d="M-210.542-117.884l3.334,87.914,16.667,1.256v-89.17Z" transform="translate(378.597 117.884)" fill="#9a134f"/>
            <path id="Path_7195" data-name="Path 7195" d="M-240.585-34.4v-79.529h30.707v-3.958l-32.82.491Z" transform="translate(353.211 117.884)" fill="#334a5c"/>
            <path id="Path_7196" data-name="Path 7196" d="M-295.766-115.673v72.216l21.215,1.6-2.256-73.814Z" transform="translate(311.317 119.63)" fill="#a53139"/>
            <path id="Path_7197" data-name="Path 7197" d="M-219.7-33.2v-82.471h16.54l3.184,83.956Z" transform="translate(371.367 119.63)" fill="#da722c"/>
            <path id="Path_7198" data-name="Path 7198" d="M-223.431-115.673v81.415l-8.939-.673-.351-80.742Z" transform="translate(361.088 119.63)" fill="#9a134f"/>
            <path id="Path_7199" data-name="Path 7199" d="M-267.291-117.884v73.008l1.408-73.008Z" transform="translate(333.797 117.884)" fill="#334a5c"/>
            <path id="Path_7200" data-name="Path 7200" d="M-254.2-36.107l.625-81.777,1.358,81.927Z" transform="translate(344.13 117.884)" fill="#334a5c"/>
            <path id="Path_7201" data-name="Path 7201" d="M-267.291-117.884l.7,80.066,24.7,1.861-1.358-81.927Z" transform="translate(333.797 117.884)" fill="#9a134f"/>
            <path id="Path_7202" data-name="Path 7202" d="M-266.9-70.435l24.7,1.415-.258-11.417-24.444-.832Z" transform="translate(334.107 146.791)" fill="#ff932c"/>
            <path id="Path_7203" data-name="Path 7203" d="M-223.453-109.152h-9.24l.031,7.188h9.208Z" transform="translate(361.11 124.778)" fill="#ff932c"/>
            <path id="Path_7204" data-name="Path 7204" d="M-295.766-107.1v6.132l19.687,2.341V-107.1Z" transform="translate(311.317 126.401)" fill="#ff932c"/>
            <path id="Path_7205" data-name="Path 7205" d="M-190.834-108.1h-19.337l.2,5.313,19.136.728Z" transform="translate(378.89 125.605)" fill="#ff932c"/>
            <rect id="Rectangle_1554" data-name="Rectangle 1554" width="21.371" height="4.063" transform="translate(45.135 24.897)" fill="#ff932c"/>
            <path id="Path_7206" data-name="Path 7206" d="M-241.518-78.084l16.035.427.04,9.2-16.075-.848Z" transform="translate(354.143 149.305)" fill="#ff932c"/>
          </g>
          <g id="Group_7709" data-name="Group 7709" transform="translate(48.74 289.3)">
            <path id="Path_7207" data-name="Path 7207" d="M-535.615-76.607v-50.5h133.68v60.573Z" transform="translate(601.726 129.923)" fill="#b2404c"/>
            <path id="Path_7208" data-name="Path 7208" d="M-468.856-128.681l2.37,62.494,11.848.892v-63.386Z" transform="translate(654.43 128.681)" fill="#9a134f"/>
            <path id="Path_7209" data-name="Path 7209" d="M-475.367-68.485v-58.624h11.757l2.263,59.681Z" transform="translate(649.29 129.923)" fill="#da722c"/>
            <path id="Path_7210" data-name="Path 7210" d="M-478.018-127.109v57.874l-6.354-.479-.25-57.4Z" transform="translate(641.983 129.923)" fill="#9a134f"/>
            <path id="Path_7211" data-name="Path 7211" d="M-478.034-122.474H-484.6l.022,5.11h6.546Z" transform="translate(641.999 133.582)" fill="#ff932c"/>
            <path id="Path_7212" data-name="Path 7212" d="M-454.846-121.729h-13.746l.143,3.777,13.6.518Z" transform="translate(654.638 134.17)" fill="#ff932c"/>
            <path id="Path_7213" data-name="Path 7213" d="M-572.56-80.618v-45.887H-451.1v55.038Z" transform="translate(572.56 130.4)" fill="#b2404c"/>
            <path id="Path_7214" data-name="Path 7214" d="M-556.269-127.934v50.64l43.592,3.284-1.365-53.607Z" transform="translate(585.421 129.272)" fill="#33636e"/>
            <path id="Path_7215" data-name="Path 7215" d="M-531.306-74.01v-51.367h19.833v-2.556l-21.2.317Z" transform="translate(604.051 129.272)" fill="#334a5c"/>
            <path id="Path_7216" data-name="Path 7216" d="M-566.947-126.505v46.644l13.7,1.032-1.457-47.676Z" transform="translate(576.991 130.4)" fill="#a53139"/>
            <path id="Path_7217" data-name="Path 7217" d="M-517.817-73.238v-53.267h10.683l2.056,54.227Z" transform="translate(615.777 130.4)" fill="#da722c"/>
            <path id="Path_7218" data-name="Path 7218" d="M-520.226-126.505V-73.92L-526-74.355l-.227-52.151Z" transform="translate(609.138 130.4)" fill="#9a134f"/>
            <path id="Path_7219" data-name="Path 7219" d="M-548.555-127.934v47.155l.909-47.155Z" transform="translate(591.511 129.272)" fill="#334a5c"/>
            <path id="Path_7220" data-name="Path 7220" d="M-540.1-75.114l.4-52.819.877,52.916Z" transform="translate(598.185 129.272)" fill="#334a5c"/>
            <path id="Path_7221" data-name="Path 7221" d="M-548.555-127.934l.454,51.714,15.955,1.2-.877-52.916Z" transform="translate(591.511 129.272)" fill="#9a134f"/>
            <path id="Path_7222" data-name="Path 7222" d="M-548.3-97.286l15.955.914-.167-7.374-15.788-.538Z" transform="translate(591.712 147.943)" fill="#ff932c"/>
            <path id="Path_7223" data-name="Path 7223" d="M-520.241-122.294h-5.968l.02,4.643h5.948Z" transform="translate(609.153 133.724)" fill="#ff932c"/>
            <path id="Path_7224" data-name="Path 7224" d="M-566.947-120.965V-117l12.716,1.512v-5.473Z" transform="translate(576.991 134.773)" fill="#ff932c"/>
            <rect id="Rectangle_1555" data-name="Rectangle 1555" width="13.803" height="2.624" transform="translate(29.152 17.419)" fill="#ff932c"/>
            <path id="Path_7225" data-name="Path 7225" d="M-466.841-125.053v56.544l35.41,2.668v-58.946Z" transform="translate(656.021 131.546)" fill="#33636e"/>
            <rect id="Rectangle_1556" data-name="Rectangle 1556" width="15.413" height="2.93" transform="translate(189.18 24.448)" fill="#ff932c"/>
            <path id="Path_7226" data-name="Path 7226" d="M-531.909-102.227l10.357.276.026,5.944-10.383-.548Z" transform="translate(604.653 149.566)" fill="#ff932c"/>
            <path id="Path_7227" data-name="Path 7227" d="M-458.228-125.053l.307,57.728,10.818.614-.26-58.145Z" transform="translate(662.82 131.546)" fill="#9a134f"/>
            <path id="Path_7228" data-name="Path 7228" d="M-495.273-127.109l2.365,56.119,11.529,1.021-1.314-57.139Z" transform="translate(633.575 129.923)" fill="#33636e"/>
          </g>
          <g id="Group_7710" data-name="Group 7710" transform="translate(528.5 76.474)">
            <path id="Path_7229" data-name="Path 7229" d="M-116.4-245.178l-188.056,19.723v47.091L-116.4-195.732Z" transform="translate(304.456 249.539)" fill="#da722c"/>
            <path id="Path_7230" data-name="Path 7230" d="M-220.333-243.519v53.161l37.522-3.45v-53.808Z" transform="translate(370.867 247.615)" fill="#9a134f"/>
            <path id="Path_7231" data-name="Path 7231" d="M-293.438-184.028V-235.21l34.459-5v52.867Z" transform="translate(313.155 253.461)" fill="#33636e"/>
            <path id="Path_7232" data-name="Path 7232" d="M-274.181-240.21l16.792,3.391-14.271,1.5-2.521,47.979Z" transform="translate(328.357 253.461)" fill="#334a5c"/>
            <path id="Path_7233" data-name="Path 7233" d="M-246.459-189.27v-53.306l6.216-.972v53.707Z" transform="translate(350.242 250.826)" fill="#33636e"/>
            <path id="Path_7234" data-name="Path 7234" d="M-235.093-240.208v48.619l26.411-2.428v-48.961Z" transform="translate(359.215 251.275)" fill="#b2404c"/>
            <path id="Path_7235" data-name="Path 7235" d="M-260.376-190.341V-238.42l7.766-.814V-191.1Z" transform="translate(339.256 254.231)" fill="#9a134f"/>
            <path id="Path_7236" data-name="Path 7236" d="M-261.852-190.13v-47.924l-9.808,1.029-2.521,47.979Z" transform="translate(328.357 255.163)" fill="#b2404c"/>
            <path id="Path_7237" data-name="Path 7237" d="M-293.438-213.189l34.459-2.428v4.3l-34.459,2.334Z" transform="translate(313.155 272.876)" fill="#ff932c"/>
            <path id="Path_7238" data-name="Path 7238" d="M-220.333-238.727l37.522-4.251v4.251l-37.522,2.449Z" transform="translate(370.867 251.275)" fill="#ff932c"/>
            <path id="Path_7239" data-name="Path 7239" d="M-267.291-232.767l12.374-1.389v3.264l-12.374,1.28Z" transform="translate(333.797 258.24)" fill="#ff932c"/>
            <path id="Path_7240" data-name="Path 7240" d="M-246.459-216.994v3.45h6.216v-4.7Z" transform="translate(350.242 270.802)" fill="#ff932c"/>
            <path id="Path_7241" data-name="Path 7241" d="M-235.093-235.055l26.411-2.361v3.195l-26.411,2.639Z" transform="translate(359.215 255.667)" fill="#ff932c"/>
            <path id="Path_7242" data-name="Path 7242" d="M-304.456-230.782l19.717-1.667v4.1l-19.717,1.25Z" transform="translate(304.456 259.588)" fill="#ff932c"/>
          </g>
          <g id="Group_7711" data-name="Group 7711" transform="translate(24.103 129.689)">
            <path id="Path_7243" data-name="Path 7243" d="M-383.381-216.007l-144.286,15.133v36.131l144.286-13.326Z" transform="translate(632.638 219.354)" fill="#da722c"/>
            <path id="Path_7244" data-name="Path 7244" d="M-463.124-214.734v40.788l28.789-2.647v-41.284Z" transform="translate(683.592 217.877)" fill="#9a134f"/>
            <path id="Path_7245" data-name="Path 7245" d="M-519.214-169.09v-39.27l26.439-3.836v40.562Z" transform="translate(639.313 222.362)" fill="#33636e"/>
            <path id="Path_7246" data-name="Path 7246" d="M-504.439-212.2l12.884,2.6-10.95,1.148-1.934,36.812Z" transform="translate(650.977 222.362)" fill="#334a5c"/>
            <path id="Path_7247" data-name="Path 7247" d="M-483.17-173.111v-40.9l4.769-.746v41.206Z" transform="translate(667.768 220.341)" fill="#33636e"/>
            <path id="Path_7248" data-name="Path 7248" d="M-474.449-212.194v37.3l20.264-1.863V-214.32Z" transform="translate(674.652 220.686)" fill="#b2404c"/>
            <path id="Path_7249" data-name="Path 7249" d="M-493.847-173.933v-36.889l5.959-.625v36.931Z" transform="translate(659.339 222.954)" fill="#9a134f"/>
            <path id="Path_7250" data-name="Path 7250" d="M-494.979-173.771v-36.77l-7.525.789-1.934,36.812Z" transform="translate(650.977 223.669)" fill="#b2404c"/>
            <path id="Path_7251" data-name="Path 7251" d="M-463.124-211.058l28.789-3.262v3.262l-28.789,1.879Z" transform="translate(683.592 220.686)" fill="#ff932c"/>
            <path id="Path_7252" data-name="Path 7252" d="M-499.152-206.485l9.494-1.066v2.5l-9.494.982Z" transform="translate(655.15 226.03)" fill="#ff932c"/>
            <path id="Path_7253" data-name="Path 7253" d="M-483.17-194.383v2.647h4.769v-3.606Z" transform="translate(667.768 235.667)" fill="#ff932c"/>
            <path id="Path_7254" data-name="Path 7254" d="M-474.449-208.24l20.264-1.811v2.451l-20.264,2.025Z" transform="translate(674.652 224.055)" fill="#ff932c"/>
            <path id="Path_7255" data-name="Path 7255" d="M-527.668-204.962l15.128-1.279v3.144l-15.128.959Z" transform="translate(632.638 227.064)" fill="#ff932c"/>
            <path id="Path_7256" data-name="Path 7256" d="M-512.631-210.49v39.846l8.077-.777v-40.24Z" transform="translate(644.51 222.784)" fill="#9a134f"/>
            <path id="Path_7257" data-name="Path 7257" d="M-481.358-206.576l-103.1,11.408-1.875,32.632,104.971-9.653Z" transform="translate(586.329 226.799)" fill="#9a134f"/>
            <path id="Path_7258" data-name="Path 7258" d="M-549.622-168.508l.467-35.44-29.23,3.783-.764,34.373Z" transform="translate(591.997 228.874)" fill="#da722c"/>
            <path id="Path_7259" data-name="Path 7259" d="M-562.181-203.948l9.192,1.154-5.6.62-.857,33.372-3.2.294Z" transform="translate(605.023 228.874)" fill="#b2404c"/>
            <path id="Path_7260" data-name="Path 7260" d="M-553.409-202.248v33.526l27.166-2.5.94-34.382Z" transform="translate(612.317 227.568)" fill="#33636e"/>
            <path id="Path_7261" data-name="Path 7261" d="M-574.358-201.829v34.595l11.219-1.073V-203.12Z" transform="translate(595.779 229.527)" fill="#33636e"/>
            <path id="Path_7262" data-name="Path 7262" d="M-538.117-189.693l18.7-1.791v3.5l-18.7,1.41Z" transform="translate(624.39 238.713)" fill="#ff932c"/>
            <path id="Path_7263" data-name="Path 7263" d="M-574.358-197.965v5.709l11.219-.922v-5.972Z" transform="translate(595.779 232.661)" fill="#ff932c"/>
            <path id="Path_7264" data-name="Path 7264" d="M-546.061-204.182l.914,33.579-8.263.76v-33.526Z" transform="translate(612.317 228.689)" fill="#da722c"/>
            <path id="Path_7265" data-name="Path 7265" d="M-553.409-185.187l8.149-.685-.115-4.24-8.034.91Z" transform="translate(612.317 239.796)" fill="#ff932c"/>
            <path id="Path_7266" data-name="Path 7266" d="M-549.235-200.549l20.515-2.571-.055,2-20.423,1.933Z" transform="translate(615.612 229.527)" fill="#ff932c"/>
          </g>
          <path id="Path_7267" data-name="Path 7267" d="M-529.007,124.153-521.032-228l25.368-3.825-2.629,363.272Z" transform="translate(655.684 336.553)" fill="url(#linear-gradient-24)"/>
          <path id="Path_7268" data-name="Path 7268" d="M-509.214-231.827l3.726,2.241-.261,361.723-6.093-.693Z" transform="translate(669.234 336.553)" fill="#722631"/>
          <path id="Path_7269" data-name="Path 7269" d="M-512.755,130.489h-8.07l6.577-363.513,4.879,3.234Z" transform="translate(662.143 335.608)" fill="#722631"/>
          <path id="Path_7270" data-name="Path 7270" d="M-512.978-233.024l-4.547,4.655-4.909,356.259,2.879,2.6Z" transform="translate(660.873 335.608)" fill="url(#linear-gradient-25)"/>
          <path id="Path_7271" data-name="Path 7271" d="M-508.391-57.262l25.837-2.962-2.365-57.286-16.284,1.58,22.565-.413.666-13.341-30.243-11.065Z" transform="translate(671.96 408.456)" fill="#561a31"/>
          <path id="Path_7272" data-name="Path 7272" d="M-508.391-109.827l.176-76.858,28.828,10.433-.536,23.466L-499-151.555v41.628Z" transform="translate(671.96 372.191)" fill="#561a31"/>
        </g>
        <path id="Path_7273" data-name="Path 7273" d="M-758.437-238.724l283.877,47.442L-78.292-299.976h-80.265l-317.8,98.059-282.077-56.946Z" transform="translate(758.437 300.087)" fill="url(#linear-gradient-26)"/>
        <path id="Path_7274" data-name="Path 7274" d="M-158.557-299.976h-55.295l-262.508,93.7-281.47-76.474-.607,23.89,282.077,56.946Z" transform="translate(758.437 300.087)" fill="#ffb31b"/>
        <path id="Path_7275" data-name="Path 7275" d="M-600.8-201.917v-4.362l262.508-93.7H-283Z" transform="translate(882.881 300.087)" fill="#eb8c20"/>
        <path id="Path_7276" data-name="Path 7276" d="M-719.715-250.946l34.05,6.7,93.732-55.725h-58.337Z" transform="translate(789.007 300.087)" fill="url(#linear-gradient-27)"/>
        <path id="Path_7277" data-name="Path 7277" d="M-719.715-250.946v-13.145l45.982-35.884h23.463Z" transform="translate(789.007 300.087)" fill="#eb8c20"/>
        <path id="Path_7278" data-name="Path 7278" d="M-611.923-299.976l-82.47,49.029,167.473,44.668,262.508-93.7Z" transform="translate(808.997 300.087)" fill="#bdf1ff"/>
        <path id="Path_7279" data-name="Path 7279" d="M-758.007-282.753l68.685,18.661,45.982-35.884H-758.213Z" transform="translate(758.614 300.087)" fill="#bdf1ff"/>
        <path id="Path_7280" data-name="Path 7280" d="M-619.083-299.976l176.87,49.029,10.415-2.181-157.909-46.849Z" transform="translate(868.451 300.087)" fill="url(#linear-gradient-27)"/>
        <path id="Path_7281" data-name="Path 7281" d="M-444.758-253.127v-8.324l-125.963-38.525h-31.945Z" transform="translate(881.41 300.087)" fill="#ffb31b"/>
        <path id="Path_7282" data-name="Path 7282" d="M-758.437-133.646l295.584-23.465,261.624,9.259v-61.48l81.547-22.823,38.06,7.4,95.118,35.7L242-196.4V-286L26.568-257.076-76.07-275.418l-48.2,1.219-89.586,34.886,12.622,12.476v23.89L-462.853-163.5l-295.183-24.584Z" transform="translate(758.437 311.117)" fill="#c27590" opacity="0.5" style="mix-blend-mode: multiply;isolation: isolate"/>
        <g id="Group_7713" data-name="Group 7713" transform="translate(202.529 203.033)">
          <path id="Path_7283" data-name="Path 7283" d="M-641.129-184.992l-2.5,1.727-1.629,129.226H-575.5V-179.575Z" transform="translate(645.258 187.828)" fill="#c27590" opacity="0.5" style="mix-blend-mode: multiply;isolation: isolate"/>
          <path id="Path_7284" data-name="Path 7284" d="M-641.786-186.577V-57.063h71.669V-183.741Z" transform="translate(647.999 186.577)" fill="url(#linear-gradient-8)"/>
          <path id="Path_7285" data-name="Path 7285" d="M-640.867-186.577l-2.083,2.836v124.67l2.083,2.009Z" transform="translate(647.08 186.577)" fill="#843031"/>
          <path id="Path_7286" data-name="Path 7286" d="M-638.371-182.625l55.349,2.229v113.83l-55.349-.8Z" transform="translate(650.695 189.697)" fill="#f7b495"/>
          <path id="Path_7287" data-name="Path 7287" d="M-640-113.318h66.808l-8.542-4.1-55.349-.8Z" transform="translate(649.408 240.546)" fill="#e88b57"/>
          <path id="Path_7288" data-name="Path 7288" d="M-636.533-180.242l-4.167-5.4,67.641,3.667-8.125,5.228Z" transform="translate(648.857 187.313)" fill="#722631"/>
          <path id="Path_7289" data-name="Path 7289" d="M-583.022-179.134l-50.721,5.178-4.628,105.279V-182.625Z" transform="translate(650.695 189.697)" fill="#c27590" opacity="0.5" style="mix-blend-mode: multiply;isolation: isolate"/>
        </g>
        <g id="Group_7714" data-name="Group 7714" transform="translate(350.412 188.654)">
          <path id="Path_7290" data-name="Path 7290" d="M-450.84-190.5l-5.6-1.785L-558.608,125.72l8.48,1.248Z" transform="translate(565.78 196.45)" fill="#561a31"/>
          <path id="Path_7291" data-name="Path 7291" d="M-453.279-192.286h-4.569l-104.769,314.28,7.173,3.726Z" transform="translate(562.616 196.45)" fill="url(#linear-gradient-21)"/>
          <path id="Path_7292" data-name="Path 7292" d="M-544.74-33.317h-6.4l35.476,9.074.647-2.093Z" transform="translate(571.672 321.948)" fill="#f28c04"/>
          <path id="Path_7293" data-name="Path 7293" d="M-550.086-33.317l-2.4,8.046,34.915,10.6,2.961-9.577Z" transform="translate(570.612 321.948)" fill="#ce5920"/>
          <path id="Path_7294" data-name="Path 7294" d="M-536.523-59.01l-6.4.225,35.773,7.823.573-2.114Z" transform="translate(578.162 301.665)" fill="#f28c04"/>
          <path id="Path_7295" data-name="Path 7295" d="M-541.991-58.884l-2.117,8.126,35.266,9.372,2.623-9.675Z" transform="translate(577.228 301.764)" fill="#ce5920"/>
          <path id="Path_7296" data-name="Path 7296" d="M-529.6-80.9l-6.372.645,36.21,5.453.433-2.147Z" transform="translate(583.652 284.382)" fill="#f28c04"/>
          <path id="Path_7297" data-name="Path 7297" d="M-535.274-80.541l-1.578,8.248,35.806,7.032,1.981-9.827Z" transform="translate(582.956 284.667)" fill="#ce5920"/>
          <path id="Path_7298" data-name="Path 7298" d="M-523.4-102.361l-6.4.627,36.536,2.453.317-.927Z" transform="translate(588.52 267.441)" fill="#f28c04"/>
          <path id="Path_7299" data-name="Path 7299" d="M-529.409-102.01l-.893,8.35,36.264,4.059,1.165-9.956Z" transform="translate(588.126 267.718)" fill="#ce5920"/>
          <path id="Path_7300" data-name="Path 7300" d="M-521.94-122.139l-2.235,8.336,38.51,1.109.295-8.711Z" transform="translate(592.964 251.827)" fill="#ce5920"/>
          <path id="Path_7301" data-name="Path 7301" d="M-515.858-140.881l-2.673,8.323,38.948,1.121.339-10.019Z" transform="translate(597.419 236.578)" fill="#ce5920"/>
          <path id="Path_7302" data-name="Path 7302" d="M-510.405-158.862l-2.223,8.379,38.685.316.132-10.023Z" transform="translate(602.079 221.787)" fill="#ce5920"/>
          <path id="Path_7303" data-name="Path 7303" d="M-504.625-176.61l-2.272,8.46,39.014-1.038-.216-10.022Z" transform="translate(606.604 206.773)" fill="#ce5920"/>
          <path id="Path_7304" data-name="Path 7304" d="M-431.754-192.934l-5.981-1.679-96.2,339.531,9,1.006Z" transform="translate(585.259 194.613)" fill="#561a31"/>
          <path id="Path_7305" data-name="Path 7305" d="M-434.333-194.613l-4.824.168-99.086,335.693,7.71,3.671Z" transform="translate(581.857 194.613)" fill="url(#linear-gradient-31)"/>
          <path id="Path_7306" data-name="Path 7306" d="M-512.628-154.6l4.034,3.246,27.382-.415.947-3.208Z" transform="translate(602.079 225.903)" fill="#792731"/>
          <path id="Path_7307" data-name="Path 7307" d="M-506.648-172.081l3.84,2.345,26.915-.835,1.084-3.673Z" transform="translate(606.8 210.693)" fill="#792731"/>
          <path id="Path_7308" data-name="Path 7308" d="M-518.531-136.483l4.307,3.433,27.715.417,1.136-3.85Z" transform="translate(597.419 240.504)" fill="#792731"/>
          <path id="Path_7309" data-name="Path 7309" d="M-524.175-117.481l4.17,2.156,28.041,1.262.729-2.469Z" transform="translate(592.964 255.505)" fill="#792731"/>
        </g>
        <path id="Path_7310" data-name="Path 7310" d="M-650.143-272.577l-100.3,484.709H-510.7l28.033-440.041Z" transform="translate(764.748 321.717)" opacity="0.5" fill="url(#linear-gradient-32)" style="mix-blend-mode: color-dodge;isolation: isolate"/>
        <path id="Path_7311" data-name="Path 7311" d="M-603.856-299.976l165.228,45.8-.51,494.445-199.234,3.659Z" transform="translate(853.224 300.087)" opacity="0.5" fill="url(#linear-gradient-32)" style="mix-blend-mode: color-dodge;isolation: isolate"/>
        <path id="Path_7312" data-name="Path 7312" d="M-597.165-299.976l-56.349,33.5L-713.087,189.86l64.782,8.391Z" transform="translate(794.239 300.087)" opacity="0.5" fill="url(#linear-gradient-32)" style="mix-blend-mode: color-dodge;isolation: isolate"/>
        <g id="Group_7715" data-name="Group 7715" transform="translate(131.975 60.428)">
          <path id="Path_7313" data-name="Path 7313" d="M-627.153-263.059a1.379,1.379,0,0,1-1.38,1.38,1.381,1.381,0,0,1-1.381-1.38,1.381,1.381,0,0,1,1.381-1.38A1.379,1.379,0,0,1-627.153-263.059Z" transform="translate(727.925 267.714)" fill="#f7cc9f" style="mix-blend-mode: soft-light;isolation: isolate"/>
          <ellipse id="Ellipse_252" data-name="Ellipse 252" cx="1.38" cy="1.38" rx="1.38" ry="1.38" transform="translate(63.719 88.03)" fill="#f7cc9f" style="mix-blend-mode: soft-light;isolation: isolate"/>
          <path id="Path_7314" data-name="Path 7314" d="M-626.5-234.4a.932.932,0,0,1-.934.934.934.934,0,0,1-.934-.934.935.935,0,0,1,.934-.934A.933.933,0,0,1-626.5-234.4Z" transform="translate(729.143 290.689)" fill="#f7cc9f" style="mix-blend-mode: soft-light;isolation: isolate"/>
          <path id="Path_7315" data-name="Path 7315" d="M-633.356-205.827a.934.934,0,0,1-.934.934.935.935,0,0,1-.934-.934.935.935,0,0,1,.934-.936A.934.934,0,0,1-633.356-205.827Z" transform="translate(723.733 313.246)" fill="#f7cc9f" style="mix-blend-mode: soft-light;isolation: isolate"/>
          <path id="Path_7316" data-name="Path 7316" d="M-652.744-265.333a.935.935,0,0,1-.936.934.935.935,0,0,1-.934-.934.935.935,0,0,1,.934-.936A.936.936,0,0,1-652.744-265.333Z" transform="translate(708.425 266.269)" fill="#f7cc9f" style="mix-blend-mode: soft-light;isolation: isolate"/>
          <path id="Path_7317" data-name="Path 7317" d="M-612.207-231.414a.935.935,0,0,1-.934.934.935.935,0,0,1-.936-.934.936.936,0,0,1,.936-.936A.935.935,0,0,1-612.207-231.414Z" transform="translate(740.427 293.046)" fill="#f7cc9f" style="mix-blend-mode: soft-light;isolation: isolate"/>
          <path id="Path_7318" data-name="Path 7318" d="M-670.4-240.519a.934.934,0,0,1-.936.934.934.934,0,0,1-.934-.934.935.935,0,0,1,.934-.934A.935.935,0,0,1-670.4-240.519Z" transform="translate(694.488 285.86)" fill="#f7cc9f" style="mix-blend-mode: soft-light;isolation: isolate"/>
          <path id="Path_7319" data-name="Path 7319" d="M-614.606-241.194a2.238,2.238,0,0,1-2.239,2.239,2.238,2.238,0,0,1-2.239-2.239,2.238,2.238,0,0,1,2.239-2.239A2.238,2.238,0,0,1-614.606-241.194Z" transform="translate(736.475 284.297)" fill="#f7cc9f" style="mix-blend-mode: soft-light;isolation: isolate"/>
          <ellipse id="Ellipse_253" data-name="Ellipse 253" cx="2.239" cy="2.239" rx="2.239" ry="2.239" transform="translate(7.945 35.503)" fill="#f7cc9f" style="mix-blend-mode: soft-light;isolation: isolate"/>
          <path id="Path_7320" data-name="Path 7320" d="M-628.277-214.713a1.854,1.854,0,0,1-1.854,1.854,1.855,1.855,0,0,1-1.856-1.854,1.855,1.855,0,0,1,1.856-1.856A1.855,1.855,0,0,1-628.277-214.713Z" transform="translate(726.288 305.505)" fill="#f7cc9f" style="mix-blend-mode: soft-light;isolation: isolate"/>
          <ellipse id="Ellipse_254" data-name="Ellipse 254" cx="1.855" cy="1.855" rx="1.855" ry="1.855" transform="translate(25.187 39.008)" fill="#f7cc9f" style="mix-blend-mode: soft-light;isolation: isolate"/>
          <path id="Path_7321" data-name="Path 7321" d="M-657.962-197.67a1.856,1.856,0,0,1-1.856,1.856,1.855,1.855,0,0,1-1.856-1.856,1.855,1.855,0,0,1,1.856-1.854A1.856,1.856,0,0,1-657.962-197.67Z" transform="translate(702.852 318.961)" fill="#f7cc9f" style="mix-blend-mode: soft-light;isolation: isolate"/>
          <ellipse id="Ellipse_255" data-name="Ellipse 255" cx="3.71" cy="3.71" rx="3.71" ry="3.71" transform="matrix(0.997, -0.082, 0.082, 0.997, 61.096, 58.24)" fill="#f7cc9f" style="mix-blend-mode: soft-light;isolation: isolate"/>
          <path id="Path_7322" data-name="Path 7322" d="M-628.277-236.052a1.856,1.856,0,0,1-1.854,1.856,1.856,1.856,0,0,1-1.856-1.856,1.855,1.855,0,0,1,1.856-1.856A1.855,1.855,0,0,1-628.277-236.052Z" transform="translate(726.288 288.659)" fill="#f7cc9f" style="mix-blend-mode: soft-light;isolation: isolate"/>
          <ellipse id="Ellipse_256" data-name="Ellipse 256" cx="1.855" cy="1.855" rx="1.855" ry="1.855" transform="translate(43.035 102.774)" fill="#f7cc9f" style="mix-blend-mode: soft-light;isolation: isolate"/>
          <path id="Path_7323" data-name="Path 7323" d="M-652.977-233.083a1.855,1.855,0,0,1-1.856,1.856,1.855,1.855,0,0,1-1.854-1.856,1.854,1.854,0,0,1,1.854-1.854A1.855,1.855,0,0,1-652.977-233.083Z" transform="translate(706.789 291.004)" fill="#f7cc9f" style="mix-blend-mode: soft-light;isolation: isolate"/>
          <path id="Path_7324" data-name="Path 7324" d="M-634.664-193.726a.9.9,0,0,1-1.147.544.9.9,0,0,1-.544-1.147.9.9,0,0,1,1.147-.546A.9.9,0,0,1-634.664-193.726Z" transform="translate(722.798 322.59)" fill="#f7cc9f" style="mix-blend-mode: soft-light;isolation: isolate"/>
          <path id="Path_7325" data-name="Path 7325" d="M-618.477-200.826a.609.609,0,0,1-.777.369.609.609,0,0,1-.369-.778.609.609,0,0,1,.777-.369A.609.609,0,0,1-618.477-200.826Z" transform="translate(736.021 317.291)" fill="#f7cc9f" style="mix-blend-mode: soft-light;isolation: isolate"/>
          <path id="Path_7326" data-name="Path 7326" d="M-610.367-195.87a.609.609,0,0,1-.777.369.61.61,0,0,1-.369-.778.607.607,0,0,1,.777-.369A.609.609,0,0,1-610.367-195.87Z" transform="translate(742.424 321.203)" fill="#f7cc9f" style="mix-blend-mode: soft-light;isolation: isolate"/>
          <path id="Path_7327" data-name="Path 7327" d="M-623.765-189.219a1.207,1.207,0,0,1-1.542.732,1.207,1.207,0,0,1-.732-1.543,1.207,1.207,0,0,1,1.543-.732A1.207,1.207,0,0,1-623.765-189.219Z" transform="translate(730.928 325.823)" fill="#f7cc9f" style="mix-blend-mode: soft-light;isolation: isolate"/>
          <path id="Path_7328" data-name="Path 7328" d="M-629.172-202.065a2.415,2.415,0,0,1-3.085,1.464,2.415,2.415,0,0,1-1.464-3.085,2.417,2.417,0,0,1,3.087-1.464A2.412,2.412,0,0,1-629.172-202.065Z" transform="translate(724.808 314.409)" fill="#f7cc9f" style="mix-blend-mode: soft-light;isolation: isolate"/>
          <path id="Path_7329" data-name="Path 7329" d="M-619.1-202.3a1.207,1.207,0,0,1-1.542.732,1.207,1.207,0,0,1-.732-1.543,1.207,1.207,0,0,1,1.543-.732A1.207,1.207,0,0,1-619.1-202.3Z" transform="translate(734.611 315.496)" fill="#f7cc9f" style="mix-blend-mode: soft-light;isolation: isolate"/>
          <path id="Path_7330" data-name="Path 7330" d="M-634.891-205.879a1.207,1.207,0,0,1-1.542.732,1.207,1.207,0,0,1-.732-1.543,1.207,1.207,0,0,1,1.543-.732A1.207,1.207,0,0,1-634.891-205.879Z" transform="translate(722.145 312.67)" fill="#f7cc9f" style="mix-blend-mode: soft-light;isolation: isolate"/>
          <path id="Path_7331" data-name="Path 7331" d="M-682.341-237.322a1.207,1.207,0,0,1-1.542.732,1.21,1.21,0,0,1-.732-1.544,1.2,1.2,0,0,1,1.542-.73A1.207,1.207,0,0,1-682.341-237.322Z" transform="translate(684.685 287.847)" fill="#f7cc9f" style="mix-blend-mode: soft-light;isolation: isolate"/>
        </g>
        <path id="Path_7332" data-name="Path 7332" d="M-617.208-.83-758.129,1.837l.367-43.385,99.6-.967Z" transform="translate(758.68 503.341)" fill="#f7efa4" style="mix-blend-mode: soft-light;isolation: isolate"/>
        <path id="Path_7333" data-name="Path 7333" d="M-557.538,42.023l-200.9,4.2.517-60.519,144.955-2.65Z" transform="translate(758.438 523.525)" fill="#f7efa4" style="mix-blend-mode: soft-light;isolation: isolate"/>
        <path id="Path_7334" data-name="Path 7334" d="M-489.14-3.612-652.112-.528l-45.568-41.5,122.237-1.184Z" transform="translate(806.402 502.789)" fill="#f7efa4" style="mix-blend-mode: soft-light;isolation: isolate"/>
        <path id="Path_7335" data-name="Path 7335" d="M-377.9,38.277l-227.324,4.75-64.5-58.752,167.455-3.067h.017Z" transform="translate(828.468 522.069)" fill="#f7efa4" style="mix-blend-mode: soft-light;isolation: isolate"/>
        <path id="Path_7336" data-name="Path 7336" d="M-757.887-17.73l-.033,4.034-.517-4.017Z" transform="translate(758.438 522.907)" fill="#f7b495"/>
        <g id="Group_7727" data-name="Group 7727" transform="translate(18.358)">
          <path id="Path_7337" data-name="Path 7337" d="M-740.05,319.006l6.71-618.982h78.292l-.911,618.982Z" transform="translate(754.594 300.087)" fill="#843031"/>
          <path id="Path_7338" data-name="Path 7338" d="M-736.925,319.006l-7.084-40.747,2.79-578.235h11Z" transform="translate(751.469 300.087)" fill="#722631"/>
          <path id="Path_7339" data-name="Path 7339" d="M-655.849,35.714l7.3,19.52-91.6,2.233.164-22.009Z" transform="translate(754.512 564.897)" fill="#9b3431"/>
          <path id="Path_7340" data-name="Path 7340" d="M-648.551,46.968v6.667h-91.6l.187-7.705Z" transform="translate(754.512 573.163)" fill="#722631"/>
          <path id="Path_7341" data-name="Path 7341" d="M-740.718,23.159l-7.46,9.562,14.357,34.457.164-22.009Z" transform="translate(748.178 555.187)" fill="#843031"/>
          <path id="Path_7342" data-name="Path 7342" d="M-748.178,28.5V31.7l14.357,35.7.187-7.705Z" transform="translate(748.178 559.405)" fill="#561a31"/>
          <path id="Path_7343" data-name="Path 7343" d="M-655.223-84.373l7.521-16.675-92.126-1.313,2.578,17.988Z" transform="translate(754.77 456.095)" fill="#722631"/>
          <path id="Path_7344" data-name="Path 7344" d="M-732.049-82.78l-9.033-6.155-5.333-15.444,11.787,3.611Z" transform="translate(749.57 454.502)" fill="#561a31"/>
          <path id="Path_7345" data-name="Path 7345" d="M-647.7-99.087l-8.036-4.924-80.321-.833-3.769,4.445Z" transform="translate(754.77 454.134)" fill="#9b3431"/>
          <path id="Path_7346" data-name="Path 7346" d="M-746.415-103.031l5.422-3.055,10.134,2.222-3.769,4.445Z" transform="translate(749.57 453.154)" fill="#843031"/>
          <path id="Path_7347" data-name="Path 7347" d="M-736.051,123.089h71.179V-87.264l-68.613.208Z" transform="translate(757.751 468.013)" fill="#722631"/>
          <path id="Path_7348" data-name="Path 7348" d="M-732.6,109.353h54.214L-675.1-83.762h-54.585Z" transform="translate(760.477 470.777)" fill="#ac4231"/>
          <path id="Path_7349" data-name="Path 7349" d="M-735.16,31.934l4.583-7.778h54.214l8.271,7.778Z" transform="translate(758.455 555.974)" fill="#9b3431"/>
          <path id="Path_7350" data-name="Path 7350" d="M-728.809-81.871l-4.9-4.287h64.065l-4.583,4.287Z" transform="translate(759.603 468.886)" fill="#561a31"/>
          <path id="Path_7351" data-name="Path 7351" d="M-734.617-87.056l1.632,1.771h64.065L-666-87.264Z" transform="translate(758.883 468.013)" fill="#a83c31"/>
          <path id="Path_7352" data-name="Path 7352" d="M-739.521,122.1l3.637-208.878-6.106-3.283h-3.061l-.278,199.1Z" transform="translate(750.427 465.806)" fill="#561a31"/>
          <path id="Path_7353" data-name="Path 7353" d="M-741.438-86.275l-1.21,194.572-.972-2.222,1.091-193.339Z" transform="translate(751.776 468.013)" fill="#722631"/>
          <path id="Path_7354" data-name="Path 7354" d="M-742.61,107.615l-2.292.9.66-197.732,2.723,3.49Z" transform="translate(750.764 466.473)" fill="#401a31"/>
          <path id="Path_7355" data-name="Path 7355" d="M-736.006-86.111l-2.761,2.083-6.406-5.366L-742.1-90.9Z" transform="translate(750.55 465.141)" fill="#a83c31"/>
          <path id="Path_7356" data-name="Path 7356" d="M-744.9,21.683l3.959,6.6L-741.637,23l-.973-2.222Z" transform="translate(750.764 553.308)" fill="#9b3431"/>
          <g id="Group_7726" data-name="Group 7726" transform="translate(16.912)" opacity="0.5">
            <g id="Group_7716" data-name="Group 7716" transform="translate(0.179 98.116)">
              <path id="Path_7357" data-name="Path 7357" d="M-737.768-96.258l-.859-.907c.735-.7,73.74-70.589,80.583-148.043l1.245.111C-663.685-167.166-737.029-96.957-737.768-96.258Z" transform="translate(738.627 245.208)" fill="#722631"/>
            </g>
            <g id="Group_7717" data-name="Group 7717" transform="translate(0 184.332)">
              <path id="Path_7358" data-name="Path 7358" d="M-737.51-80.3l-1.217-.286c.252-1.07,25.84-107.2,82.261-116.44l.2,1.233C-711.871-186.692-737.26-81.365-737.51-80.3Z" transform="translate(738.727 197.028)" fill="#722631"/>
            </g>
            <g id="Group_7718" data-name="Group 7718" transform="translate(1.176 226.704)">
              <path id="Path_7359" data-name="Path 7359" d="M-656.5-49.909l-1.249-.043c.041-1.2,3.831-120.5-19.738-122.121-24.013-1.639-54.983,75.594-59.336,121.368l-1.245-.116c4.454-46.814,34.873-122.527,59.832-122.527.279,0,.556.009.836.029C-652.64-171.615-656.331-54.878-656.5-49.909Z" transform="translate(738.07 173.349)" fill="#722631"/>
            </g>
            <g id="Group_7719" data-name="Group 7719" transform="translate(16.377 284.083)">
              <path id="Path_7360" data-name="Path 7360" d="M-728.34-74.874l-1.235-.184c.369-2.453,9.375-60.117,36.655-65.879a12.827,12.827,0,0,1,11.588,2.842c14.86,12.836,12.1,60.054,11.971,62.056l-1.249-.077c.032-.487,2.854-48.6-11.54-61.035a11.648,11.648,0,0,0-10.511-2.564C-719.1-134.128-728.251-75.464-728.34-74.874Z" transform="translate(729.575 141.284)" fill="#722631"/>
            </g>
            <g id="Group_7720" data-name="Group 7720" transform="translate(1.832 6.129)">
              <path id="Path_7361" data-name="Path 7361" d="M-737.563-77.019l-.14-1.242c.322-.036,32.287-4.2,48.671-52.733,16.511-48.9,30.9-164.458,31.042-165.619l1.24.154c-.143,1.161-14.547,116.848-31.1,165.866C-704.5-81.261-737.234-77.054-737.563-77.019Z" transform="translate(737.703 296.613)" fill="#722631"/>
            </g>
            <g id="Group_7721" data-name="Group 7721" transform="translate(2.029 110.004)">
              <path id="Path_7362" data-name="Path 7362" d="M-734.594-143.082a22.066,22.066,0,0,1-3-.168l.19-1.235a33.207,33.207,0,0,0,31.276-15.767c11.631-18.17,19.106-71.532,17.336-76.884-1.235,1.4-4.184,8.958-7.042,16.282-5.744,14.724-13.612,34.889-20.774,42.265-11.929,12.288-20.31,12.349-20.647,12.365l.007-1.251h0c.084,0,8.239-.132,19.743-11.984,6.984-7.2,14.8-27.225,20.507-41.85,4.83-12.381,6.644-16.755,8.027-17.207a.9.9,0,0,1,.777.089,1.591,1.591,0,0,1,.6,1.09c1.621,7.315-5.785,59.478-17.486,77.759A34.525,34.525,0,0,1-734.594-143.082Z" transform="translate(737.593 238.565)" fill="#722631"/>
            </g>
            <g id="Group_7722" data-name="Group 7722" transform="translate(2.804 0.007)">
              <path id="Path_7363" data-name="Path 7363" d="M-737.1-158.538h-.064l.023-1.251c.222-.005,18.193-.106,38.915-32.42,20.886-32.57,33.74-107.077,33.867-107.825l1.233.209c-.129.752-13.024,75.508-34.048,108.292C-717.9-159.206-735.693-158.538-737.1-158.538Z" transform="translate(737.16 300.034)" fill="#722631"/>
            </g>
            <g id="Group_7723" data-name="Group 7723" transform="translate(3.078)">
              <path id="Path_7364" data-name="Path 7364" d="M-736.683-197.651l-.324-1.208a69.449,69.449,0,0,0,35.921-27.66c14.267-21.726,23.759-73.006,23.853-73.52l1.229.224c-.095.519-9.633,52.046-24.038,73.983A70.757,70.757,0,0,1-736.683-197.651Z" transform="translate(737.007 300.038)" fill="#722631"/>
            </g>
            <g id="Group_7724" data-name="Group 7724" transform="translate(14.681 0.032)">
              <path id="Path_7365" data-name="Path 7365" d="M-717.451-236.618a7.875,7.875,0,0,1-.959-.061c-17.943-2.294-10.735-60.849-10.418-63.341l1.24.157c-.077.6-7.378,59.805,9.335,61.942a7.093,7.093,0,0,0,5.372-1.707c12.957-10.191,18.623-59.882,18.678-60.382l1.242.138c-.229,2.065-5.782,50.713-19.147,61.226A8.582,8.582,0,0,1-717.451-236.618Z" transform="translate(730.523 300.02)" fill="#722631"/>
            </g>
            <g id="Group_7725" data-name="Group 7725" transform="translate(26.042 0.02)">
              <path id="Path_7366" data-name="Path 7366" d="M-716.9-271.448a4.332,4.332,0,0,1-3.228-1.482c-5.281-5.608-3.9-26.176-3.838-27.049l1.247.088c-.014.208-1.406,20.894,3.5,26.106a3.29,3.29,0,0,0,2.35,1.086c6.492-.064,10.8-19.748,11.916-27.329l1.238.183c-.17,1.156-4.262,28.309-13.14,28.4Z" transform="translate(724.174 300.027)" fill="#722631"/>
            </g>
          </g>
          <path id="Path_7367" data-name="Path 7367" d="M-742.779-176.33l9.853,37.627,80.238,45.42.211,45.984-81.965-.567-8.944-2.766Z" transform="translate(751.962 397.7)" fill="#722631" opacity="0.2" style="mix-blend-mode: multiply;isolation: isolate"/>
          <path id="Path_7368" data-name="Path 7368" d="M-736.3-299.976-689.549-33.3l17.651,7.883,11.259-274.554Z" transform="translate(757.555 300.087)" opacity="0.2" fill="url(#linear-gradient-35)" style="mix-blend-mode: color-dodge;isolation: isolate"/>
          <path id="Path_7369" data-name="Path 7369" d="M-708.614,54.145l-10.14-18.622,46.01.14,7.3,19.52Z" transform="translate(771.407 564.948)" fill="#d15729"/>
          <path id="Path_7370" data-name="Path 7370" d="M-716.3-104.622l6.477,4.619,43.546.741-8.036-4.924Z" transform="translate(773.345 454.309)" fill="#d15729"/>
          <path id="Path_7371" data-name="Path 7371" d="M-712.949,54.578-721.9,35.523h-4.2l6.579,19.055Z" transform="translate(765.602 564.948)" fill="#d15729"/>
        </g>
      </g>
    </g>
  </g>
</svg>
