<svg id="Component_16_1" data-name="Component 16 – 1" xmlns="http://www.w3.org/2000/svg" width="373.775" height="217.472" viewBox="0 0 373.775 217.472">
  <path id="Path_9739" data-name="Path 9739" d="M1644.737,246.857c0,2.634-83.673,4.77-186.888,4.77s-186.886-2.136-186.886-4.77,83.671-4.773,186.886-4.773S1644.737,244.221,1644.737,246.857Z" transform="translate(-1270.962 -34.155)" fill="#edf1f4"/>
  <g id="Group_9681" data-name="Group 9681" transform="translate(43.666 112.384)">
    <g id="Group_9679" data-name="Group 9679" transform="translate(1.921 70.338)">
      <path id="Path_9740" data-name="Path 9740" d="M1343.675,246.237h-23.169l-4.687-25.878h32.544Z" transform="translate(-1315.818 -217.231)" fill="#f8cb3d"/>
      <path id="Path_9741" data-name="Path 9741" d="M1343.6,245.867c0,1.564-5.186,2.832-11.585,2.832s-11.584-1.268-11.584-2.832,5.186-2.832,11.584-2.832S1343.6,244.3,1343.6,245.867Z" transform="translate(-1315.743 -216.861)" fill="#f8cb3d"/>
      <path id="Path_9742" data-name="Path 9742" d="M1348.363,220.409c0,1.729-7.286,3.129-16.273,3.129s-16.272-1.4-16.272-3.129,7.286-3.128,16.272-3.128S1348.363,218.68,1348.363,220.409Z" transform="translate(-1315.818 -217.281)" fill="#ffd766"/>
      <path id="Path_9743" data-name="Path 9743" d="M1347.17,220.394c0,1.206-6.76,2.185-15.1,2.185s-15.1-.979-15.1-2.185,6.759-2.185,15.1-2.185S1347.17,219.188,1347.17,220.394Z" transform="translate(-1315.799 -217.266)" fill="#544f5b"/>
    </g>
    <g id="Group_9680" data-name="Group 9680">
      <path id="Path_9744" data-name="Path 9744" d="M1366.024,177.123c-.7-3.3-1.442-8.541-4.874-10.256-3.583-1.792-5.558,3.742-6.162,6.214-1.074,4.387-.615,8.949-.524,13.412a31.5,31.5,0,0,1-2.776,14.583,30.269,30.269,0,0,1-10.811,11.962c-2.811,1.9-5.783,3.828-7.528,6.691,1.021-11.3,10.744-19.71,13.667-30.532,2.768-10.244.729-21.261-3.59-30.774-1.679-3.7-3.9-9.274-8.383-10.212a7.612,7.612,0,0,0-8.041,3.831c-2.4,4.687,1.7,9.762,3.927,13.615,3.193,5.527,7.06,11.863,7.669,18.338,1.168,12.444-10.783,23.614-6.3,36.031-.008.11-6.037-9.478-5.794-15.176.215-5.023,3.057-9.447,4.109-14.29a31.132,31.132,0,0,0-5.183-24.442c-1.658-2.308-5.111-7.056-8.563-6.256-3.28.759-1.906,5.9-1.262,8,1.351,4.414,4.1,8.215,6.152,12.3,2.646,5.27,2.767,10.046,1.685,15.755-.963,5.074-1.357,9.84.277,14.827,1.547,4.713,5.25,11.543,9.188,11.868,4.869-.431,18.254-12.921,25.31-20.2,3.183-3.28,6.576-6.834,8.042-11.262C1367.767,186.6,1367,181.706,1366.024,177.123Z" transform="translate(-1313.915 -148.071)" fill="#a3b20b"/>
      <path id="Path_9745" data-name="Path 9745" d="M1365.19,177.123c-.7-3.3-1.441-8.541-4.873-10.256-3.582-1.792-5.558,3.742-6.163,6.214-1.073,4.387-.614,8.949-.523,13.412a31.5,31.5,0,0,1-2.776,14.583,30.274,30.274,0,0,1-10.812,11.962c-2.811,1.9-5.783,3.828-7.527,6.691,1.02-11.3,10.744-19.71,13.667-30.532,2.768-10.244.728-21.261-3.589-30.774-1.68-3.7-3.9-9.274-8.384-10.212a7.614,7.614,0,0,0-8.042,3.831c-2.4,4.687,1.7,9.762,3.928,13.615,3.193,5.527,7.06,11.863,7.668,18.338,1.169,12.444-10.782,23.614-6.3,36.031-.007.11-6.037-9.478-5.793-15.176.214-5.023,3.057-9.447,4.109-14.29a31.131,31.131,0,0,0-5.184-24.442c-1.657-2.308-5.11-7.056-8.563-6.256-3.28.759-1.906,5.9-1.262,8,1.352,4.414,4.1,8.215,6.153,12.3,2.646,5.27,2.767,10.046,1.685,15.755-.963,5.074-1.357,9.84.277,14.827,1.546,4.713,5.249,11.543,9.187,11.868,4.87-.431,18.255-12.921,25.311-20.2,3.183-3.28,6.575-6.834,8.041-11.262C1366.933,186.6,1366.171,181.706,1365.19,177.123Z" transform="translate(-1313.928 -148.071)" fill="#afc737"/>
      <path id="Path_9746" data-name="Path 9746" d="M1359.889,172.549a.508.508,0,0,0-.98.27c1.42,5.514,2.571,11.262,1.486,16.942-1,5.21-4.087,9.683-7.607,13.528a90.738,90.738,0,0,1-10.4,9.681c-3.073,2.443-7.1,4.129-9.8,7.026a31.184,31.184,0,0,1,4.419-17.355c2.789-4.639,5.238-8.953,5.865-14.439.662-5.77-.978-11.144-2.745-16.569-1.907-5.852-4.115-11.6-6.562-17.241-.26-.6-1.135-.081-.877.512q3.715,8.569,6.608,17.458c1.952,6.042,3.53,11.953,2.147,18.316-1.258,5.8-5.061,10.068-7.39,15.37a32.08,32.08,0,0,0-2.471,14.476,23.449,23.449,0,0,1-7.366-11.972c-1.283-5.082-.495-9.751,1.031-14.662a21.921,21.921,0,0,0,.218-13.719,63.193,63.193,0,0,0-6.434-14.25.509.509,0,0,0-.879.513A57.394,57.394,0,0,1,1325,182.291a18.435,18.435,0,0,1-.222,9.657,63.6,63.6,0,0,0-2.007,7.343,24.447,24.447,0,0,0,8.113,21.97.52.52,0,0,0,.75-.067l0,0c-.092.445.627.781.965.324,1.754-2.366,4.487-3.564,6.876-5.161a59.931,59.931,0,0,0,5.658-4.35A77.115,77.115,0,0,0,1356,201.071a26.158,26.158,0,0,0,5.618-12.487C1362.348,183.186,1361.23,177.758,1359.889,172.549Z" transform="translate(-1313.861 -147.972)" fill="#a3b20b"/>
    </g>
  </g>
  <path id="Path_9747" data-name="Path 9747" d="M1508,187.85h-55.157l-11.21-87.606,55.259-3.468Z" transform="translate(-1268.181 -36.523)" fill="#e9e7d9"/>
  <path id="Path_9748" data-name="Path 9748" d="M1466.109,248.936h-5.779l-19.3-152.159h5.78Z" transform="translate(-1268.191 -36.523)" fill="#e9e7d9"/>
  <path id="Path_9749" data-name="Path 9749" d="M1515.4,248.936h-5.779l-19.3-152.159h5.78Z" transform="translate(-1267.388 -36.523)" fill="#e9e7d9"/>
  <path id="Path_9750" data-name="Path 9750" d="M1416.2,187.852h67.885l11.822-91.189h-67.885Z" transform="translate(-1268.595 -36.525)" fill="#f3f2e5"/>
  <path id="Path_9751" data-name="Path 9751" d="M1474.639,187.85h8.495l11.717-91.074h-7.143Z" transform="translate(-1267.643 -36.523)" fill="#e9e7d9"/>
  <path id="Path_9752" data-name="Path 9752" d="M1469.956,248.936h5.779l19.3-152.159h-5.78Z" transform="translate(-1267.719 -36.523)" fill="#f3f2e5"/>
  <path id="Path_9753" data-name="Path 9753" d="M1406.1,248.936h5.779l21.561-152.159h-5.78Z" transform="translate(-1268.76 -36.523)" fill="#f3f2e5"/>
  <path id="Path_9754" data-name="Path 9754" d="M1366.9,127.886c.537,9.318-15.856,25.176-24.047,29.982-1.953,1.146-6.963-7.714-6.407-8.463,1.39-1.873,16.995-18.3,16.995-18.3A19.094,19.094,0,0,1,1366.9,127.886Z" transform="translate(-1269.896 -36.019)" fill="#d69e5b"/>
  <path id="Path_9755" data-name="Path 9755" d="M1342.019,157.924c-2.132.082-4.257-1.879-6.588-5.583-1.822-2.9-8.06-19.779-8.06-19.779l2.972-2.2s14.608,15.485,15.173,19.308S1345.687,157.783,1342.019,157.924Z" transform="translate(-1270.043 -35.976)" fill="#d69e5b"/>
  <path id="Path_9756" data-name="Path 9756" d="M1349.921,135.529s3.851,6.012,3.851,8.893-8.805,11.86-8.805,11.86,6.6-3.968,16-14.944Z" transform="translate(-1269.757 -35.891)" fill="#bf8b52"/>
  <g id="Group_9684" data-name="Group 9684" transform="translate(89.587 129.671)">
    <path id="Path_9757" data-name="Path 9757" d="M1381.985,245.158l-3.42.332-2.835-58.852-11.384,58.852-2.972-.18s-1.508-47.121-2.087-58.007c-.391-7.355,0-20.53,0-20.53.954.042,4.839.985,5.949.954,8.957-.332,25.932-.918,25.932-.918C1393.442,179.024,1381.985,245.158,1381.985,245.158Z" transform="translate(-1359.113 -165.053)" fill="#544f5b"/>
    <path id="Path_9758" data-name="Path 9758" d="M1378.269,244.62l-2.805-58.24s5.314-1.86,6.566-3.783a11.475,11.475,0,0,1-3.448,4.912s-3.524,24.256.893,57.722Z" transform="translate(-1358.846 -164.796)" fill="#3b343f"/>
    <path id="Path_9759" data-name="Path 9759" d="M1362.228,245.445l-.882-.535s-1.72-50.223-2.06-57.579c-.381-8.238.3-22.25.3-22.25l11.185,2.674s-4.71,11.3-5.7,22.491C1364.3,199.029,1360.546,229.752,1362.228,245.445Z" transform="translate(-1359.112 -165.081)" fill="#3b343f"/>
    <g id="Group_9682" data-name="Group 9682" transform="translate(18.973 79.551)">
      <path id="Path_9760" data-name="Path 9760" d="M1378.217,243.357l-.435,2.594h10.723s-3.486-2.587-6.887-2.591c.042.337-2.469.9-3.307.045Z" transform="translate(-1377.782 -243.357)" fill="#7059a1"/>
      <rect id="Rectangle_1743" data-name="Rectangle 1743" width="10.723" height="0.734" transform="translate(0 2.594)" fill="#5d4a93"/>
    </g>
    <g id="Group_9683" data-name="Group 9683" transform="translate(1.602 79.551)">
      <path id="Path_9761" data-name="Path 9761" d="M1361.124,243.357l-.435,2.594h10.723s-3.485-2.587-6.885-2.591c.04.337-2.47.9-3.308.045Z" transform="translate(-1360.689 -243.357)" fill="#7059a1"/>
      <rect id="Rectangle_1744" data-name="Rectangle 1744" width="10.723" height="0.734" transform="translate(0 2.594)" fill="#5d4a93"/>
    </g>
  </g>
  <path id="Path_9762" data-name="Path 9762" d="M1402.506,149.624c-.556,4.209-4.684,6.253-8.073,6.121a5.862,5.862,0,0,1-3.015-.86c-.009-.01-.029-.02-.041-.03a2.541,2.541,0,0,1-.617-.718.084.084,0,0,1-.021-.041,15.271,15.271,0,0,1-1.295-3.005v-.01c-.233-.688-.466-1.447-.688-2.256-2.559-9.106-4.805-25.283-3.43-27.64a218.889,218.889,0,0,1,13.557,19.405C1401.161,144.464,1402.739,147.874,1402.506,149.624Z" transform="translate(-1269.106 -36.125)" fill="#d69e5b"/>
  <path id="Path_9763" data-name="Path 9763" d="M1416.668,130.725s-13.121,23.119-18.22,25.515a5.739,5.739,0,0,1-3.491.516,6.592,6.592,0,0,1-3.652-1.983,8.58,8.58,0,0,1-.617-.718.085.085,0,0,1-.02-.041,6.484,6.484,0,0,1-1.295-3.005V151a3.892,3.892,0,0,1,.01-1.083c.1-.678,1.316-2.022,3.207-3.823,1.649-1.568,3.8-3.471,6.222-5.585,4.988-4.352,11.058-9.571,15.834-14.367A9.3,9.3,0,0,1,1416.668,130.725Z" transform="translate(-1269.033 -36.044)" fill="#d69e5b"/>
  <path id="Path_9764" data-name="Path 9764" d="M1394.968,156.639a6.592,6.592,0,0,1-3.653-1.983,2.541,2.541,0,0,1-.617-.718.084.084,0,0,1-.02-.041,6.485,6.485,0,0,1-1.295-3.005v-.01c-.233-.688-.465-1.447-.688-2.256a114.035,114.035,0,0,1,.809-15.226h1.811a102.945,102.945,0,0,1,1.286,12.576c0,.425,0,.818-.021,1.194a19.024,19.024,0,0,0,1.792,8.376A11.006,11.006,0,0,0,1394.968,156.639Z" transform="translate(-1269.045 -35.926)" fill="#bf8b52"/>
  <path id="Path_9765" data-name="Path 9765" d="M1383.387,118.74s8.877,5.9,11.061,11.19c0,0-5.05,7.911-10.362,9.264,0,0-3.663-17.56-2.885-19.256A1.782,1.782,0,0,1,1383.387,118.74Z" transform="translate(-1269.168 -36.166)" fill="#bed0e2"/>
  <path id="Path_9766" data-name="Path 9766" d="M1386.91,123.536s1.208,6.059,1.963,12.722l3.519-3.729S1389.155,125.873,1386.91,123.536Z" transform="translate(-1269.073 -36.087)" fill="#9ab9d5"/>
  <path id="Path_9767" data-name="Path 9767" d="M1385.117,134.2s1.075,4.919,2.821,3.66,5.361-4.57,7.968-6.331l-1.963-3.874S1387.294,131.8,1385.117,134.2Z" transform="translate(-1269.102 -36.02)" fill="#d3e0ea"/>
  <path id="Path_9768" data-name="Path 9768" d="M1384.086,110.216c-.131.333-.253.647-.344.941a16.113,16.113,0,0,0-.566,2.357,17.826,17.826,0,0,0-.263,2.175,20.188,20.188,0,0,0,.08,3.753c-6.151,3.037-12.818-1.142-12.818-1.142a20.315,20.315,0,0,0,.707-2.965,45.881,45.881,0,0,0,.557-4.947.379.379,0,0,0,.01-.1.458.458,0,0,0,.009-.07Z" transform="translate(-1269.345 -36.304)" fill="#d69e5b"/>
  <path id="Path_9769" data-name="Path 9769" d="M1384.075,110.216c-.131.333-.253.647-.344.941a9.686,9.686,0,0,0-.566,2.357,17.8,17.8,0,0,0-.263,2.175,15.116,15.116,0,0,1-8.62,1.286,8.181,8.181,0,0,1-3.41-1.639,45.881,45.881,0,0,0,.557-4.947.379.379,0,0,0,.01-.1.458.458,0,0,0,.009-.07Z" transform="translate(-1269.334 -36.304)" fill="#bf8b52"/>
  <path id="Path_9770" data-name="Path 9770" d="M1370,116.581s-7.357,3.528-10.392,5.888c0,0,.554,31.561-1.567,45.422,0,0,21.715,5.074,33.6-.47,1.6-8.274.526-25.136-1.058-33.655-1.523-8.193-3.116-12.633-6.826-14.993C1383.762,118.774,1378.1,122.484,1370,116.581Z" transform="translate(-1269.544 -36.2)" fill="#bed0e2"/>
  <path id="Path_9771" data-name="Path 9771" d="M1360.277,133.216s-.83,16.731-2.234,34.576c0,0,7.369,2.1,12.593,1.734,0,0-7.079-4.485-2.448-28.538,2.887-14.992-5.862-18.309-5.862-18.309S1361.794,129.675,1360.277,133.216Z" transform="translate(-1269.544 -36.101)" fill="#9ab9d5"/>
  <path id="Path_9772" data-name="Path 9772" d="M1361.039,121.281a55.668,55.668,0,0,0-12.282,12.081s13.36,9.628,13.628,12.056l5.954-8.424S1367.927,127.356,1361.039,121.281Z" transform="translate(-1269.694 -36.124)" fill="#bed0e2"/>
  <g id="Group_9685" data-name="Group 9685" transform="translate(110.464 83.387)">
    <path id="Path_9773" data-name="Path 9773" d="M1379.717,120.185a18.115,18.115,0,0,1,2.8-.646c.633.008.443,3.192.443,3.192a6.658,6.658,0,0,1-1.938.549C1380.328,123.276,1379.405,121.047,1379.717,120.185Z" transform="translate(-1379.655 -119.539)" fill="#3b343f"/>
    <path id="Path_9774" data-name="Path 9774" d="M1381,123.229s2.458,12.393,2.312,17.312c-.041,1.359,1.9,2.746,1.9,2.746a8.154,8.154,0,0,0,1.623-2.961c.186-1.248-.668-13.636-3.9-17.645Z" transform="translate(-1379.633 -119.488)" fill="#3b343f"/>
  </g>
  <path id="Path_9775" data-name="Path 9775" d="M1382.748,118.58s-.279,1.006-1.861,1.087c0,0,2.25,1.7,2.65,2.822.951-.594.869-2.5.284-3.571Z" transform="translate(-1269.171 -36.168)" fill="#fff"/>
  <path id="Path_9776" data-name="Path 9776" d="M1381.067,119.707s-.71,2.633-.873,3.949c0,0-8.841-1.657-10.384-7.068l.9-.409A32.122,32.122,0,0,0,1381.067,119.707Z" transform="translate(-1269.351 -36.207)" fill="#fff"/>
  <path id="Path_9777" data-name="Path 9777" d="M1347.011,133.383s12.017,9.84,14.683,13.429l4.042-3.983-13.706-15.171Z" transform="translate(-1269.723 -36.02)" fill="#d3e0ea"/>
  <path id="Path_9778" data-name="Path 9778" d="M1424.349,125.4a1.279,1.279,0,0,0-.882-1.976c.27-.431-.442-1.513-1.177-1.291a2.947,2.947,0,0,0-1.392.777c.587-.7,2.116-1.992,2.7-2.691.364-.431,1.791-1.618,1.87-2.2.127-.916-1.115-.444-1.54-.221a26.958,26.958,0,0,0-7.64,7.121c-.869-1.357.248-2.557.632-3.954.141-.513-.6-.783-.8-.674-2.43,1.348-3.7,5.263-2.518,8.682a.309.309,0,0,0,.038.075.176.176,0,0,0-.094.2c.306,1.565,2.336,1.889,3.774,2.016,2.16.193,6.016-2.652,6.889-3.477C1425.717,126.373,1424.455,125.371,1424.349,125.4Z" transform="translate(-1268.645 -36.186)" fill="#d69e5b"/>
  <path id="Path_9779" data-name="Path 9779" d="M1420.806,122.827s-2.132,2.245-1.575,2.859,1.744-.2,1.744-.2-1.064,1.187-.532,1.678,1.351-.2,1.351-.2-.082.941.327,1.023a9.822,9.822,0,0,0,2-.275s-1.954,1.179-2.556.6c-.177-.17-.138-.678-.138-.678s-.963.139-1.226-.2a1.845,1.845,0,0,1-.145-1.1s-1.056-.062-1.2-.494A3.908,3.908,0,0,1,1420.806,122.827Z" transform="translate(-1268.552 -36.098)" fill="#bf8b52"/>
  <path id="Path_9780" data-name="Path 9780" d="M1365.463,105.886s4.386,6.168,6.863,6.124-.991-8.34-.991-8.34Z" transform="translate(-1269.423 -36.411)" fill="#613d44"/>
  <path id="Path_9781" data-name="Path 9781" d="M1368.772,106.926a14.019,14.019,0,0,0,3.783,6.086c2.557,2.274,10.807,2.446,13.669-1.721,3.213-4.676-.787-18.663-1.6-20.006s-13.174-5.463-16.679.651S1368.772,106.926,1368.772,106.926Z" transform="translate(-1269.405 -36.655)" fill="#d69e5b"/>
  <path id="Path_9782" data-name="Path 9782" d="M1381.949,82.168c-6.595.1-16.142,1.2-17.96,6.72a7.506,7.506,0,0,1-.063-2.538c.095-.639-.884-.916-.98-.269a8.718,8.718,0,0,0,.755,5.09c0,.029,0,.059,0,.088a10.9,10.9,0,0,0-3.315-.252c-.648.051-.653,1.067,0,1.016a10.257,10.257,0,0,1,2.618.136,6.587,6.587,0,0,0-.678,4.018c1.418,6.153,2.448,7.881,3.083,9.228.722,1.53,3.762,1.438,4.547,1.138,3.632-1.388,3.317-8.366.761-13.5,3.259-.622,5.991-1.351,9.651-.84,1.606.224,4.544,1.172,6.185.266C1389.163,91.033,1388.834,82.061,1381.949,82.168Z" transform="translate(-1269.513 -36.761)" fill="#613d44"/>
  <path id="Path_9783" data-name="Path 9783" d="M1381.846,102.063a21.083,21.083,0,0,0,1.939,2.379l.3.3-.226.336a1.38,1.38,0,0,1-.74.54,1.81,1.81,0,0,1-.787.077,5.654,5.654,0,0,1-1.3-.4,5.562,5.562,0,0,1,1.27-.343,1.169,1.169,0,0,0,.729-.426l.074.636A3.579,3.579,0,0,1,1381.846,102.063Z" transform="translate(-1269.169 -36.437)" fill="#bf8b52"/>
  <path id="Path_9784" data-name="Path 9784" d="M1373.152,95.485c.353-.8,3.707-1.809,4.958-1.109.549.308.847,1.633.416,1.692-2.129.295-3.295.295-5.078.692C1373.115,96.833,1373.015,95.8,1373.152,95.485Z" transform="translate(-1269.298 -36.566)" fill="#613d44"/>
  <path id="Path_9785" data-name="Path 9785" d="M1386.738,95.092c-.352-.8-3.705-1.81-4.958-1.109-.549.308-.848,1.632-.416,1.692,2.131.3,3.3.3,5.078.692C1386.776,96.44,1386.875,95.4,1386.738,95.092Z" transform="translate(-1269.167 -36.572)" fill="#613d44"/>
  <path id="Path_9786" data-name="Path 9786" d="M1362.181,95.037s4.376,5.7,10.424,4.95c0,0,.929,7.044-4.351,6.521S1362.181,95.037,1362.181,95.037Z" transform="translate(-1269.476 -36.551)" fill="#51333a"/>
  <path id="Path_9787" data-name="Path 9787" d="M1383.723,108.611a3.636,3.636,0,0,1-4.071-1.01s-.186,2.5,1,3.09S1383.723,108.611,1383.723,108.611Z" transform="translate(-1269.192 -36.347)" fill="#fff"/>
  <path id="Path_9788" data-name="Path 9788" d="M1368.714,102.912c-.988-.771-4.181-1.31-4.508.087-.573,2.446,2.259,6.084,5.522,4.138C1370.917,106.43,1369.57,103.581,1368.714,102.912Z" transform="translate(-1269.444 -36.436)" fill="#d69e5b"/>
  <path id="Path_9789" data-name="Path 9789" d="M1367.762,103.993s-2.336-1.043-2.558-.293c-.555,1.885,1.882,2.531,2.558,2.7,0,0-1.134-1.077-.872-1.642A1.58,1.58,0,0,1,1367.762,103.993Z" transform="translate(-1269.428 -36.415)" fill="#bf8b52"/>
  <g id="Group_9686" data-name="Group 9686" transform="translate(106.283 61.023)">
    <path id="Path_9790" data-name="Path 9790" d="M1375.545,99.681c-.12-.894,2.43-1.871,4.1-1.1.7.318.251,2.523-1.626,2.776A2.1,2.1,0,0,1,1375.545,99.681Z" transform="translate(-1375.541 -97.522)" fill="#fff"/>
    <path id="Path_9791" data-name="Path 9791" d="M1379.048,99.876a1.227,1.227,0,1,1-1.189-1.263A1.227,1.227,0,0,1,1379.048,99.876Z" transform="translate(-1375.524 -97.517)" fill="#80b2d5"/>
    <path id="Path_9792" data-name="Path 9792" d="M1379.045,99.063a.414.414,0,1,1-.4-.427A.414.414,0,0,1,1379.045,99.063Z" transform="translate(-1375.497 -97.516)" fill="#fff"/>
    <path id="Path_9793" data-name="Path 9793" d="M1381.944,98.872c-.09-.9,2.265-1.832,3.777-1.039.627.33.172,2.528-1.55,2.749A1.936,1.936,0,0,1,1381.944,98.872Z" transform="translate(-1375.437 -97.534)" fill="#fff"/>
    <path id="Path_9794" data-name="Path 9794" d="M1385.285,99.142a1.227,1.227,0,1,1-1.165-1.287A1.228,1.228,0,0,1,1385.285,99.142Z" transform="translate(-1375.422 -97.529)" fill="#80b2d5"/>
    <path id="Path_9795" data-name="Path 9795" d="M1385.3,98.331a.414.414,0,1,1-.393-.435A.415.415,0,0,1,1385.3,98.331Z" transform="translate(-1375.396 -97.528)" fill="#fff"/>
  </g>
  <path id="Path_9796" data-name="Path 9796" d="M1321.81,128.6c-1.133,1.914.11,4.458,1.133,5.273.836.668,3.313-.35,3.8-.363.977.912,5.2-1.169,3.792-3.507-1.108-1.833-2.5-3.5-4.77-3.517C1325.174,126.475,1322.428,127.551,1321.81,128.6Z" transform="translate(-1270.141 -36.039)" fill="#d69e5b"/>
  <path id="Path_9797" data-name="Path 9797" d="M1316.52,127.266c-.346-.3-.821-.581-.691-1.066a.485.485,0,0,1,.43-.357,5.014,5.014,0,0,1,3.308,1.185,5.437,5.437,0,0,0,3.6.949,32.054,32.054,0,0,0,3.463-.483c.6-.107.669.739.072.845-.232.041-.472.084-.71.128a.422.422,0,0,1-.151.723c-1.874.844-4.346,1.385-6.231.4A16.787,16.787,0,0,1,1316.52,127.266Z" transform="translate(-1270.231 -36.05)" fill="#d69e5b"/>
  <path id="Path_9798" data-name="Path 9798" d="M1315.442,130.231c-.346-.3-.821-.581-.692-1.066a.486.486,0,0,1,.431-.357,5.017,5.017,0,0,1,3.308,1.186,5.441,5.441,0,0,0,3.6.948,31.841,31.841,0,0,0,3.463-.483c.6-.108.669.739.071.845l-.709.128a.422.422,0,0,1-.152.723c-1.873.845-4.345,1.385-6.23.4A16.71,16.71,0,0,1,1315.442,130.231Z" transform="translate(-1270.249 -36.001)" fill="#d69e5b"/>
  <path id="Path_9799" data-name="Path 9799" d="M1316.687,132.874c-.413-.228-.946-.408-.934-.9a.456.456,0,0,1,.336-.429,5.249,5.249,0,0,1,3.532.516,5.632,5.632,0,0,0,3.763.23,30.845,30.845,0,0,0,3.284-1.134.427.427,0,1,1,.274.807l-.668.26c.289.133,1.343.9,1.051,1.11a9.674,9.674,0,0,1-7.05,1.207A17.988,17.988,0,0,1,1316.687,132.874Z" transform="translate(-1270.232 -35.963)" fill="#d69e5b"/>
  <path id="Path_9800" data-name="Path 9800" d="M1315.178,128.7c-.346-.3-.821-.582-.691-1.068a.482.482,0,0,1,.43-.355,5,5,0,0,1,3.308,1.185,5.432,5.432,0,0,0,3.6.947,31.542,31.542,0,0,0,3.461-.482c.6-.107.669.739.072.845l-.711.128a.422.422,0,0,1-.151.723c-1.874.845-4.346,1.385-6.231.4A16.8,16.8,0,0,1,1315.178,128.7Z" transform="translate(-1270.253 -36.026)" fill="#d69e5b"/>
  <path id="Path_9801" data-name="Path 9801" d="M1320.467,125.089a.478.478,0,0,1,.419-.624c1.415-.006,3.222-.315,4.553.3a10.111,10.111,0,0,1,3.186,2.965,1.4,1.4,0,0,1-.506,1.023c-1.739.384-2.377-1.093-3.75-1.775S1321.07,126.955,1320.467,125.089Z" transform="translate(-1270.156 -36.073)" fill="#d69e5b"/>
  <path id="Path_9802" data-name="Path 9802" d="M1321.831,128.76a4.332,4.332,0,0,0,.941,4.989A17.033,17.033,0,0,1,1321.831,128.76Z" transform="translate(-1270.14 -36.002)" fill="#bf8b52"/>
  <path id="Path_9803" data-name="Path 9803" d="M1324.17,128a2.8,2.8,0,0,0,1.915,2.681s-1.792-.707-2.107-1.264A1.385,1.385,0,0,1,1324.17,128Z" transform="translate(-1270.101 -36.014)" fill="#bf8b52"/>
  <g id="Group_9687" data-name="Group 9687" transform="translate(166.146 65.823)">
    <path id="Path_9804" data-name="Path 9804" d="M1458.639,104.465l-2.956,21.035-6.149,20.781c-9.867-1.553-16.358-10.263-14.881-20.781C1436.286,113.885,1447.023,104.465,1458.639,104.465Z" transform="translate(-1434.444 -102.221)" fill="#c3e7f3"/>
    <path id="Path_9805" data-name="Path 9805" d="M1480.01,122.17l-21.239,2.686,14.978-16.834A17.854,17.854,0,0,1,1480.01,122.17Z" transform="translate(-1434.048 -102.163)" fill="#afc737"/>
    <path id="Path_9806" data-name="Path 9806" d="M1472.3,106.459l-14.977,16.834,2.956-21.036A18.492,18.492,0,0,1,1472.3,106.459Z" transform="translate(-1434.071 -102.257)" fill="#ea5081"/>
    <path id="Path_9807" data-name="Path 9807" d="M1478.385,126.537c-1.632,11.616-12.375,21.029-23.991,21.029a19.686,19.686,0,0,1-3.193-.249l6.149-20.78,21.236-2.686A20.461,20.461,0,0,1,1478.385,126.537Z" transform="translate(-1434.171 -101.905)" fill="#7dc7e7"/>
  </g>
  <g id="Group_9688" data-name="Group 9688" transform="translate(159.217 114.839)">
    <path id="Path_9808" data-name="Path 9808" d="M1435,173.8l3.278-23.318h-7.38l-3.277,23.318Z" transform="translate(-1427.626 -150.487)" fill="#c3e7f3"/>
    <path id="Path_9809" data-name="Path 9809" d="M1447.656,173.725l2.575-18.325h-7.38l-2.575,18.325Z" transform="translate(-1427.42 -150.407)" fill="#7dc7e7"/>
    <path id="Path_9810" data-name="Path 9810" d="M1460.307,173.631l1.753-12.471h-7.379l-1.753,12.471Z" transform="translate(-1427.214 -150.313)" fill="#afc737"/>
    <path id="Path_9811" data-name="Path 9811" d="M1472.958,173.579l1.3-9.216h-7.38l-1.3,9.216Z" transform="translate(-1427.008 -150.261)" fill="#ea5081"/>
  </g>
  <path id="Path_9812" data-name="Path 9812" d="M1563.478,169.773c2.189,1.47-.226,10.9-13.344,25.414-3.362,3.719-6.538-4.155-4.8-6.563s12.247-18.944,12.247-18.944S1559.395,167.034,1563.478,169.773Z" transform="translate(-1266.5 -35.354)" fill="#d69e5b"/>
  <path id="Path_9813" data-name="Path 9813" d="M1562.078,172.75a6.234,6.234,0,0,0-4.344,5.083c-.927,5.83-5.965,14.115-7.28,16.828,0,0,6.047-6.86,7.694-9.4S1562.078,172.75,1562.078,172.75Z" transform="translate(-1266.408 -35.285)" fill="#bf8b52"/>
  <path id="Path_9814" data-name="Path 9814" d="M1590.332,180.177c-18.3-5.3-35.626,11.792-41.4,27.85,0,0-12.043.083-17.563,16.141s.028,22.872,24.085,24.253c30.61,1.755,45.411,0,50.43-11.291S1617.177,187.954,1590.332,180.177Z" transform="translate(-1266.751 -35.18)" fill="#f9d472"/>
  <path id="Path_9815" data-name="Path 9815" d="M1586.131,219.041s-15.953-10.825-34.4-9.122C1551.729,209.919,1568.409,199.494,1586.131,219.041Z" transform="translate(-1266.387 -34.725)" fill="#f7bc4d"/>
  <path id="Path_9816" data-name="Path 9816" d="M1526.075,201.19c-2.32,3.822,6.656,46.769,6.656,46.769l2.569.189.224-37.663s17.757-.621,19.946-4.37c2.055-3.517,2.055-9.719,2.055-9.719-1.005.047,5.342-4.327,5.342-4.327C1547.634,192.069,1527.836,198.289,1526.075,201.19Z" transform="translate(-1266.811 -34.97)" fill="#544f5b"/>
  <path id="Path_9817" data-name="Path 9817" d="M1535.412,210.449l-.235,37.608-1.75.319s-1.574-42.427-.3-45.92c2.317-6.353,22.736-8.144,22.736-8.144l-10.7,15.083S1536.5,210.908,1535.412,210.449Z" transform="translate(-1266.698 -34.934)" fill="#3b343f"/>
  <path id="Path_9818" data-name="Path 9818" d="M1535.6,203.7c-1.263,3.7,11.41,44.184,11.41,44.184l2.779.254-1.627-38.01s23.409,2.282,25.6-1.468c2.054-3.517,3.252-13.792,3.252-13.792-1.005.047-10.1-2.093-10.1-2.093C1551.671,192.774,1536.707,200.439,1535.6,203.7Z" transform="translate(-1266.652 -34.959)" fill="#544f5b"/>
  <g id="Group_9689" data-name="Group 9689" transform="translate(258.604 210.858)">
    <path id="Path_9819" data-name="Path 9819" d="M1535.362,244.966l.464,2.771H1525.42s3.246-2.767,6.878-2.771c-.044.362,2.068.96,2.964.052Z" transform="translate(-1525.42 -244.966)" fill="#ea5081"/>
    <rect id="Rectangle_1745" data-name="Rectangle 1745" width="10.406" height="0.784" transform="translate(0 2.771)" fill="#d8326e"/>
  </g>
  <g id="Group_9690" data-name="Group 9690" transform="translate(273.044 210.858)">
    <path id="Path_9820" data-name="Path 9820" d="M1549.571,244.966l.464,2.771h-10.406s3.038-2.767,6.67-2.771c-.043.362,2.276.96,3.172.052Z" transform="translate(-1539.629 -244.966)" fill="#ea5081"/>
    <rect id="Rectangle_1746" data-name="Rectangle 1746" width="10.406" height="0.784" transform="translate(0 2.771)" fill="#d8326e"/>
  </g>
  <g id="Group_9691" data-name="Group 9691" transform="translate(253.714 160.746)">
    <rect id="Rectangle_1747" data-name="Rectangle 1747" width="32.862" height="1.439" transform="translate(32.799 6.208) rotate(-176.442)" fill="#e9e7d9"/>
    <path id="Path_9821" data-name="Path 9821" d="M1552.882,201.811l14.965-1.367.089-1.436-14.965,1.367Z" transform="translate(-1520.082 -195.603)" fill="#f3f2e5"/>
    <path id="Path_9822" data-name="Path 9822" d="M1568.46,199.063l-37.15-3.405L1520.7,198.39l32.8,2.04Z" transform="translate(-1520.607 -195.658)" fill="#e9e7d9"/>
  </g>
  <g id="Group_9692" data-name="Group 9692" transform="translate(250.977 142.188)">
    <path id="Path_9823" data-name="Path 9823" d="M1521.652,198.743l32.669,2.033-3.051-20.382a1.236,1.236,0,0,0-1.12-1.078l-29.421-1.829a1.913,1.913,0,0,0-1.921,2.254Z" transform="translate(-1517.901 -177.396)" fill="#e5e4dc"/>
    <path id="Path_9824" data-name="Path 9824" d="M1520.873,198.7l32.668,2.032-3.05-20.382a1.234,1.234,0,0,0-1.12-1.077L1519.33,177.4a1.393,1.393,0,0,0-1.4,1.641Z" transform="translate(-1517.915 -177.398)" fill="#f3f2e5"/>
  </g>
  <path id="Path_9825" data-name="Path 9825" d="M1568.361,163.676a27.6,27.6,0,0,0-12.871,7.762s6.719,5.658,6.753,8.174l4.034-1.366S1571.279,170.677,1568.361,163.676Z" transform="translate(-1266.326 -35.433)" fill="#c3e7f3"/>
  <path id="Path_9826" data-name="Path 9826" d="M1572.693,134.726a.521.521,0,0,0,1.043,0c0-.032.01-.063.01-.095l1.491.991.927.615a12.5,12.5,0,0,1,1.21-.386,1.5,1.5,0,0,0,1.406.8,2.639,2.639,0,0,0,1.355-.437,1.938,1.938,0,0,0,1.044.8,3.281,3.281,0,0,0,1.011.208,3.824,3.824,0,0,0,1.25,3.346,3.785,3.785,0,0,0-.27,1.97,7.947,7.947,0,0,0,.417,2.388,3.312,3.312,0,0,0-.688,1.553,3.555,3.555,0,0,0,.366,2.272,2.318,2.318,0,0,0-.554.959,1.9,1.9,0,0,0,.26,1.521,2.859,2.859,0,0,0-1.03,1.8,4.044,4.044,0,0,0,.447,2.189,4.592,4.592,0,0,0-.562,3.252,1.482,1.482,0,0,0,.9,1.2,1.706,1.706,0,0,0,.627,1.251c.009,0,.019.01.031.01a2.753,2.753,0,0,0,1.136.886,2.344,2.344,0,0,0,2.241-.208.137.137,0,0,0,.063.01,2.942,2.942,0,0,0,2.742.167,1.617,1.617,0,0,0,.427-.313,2.57,2.57,0,0,0,2.824-.688,2.4,2.4,0,0,0,.481-.928,1.5,1.5,0,0,0,.219-1.073,1.378,1.378,0,0,0-.26-.573v-.011a1.076,1.076,0,0,0-.136-.167,1.6,1.6,0,0,0-.114-.239,2.387,2.387,0,0,0,.594-1.794,2.84,2.84,0,0,0-1.011-1.834,3.65,3.65,0,0,0,.168-3.534,4.157,4.157,0,0,0,.708-1.095,3.607,3.607,0,0,0-.042-2.972c1.083-1.271,1.792-2.866,1.083-4.4a6.693,6.693,0,0,0-.3-.7,3.717,3.717,0,0,0,.167-4.576,2.831,2.831,0,0,0,.688-1.8,5.886,5.886,0,0,0-1.417-2.929,2.852,2.852,0,0,0-.032-2.439,4,4,0,0,0-2.284-1.981,3,3,0,0,0-1.458-2.367,6.23,6.23,0,0,0-4.764-.3,3.229,3.229,0,0,0-1.856-.761,2.58,2.58,0,0,0-2.793,2.4,4.541,4.541,0,0,0-4.764,3.9,3.586,3.586,0,0,0-1.137.5A4.327,4.327,0,0,0,1572.693,134.726Z" transform="translate(-1266.046 -36.074)" fill="#855e4f"/>
  <path id="Path_9827" data-name="Path 9827" d="M1576.354,133.937a.557.557,0,0,1,.719-.188c1,0,2.012-.01,3.013-.01a.536.536,0,0,1,.635.083,2.406,2.406,0,0,0,2.887.6.522.522,0,0,1,.636.365c.313,1.345.626,2.825,2.221,3.294a.54.54,0,0,1,.313.772,3.011,3.011,0,0,0,.437,3.824.521.521,0,0,1,.083.636,2.459,2.459,0,0,0-.176,3.148.58.58,0,0,1,.061.279,2.525,2.525,0,0,0,.075,3.312,2.515,2.515,0,0,0,.749,3.051,2.557,2.557,0,0,0,1.061,2.084,1.555,1.555,0,0,0,.433,1.475,1.659,1.659,0,0,0,1.348.5,2.416,2.416,0,0,0,2.506,1.143,1.3,1.3,0,0,1,.115.331,1.5,1.5,0,0,1-.219,1.073,2.4,2.4,0,0,1-.481.928,2.57,2.57,0,0,1-2.824.688,1.612,1.612,0,0,1-.427.313,2.942,2.942,0,0,1-2.742-.167.137.137,0,0,1-.063-.01,2.344,2.344,0,0,1-2.241.208,2.754,2.754,0,0,1-1.136-.886c-.011,0-.021-.01-.031-.01a1.707,1.707,0,0,1-.627-1.251,1.483,1.483,0,0,1-.9-1.2,4.592,4.592,0,0,1,.562-3.252,4.044,4.044,0,0,1-.447-2.189,2.86,2.86,0,0,1,1.031-1.8,1.9,1.9,0,0,1-.26-1.521,2.317,2.317,0,0,1,.554-.959,3.555,3.555,0,0,1-.366-2.272,3.31,3.31,0,0,1,.688-1.553,7.943,7.943,0,0,1-.417-2.388,3.782,3.782,0,0,1,.27-1.97,3.824,3.824,0,0,1-1.25-3.346,3.281,3.281,0,0,1-1.011-.208,1.936,1.936,0,0,1-1.044-.8,2.64,2.64,0,0,1-1.355.437,1.5,1.5,0,0,1-1.407-.8,12.505,12.505,0,0,0-1.21.386l-.927-.615A10.613,10.613,0,0,0,1576.354,133.937Z" transform="translate(-1266.005 -35.922)" fill="#724c40"/>
  <path id="Path_9828" data-name="Path 9828" d="M1577.531,138.238s2.535-1.119,1.837-3.013c-.825-2.243-5.993-5.456-7.6-2.243C1570.623,135.27,1577.531,138.238,1577.531,138.238Z" transform="translate(-1266.063 -35.955)" fill="#f6c03b"/>
  <path id="Path_9829" data-name="Path 9829" d="M1556.2,147.908a3.2,3.2,0,0,1,.637-4.156,31.423,31.423,0,0,1,2.412-8.178c2.42,4.162,5.555,14.025,5.555,14.025-.593,3.625,3.419,11.265,3.419,11.265a17.391,17.391,0,0,1-6.714-2.978,1.134,1.134,0,0,1-1.373-.019,2.153,2.153,0,0,1-1.147-2.154,4.078,4.078,0,0,1-1.74-1.307,2.632,2.632,0,0,1-.159-2.368A3.6,3.6,0,0,1,1556.2,147.908Z" transform="translate(-1266.323 -35.891)" fill="#775044"/>
  <path id="Path_9830" data-name="Path 9830" d="M1554.988,193.191c7.4,5.212,21.959,6.591,21.959,6.591s2.757-14.7,2.757-20.214c0-.011.009-.011.009-.021q.381-.933.76-1.9c.074-.182.146-.375.218-.557.552-1.391,1.062-2.769,1.487-4.018a2.587,2.587,0,0,0,.106-.329c.662-1.984,1.051-5.507-1.948-7.528-1.636-1.1-5.735-2-5.735-2-2.859,1.6-7.956,1.131-7.956,1.131s-8.714,7.265-10.094,10.306,1.767,5.99,1.767,5.99C1558.723,182.975,1557.856,191.04,1554.988,193.191Z" transform="translate(-1266.334 -35.44)" fill="#c3e7f3"/>
  <path id="Path_9831" data-name="Path 9831" d="M1565.782,156.761a37.031,37.031,0,0,1,.687,7.7c-2.238,3.858,8.244-1.01,8.244-1.01a11.563,11.563,0,0,1-.227-1.864c-.169-1.874-.188-3.75-.185-4.293a.373.373,0,0,1,0-.087.394.394,0,0,1,0-.062Z" transform="translate(-1266.158 -35.545)" fill="#d69e5b"/>
  <path id="Path_9832" data-name="Path 9832" d="M1565.782,156.8c.075.293.146.568.194.824a10.418,10.418,0,0,1,.293,2.054c.065.669.113,1.709.178,2.412,1.922,1.2,6.616-1.865,7.891-3.68-.094-1.913,0-4.009,0-4.009Z" transform="translate(-1266.158 -35.584)" fill="#bf8b52"/>
  <path id="Path_9833" data-name="Path 9833" d="M1575.279,143.177s.2,9.715-.746,12.32-5.814,6.3-8.351,6.451-6.354-5.681-7.068-7.725-.738-8.833-.639-10.406,1.267-5.952,1.877-6.642S1573,136.856,1575.279,143.177Z" transform="translate(-1266.278 -35.869)" fill="#d69e5b"/>
  <path id="Path_9834" data-name="Path 9834" d="M1564.077,149.509a4.93,4.93,0,0,1-.3,3.644l-.025-.491a1.17,1.17,0,0,0,.722.436,5.5,5.5,0,0,1,1.266.363,5.728,5.728,0,0,1-1.31.378,1.816,1.816,0,0,1-.784-.089,1.386,1.386,0,0,1-.734-.552l-.145-.225.121-.266C1563.315,151.754,1563.568,150.643,1564.077,149.509Z" transform="translate(-1266.208 -35.664)" fill="#bf8b52"/>
  <g id="Group_9693" data-name="Group 9693" transform="translate(299.768 111.985)">
    <path id="Path_9835" data-name="Path 9835" d="M1565.925,149.525c-.057.9,2.554,1.7,4.168.815.671-.366.074-2.536-1.815-2.656A2.1,2.1,0,0,0,1565.925,149.525Z" transform="translate(-1565.924 -147.678)" fill="#fff"/>
    <path id="Path_9836" data-name="Path 9836" d="M1569.284,149.281a1.227,1.227,0,1,0-1.1,1.344A1.227,1.227,0,0,0,1569.284,149.281Z" transform="translate(-1565.909 -147.67)" fill="#80b2d5"/>
    <path id="Path_9837" data-name="Path 9837" d="M1567.705,148.4a.414.414,0,1,0-.371.453A.413.413,0,0,0,1567.705,148.4Z" transform="translate(-1565.909 -147.672)" fill="#fff"/>
  </g>
  <g id="Group_9694" data-name="Group 9694" transform="translate(293.201 111.853)">
    <path id="Path_9838" data-name="Path 9838" d="M1559.465,149.583c.051.9,2.511,1.46,3.874.443.566-.423-.225-2.523-1.952-2.477A1.927,1.927,0,0,0,1559.465,149.583Z" transform="translate(-1559.463 -147.548)" fill="#fff"/>
    <path id="Path_9839" data-name="Path 9839" d="M1562.523,149.058a1.227,1.227,0,1,0-.949,1.453A1.225,1.225,0,0,0,1562.523,149.058Z" transform="translate(-1559.452 -147.54)" fill="#80b2d5"/>
    <path id="Path_9840" data-name="Path 9840" d="M1560.826,148.366a.414.414,0,1,0-.32.49A.413.413,0,0,0,1560.826,148.366Z" transform="translate(-1559.454 -147.54)" fill="#fff"/>
  </g>
  <path id="Path_9841" data-name="Path 9841" d="M1566.215,144.311c-.437.107-.314,1.036-.073,1.411s2.089-.377,5.238.651C1571.554,146.43,1568.2,143.823,1566.215,144.311Z" transform="translate(-1266.156 -35.749)" fill="#855e4f"/>
  <path id="Path_9842" data-name="Path 9842" d="M1562.67,144.368c.415.115.254,1.036.005,1.4s-1.991-.412-5.067.554C1557.439,146.378,1560.788,143.848,1562.67,144.368Z" transform="translate(-1266.292 -35.749)" fill="#855e4f"/>
  <path id="Path_9843" data-name="Path 9843" d="M1568.229,154.806a3.651,3.651,0,0,1-4.209,1.318s1.557,2.386,2.654,2.066S1568.229,154.806,1568.229,154.806Z" transform="translate(-1266.187 -35.577)" fill="#fff"/>
  <path id="Path_9844" data-name="Path 9844" d="M1563.105,148.433a2.582,2.582,0,0,0-1.052-.668,2.114,2.114,0,0,0-1.2,0,1.637,1.637,0,0,0-.98.662,1.839,1.839,0,0,0-.406,1.161,1.637,1.637,0,0,1,.246-1.27,1.766,1.766,0,0,1,1.072-.8,2.162,2.162,0,0,1,1.334.062A2.116,2.116,0,0,1,1563.105,148.433Z" transform="translate(-1266.262 -35.697)" fill="#534741"/>
  <path id="Path_9845" data-name="Path 9845" d="M1566.325,148.505a1.772,1.772,0,0,1,1.042-.812,2.764,2.764,0,0,1,1.355-.075,2.06,2.06,0,0,1,1.142.732,1.922,1.922,0,0,1,.481,1.227,2.226,2.226,0,0,0-.619-1.1,2.048,2.048,0,0,0-1.058-.613,2.956,2.956,0,0,0-1.244.034A2.048,2.048,0,0,0,1566.325,148.505Z" transform="translate(-1266.15 -35.695)" fill="#534741"/>
  <path id="Path_9846" data-name="Path 9846" d="M1558.269,180.355c3.009,1.225,9.691,2.218,13.131.669,0,0-4.289,3.383-13.131,2.886A17.811,17.811,0,0,0,1558.269,180.355Z" transform="translate(-1266.281 -35.161)" fill="#9fd5e4"/>
  <path id="Path_9847" data-name="Path 9847" d="M1576.69,199.655s2.757-13.194,2.757-20.214c-.584.694-.285-5.1-2.648-8.489-2.876,2.8-3.628,21.916-6.005,27.281A23.787,23.787,0,0,0,1576.69,199.655Z" transform="translate(-1266.076 -35.314)" fill="#9fd5e4"/>
  <path id="Path_9848" data-name="Path 9848" d="M1554.6,142.474a5.435,5.435,0,0,1,1.409-2.884,1.6,1.6,0,0,1-.289-.606c-.321-1.5,1.043-2.409,2.284-2.941a1.813,1.813,0,0,1,1.033-2.02,2.724,2.724,0,0,1,2.18.092,2.329,2.329,0,0,1,1.506-.7,3.726,3.726,0,0,1,2.113.346,4.575,4.575,0,0,1,3.81-1.385,2.439,2.439,0,0,1,1.373.447,3.266,3.266,0,0,1,3.057-.133,3.013,3.013,0,0,1,.857.6c.009,0,.014,0,.022,0,1.382.153,3.224.288,4.115,1.516a4.145,4.145,0,0,1,.671,1.569.475.475,0,0,1,.1.05,5,5,0,0,1,2.173,2.973,3.045,3.045,0,0,1-.163,1.447,7.428,7.428,0,0,1,1.347,3.053,4.09,4.09,0,0,1-.844,2.613,4.444,4.444,0,0,1-1.663,4.6,3.962,3.962,0,0,1-2.608,4.192,2.594,2.594,0,0,1-.82,2.124c-.705.637-2.054.79-2.23-.406a2.59,2.59,0,0,1,.179-1.5,1.356,1.356,0,0,1,.357-.438,25.583,25.583,0,0,0-.2-5.087c-.064-.085-.124-.175-.186-.263a.125.125,0,0,0-.108.036s-.034-.121-.076-.3c-1.34-2.03-2.176-4.764-.946-6.877a5.63,5.63,0,0,1-2.99-.168,2.712,2.712,0,0,1-1.9-1.194,6.2,6.2,0,0,1-2.79.548,4.328,4.328,0,0,1-2.6-.485l-.037.006a4.668,4.668,0,0,1-2.409,1.3,2.139,2.139,0,0,1-1.194-.04,6.083,6.083,0,0,1-.648,1.05c-.574.731-1.621,1.684-2.627,1.592C1554.7,145.093,1554.507,143.345,1554.6,142.474Z" transform="translate(-1266.341 -35.943)" fill="#855e4f"/>
  <path id="Path_9849" data-name="Path 9849" d="M1573.63,148.929c.756-.627,3.228-.737,3.775.588.687,1.665-2.151,5.293-4.053,3.2C1572.559,151.849,1572.976,149.473,1573.63,148.929Z" transform="translate(-1266.042 -35.68)" fill="#d69e5b"/>
  <path id="Path_9850" data-name="Path 9850" d="M1574.518,149.815s1.785-.826,1.842.091a2.384,2.384,0,0,1-1.694,2.3,1.775,1.775,0,0,0,.431-1.361A1.875,1.875,0,0,0,1574.518,149.815Z" transform="translate(-1266.016 -35.664)" fill="#bf8b52"/>
  <path id="Path_9851" data-name="Path 9851" d="M1580.793,166.81c2.578-.552,6.182,10.744,7.485,30.262.333,5-7.532,1.809-8.053-1.117s-3.881-18.3-3.881-18.3S1575.984,167.839,1580.793,166.81Z" transform="translate(-1265.986 -35.382)" fill="#d69e5b"/>
  <path id="Path_9852" data-name="Path 9852" d="M1580.008,165.186s5.169,2.345,7.608,11.293c0,0-10.286,3.6-11.251,5.925l-1.293-4.738A18.009,18.009,0,0,1,1580.008,165.186Z" transform="translate(-1266.007 -35.408)" fill="#c3e7f3"/>
  <path id="Path_9853" data-name="Path 9853" d="M1588.477,196.153c.133.746-.192,4.229-3.119,4.575-7.242.856-21.8-2.26-21.8-2.26l-.255-3.334s19.181-3.174,21.574-2.746A4.115,4.115,0,0,1,1588.477,196.153Z" transform="translate(-1266.198 -34.966)" fill="#d69e5b"/>
  <g id="Group_9696" data-name="Group 9696" transform="translate(288.615 159.47)">
    <g id="Group_9695" data-name="Group 9695">
      <path id="Path_9854" data-name="Path 9854" d="M1556.626,198.766a.378.378,0,0,0,.212.311,1.2,1.2,0,0,0,1.047-.137c1.1-.5,1.705-1.094,3.024-.515a3.089,3.089,0,0,0,3.5-.164.379.379,0,0,0,.015-.594c-.1-.388-.4-.538-.857-.685a14.368,14.368,0,0,0-3.682-.658C1558.818,196.3,1556.417,197.465,1556.626,198.766Z" transform="translate(-1554.923 -194.371)" fill="#d69e5b"/>
      <path id="Path_9855" data-name="Path 9855" d="M1555.507,197.878a.291.291,0,0,0,.219.229,1.49,1.49,0,0,0,1.039-.184c1.079-.471,1.669-.981,3-.622,1.286.346,3.006.6,4.164-.178.22-.149.107-1.192-.054-1.3-.113-.3-1.049.233-1.505.15a17.642,17.642,0,0,0-3.686-.249C1557.623,195.782,1555.261,196.873,1555.507,197.878Z" transform="translate(-1554.941 -194.381)" fill="#d69e5b"/>
      <path id="Path_9856" data-name="Path 9856" d="M1554.968,197.515a.29.29,0,0,0,.219.228,1.488,1.488,0,0,0,1.039-.183c1.078-.472,1.67-.981,3-.623a3.806,3.806,0,0,0,3.478-.382.261.261,0,0,0,0-.466c-.113-.3-.415-.392-.871-.475a17.633,17.633,0,0,0-3.686-.248C1557.083,195.418,1554.722,196.51,1554.968,197.515Z" transform="translate(-1554.95 -194.387)" fill="#d69e5b"/>
      <path id="Path_9857" data-name="Path 9857" d="M1555.509,196.48h0v0a3.349,3.349,0,0,1,1.426-1.266,5.081,5.081,0,0,1,3.04-.8,10.692,10.692,0,0,1,4.6,1.24l-1.369.264c-.11,1.041-2.346.793-3.508.48-1.33-.358-1.921.152-3,.623a1.493,1.493,0,0,1-1.04.183.291.291,0,0,1-.219-.228A.748.748,0,0,1,1555.509,196.48Z" transform="translate(-1554.942 -194.402)" fill="#d69e5b"/>
    </g>
  </g>
  <path id="Path_9858" data-name="Path 9858" d="M1588.2,198.118a21.7,21.7,0,0,1-7.393,1.051c-4.406-.079-17.258-.795-17.258-.795s17.3,3.808,22.677,2.035A3,3,0,0,0,1588.2,198.118Z" transform="translate(-1266.195 -34.872)" fill="#bf8b52"/>
  <path id="Path_9859" data-name="Path 9859" d="M1557.437,173.119l3.869-4.106a14.591,14.591,0,0,0-4.735,3.306Z" transform="translate(-1266.308 -35.346)" fill="#9fd5e4"/>
  <path id="Path_9860" data-name="Path 9860" d="M1566.487,164.185s-.44,1.4.119,1.578l-1.219,1.407s-.381-1.921.578-2.8Z" transform="translate(-1266.166 -35.425)" fill="#fff"/>
  <path id="Path_9861" data-name="Path 9861" d="M1566.59,165.777l-.33,1.725s6.383-.826,8.445-4.161C1574.706,163.341,1570.118,165.6,1566.59,165.777Z" transform="translate(-1266.151 -35.438)" fill="#fff"/>
  <g id="Group_9697" data-name="Group 9697" transform="translate(143.567)">
    <path id="Path_9862" data-name="Path 9862" d="M1454.183,58.466A20.978,20.978,0,1,1,1433.2,37.489,20.978,20.978,0,0,1,1454.183,58.466Z" transform="translate(-1412.227 -37.489)" fill="#edf1f4"/>
    <path id="Path_9863" data-name="Path 9863" d="M1422.269,68.866s.711,12.264-7.746,17.673c0,0,15.985-.323,16.916-13.916Z" transform="translate(-1412.19 -36.978)" fill="#edf1f4"/>
  </g>
  <g id="Group_9700" data-name="Group 9700" transform="translate(244.303 24.78)">
    <path id="Path_9864" data-name="Path 9864" d="M1563.643,88.02A26.147,26.147,0,1,1,1537.5,61.872,26.147,26.147,0,0,1,1563.643,88.02Z" transform="translate(-1511.348 -61.872)" fill="#edf1f4"/>
    <path id="Path_9865" data-name="Path 9865" d="M1544.548,97.409s.08,19.667,9.24,24.185c0,0-18.992-1.119-20.273-19.743Z" transform="translate(-1510.987 -61.293)" fill="#edf1f4"/>
    <g id="Group_9699" data-name="Group 9699" transform="translate(8.905 12.059)">
      <g id="Group_9698" data-name="Group 9698" transform="translate(1.8 7.664)">
        <rect id="Rectangle_1748" data-name="Rectangle 1748" width="4.146" height="12.752" transform="translate(0 7.76)" fill="#ea5081"/>
        <rect id="Rectangle_1749" data-name="Rectangle 1749" width="4.145" height="16.972" transform="translate(7.394 3.54)" fill="#ea5081"/>
        <rect id="Rectangle_1750" data-name="Rectangle 1750" width="4.145" height="20.512" transform="translate(14.788)" fill="#ea5081"/>
        <rect id="Rectangle_1751" data-name="Rectangle 1751" width="4.145" height="15.071" transform="translate(22.182 5.442)" fill="#ea5081"/>
      </g>
      <path id="Path_9866" data-name="Path 9866" d="M1546.791,73.738l-.2,1.7,4.6.554-5.952,4.78-10.128-6.4L1520.11,85.725l1.031,1.362,14.05-10.642,10.161,6.417,6.731-5.4-1.1,4.136,1.652.441,1.964-7.359Z" transform="translate(-1520.11 -73.738)" fill="#ea5081"/>
    </g>
  </g>
</svg>
