<svg id="Component_28_1" data-name="Component 28 – 1" xmlns="http://www.w3.org/2000/svg" width="169" height="59" viewBox="0 0 169 59">
  <rect id="Rectangle_1591" data-name="Rectangle 1591" width="169" height="59" fill="#03a9f4"/>
  <g id="Group_7790" data-name="Group 7790" transform="translate(38.748 18.728)">
    <path id="Path_8186" data-name="Path 8186" d="M8.987-10.8v1.912H5.757V0H3.486V-8.884H.242V-10.8ZM12.8-7.983h2.117l1.216,5.75,1.245-5.75h2.175L17.234,0H15.088L13.835-5.815,12.568,0H10.4L8.159-7.983H10.4l1.245,5.728Zm10.049-.952H20.728v-1.926h2.117Zm-2.117.952h2.117V0H20.728Zm3.318,1.56V-7.91h1.113v-2.227h2.065V-7.91h1.3v1.487h-1.3V-2.2a.95.95,0,0,0,.125.612,1.371,1.371,0,0,0,.762.121q.1,0,.2,0t.209-.011V.073L27.532.11A2.653,2.653,0,0,1,25.51-.4a1.526,1.526,0,0,1-.352-1.106V-6.423Zm5,0V-7.91h1.113v-2.227h2.065V-7.91h1.3v1.487h-1.3V-2.2a.95.95,0,0,0,.125.612,1.371,1.371,0,0,0,.762.121q.1,0,.2,0t.209-.011V.073L32.527.11A2.653,2.653,0,0,1,30.505-.4a1.526,1.526,0,0,1-.352-1.106V-6.423Zm8.965-.051a1.418,1.418,0,0,0-1.124.454,2.267,2.267,0,0,0-.5,1.23h3.245a1.817,1.817,0,0,0-.5-1.256A1.558,1.558,0,0,0,38.005-6.475Zm0-1.721a4.184,4.184,0,0,1,1.794.374,3.143,3.143,0,0,1,1.318,1.179A4.023,4.023,0,0,1,41.726-5a10.643,10.643,0,0,1,.066,1.582H36.328a1.984,1.984,0,0,0,.754,1.685,1.777,1.777,0,0,0,1.04.3,1.5,1.5,0,0,0,1.047-.366,1.739,1.739,0,0,0,.388-.549h2.131A2.648,2.648,0,0,1,40.95-.9,3.624,3.624,0,0,1,38.079.264a4.049,4.049,0,0,1-2.688-.981,3.958,3.958,0,0,1-1.165-3.193A4.438,4.438,0,0,1,35.277-7.09,3.594,3.594,0,0,1,38.005-8.2Zm9.529.022q.059,0,.1,0l.179.011v2.139q-.2-.022-.352-.029t-.249-.007a1.731,1.731,0,0,0-1.692.82,3.191,3.191,0,0,0-.242,1.421V0h-2.1V-7.983h1.992v1.392a4.413,4.413,0,0,1,.842-1.091A2.293,2.293,0,0,1,47.534-8.174Z" transform="translate(35.252 15.272)" fill="#fff"/>
    <path id="twitter" d="M25.7,50.472a10.986,10.986,0,0,1-3.036.832,5.24,5.24,0,0,0,2.318-2.912,10.53,10.53,0,0,1-3.341,1.276,5.269,5.269,0,0,0-9.115,3.6,5.426,5.426,0,0,0,.122,1.2A14.915,14.915,0,0,1,1.79,48.961,5.271,5.271,0,0,0,3.409,56a5.2,5.2,0,0,1-2.381-.649v.058A5.294,5.294,0,0,0,5.25,60.59a5.259,5.259,0,0,1-1.382.174,4.659,4.659,0,0,1-1-.09,5.319,5.319,0,0,0,4.924,3.671,10.588,10.588,0,0,1-6.533,2.247A9.87,9.87,0,0,1,0,66.519a14.835,14.835,0,0,0,8.084,2.365,14.894,14.894,0,0,0,15-14.994c0-.233-.008-.458-.019-.681A10.512,10.512,0,0,0,25.7,50.472Z" transform="translate(0 -48)" fill="#fff"/>
  </g>
</svg>
