<svg xmlns="http://www.w3.org/2000/svg" width="25.703" height="20.884" viewBox="0 0 25.703 20.884"><defs><style>.a{fill:#fff;}</style></defs><path class="a" d="M25.7,50.472a10.986,10.986,0,0,1-3.036.832,5.24,5.24,0,0,0,2.318-2.912,10.53,10.53,0,0,1-3.341,1.276,5.269,5.269,0,0,0-9.115,3.6,5.426,5.426,0,0,0,.122,1.2A14.915,14.915,0,0,1,1.79,48.961,5.271,5.271,0,0,0,3.409,56a5.2,5.2,0,0,1-2.381-.649v.058A5.294,5.294,0,0,0,5.25,60.59a5.259,5.259,0,0,1-1.382.174,4.659,4.659,0,0,1-1-.09,5.319,5.319,0,0,0,4.924,3.671,10.588,10.588,0,0,1-6.533,2.247A9.87,9.87,0,0,1,0,66.519a14.835,14.835,0,0,0,8.084,2.365,14.894,14.894,0,0,0,15-14.994c0-.233-.008-.458-.019-.681A10.512,10.512,0,0,0,25.7,50.472Z" transform="translate(0 -48)"/></svg>