<svg id="Layer_1" enable-background="new 0 0 480 480" height="512" viewBox="0 0 480 480" width="512" xmlns="http://www.w3.org/2000/svg"><path fill="#ffffff" d="m295.29 331.93c-1.217-1.238-2.276-2.505-3.198-3.787-2.082-2.895-5.876-3.984-9.216-2.736-26.945 10.072-57.63 10.503-85.745.002-3.34-1.247-7.127-.153-9.213 2.738-.908 1.258-1.948 2.503-3.138 3.723-2.14 2.19-2.84 5.45-1.73 8.32 8.55 22.22 31.08 39.63 57.07 39.63 25.63 0 49.21-16.03 56.94-39.84.92-2.82.3-5.94-1.77-8.05zm-126.685 15.281c-1.185-2.945-3.875-5.041-8.035-5.041-45.628 0-82.57 36.94-82.57 82.57v47.26c0 4.418 3.582 8 8 8h308c4.418 0 8-3.582 8-8v-47.26c0-43.737-34.436-82.105-82.887-82.572-3.439-.033-6.535 2.103-7.725 5.33-22.968 62.281-116.377 65.331-142.783-.287zm203.395-239.751c0 84.536.015 79.244-.031 80.321-.251 5.788-8.969 5.502-8.969-.292v-32.489c0-10.613-6.989-20.097-17.44-23.09-16.118-4.552-29.777-16.447-36.25-32.76-6.866-17.306-30.059-20.532-41.37-5.73-31.009 40.555-76.803 65.903-128.88 70.12-5.9.47-11.15 3.06-15.06 6.98-7.996 8.033-7 18.186-7 16.969 0 5.794-8.717 6.08-8.969.292-.049-1.133-.031-81.282-.031-80.281 0-59.371 48.129-107.5 107.5-107.5h49.04c59.315 0 107.46 48.077 107.46 107.46zm-25 47.54v55.96c-.46 58.62-48.28 106.16-107 106.16-59 0-107-48-107-107v-22.66c0-4.16 3.2-7.63 7.35-7.97 57.226-4.639 106.873-32.652 140.3-76.35 3.764-4.926 11.485-3.865 13.79 1.91 8.304 20.92 25.808 36.317 46.75 42.25 3.44.98 5.81 4.12 5.81 7.7z"/></svg>