<svg id="Component_8_3" data-name="Component 8 – 3" xmlns="http://www.w3.org/2000/svg" width="122.305" height="120.946" viewBox="0 0 122.305 120.946">
  <ellipse id="Ellipse_8" data-name="Ellipse 8" cx="2.965" cy="2.965" rx="2.965" ry="2.965" transform="translate(0.349 0)" fill="#0097f5"/>
  <path id="Path_1302" data-name="Path 1302" d="M176.684,224.933a2.965,2.965,0,1,1-2.965-2.965A2.965,2.965,0,0,1,176.684,224.933Z" transform="translate(-131.73 -221.968)" fill="#0097f5"/>
  <ellipse id="Ellipse_9" data-name="Ellipse 9" cx="2.965" cy="2.965" rx="2.965" ry="2.965" transform="translate(77.699 0)" fill="#0097f5"/>
  <ellipse id="Ellipse_20" data-name="Ellipse 20" cx="2.965" cy="2.965" rx="2.965" ry="2.965" transform="translate(0 0)" fill="#0097f5"/>
  <ellipse id="Ellipse_10" data-name="Ellipse 10" cx="2.965" cy="2.965" rx="2.965" ry="2.965" transform="translate(116.374 0)" fill="#0097f5"/>
  <ellipse id="Ellipse_21" data-name="Ellipse 21" cx="2.965" cy="2.965" rx="2.965" ry="2.965" transform="translate(38.675 0)" fill="#0097f5"/>
  <ellipse id="Ellipse_11" data-name="Ellipse 11" cx="2.965" cy="2.965" rx="2.965" ry="2.965" transform="translate(0.349 38.339)" fill="#0097f5"/>
  <path id="Path_1303" data-name="Path 1303" d="M176.684,261.446a2.965,2.965,0,1,1-2.965-2.965A2.965,2.965,0,0,1,176.684,261.446Z" transform="translate(-131.73 -220.143)" fill="#0097f5"/>
  <ellipse id="Ellipse_12" data-name="Ellipse 12" cx="2.965" cy="2.965" rx="2.965" ry="2.965" transform="translate(77.699 38.339)" fill="#0097f5"/>
  <ellipse id="Ellipse_13" data-name="Ellipse 13" cx="2.965" cy="2.965" rx="2.965" ry="2.965" transform="translate(116.374 38.339)" fill="#0097f5"/>
  <ellipse id="Ellipse_14" data-name="Ellipse 14" cx="2.965" cy="2.965" rx="2.965" ry="2.965" transform="translate(0.349 76.677)" fill="#0097f5"/>
  <path id="Path_1304" data-name="Path 1304" d="M176.684,297.959a2.965,2.965,0,1,1-2.965-2.965A2.965,2.965,0,0,1,176.684,297.959Z" transform="translate(-131.73 -218.317)" fill="#0097f5"/>
  <ellipse id="Ellipse_15" data-name="Ellipse 15" cx="2.965" cy="2.965" rx="2.965" ry="2.965" transform="translate(77.699 76.677)" fill="#0097f5"/>
  <ellipse id="Ellipse_16" data-name="Ellipse 16" cx="2.965" cy="2.965" rx="2.965" ry="2.965" transform="translate(116.374 76.677)" fill="#0097f5"/>
  <ellipse id="Ellipse_17" data-name="Ellipse 17" cx="2.965" cy="2.965" rx="2.965" ry="2.965" transform="translate(0.349 115.015)" fill="#0097f5"/>
  <path id="Path_1305" data-name="Path 1305" d="M176.684,334.472a2.965,2.965,0,1,1-2.965-2.965A2.965,2.965,0,0,1,176.684,334.472Z" transform="translate(-131.73 -216.492)" fill="#0097f5"/>
  <ellipse id="Ellipse_18" data-name="Ellipse 18" cx="2.965" cy="2.965" rx="2.965" ry="2.965" transform="translate(77.699 115.015)" fill="#0097f5"/>
  <ellipse id="Ellipse_19" data-name="Ellipse 19" cx="2.965" cy="2.965" rx="2.965" ry="2.965" transform="translate(116.374 115.015)" fill="#0097f5"/>
</svg>
