<svg id="Component_28_1" data-name="Component 28 – 1" xmlns="http://www.w3.org/2000/svg" width="113" height="113" viewBox="0 0 113 113">
  <rect id="Rectangle_1437" data-name="Rectangle 1437" width="113" height="113" rx="10" fill="#ebfaff"/>
  <g id="pie-chart" transform="translate(28.791 29)">
    <path id="Path_14377" data-name="Path 14377" d="M104.37,79.053q0,.818-.051,1.626a25.321,25.321,0,0,1-23.64,23.64q-.808.05-1.626.051A25.326,25.326,0,0,1,54.9,86.646a1.625,1.625,0,0,1,1.551-2.112h9.614a1.628,1.628,0,0,1,1.426.844,13.185,13.185,0,0,0,11.566,6.856,12.99,12.99,0,0,0,1.626-.1A13.206,13.206,0,0,0,92.134,80.679a12.99,12.99,0,0,0,.1-1.626,13.186,13.186,0,0,0-6.856-11.566,1.628,1.628,0,0,1-.844-1.426V56.446A1.625,1.625,0,0,1,86.646,54.9,25.326,25.326,0,0,1,104.37,79.053Z" transform="translate(-48.879 -48.879)" fill="#fad557"/>
    <path id="Path_14378" data-name="Path 14378" d="M348.765,80.679q.05-.808.051-1.626A25.326,25.326,0,0,0,331.092,54.9a1.625,1.625,0,0,0-2.112,1.551v9.614a1.628,1.628,0,0,0,.844,1.426,13.186,13.186,0,0,1,6.856,11.566,12.99,12.99,0,0,1-.1,1.626,13.15,13.15,0,0,1-3.765,7.69l8.586,8.586A25.128,25.128,0,0,0,348.765,80.679Z" transform="translate(-293.325 -48.879)" fill="#fcb12b"/>
    <path id="Path_14379" data-name="Path 14379" d="M30.174,0A30.174,30.174,0,0,0,0,30.174,1.626,1.626,0,0,0,1.626,31.8H30.174A1.626,1.626,0,0,0,31.8,30.174V1.626A1.626,1.626,0,0,0,30.174,0Z" fill="#7feca0"/>
    <path id="Path_14380" data-name="Path 14380" d="M80.679,336.58v12.185q-.808.05-1.626.051A25.326,25.326,0,0,1,54.9,331.092a1.625,1.625,0,0,1,1.551-2.112h9.614a1.628,1.628,0,0,1,1.426.844,13.185,13.185,0,0,0,11.566,6.856A13,13,0,0,0,80.679,336.58Z" transform="translate(-48.879 -293.325)" fill="#72a3fc"/>
    <path id="Path_14381" data-name="Path 14381" d="M104.506,1.626A1.626,1.626,0,0,0,102.88,0,29.976,29.976,0,0,0,81.544,8.838L104.03,31.323a1.621,1.621,0,0,0,.476-1.149Z" transform="translate(-72.706)" fill="#3ad475"/>
    <path id="Path_14382" data-name="Path 14382" d="M329.824,67.487a13.186,13.186,0,0,1,6.856,11.566,12.99,12.99,0,0,1-.1,1.626h12.185q.05-.808.051-1.626A25.326,25.326,0,0,0,331.092,54.9a1.625,1.625,0,0,0-2.112,1.551v9.614A1.628,1.628,0,0,0,329.824,67.487Z" transform="translate(-293.325 -48.879)" fill="#fc495c"/>
  </g>
</svg>
