<svg id="Component_7_1" data-name="Component 7 – 1" xmlns="http://www.w3.org/2000/svg" width="223.075" height="220.597" viewBox="0 0 223.075 220.597">
  <ellipse id="Ellipse_8" data-name="Ellipse 8" cx="5.408" cy="5.408" rx="5.408" ry="5.408" transform="translate(0.637 0)" fill="#0097f5"/>
  <path id="Path_1302" data-name="Path 1302" d="M181.571,227.376a5.408,5.408,0,1,1-5.408-5.408A5.407,5.407,0,0,1,181.571,227.376Z" transform="translate(-99.577 -221.968)" fill="#0097f5"/>
  <ellipse id="Ellipse_9" data-name="Ellipse 9" cx="5.408" cy="5.408" rx="5.408" ry="5.408" transform="translate(141.718 0)" fill="#0097f5"/>
  <ellipse id="Ellipse_20" data-name="Ellipse 20" cx="5.408" cy="5.408" rx="5.408" ry="5.408" transform="translate(0 0)" fill="#0097f5"/>
  <ellipse id="Ellipse_10" data-name="Ellipse 10" cx="5.408" cy="5.408" rx="5.408" ry="5.408" transform="translate(212.259 0)" fill="#0097f5"/>
  <ellipse id="Ellipse_21" data-name="Ellipse 21" cx="5.408" cy="5.408" rx="5.408" ry="5.408" transform="translate(70.541 0)" fill="#0097f5"/>
  <ellipse id="Ellipse_11" data-name="Ellipse 11" cx="5.408" cy="5.408" rx="5.408" ry="5.408" transform="translate(0.637 69.927)" fill="#0097f5"/>
  <path id="Path_1303" data-name="Path 1303" d="M181.571,263.889a5.408,5.408,0,1,1-5.408-5.408A5.407,5.407,0,0,1,181.571,263.889Z" transform="translate(-99.577 -188.555)" fill="#0097f5"/>
  <ellipse id="Ellipse_12" data-name="Ellipse 12" cx="5.408" cy="5.408" rx="5.408" ry="5.408" transform="translate(141.718 69.927)" fill="#0097f5"/>
  <ellipse id="Ellipse_13" data-name="Ellipse 13" cx="5.408" cy="5.408" rx="5.408" ry="5.408" transform="translate(212.259 69.927)" fill="#0097f5"/>
  <ellipse id="Ellipse_14" data-name="Ellipse 14" cx="5.408" cy="5.408" rx="5.408" ry="5.408" transform="translate(0.637 139.854)" fill="#0097f5"/>
  <path id="Path_1304" data-name="Path 1304" d="M181.571,300.4a5.408,5.408,0,1,1-5.408-5.408A5.407,5.407,0,0,1,181.571,300.4Z" transform="translate(-99.577 -155.141)" fill="#0097f5"/>
  <ellipse id="Ellipse_15" data-name="Ellipse 15" cx="5.408" cy="5.408" rx="5.408" ry="5.408" transform="translate(141.718 139.854)" fill="#0097f5"/>
  <ellipse id="Ellipse_16" data-name="Ellipse 16" cx="5.408" cy="5.408" rx="5.408" ry="5.408" transform="translate(212.259 139.854)" fill="#0097f5"/>
  <ellipse id="Ellipse_17" data-name="Ellipse 17" cx="5.408" cy="5.408" rx="5.408" ry="5.408" transform="translate(0.637 209.78)" fill="#0097f5"/>
  <path id="Path_1305" data-name="Path 1305" d="M181.571,336.915a5.408,5.408,0,1,1-5.408-5.408A5.407,5.407,0,0,1,181.571,336.915Z" transform="translate(-99.577 -121.728)" fill="#0097f5"/>
  <ellipse id="Ellipse_18" data-name="Ellipse 18" cx="5.408" cy="5.408" rx="5.408" ry="5.408" transform="translate(141.718 209.78)" fill="#0097f5"/>
  <ellipse id="Ellipse_19" data-name="Ellipse 19" cx="5.408" cy="5.408" rx="5.408" ry="5.408" transform="translate(212.259 209.78)" fill="#0097f5"/>
</svg>
