<svg id="Component_35_1" data-name="Component 35 – 1" xmlns="http://www.w3.org/2000/svg" width="14.5" height="14.5" viewBox="0 0 14.5 14.5">
  <path id="Path_14420" data-name="Path 14420" d="M12.688,0H1.813A1.814,1.814,0,0,0,0,1.813V12.688A1.814,1.814,0,0,0,1.813,14.5H12.688A1.814,1.814,0,0,0,14.5,12.688V1.813A1.814,1.814,0,0,0,12.688,0Z" fill="#10a3ff"/>
  <g id="Group_9483" data-name="Group 9483" transform="translate(-1547.5 -5397.5)">
    <path id="Path_14421" data-name="Path 14421" d="M236.672,119.469h-2.266v-1.812c0-.5.406-.453.906-.453h.906v-2.266h-1.812a2.719,2.719,0,0,0-2.719,2.719v1.813h-1.812v2.266h1.813v4.984h2.719v-4.984h1.359Z" transform="translate(1323.063 5285.281)" fill="#fafafa"/>
  </g>
</svg>
