<svg id="Group_1" data-name="Group 1" xmlns="http://www.w3.org/2000/svg" width="325.763" height="69.049" viewBox="0 0 325.763 69.049">
  <path id="Path_16" data-name="Path 16" d="M134.5,448.233a3.238,3.238,0,0,1-1.735-2.933,2.579,2.579,0,0,1,.6-1.766,1.872,1.872,0,0,1,1.463-.678,5.988,5.988,0,0,1,2.549.868,23.638,23.638,0,0,0,3.17,1.25,12.882,12.882,0,0,0,3.659.434,6.941,6.941,0,0,0,3.551-.76,2.354,2.354,0,0,0,1.274-2.118,2.047,2.047,0,0,0-.516-1.467,4.741,4.741,0,0,0-1.843-1.005A38.862,38.862,0,0,0,142.634,439q-4.826-.976-6.911-2.77a6.169,6.169,0,0,1-2.087-4.943,7.137,7.137,0,0,1,1.409-4.318,9.134,9.134,0,0,1,3.875-2.988,14.1,14.1,0,0,1,5.611-1.059,16.8,16.8,0,0,1,4.391.57,13.342,13.342,0,0,1,3.794,1.656,3.282,3.282,0,0,1,1.734,2.879,2.8,2.8,0,0,1-.6,1.82,1.825,1.825,0,0,1-1.464.733,2.933,2.933,0,0,1-1.165-.244,15.668,15.668,0,0,1-1.437-.733,22.6,22.6,0,0,0-2.71-1.223,8.445,8.445,0,0,0-2.818-.407,5.446,5.446,0,0,0-3.172.815,2.573,2.573,0,0,0-1.165,2.227,2.263,2.263,0,0,0,1.192,2.064,17.007,17.007,0,0,0,4.609,1.412,26.272,26.272,0,0,1,5.691,1.738,6.675,6.675,0,0,1,2.953,2.444,7.109,7.109,0,0,1,.895,3.747,6.973,6.973,0,0,1-3.062,5.922,13.572,13.572,0,0,1-8.158,2.227,17.384,17.384,0,0,1-9.54-2.336" transform="translate(-63.99 -402.156)" fill="#545454"/>
  <path id="Path_17" data-name="Path 17" d="M170.632,449.778a2.211,2.211,0,0,1-1.057,1.982,5.041,5.041,0,0,1-3.01.57l-1.463-.109Q156,451.57,156,442.446V430.6h-2.711a3.433,3.433,0,0,1-2.249-.652,2.692,2.692,0,0,1,0-3.8,3.433,3.433,0,0,1,2.249-.651H156v-5a3.057,3.057,0,0,1,.922-2.335,3.488,3.488,0,0,1,2.493-.87,3.419,3.419,0,0,1,2.44.87,3.062,3.062,0,0,1,.921,2.335v5h4.607a3.433,3.433,0,0,1,2.249.651,2.692,2.692,0,0,1,0,3.8,3.433,3.433,0,0,1-2.249.652h-4.607v12.33q0,4.021,3.686,4.292l1.463.109q2.71.163,2.711,2.444" transform="translate(-58.057 -404.081)" fill="#545454"/>
  <path id="Path_18" data-name="Path 18" d="M191.273,423.869a3.057,3.057,0,0,1,.921,2.335v21.077a2.947,2.947,0,0,1-.948,2.282,3.517,3.517,0,0,1-2.467.868,3.268,3.268,0,0,1-2.331-.813,2.908,2.908,0,0,1-.867-2.228v-1.357a8.66,8.66,0,0,1-3.362,3.339,9.7,9.7,0,0,1-4.77,1.168q-9.758,0-9.757-10.973V426.2a3.057,3.057,0,0,1,.921-2.335,3.415,3.415,0,0,1,2.439-.868,3.493,3.493,0,0,1,2.494.868,3.057,3.057,0,0,1,.922,2.335v13.418a6.414,6.414,0,0,0,1.138,4.182,4.412,4.412,0,0,0,3.577,1.358,5.835,5.835,0,0,0,4.527-1.875,7.1,7.1,0,0,0,1.706-4.969V426.2a3.057,3.057,0,0,1,.922-2.335,3.415,3.415,0,0,1,2.439-.868,3.493,3.493,0,0,1,2.494.868" transform="translate(-52.137 -402.128)" fill="#545454"/>
  <path id="Path_19" data-name="Path 19" d="M215.944,415.331a2.91,2.91,0,0,1,.976,2.282V450.1a3.058,3.058,0,0,1-.921,2.335,3.856,3.856,0,0,1-4.879,0,3.053,3.053,0,0,1-.922-2.335v-1.358a8.488,8.488,0,0,1-3.442,3.478,10.373,10.373,0,0,1-5.122,1.248,10.963,10.963,0,0,1-6.1-1.738,11.513,11.513,0,0,1-4.174-4.915,17,17,0,0,1-1.491-7.307,16.469,16.469,0,0,1,1.491-7.225,10.939,10.939,0,0,1,10.272-6.463,10.6,10.6,0,0,1,5.1,1.195,8.292,8.292,0,0,1,3.415,3.368V417.5a2.882,2.882,0,0,1,.895-2.2,3.375,3.375,0,0,1,2.411-.843,3.612,3.612,0,0,1,2.494.87m-7.507,30.636a10.04,10.04,0,0,0,1.761-6.355,9.924,9.924,0,0,0-1.761-6.327,5.994,5.994,0,0,0-4.96-2.2,6.166,6.166,0,0,0-5.041,2.173,9.6,9.6,0,0,0-1.789,6.247,10.168,10.168,0,0,0,1.789,6.41,6.672,6.672,0,0,0,10,.054" transform="translate(-44.611 -405.051)" fill="#545454"/>
  <path id="Path_20" data-name="Path 20" d="M235.408,423.516a2.941,2.941,0,0,1,1.6-.462,3.4,3.4,0,0,1,2.249.843,2.626,2.626,0,0,1,1,2.091,2.8,2.8,0,0,1-.324,1.248l-14.8,31.072a3.03,3.03,0,0,1-2.873,1.847,3.335,3.335,0,0,1-2.2-.788,2.468,2.468,0,0,1-.948-1.984,3.5,3.5,0,0,1,.324-1.357l3.686-7.767-10.083-21.023a2.751,2.751,0,0,1-.269-1.248,2.652,2.652,0,0,1,1.055-2.119,3.7,3.7,0,0,1,2.414-.868,3.175,3.175,0,0,1,1.68.462,3.089,3.089,0,0,1,1.193,1.439l7.588,16.784,7.535-16.729a3.141,3.141,0,0,1,1.165-1.44" transform="translate(-36.836 -402.128)" fill="#545454"/>
  <path id="Path_21" data-name="Path 21" d="M274.141,425.5q2.3,2.581,2.3,8.338V447.2a3.062,3.062,0,0,1-.95,2.417,3.577,3.577,0,0,1-2.466.841,3.5,3.5,0,0,1-2.412-.841,3.062,3.062,0,0,1-.948-2.417V433.838a6.735,6.735,0,0,0-1.057-4.264,3.951,3.951,0,0,0-3.225-1.276,5.3,5.3,0,0,0-4.228,1.82,7.35,7.35,0,0,0-1.572,4.97V447.2a3.061,3.061,0,0,1-.948,2.417,3.5,3.5,0,0,1-2.412.841,3.6,3.6,0,0,1-2.439-.841,3.016,3.016,0,0,1-.975-2.417V433.838a6.726,6.726,0,0,0-1.058-4.264,3.95,3.95,0,0,0-3.224-1.276,5.226,5.226,0,0,0-4.2,1.82,7.439,7.439,0,0,0-1.544,4.97V447.2a3.017,3.017,0,0,1-.976,2.417,3.6,3.6,0,0,1-2.439.841,3.5,3.5,0,0,1-2.412-.841,3.057,3.057,0,0,1-.948-2.417V426.179a2.871,2.871,0,0,1,.975-2.335,3.673,3.673,0,0,1,2.439-.815,3.363,3.363,0,0,1,2.3.787,2.849,2.849,0,0,1,.895,2.255v1.3a8.5,8.5,0,0,1,3.334-3.313,9.834,9.834,0,0,1,4.8-1.141q5.961,0,7.968,5a8.964,8.964,0,0,1,3.524-3.64,10.266,10.266,0,0,1,5.257-1.357,8.44,8.44,0,0,1,6.641,2.58" transform="translate(-28.953 -402.156)" fill="#545454"/>
  <path id="Path_24" data-name="Path 24" d="M291.019,425.663Q293.7,428.406,293.7,434v13.253a3.068,3.068,0,0,1-.867,2.309,3.277,3.277,0,0,1-2.385.843,3.164,3.164,0,0,1-2.3-.87,3.035,3.035,0,0,1-.895-2.282v-1.193a7.078,7.078,0,0,1-2.9,3.313,8.692,8.692,0,0,1-4.579,1.195,10.628,10.628,0,0,1-4.826-1.086,8.569,8.569,0,0,1-3.414-2.988,7.557,7.557,0,0,1-1.247-4.237,6.716,6.716,0,0,1,1.491-4.617,8.956,8.956,0,0,1,4.851-2.444,44.158,44.158,0,0,1,9.269-.76h1.355v-1.25a5.568,5.568,0,0,0-1.138-3.884,4.836,4.836,0,0,0-3.686-1.221,11.7,11.7,0,0,0-3.2.462q-1.625.461-3.848,1.33a5.4,5.4,0,0,1-2.059.706,2.032,2.032,0,0,1-1.6-.706,2.681,2.681,0,0,1-.624-1.847,2.783,2.783,0,0,1,.461-1.6,4.383,4.383,0,0,1,1.544-1.276,17.75,17.75,0,0,1,4.527-1.629,23.273,23.273,0,0,1,5.175-.6q5.531,0,8.213,2.743m-5.475,18.2a6.585,6.585,0,0,0,1.708-4.7v-1.141h-.975a37.283,37.283,0,0,0-5.638.326,5.464,5.464,0,0,0-2.873,1.14,2.909,2.909,0,0,0-.868,2.228,3.693,3.693,0,0,0,1.22,2.852,4.3,4.3,0,0,0,3.008,1.113,5.781,5.781,0,0,0,4.417-1.82" transform="translate(-17.319 -402.156)" fill="#545454"/>
  <path id="Path_25" data-name="Path 25" d="M310.092,449.778a2.211,2.211,0,0,1-1.057,1.982,5.041,5.041,0,0,1-3.01.57l-1.463-.109q-9.107-.652-9.106-9.777V430.6h-2.711a3.433,3.433,0,0,1-2.249-.652,2.692,2.692,0,0,1,0-3.8,3.433,3.433,0,0,1,2.249-.651h2.711v-5a3.057,3.057,0,0,1,.921-2.335,3.486,3.486,0,0,1,2.493-.87,3.421,3.421,0,0,1,2.44.87,3.061,3.061,0,0,1,.92,2.335v5h4.608a3.437,3.437,0,0,1,2.25.651,2.7,2.7,0,0,1,0,3.8,3.437,3.437,0,0,1-2.25.652h-4.608v12.33q0,4.021,3.687,4.292l1.463.109q2.71.163,2.711,2.444" transform="translate(-10.726 -404.081)" fill="#545454"/>
  <path id="Path_26" data-name="Path 26" d="M330.113,443.562a2.937,2.937,0,0,1,.569,1.9,3.294,3.294,0,0,1-2.005,2.825,18.161,18.161,0,0,1-4.173,1.656,17.194,17.194,0,0,1-4.445.625q-6.4,0-10.136-3.694t-3.741-10.1a15.54,15.54,0,0,1,1.627-7.225,11.842,11.842,0,0,1,4.581-4.888,12.952,12.952,0,0,1,6.694-1.738,11.987,11.987,0,0,1,6.234,1.576,10.669,10.669,0,0,1,4.119,4.453,14.8,14.8,0,0,1,1.464,6.79q0,2.335-2.06,2.335H312.848a8.557,8.557,0,0,0,2.115,5.514,7.1,7.1,0,0,0,5.2,1.765,9.847,9.847,0,0,0,3.063-.435,30.02,30.02,0,0,0,3.008-1.195,5.974,5.974,0,0,1,2.385-.868,1.82,1.82,0,0,1,1.489.706m-15.286-14.124a8.221,8.221,0,0,0-1.978,5H325.1a7.761,7.761,0,0,0-1.626-5.025,5.359,5.359,0,0,0-4.228-1.711,5.817,5.817,0,0,0-4.419,1.738" transform="translate(-5.136 -402.156)" fill="#545454"/>
  <path id="Path_14" data-name="Path 14" d="M87.135,418.57l-5.717,38.747a41.246,41.246,0,0,1,29.035,15.376q.151-19.9.3-39.8A25.769,25.769,0,0,0,103.533,424a26.515,26.515,0,0,0-16.4-5.428" transform="translate(-81.418 -403.645)" fill="#002984"/>
  <path id="Path_15" data-name="Path 15" d="M128.064,418.57l5.716,38.747a41.247,41.247,0,0,0-29.035,15.376q-.151-19.9-.3-39.8A25.785,25.785,0,0,1,111.665,424a26.516,26.516,0,0,1,16.4-5.428" transform="translate(-73.603 -403.645)" fill="#10a3ff"/>
  <path id="Path_22" data-name="Path 22" d="M91.976,414.838A7.223,7.223,0,1,0,99.2,407.45a7.306,7.306,0,0,0-7.222,7.388" transform="translate(-77.835 -407.45)" fill="#002984"/>
  <path id="Path_23" data-name="Path 23" d="M105.23,414.838a7.223,7.223,0,1,0,7.222-7.388,7.306,7.306,0,0,0-7.222,7.388" transform="translate(-73.337 -407.45)" fill="#10a3ff"/>
</svg>
