<svg id="Component_10_1" data-name="Component 10 – 1" xmlns="http://www.w3.org/2000/svg" width="269.338" height="57.159" viewBox="0 0 269.338 57.159">
  <path id="Path_16" data-name="Path 16" d="M134.2,443.874a2.681,2.681,0,0,1-1.434-2.428,2.137,2.137,0,0,1,.493-1.462,1.547,1.547,0,0,1,1.209-.561,4.947,4.947,0,0,1,2.107.719,19.532,19.532,0,0,0,2.621,1.034,10.639,10.639,0,0,0,3.025.359,5.733,5.733,0,0,0,2.936-.629,1.949,1.949,0,0,0,1.053-1.753,1.7,1.7,0,0,0-.426-1.214,3.919,3.919,0,0,0-1.524-.832,32.079,32.079,0,0,0-3.338-.877,12.779,12.779,0,0,1-5.714-2.293,5.11,5.11,0,0,1-1.725-4.092,5.913,5.913,0,0,1,1.165-3.574,7.553,7.553,0,0,1,3.2-2.473,11.641,11.641,0,0,1,4.639-.877,13.874,13.874,0,0,1,3.63.472,11.025,11.025,0,0,1,3.137,1.371,2.717,2.717,0,0,1,1.434,2.383,2.318,2.318,0,0,1-.493,1.507,1.508,1.508,0,0,1-1.21.607,2.421,2.421,0,0,1-.963-.2,12.931,12.931,0,0,1-1.188-.607,18.676,18.676,0,0,0-2.24-1.012,6.975,6.975,0,0,0-2.33-.337,4.5,4.5,0,0,0-2.622.674,2.131,2.131,0,0,0-.963,1.843,1.874,1.874,0,0,0,.986,1.709,14.048,14.048,0,0,0,3.811,1.169,21.7,21.7,0,0,1,4.705,1.439,5.52,5.52,0,0,1,2.442,2.023,5.891,5.891,0,0,1,.74,3.1,5.774,5.774,0,0,1-2.532,4.9,11.211,11.211,0,0,1-6.745,1.843,14.359,14.359,0,0,1-7.888-1.933" transform="translate(-75.904 -405.731)" fill="#fff"/>
  <path id="Path_17" data-name="Path 17" d="M167.1,444.185a1.831,1.831,0,0,1-.874,1.641,4.164,4.164,0,0,1-2.488.472l-1.209-.09q-7.53-.54-7.529-8.093v-9.8H152.76a2.836,2.836,0,0,1-1.859-.54,2.23,2.23,0,0,1,0-3.148,2.836,2.836,0,0,1,1.859-.539H155v-4.138a2.532,2.532,0,0,1,.762-1.933,2.882,2.882,0,0,1,2.061-.72,2.825,2.825,0,0,1,2.018.72,2.537,2.537,0,0,1,.762,1.933v4.138h3.809a2.836,2.836,0,0,1,1.859.539,2.23,2.23,0,0,1,0,3.148,2.836,2.836,0,0,1-1.859.54H160.6v10.207q0,3.328,3.048,3.553l1.209.09q2.241.135,2.241,2.023" transform="translate(-74.026 -406.356)" fill="#fff"/>
  <path id="Path_18" data-name="Path 18" d="M187.189,423.72a2.532,2.532,0,0,1,.762,1.933V443.1a2.441,2.441,0,0,1-.784,1.889,2.905,2.905,0,0,1-2.04.719,2.7,2.7,0,0,1-1.927-.673,2.409,2.409,0,0,1-.716-1.844v-1.123a7.164,7.164,0,0,1-2.78,2.764,8.011,8.011,0,0,1-3.943.967q-8.068,0-8.067-9.083V425.653a2.532,2.532,0,0,1,.762-1.933,2.821,2.821,0,0,1,2.017-.719,2.886,2.886,0,0,1,2.062.719,2.532,2.532,0,0,1,.762,1.933v11.108a5.314,5.314,0,0,0,.941,3.462,3.645,3.645,0,0,0,2.958,1.124,4.821,4.821,0,0,0,3.743-1.552,5.878,5.878,0,0,0,1.411-4.113V425.653a2.532,2.532,0,0,1,.762-1.933,2.821,2.821,0,0,1,2.017-.719,2.886,2.886,0,0,1,2.062.719" transform="translate(-72.153 -405.722)" fill="#fff"/>
  <path id="Path_19" data-name="Path 19" d="M211.428,415.181a2.411,2.411,0,0,1,.807,1.889v26.89a2.533,2.533,0,0,1-.762,1.933,3.185,3.185,0,0,1-4.034,0,2.529,2.529,0,0,1-.762-1.933v-1.124a7.022,7.022,0,0,1-2.846,2.879,8.568,8.568,0,0,1-4.235,1.033,9.056,9.056,0,0,1-5.042-1.439,9.527,9.527,0,0,1-3.451-4.069,14.091,14.091,0,0,1-1.232-6.049,13.648,13.648,0,0,1,1.232-5.981,9.351,9.351,0,0,1,3.428-3.957,9.244,9.244,0,0,1,5.064-1.393,8.757,8.757,0,0,1,4.213.989,6.86,6.86,0,0,1,2.824,2.788V416.98a2.388,2.388,0,0,1,.74-1.821,2.789,2.789,0,0,1,1.993-.7,2.984,2.984,0,0,1,2.062.72m-6.207,25.361a8.319,8.319,0,0,0,1.456-5.261,8.223,8.223,0,0,0-1.456-5.238,4.953,4.953,0,0,0-4.1-1.822,5.1,5.1,0,0,0-4.168,1.8,7.958,7.958,0,0,0-1.479,5.171,8.424,8.424,0,0,0,1.479,5.307,5.512,5.512,0,0,0,8.269.045" transform="translate(-69.771 -406.671)" fill="#fff"/>
  <path id="Path_20" data-name="Path 20" d="M231.488,423.428a2.43,2.43,0,0,1,1.322-.382,2.812,2.812,0,0,1,1.859.7,2.174,2.174,0,0,1,.829,1.731,2.323,2.323,0,0,1-.268,1.033L223,452.23a2.505,2.505,0,0,1-2.375,1.529,2.756,2.756,0,0,1-1.815-.652,2.044,2.044,0,0,1-.784-1.642,2.9,2.9,0,0,1,.268-1.123l3.048-6.43L213,426.508a2.28,2.28,0,0,1-.223-1.033,2.2,2.2,0,0,1,.873-1.754,3.056,3.056,0,0,1,2-.719,2.623,2.623,0,0,1,1.389.382,2.556,2.556,0,0,1,.987,1.191l6.273,13.894,6.23-13.849a2.6,2.6,0,0,1,.963-1.192" transform="translate(-67.311 -405.722)" fill="#fff"/>
  <path id="Path_21" data-name="Path 21" d="M267.536,425.056q1.9,2.137,1.9,6.9V443.02a2.536,2.536,0,0,1-.785,2,2.955,2.955,0,0,1-2.039.7,2.89,2.89,0,0,1-1.994-.7,2.536,2.536,0,0,1-.784-2V431.958a5.581,5.581,0,0,0-.874-3.53,3.265,3.265,0,0,0-2.667-1.057,4.384,4.384,0,0,0-3.5,1.507,6.09,6.09,0,0,0-1.3,4.114V443.02a2.536,2.536,0,0,1-.784,2,2.892,2.892,0,0,1-1.994.7,2.975,2.975,0,0,1-2.017-.7,2.5,2.5,0,0,1-.806-2V431.958a5.573,5.573,0,0,0-.875-3.53,3.264,3.264,0,0,0-2.665-1.057,4.318,4.318,0,0,0-3.474,1.507,6.163,6.163,0,0,0-1.277,4.114V443.02a2.5,2.5,0,0,1-.807,2,2.977,2.977,0,0,1-2.017.7,2.89,2.89,0,0,1-1.994-.7,2.532,2.532,0,0,1-.784-2v-17.4a2.378,2.378,0,0,1,.806-1.933,3.035,3.035,0,0,1,2.017-.674,2.779,2.779,0,0,1,1.9.651,2.36,2.36,0,0,1,.74,1.867v1.079a7.033,7.033,0,0,1,2.756-2.742,8.122,8.122,0,0,1,3.967-.944q4.928,0,6.588,4.137a7.417,7.417,0,0,1,2.914-3.013,8.479,8.479,0,0,1,4.347-1.123,6.974,6.974,0,0,1,5.49,2.136" transform="translate(-64.816 -405.731)" fill="#fff"/>
  <path id="Path_24" data-name="Path 24" d="M287.427,425.191q2.217,2.27,2.218,6.9v10.971a2.541,2.541,0,0,1-.716,1.911,2.708,2.708,0,0,1-1.972.7,2.615,2.615,0,0,1-1.9-.72,2.514,2.514,0,0,1-.74-1.889v-.988a5.857,5.857,0,0,1-2.4,2.742,7.179,7.179,0,0,1-3.786.989,8.778,8.778,0,0,1-3.99-.9,7.087,7.087,0,0,1-2.823-2.473,6.261,6.261,0,0,1-1.031-3.508,5.564,5.564,0,0,1,1.233-3.822,7.4,7.4,0,0,1,4.011-2.023,36.468,36.468,0,0,1,7.663-.629h1.121v-1.034a4.613,4.613,0,0,0-.941-3.215,4,4,0,0,0-3.048-1.011,9.661,9.661,0,0,0-2.644.382q-1.344.382-3.182,1.1a4.463,4.463,0,0,1-1.7.584,1.679,1.679,0,0,1-1.322-.584,2.221,2.221,0,0,1-.516-1.529,2.306,2.306,0,0,1,.381-1.327,3.624,3.624,0,0,1,1.277-1.057,14.662,14.662,0,0,1,3.743-1.349,19.219,19.219,0,0,1,4.279-.494q4.573,0,6.791,2.271M282.9,440.254a5.455,5.455,0,0,0,1.412-3.889v-.944h-.806a30.789,30.789,0,0,0-4.661.27,4.514,4.514,0,0,0-2.375.943,2.409,2.409,0,0,0-.718,1.844,3.059,3.059,0,0,0,1.009,2.361,3.55,3.55,0,0,0,2.487.921,4.777,4.777,0,0,0,3.652-1.507" transform="translate(-61.135 -405.731)" fill="#fff"/>
  <path id="Path_25" data-name="Path 25" d="M306.562,444.185a1.831,1.831,0,0,1-.874,1.641,4.164,4.164,0,0,1-2.488.472l-1.209-.09q-7.53-.54-7.529-8.093v-9.8H292.22a2.836,2.836,0,0,1-1.859-.54,2.23,2.23,0,0,1,0-3.148,2.836,2.836,0,0,1,1.859-.539h2.241v-4.138a2.533,2.533,0,0,1,.762-1.933,2.88,2.88,0,0,1,2.061-.72,2.827,2.827,0,0,1,2.018.72,2.536,2.536,0,0,1,.761,1.933v4.138h3.81a2.839,2.839,0,0,1,1.86.539,2.233,2.233,0,0,1,0,3.148,2.839,2.839,0,0,1-1.86.54h-3.81v10.207q0,3.328,3.049,3.553l1.209.09q2.241.135,2.241,2.023" transform="translate(-59.049 -406.356)" fill="#fff"/>
  <path id="Path_26" data-name="Path 26" d="M325.968,440.008a2.434,2.434,0,0,1,.471,1.573,2.726,2.726,0,0,1-1.658,2.339,15,15,0,0,1-3.451,1.371,14.2,14.2,0,0,1-3.675.518,11.4,11.4,0,0,1-8.381-3.058,11.23,11.23,0,0,1-3.093-8.364,12.878,12.878,0,0,1,1.345-5.981,9.8,9.8,0,0,1,3.787-4.047,10.7,10.7,0,0,1,5.535-1.439,9.9,9.9,0,0,1,5.154,1.3,8.828,8.828,0,0,1,3.405,3.687,12.261,12.261,0,0,1,1.21,5.621q0,1.933-1.7,1.933H311.694a7.088,7.088,0,0,0,1.749,4.564,5.868,5.868,0,0,0,4.3,1.461,8.132,8.132,0,0,0,2.533-.36,24.794,24.794,0,0,0,2.487-.989,4.936,4.936,0,0,1,1.972-.719,1.5,1.5,0,0,1,1.231.584m-12.639-11.692a6.81,6.81,0,0,0-1.636,4.138h10.129a6.43,6.43,0,0,0-1.344-4.16,4.428,4.428,0,0,0-3.5-1.417,4.806,4.806,0,0,0-3.653,1.439" transform="translate(-57.28 -405.731)" fill="#fff"/>
  <path id="Path_14" data-name="Path 14" d="M86.144,418.57l-4.726,32.075a34.09,34.09,0,0,1,24.006,12.729q.125-16.473.248-32.947a21.328,21.328,0,0,0-5.97-7.363,21.9,21.9,0,0,0-13.558-4.493" transform="translate(-81.418 -406.215)" fill="#fff"/>
  <path id="Path_15" data-name="Path 15" d="M123.973,418.57l4.726,32.075a34.09,34.09,0,0,0-24.006,12.729q-.125-16.473-.249-32.947a21.341,21.341,0,0,1,5.97-7.363,21.9,21.9,0,0,1,13.559-4.493" transform="translate(-78.945 -406.215)" fill="#fff"/>
  <path id="Path_22" data-name="Path 22" d="M91.976,413.565a5.972,5.972,0,1,0,5.971-6.116,6.044,6.044,0,0,0-5.971,6.116" transform="translate(-80.284 -407.45)" fill="#fff"/>
  <path id="Path_23" data-name="Path 23" d="M105.23,413.565a5.972,5.972,0,1,0,5.971-6.116,6.044,6.044,0,0,0-5.971,6.116" transform="translate(-78.861 -407.45)" fill="#fff"/>
</svg>
