<svg xmlns="http://www.w3.org/2000/svg" width="32.552" height="32.552" viewBox="0 0 32.552 32.552"><defs><style>.a{fill:#10a3ff;}</style></defs><path class="a" d="M49.17,41H47.543a.543.543,0,1,0,0,1.085H49.17a.543.543,0,1,0,0-1.085Z" transform="translate(-22.586 -19.841)"/><path class="a" d="M41.17,41H39.543a.543.543,0,1,0,0,1.085H41.17a.543.543,0,1,0,0-1.085Z" transform="translate(-18.926 -19.841)"/><path class="a" d="M32.925,2H3.628A1.633,1.633,0,0,0,2,3.628V29.67A1.633,1.633,0,0,0,3.628,31.3H14.006L12.4,33.712a.522.522,0,0,0-.027.553.534.534,0,0,0,.477.288H23.7a.534.534,0,0,0,.477-.288.522.522,0,0,0-.027-.553L22.546,31.3H32.925a1.633,1.633,0,0,0,1.628-1.628V3.628A1.633,1.633,0,0,0,32.925,2ZM22.687,33.467H13.865l1.449-2.17h5.925Zm10.78-3.8a.543.543,0,0,1-.543.543H3.628a.543.543,0,0,1-.543-.543V28.042H33.467Zm0-2.713H3.085V3.628a.543.543,0,0,1,.543-.543h29.3a.543.543,0,0,1,.543.543Z" transform="translate(-2 -2)"/><path class="a" d="M20.255,8.543a.543.543,0,0,1-.543.543H18.085v1.628a.543.543,0,0,1-1.085,0V8.543A.543.543,0,0,1,17.543,8h2.17A.543.543,0,0,1,20.255,8.543Z" transform="translate(-8.862 -4.745)"/><path class="a" d="M35.442,8H23.506a.543.543,0,0,0-.543.543V14a6.51,6.51,0,1,0,7.026,7.026h5.453a.543.543,0,0,0,.543-.543V8.543A.543.543,0,0,0,35.442,8ZM23.506,25.9a5.425,5.425,0,0,1-.543-10.824v5.4a.543.543,0,0,0,.543.543h5.4A5.429,5.429,0,0,1,23.506,25.9Zm.543-5.968V15.08A5.432,5.432,0,0,1,28.9,19.936Zm10.851,0H29.99A6.51,6.51,0,0,0,24.049,14V9.085H34.9Z" transform="translate(-8.858 -4.745)"/></svg>