<svg id="_22_Icons_Filled_Star_Copy" data-name="22) Icons/Filled/Star Copy" xmlns="http://www.w3.org/2000/svg" width="20.586" height="20.591" viewBox="0 0 20.586 20.591">
  <path id="Shape" d="M10.339,20.591a10.166,10.166,0,0,1-4.045-.836,1.276,1.276,0,0,0-.5-.1,1.3,1.3,0,0,0-.154.009l-4.385.883h-.23a1.019,1.019,0,0,1-1-1.232l.9-4.341a1.1,1.1,0,0,0-.093-.657A10.257,10.257,0,0,1,10.242,0a10.171,10.171,0,0,1,7.271,3.029l.051.021a10.263,10.263,0,0,1-7.225,17.542ZM5.813,17.58a3.321,3.321,0,0,1,1.281.266,8.2,8.2,0,0,0,11.27-6.238,8.236,8.236,0,0,0-2.292-7.135A8.2,8.2,0,0,0,2.719,13.465a3.163,3.163,0,0,1,.214,1.858l-.584,2.893,2.89-.585A3.522,3.522,0,0,1,5.813,17.58Zm8.555-6.27a1.026,1.026,0,1,1,1.025-1.026A1.026,1.026,0,0,1,14.367,11.31Zm-4.1,0a1.026,1.026,0,1,1,1.025-1.026A1.027,1.027,0,0,1,10.27,11.31Zm-4.1,0A1.026,1.026,0,1,1,7.2,10.284,1.027,1.027,0,0,1,6.172,11.31Z" transform="translate(0 0)" fill="#10a3ff"/>
</svg>
