<svg id="_22_Icons_Filled_Star_Copy" data-name="22) Icons/Filled/Star Copy" xmlns="http://www.w3.org/2000/svg" width="20.591" height="20.592" viewBox="0 0 20.591 20.592">
  <path id="Shape" d="M14.878,20.592c-3.061,0-6.861-1.9-9.918-4.96A17.484,17.484,0,0,1,.342,8.114c-.7-2.6-.32-4.787,1.061-6.169C1.94,1.4,2.1,1.239,2.6.751A2.753,2.753,0,0,1,4.525,0,2.654,2.654,0,0,1,6.409.751a32.922,32.922,0,0,1,2.835,3.63c.535.592.494,1.314-.122,2.145a5.626,5.626,0,0,1-.448.524c-.085.088-.151.155-.288.293l-.78.781L7.6,8.132a.05.05,0,0,0-.01.036A7.737,7.737,0,0,0,9.57,11.019,7.72,7.72,0,0,0,12.418,13a.051.051,0,0,0,.036-.01l.789-.789a5.9,5.9,0,0,1,.981-.852,1.979,1.979,0,0,1,1.072-.369,1.331,1.331,0,0,1,.906.362,30.74,30.74,0,0,1,3.638,2.847,2.779,2.779,0,0,1,.006,3.79c-.315.332-.72.738-1.2,1.2A5.178,5.178,0,0,1,14.878,20.592ZM4.515,2.063a.708.708,0,0,0-.473.154c-.5.5-.668.661-1.178,1.179-.9.9-1.054,2.575-.416,4.59a15.925,15.925,0,0,0,3.966,6.19c2.643,2.645,5.959,4.354,8.449,4.354a3.221,3.221,0,0,0,2.34-.816c.469-.453.856-.839,1.15-1.15a.732.732,0,0,0,.006-.946,28.833,28.833,0,0,0-3.14-2.447,7.1,7.1,0,0,0-.52.488l-.789.789a1.923,1.923,0,0,1-1.409.576c-1.185,0-2.743-.906-4.386-2.55C5.647,10,4.929,7.891,6.143,6.676l.789-.789c.126-.126.184-.187.253-.258.1-.1.174-.188.234-.263a30.753,30.753,0,0,0-2.454-3.15.642.642,0,0,0-.449-.153Z" transform="translate(0 0)" fill="#10a3ff"/>
</svg>
