<svg id="Component_26_1" data-name="Component 26 – 1" xmlns="http://www.w3.org/2000/svg" width="113" height="113" viewBox="0 0 113 113">
  <rect id="Rectangle_1439" data-name="Rectangle 1439" width="113" height="113" rx="10" fill="#ebfaff"/>
  <g id="reading-book" transform="translate(35.326 29)">
    <path id="Path_14383" data-name="Path 14383" d="M147.193,185.857H120.782a1.626,1.626,0,0,1-1.626-1.626v-6.5a1.627,1.627,0,0,1,.388-1.054,18.965,18.965,0,0,1,28.886,0,1.626,1.626,0,0,1,.388,1.054v6.5A1.626,1.626,0,0,1,147.193,185.857Z" transform="translate(-110.685 -151.575)" fill="#ff5e82"/>
    <path id="Path_14384" data-name="Path 14384" d="M269.206,185.857a1.626,1.626,0,0,0,1.626-1.626v-6.5a1.627,1.627,0,0,0-.388-1.054A18.947,18.947,0,0,0,256,170v15.857Z" transform="translate(-232.698 -151.575)" fill="#b7457d"/>
    <path id="Path_14385" data-name="Path 14385" d="M99.967,244.513a1.625,1.625,0,0,1-.571-.1l-17.341-6.5A1.626,1.626,0,0,1,81,236.385v-22.76a1.626,1.626,0,0,1,2.2-1.522l16.77,6.289,16.77-6.289a1.626,1.626,0,0,1,2.2,1.522v22.76a1.626,1.626,0,0,1-1.055,1.522l-17.341,6.5A1.625,1.625,0,0,1,99.967,244.513Z" transform="translate(-76.665 -189.022)" fill="#a4e9ff"/>
    <g id="Group_9472" data-name="Group 9472" transform="translate(23.302 22.977)">
      <path id="Path_14386" data-name="Path 14386" d="M273.912,237.907a1.626,1.626,0,0,0,1.055-1.522v-22.76a1.626,1.626,0,0,0-2.2-1.522L256,218.391v26.122a1.625,1.625,0,0,0,.571-.1Z" transform="translate(-256 -211.999)" fill="#91bbff"/>
    </g>
    <path id="Path_14387" data-name="Path 14387" d="M166.838,21.676a10.838,10.838,0,1,1,10.838-10.838A10.85,10.85,0,0,1,166.838,21.676Z" transform="translate(-143.536)" fill="#ffd6aa"/>
    <path id="Path_14388" data-name="Path 14388" d="M266.838,10.838A10.85,10.85,0,0,0,256,0V21.676A10.85,10.85,0,0,0,266.838,10.838Z" transform="translate(-232.698)" fill="#fac68f"/>
    <g id="Group_9474" data-name="Group 9474" transform="translate(0 31.972)">
      <g id="Group_9473" data-name="Group 9473">
        <path id="Path_14389" data-name="Path 14389" d="M399.522,304.212H397.9a1.9,1.9,0,0,1-1.9-1.9V296.9a1.9,1.9,0,0,1,1.9-1.9h1.626a4.606,4.606,0,0,1,0,9.212Z" transform="translate(-357.525 -295)" fill="#fac68f"/>
        <path id="Path_14390" data-name="Path 14390" d="M47.232,304.212H45.606a4.606,4.606,0,1,1,0-9.212h1.626a1.9,1.9,0,0,1,1.9,1.9v5.419A1.9,1.9,0,0,1,47.232,304.212Z" transform="translate(-41 -295)" fill="#ffd6aa"/>
      </g>
    </g>
  </g>
</svg>
