<svg id="Component_29_1" data-name="Component 29 – 1" xmlns="http://www.w3.org/2000/svg" width="113" height="113" viewBox="0 0 113 113">
  <rect id="Rectangle_1438" data-name="Rectangle 1438" width="113" height="113" rx="10" fill="#ebfaff"/>
  <g id="like" transform="translate(28.956 29)">
    <path id="Path_14371" data-name="Path 14371" d="M9.67,240.928v23.936H.893A.893.893,0,0,1,0,263.971v-22.15a.893.893,0,0,1,.893-.893Z" transform="translate(0 -217.391)" fill="#009af2"/>
    <rect id="Rectangle_1474" data-name="Rectangle 1474" width="6.139" height="23.936" transform="translate(3.53 23.537)" fill="#006fd3"/>
    <path id="Path_14372" data-name="Path 14372" d="M148.7,44.862v2.12a3.055,3.055,0,0,1-3.055,3.055h-1.736a2.834,2.834,0,0,1,2.631,2.824v2.368a2.835,2.835,0,0,1-2.835,2.835h-2.43a2.558,2.558,0,0,1,2.559,2.559v2.041a2.559,2.559,0,0,1-2.559,2.559h-2.354a2.56,2.56,0,0,1,2.559,2.561v1.524a2.56,2.56,0,0,1-2.559,2.559H104.539V47.121a37.467,37.467,0,0,0,9.718-1.092c8.185-2.21,9.889-7.391,9.889-11.936V25.728a1.967,1.967,0,0,1,1.967-1.968,6.339,6.339,0,0,1,6.341,6.339v8.194a3.511,3.511,0,0,0,3.511,3.511h9.678A3.057,3.057,0,0,1,148.7,44.862Z" transform="translate(-93.209 -23.76)" fill="#ffc197"/>
    <path id="Path_14373" data-name="Path 14373" d="M113.585,230.8a38.926,38.926,0,0,1-9.046.922v24.745h9.046Z" transform="translate(-93.209 -208.365)" fill="#ff9e5c"/>
    <path id="Path_14374" data-name="Path 14374" d="M65.94,244.143H55.448a.893.893,0,0,1-.893-.893V215.365a.893.893,0,0,1,.893-.893H65.94a.893.893,0,0,1,.893.893V243.25A.893.893,0,0,1,65.94,244.143Z" transform="translate(-48.642 -193.802)" fill="#3bc3ff"/>
    <g id="Group_9471" data-name="Group 9471" transform="translate(11.214 42.734)">
      <path id="Path_14375" data-name="Path 14375" d="M104.309,449.477a.837.837,0,0,1-.837-.837v-.282a.837.837,0,0,1,1.675,0v.282A.837.837,0,0,1,104.309,449.477Z" transform="translate(-103.472 -444.327)" fill="#d7f4f9"/>
      <path id="Path_14376" data-name="Path 14376" d="M104.309,420.015a.837.837,0,0,1-.837-.837V418.9a.837.837,0,1,1,1.675,0v.282A.837.837,0,0,1,104.309,420.015Z" transform="translate(-103.472 -418.058)" fill="#d7f4f9"/>
    </g>
  </g>
</svg>
