<svg id="Component_17_1" data-name="Component 17 – 1" xmlns="http://www.w3.org/2000/svg" width="83" height="83" viewBox="0 0 83 83">
  <rect id="Rectangle_1477" data-name="Rectangle 1477" width="83" height="83" rx="41.5" fill="#ffe4e3"/>
  <g id="lab-tool" transform="translate(22.391 23)">
    <path id="Path_14394" data-name="Path 14394" d="M29.435,30.982A.561.561,0,0,0,30,30.421v-2.11a.561.561,0,0,0-1.122,0v2.11A.561.561,0,0,0,29.435,30.982Z" transform="translate(-21.142 -20.377)" fill="#10a3ff"/>
    <path id="Path_14395" data-name="Path 14395" d="M27.581,79.842a.561.561,0,0,0-.545-.422H12.9a.56.56,0,0,0-.545.422,7.853,7.853,0,1,0,15.222,0ZM19.97,88.5a6.739,6.739,0,0,1-6.731-6.731,6.67,6.67,0,0,1,.114-1.229H26.587A6.728,6.728,0,0,1,19.97,88.5Z" transform="translate(-9.754 -55.486)" fill="#10a3ff"/>
    <path id="Path_14396" data-name="Path 14396" d="M42.172,39.687h-2.1V38.324a.561.561,0,0,0-.561-.561h-.4v-24.3h2.3a.561.561,0,0,0,.561-.561V10.981a.561.561,0,0,0-.561-.561h-2.3V8.1a.561.561,0,0,0-.561-.561H36.623a.561.561,0,0,0-.561.561V10.42H33.639V7.786a1.519,1.519,0,0,0-.081-3.037H26.827a1.519,1.519,0,1,0-.079,3.037V10.42h-.883a.561.561,0,0,0-.561.561V12.9a.561.561,0,0,0,.561.561h.883V27.946a3.446,3.446,0,0,0,6.891,0V13.465h2.423v24.3h-.4a.561.561,0,0,0-.561.561v1.362H19.5a9.771,9.771,0,0,0-.132-17.379V9.957a1.519,1.519,0,1,0-.079-3.037H10.639a1.52,1.52,0,0,0-.081,3.037v12.35a9.771,9.771,0,0,0-.132,17.379H5.311a.561.561,0,0,0-.561.561v1.923a.561.561,0,0,0,.561.561H42.172a.561.561,0,0,0,.561-.561V40.248a.561.561,0,0,0-.561-.561ZM37.184,8.656h.8v1.763h-.8ZM26.426,6.271a.4.4,0,0,1,.4-.4h6.731a.4.4,0,1,1,0,.8H26.827A.4.4,0,0,1,26.426,6.271Zm1.442,1.523h4.648V10.42H27.87Zm-1.442,3.748H40.85v.8H26.426Zm6.09,2.965H31.154a.561.561,0,0,0,0,1.122h1.364V16.67H31.154a.561.561,0,0,0,0,1.122h1.364v1.042H31.154a.561.561,0,0,0,0,1.122h1.364V21H31.154a.561.561,0,1,0,0,1.122h1.364v1.042H31.154a.561.561,0,1,0,0,1.122h1.364v3.663a2.324,2.324,0,0,1-4.648,0V13.465h4.648Zm4.667-1.042h.8v24.3h-.8Zm-.962,25.421h2.725v.8H36.222ZM10.239,8.443a.4.4,0,0,1,.4-.4h8.654a.4.4,0,0,1,0,.8H10.639A.4.4,0,0,1,10.239,8.443ZM6.311,31.032a8.678,8.678,0,0,1,5.042-7.863.561.561,0,0,0,.327-.51V9.965h6.571V11.24H16.89a.561.561,0,0,0,0,1.122h1.361V13.4H16.89a.561.561,0,0,0,0,1.122h1.361v1.042H16.89a.561.561,0,0,0,0,1.122h1.361V17.73H16.89a.561.561,0,0,0,0,1.122h1.361v1.042H16.89a.561.561,0,0,0,0,1.122h1.361V22.66a.561.561,0,0,0,.327.51A8.654,8.654,0,1,1,6.311,31.032Zm35.3,10.577H5.872v-.8H41.611Z" transform="translate(-4.75 -4.748)" fill="#10a3ff"/>
    <path id="Path_14397" data-name="Path 14397" d="M28.91,89.792a1.523,1.523,0,1,0,1.523,1.523A1.523,1.523,0,0,0,28.91,89.792Zm0,1.923a.4.4,0,1,1,.4-.4.4.4,0,0,1-.4.4Z" transform="translate(-20.131 -62.533)" fill="#10a3ff"/>
    <path id="Path_14398" data-name="Path 14398" d="M45.4,83.917a1.523,1.523,0,1,0,1.523,1.523A1.523,1.523,0,0,0,45.4,83.917Zm0,1.923a.4.4,0,1,1,.4-.4A.4.4,0,0,1,45.4,85.84Z" transform="translate(-31.334 -58.541)" fill="#10a3ff"/>
    <path id="Path_14399" data-name="Path 14399" d="M30.387,64.161a1.523,1.523,0,1,0,1.523-1.523A1.523,1.523,0,0,0,30.387,64.161Zm1.523-.4a.4.4,0,1,1-.4.4A.4.4,0,0,1,31.91,63.76Z" transform="translate(-22.17 -44.083)" fill="#10a3ff"/>
  </g>
</svg>
