<svg xmlns="http://www.w3.org/2000/svg" width="38.785" height="38.979" viewBox="0 0 38.785 38.979"><defs><style>.a{fill:#10a3ff;}</style></defs><path class="a" d="M138.525,140.955a.57.57,0,1,0-.928.662,4.464,4.464,0,1,1-1.643-1.406.57.57,0,1,0,.51-1.02,5.551,5.551,0,0,0-2.505-.591,5.611,5.611,0,1,0,4.567,2.355Z" transform="translate(-118.688 -128.061)"/><path class="a" d="M182.628,305.6a2.525,2.525,0,0,1,2.359,1.641.57.57,0,0,0,1.069-.4,3.656,3.656,0,1,0-.153,2.894.57.57,0,1,0-1.022-.507,2.515,2.515,0,1,1-2.254-3.631Z" transform="translate(-165.462 -281.308)"/><path class="a" d="M321.788,200.433a2.752,2.752,0,1,0-2.752,2.752A2.755,2.755,0,0,0,321.788,200.433Zm-2.752,1.611a1.611,1.611,0,1,1,1.611-1.611A1.613,1.613,0,0,1,319.036,202.044Z" transform="translate(-292.332 -182.65)"/><path class="a" d="M318.473,152.15a.57.57,0,0,0,0-1.141h-1.618a.57.57,0,0,0,0,1.141Z" transform="translate(-292.332 -139.527)"/><path class="a" d="M128.92,304.458a.57.57,0,1,0,0,1.141h1.324a.57.57,0,1,0,0-1.141Z" transform="translate(-118.688 -281.308)"/><path class="a" d="M290.8,290.458a.57.57,0,0,0,0,1.141h1.068a.57.57,0,1,0,0-1.141Z" transform="translate(-268.262 -268.372)"/><path class="a" d="M329.853,352.176a.57.57,0,1,0,0,1.141h1.263a.57.57,0,1,0,0-1.141Z" transform="translate(-304.343 -325.398)"/><path class="a" d="M39.668,20.206a1.716,1.716,0,0,0-1.272-.588,1.9,1.9,0,0,0-1.9.954l-1.475-.431c.009-.2.013-.408.013-.608a14.484,14.484,0,0,0-.458-3.623l1.424-.677a.57.57,0,1,0-.49-1.03l-1.267.6a14.377,14.377,0,0,0-1.811-3.544l.964-1.187A2.189,2.189,0,0,0,36.1,6.7a.57.57,0,1,0-.84.772,1.048,1.048,0,0,1-.8,1.757,1.042,1.042,0,0,1-.733-.327l-.016-.016a.57.57,0,0,0-.856.033l-1.337,1.645a1.107,1.107,0,0,0-.046,1.329,13.212,13.212,0,0,1,2.411,7.638c0,.193,0,.391-.013.587a1.1,1.1,0,0,0,.792,1.108l2.014.588a.57.57,0,0,0,.722-.451.754.754,0,0,1,.858-.615.571.571,0,0,0,.09.007.54.54,0,0,1,.565.662l-.35,2.2a.751.751,0,0,1-1.485-.227.57.57,0,0,0-.546-.652l-2.145-.067a1.108,1.108,0,0,0-1.088.778,13.235,13.235,0,0,1-1.415,3.1,1.1,1.1,0,0,0,.159,1.367L33.236,29.1a.738.738,0,0,0,1.013.027,1.084,1.084,0,0,1,1.231-.073.561.561,0,0,0,.074.051.54.54,0,0,1,.156.856L34.3,31.688a.751.751,0,0,1-1.057.107,1.007,1.007,0,0,1-.148-1.171.725.725,0,0,0,.078-.556.743.743,0,0,0-.343-.452l-1.49-.868A1.1,1.1,0,0,0,30,28.923a13.363,13.363,0,0,1-5.162,3.212,1.1,1.1,0,0,0-.747,1.139l.178,2.087a.57.57,0,0,0,.681.511.747.747,0,0,1,.88.567.727.727,0,0,1-.1.556.806.806,0,0,1-.506.355l-2.2.474a.482.482,0,0,1-.632-.51.572.572,0,0,0-.013-.12.754.754,0,0,1,.567-.89.57.57,0,0,0,.411-.745l-.713-2.027a1.1,1.1,0,0,0-1.117-.734c-.311.022-.626.033-.936.033a13.307,13.307,0,0,1-8.545-3.11,1.1,1.1,0,0,0-1.265-.107l-1.844,1.08a.57.57,0,0,0-.13.88l.289.312a1.316,1.316,0,1,1-1.931,1.789L5.191,31.543a1.316,1.316,0,0,1,1.931-1.789l.288.312A.57.57,0,0,0,8.3,30l1.251-1.8a1.1,1.1,0,0,0,.008-1.244A13.23,13.23,0,0,1,7.3,19.533a13.471,13.471,0,0,1,.093-1.573A1.1,1.1,0,0,0,6.68,16.8l-1.964-.736a.57.57,0,0,0-.753.4.754.754,0,0,1-.9.549.57.57,0,0,0-.131-.015.518.518,0,0,1-.42-.172.519.519,0,0,1-.07-.448l.524-2.216a.805.805,0,0,1,.365-.5.727.727,0,0,1,.558-.09.747.747,0,0,1,.549.892.57.57,0,0,0,.5.691l2.134.227a1.105,1.105,0,0,0,1.143-.695,13.28,13.28,0,0,1,1.473-2.75,1.1,1.1,0,0,0-.075-1.361L8.221,9A.57.57,0,0,0,7.8,8.8a.581.581,0,0,0-.427.188.747.747,0,0,1-1.045.067.727.727,0,0,1-.248-.507.806.806,0,0,1,.2-.586l1.323-1.5a.751.751,0,0,1,1.133.986.57.57,0,0,0,.112.844L10.619,9.5a1.1,1.1,0,0,0,1.335-.075,13.21,13.21,0,0,1,7.127-3.1,1.1,1.1,0,0,0,.971-.956l.265-2.081a.57.57,0,0,0-.558-.642.751.751,0,0,1,.01-1.5H21.8a.751.751,0,0,1,.01,1.5.57.57,0,0,0-.558.642l.271,2.131a1.105,1.105,0,0,0,.941.952A13.263,13.263,0,0,1,28.8,9.073a1.108,1.108,0,0,0,1.331.026l1.715-1.247A.57.57,0,0,0,31.926,7a1.066,1.066,0,0,1,.02-1.494,1.023,1.023,0,0,1,1.472.02l.181.191a.57.57,0,0,0,.828-.785l-.181-.191A2.164,2.164,0,0,0,31.139,4.7a2.2,2.2,0,0,0-.413,2.56l-1.241.9a14.409,14.409,0,0,0-2.018-1.322l.466-.948a.57.57,0,0,0-1.024-.5l-.466.949a14.365,14.365,0,0,0-3.79-1.092l-.2-1.575A1.891,1.891,0,0,0,21.8,0H19.768a1.891,1.891,0,0,0-.65,3.667l-.194,1.524a14.352,14.352,0,0,0-4.2,1.148L13.785,4.6a.57.57,0,0,0-1,.54L13.7,6.845a14.478,14.478,0,0,0-2.462,1.693L9.92,7.646A1.9,1.9,0,0,0,9.41,5.54a1.892,1.892,0,0,0-2.67.168l-1.323,1.5A1.953,1.953,0,0,0,4.939,8.63a1.859,1.859,0,0,0,.644,1.294,1.88,1.88,0,0,0,2.135.226L8.731,11.3a14.418,14.418,0,0,0-1.574,2.938l-1.574-.167A1.88,1.88,0,0,0,4.165,12.46a1.859,1.859,0,0,0-1.428.222,1.953,1.953,0,0,0-.883,1.211L1.33,16.108a1.654,1.654,0,0,0,.286,1.418,1.644,1.644,0,0,0,1.248.6,1.9,1.9,0,0,0,1.949-.815l1.438.539a14.6,14.6,0,0,0-.1,1.679q0,.435.026.867l-1.614.22a.57.57,0,0,0,.076,1.135.585.585,0,0,0,.078-.005l1.573-.214a14.35,14.35,0,0,0,.656,2.733l-.9.475a.57.57,0,1,0,.531,1.009l.79-.416A14.409,14.409,0,0,0,8.6,27.57l-.841,1.213a2.457,2.457,0,0,0-3.4,3.535l1.974,2.131a2.457,2.457,0,0,0,3.785-3.122l1.222-.716a14.394,14.394,0,0,0,3.092,1.975l-.59,1.4a.57.57,0,1,0,1.051.442l.588-1.4a14.476,14.476,0,0,0,2.4.679v.5a.57.57,0,1,0,1.141,0v-.325a14.4,14.4,0,0,0,1.575.086c.327,0,.658-.011.986-.034l.527,1.5a1.9,1.9,0,0,0-.853,1.937,1.663,1.663,0,0,0,.6,1.255,1.621,1.621,0,0,0,1.025.352,1.838,1.838,0,0,0,.387-.042l2.2-.474a1.953,1.953,0,0,0,1.229-.858,1.859,1.859,0,0,0,.251-1.423,1.88,1.88,0,0,0-1.582-1.451l-.13-1.525a14.381,14.381,0,0,0,2.776-1.29l.777,1.06a.57.57,0,0,0,.92-.674l-.741-1.011a14.471,14.471,0,0,0,1.827-1.542l1.152.671a2.131,2.131,0,0,0,.58,2.259,1.892,1.892,0,0,0,2.662-.271l1.408-1.727a1.677,1.677,0,0,0-.429-2.54,2.233,2.233,0,0,0-2.365-.089l-.93-.921a14.379,14.379,0,0,0,1.513-3.315l1.585.05a1.9,1.9,0,0,0,1.558,1.506A1.892,1.892,0,0,0,39.691,23.8l.35-2.2a1.72,1.72,0,0,0-.374-1.393Z" transform="translate(-1.28 0)"/></svg>